<?xml version="1.0" encoding="utf-8"?>
<!-- Generator: Adobe Illustrator 16.0.0, SVG Export Plug-In . SVG Version: 6.00 Build 0)  -->
<!DOCTYPE svg PUBLIC "-//W3C//DTD SVG 1.1//EN" "http://www.w3.org/Graphics/SVG/1.1/DTD/svg11.dtd">
<svg version="1.1" id="레이어_1" xmlns="http://www.w3.org/2000/svg" xmlns:xlink="http://www.w3.org/1999/xlink" x="0px"
	 y="0px" width="666px" height="617px" viewBox="-261.035 -190.783 666 617" enable-background="new -261.035 -190.783 666 617"
	 xml:space="preserve">
<g>
	<path fill="#5BB042" d="M40.856-72.614C12.261-21.168-29.989,38.219-88.628,84.599C14.1,108.025,137.365,167.012,177.817,313.413
		c33.084-21.982,66.001-47.994,96.51-78.665C275.469,63.483,122.867-33.084,40.856-72.614"/>
	<path fill="#B9C43A" d="M397.475,35.689L90.694-186.504c0,0-14.793,50.935-49.838,113.89
		c82.012,39.529,234.613,136.097,233.471,307.354C326.178,182.727,371.126,117.459,397.475,35.689"/>
	<path fill="#124626" d="M-88.628,84.599c-46.549,36.891-103.47,65.606-172.407,75.335l187.769,261.833
		c0,0,126.102-25.316,251.083-108.354C137.365,167.012,14.1,108.025-88.628,84.599"/>
	<path fill="#FFFFFF" d="M62.268,122.755c0,0-114.232-87.187-69.464-148.529c60.032-82.006,125.516-6.212,125.516-6.212
		s88.742-53.111,121.71,6.676c32.975,59.846-102.659,146.227-148.988,153.826l19.226-117.051L62.268,122.755z"/>
	<path fill="#FFFFFF" d="M63.997,162.058c0,0-45.418,138.8-124.82,141.276c-106.348,3.395-53.986-91.556-53.986-91.556
		s-87.807-35.74-39.419-96.502c48.394-60.716,187.832-9.213,213.148,21.465L-67.506,191.98L63.997,162.058z"/>
	<path fill="#FFFFFF" d="M100.533,136.457c0,0,158.489-48.452,191.284,10.361c43.909,78.722-72.62,95.691-72.62,95.691
		s-2.935,87.999-83.154,87.528c-80.232-0.464-80.916-137.078-59.335-174.652l104.335,63.014L100.533,136.457z"/>
	<path fill="#DEDFDF" d="M-72.39,421.767c0,0,239.8,17.618,363.181-40.51c0,0-44.089-10.588-100.478-17.67
		C133.907,356.51-72.39,421.767-72.39,421.767"/>
</g>
</svg>
