<?xml version="1.0" encoding="utf-8"?>
<!-- Generator: Adobe Illustrator 16.0.0, SVG Export Plug-In . SVG Version: 6.00 Build 0)  -->
<!DOCTYPE svg PUBLIC "-//W3C//DTD SVG 1.1//EN" "http://www.w3.org/Graphics/SVG/1.1/DTD/svg11.dtd">
<svg version="1.1" id="레이어_1" xmlns="http://www.w3.org/2000/svg" xmlns:xlink="http://www.w3.org/1999/xlink" x="0px"
	 y="0px" width="268.412px" height="334.754px" viewBox="0 0 268.412 334.754" enable-background="new 0 0 268.412 334.754"
	 xml:space="preserve">
<g>
	<path fill="#323232" d="M80.824-827.829c0,1.048-0.203,1.904-0.608,2.571c-0.406,0.667-0.935,1.19-1.59,1.569
		c-0.653,0.379-1.373,0.641-2.157,0.785c-0.784,0.144-1.544,0.215-2.276,0.215c-0.732,0-1.491-0.071-2.276-0.215
		c-0.784-0.144-1.504-0.406-2.158-0.785c-0.654-0.379-1.19-0.903-1.609-1.569c-0.418-0.667-0.627-1.523-0.627-2.571v-21.934
		c0-1.02,0.216-1.863,0.647-2.531c0.431-0.667,0.967-1.19,1.609-1.569c0.64-0.379,1.354-0.64,2.138-0.784
		c0.785-0.144,1.531-0.216,2.237-0.216s1.453,0.073,2.237,0.216s1.504,0.405,2.158,0.784c0.653,0.379,1.197,0.896,1.628,1.55
		c0.432,0.654,0.648,1.505,0.648,2.55V-827.829z M77.882-849.958c0-0.707-0.118-1.276-0.353-1.708c-0.236-0.431-0.53-0.765-0.884-1
		c-0.353-0.236-0.759-0.393-1.216-0.471c-0.458-0.079-0.896-0.117-1.314-0.117c-0.392,0-0.804,0.039-1.236,0.117
		c-0.432,0.079-0.824,0.235-1.177,0.471c-0.353,0.235-0.647,0.569-0.883,1c-0.235,0.431-0.353,1-0.353,1.708v22.365
		c0,0.707,0.118,1.27,0.353,1.688c0.236,0.418,0.53,0.745,0.883,0.98c0.353,0.236,0.752,0.393,1.197,0.471
		c0.444,0.079,0.863,0.117,1.255,0.117c0.418,0,0.85-0.038,1.295-0.117c0.444-0.079,0.85-0.235,1.216-0.471
		c0.366-0.236,0.66-0.563,0.883-0.98c0.222-0.418,0.334-0.981,0.334-1.688V-849.958z"/>
	<path fill="#323232" d="M97.696-827.829c0,1.048-0.203,1.904-0.608,2.571c-0.406,0.667-0.936,1.19-1.588,1.569
		c-0.655,0.379-1.374,0.641-2.159,0.785c-0.785,0.144-1.544,0.215-2.275,0.215c-0.733,0-1.491-0.071-2.276-0.215
		c-0.785-0.144-1.504-0.406-2.158-0.785c-0.653-0.379-1.19-0.903-1.608-1.569c-0.419-0.667-0.627-1.523-0.627-2.571v-21.934
		c0-1.02,0.215-1.863,0.647-2.531c0.432-0.667,0.967-1.19,1.609-1.569c0.641-0.379,1.354-0.64,2.138-0.784
		c0.785-0.144,1.53-0.216,2.237-0.216c0.706,0,1.452,0.073,2.236,0.216c0.785,0.144,1.503,0.405,2.158,0.784
		c0.654,0.379,1.197,0.896,1.628,1.55c0.432,0.654,0.647,1.505,0.647,2.55V-827.829z M94.753-849.958
		c0-0.707-0.118-1.276-0.353-1.708s-0.53-0.765-0.883-1c-0.353-0.236-0.759-0.393-1.216-0.471c-0.458-0.079-0.897-0.117-1.315-0.117
		c-0.392,0-0.804,0.039-1.235,0.117c-0.432,0.079-0.825,0.235-1.178,0.471c-0.353,0.235-0.647,0.569-0.882,1
		c-0.236,0.431-0.354,1-0.354,1.708v22.365c0,0.707,0.118,1.27,0.354,1.688c0.235,0.418,0.53,0.745,0.882,0.98
		s0.751,0.393,1.197,0.471c0.444,0.079,0.863,0.117,1.255,0.117c0.418,0,0.849-0.038,1.295-0.117
		c0.443-0.079,0.849-0.235,1.216-0.471c0.366-0.236,0.66-0.563,0.883-0.98c0.222-0.418,0.333-0.981,0.333-1.688V-849.958z"/>
	<path fill="#323232" d="M114.568-827.829c0,1.048-0.204,1.904-0.608,2.571c-0.407,0.667-0.936,1.19-1.589,1.569
		c-0.654,0.379-1.373,0.641-2.159,0.785c-0.784,0.144-1.543,0.215-2.275,0.215c-0.733,0-1.492-0.071-2.276-0.215
		c-0.785-0.144-1.503-0.406-2.158-0.785c-0.654-0.379-1.191-0.903-1.609-1.569c-0.418-0.667-0.628-1.523-0.628-2.571v-21.934
		c0-1.02,0.216-1.863,0.648-2.531c0.431-0.667,0.967-1.19,1.608-1.569c0.641-0.379,1.354-0.64,2.138-0.784s1.531-0.216,2.237-0.216
		s1.452,0.073,2.236,0.216c0.785,0.144,1.504,0.405,2.158,0.784c0.654,0.379,1.197,0.896,1.628,1.55
		c0.432,0.654,0.648,1.505,0.648,2.55V-827.829z M111.625-849.958c0-0.707-0.117-1.276-0.353-1.708
		c-0.236-0.431-0.531-0.765-0.883-1c-0.353-0.236-0.759-0.393-1.216-0.471c-0.458-0.079-0.897-0.117-1.314-0.117
		c-0.392,0-0.805,0.039-1.236,0.117c-0.431,0.079-0.824,0.235-1.177,0.471c-0.354,0.235-0.648,0.569-0.883,1s-0.353,1-0.353,1.708
		v22.365c0,0.707,0.118,1.27,0.353,1.688c0.235,0.418,0.53,0.745,0.883,0.98c0.353,0.236,0.751,0.393,1.197,0.471
		c0.444,0.079,0.863,0.117,1.255,0.117c0.417,0,0.85-0.038,1.294-0.117c0.444-0.079,0.85-0.235,1.216-0.471
		c0.367-0.236,0.66-0.563,0.883-0.98c0.222-0.418,0.333-0.981,0.333-1.688V-849.958z"/>
	<path fill="#323232" d="M119.159-839.993h13.223v1.649h-13.223V-839.993z"/>
	<path fill="#323232" d="M150.274-827.829c0,1.048-0.203,1.904-0.608,2.571c-0.406,0.667-0.936,1.19-1.589,1.569
		c-0.654,0.379-1.373,0.641-2.159,0.785c-0.785,0.144-1.543,0.215-2.275,0.215c-0.733,0-1.492-0.071-2.276-0.215
		c-0.785-0.144-1.504-0.406-2.158-0.785c-0.654-0.379-1.19-0.903-1.609-1.569c-0.418-0.667-0.628-1.523-0.628-2.571v-21.934
		c0-1.02,0.216-1.863,0.648-2.531c0.431-0.667,0.967-1.19,1.608-1.569c0.641-0.379,1.353-0.64,2.138-0.784
		c0.784-0.144,1.531-0.216,2.237-0.216c0.706,0,1.452,0.073,2.236,0.216c0.785,0.144,1.504,0.405,2.158,0.784
		c0.653,0.379,1.197,0.896,1.628,1.55c0.431,0.654,0.647,1.505,0.647,2.55V-827.829z M147.331-849.958
		c0-0.707-0.117-1.276-0.353-1.708c-0.235-0.431-0.53-0.765-0.883-1c-0.353-0.236-0.759-0.393-1.217-0.471
		c-0.458-0.079-0.896-0.117-1.314-0.117c-0.393,0-0.805,0.039-1.236,0.117s-0.824,0.235-1.177,0.471
		c-0.353,0.235-0.648,0.569-0.883,1s-0.353,1-0.353,1.708v22.365c0,0.707,0.118,1.27,0.353,1.688c0.235,0.418,0.53,0.745,0.883,0.98
		s0.751,0.393,1.197,0.471c0.444,0.079,0.863,0.117,1.255,0.117c0.418,0,0.849-0.038,1.295-0.117
		c0.444-0.079,0.85-0.235,1.216-0.471c0.366-0.236,0.66-0.563,0.883-0.98c0.222-0.418,0.333-0.981,0.333-1.688V-849.958z"/>
	<path fill="#323232" d="M167.146-827.829c0,1.048-0.203,1.904-0.608,2.571c-0.406,0.667-0.935,1.19-1.589,1.569
		c-0.654,0.379-1.374,0.641-2.158,0.785c-0.785,0.144-1.544,0.215-2.276,0.215c-0.733,0-1.491-0.071-2.276-0.215
		c-0.784-0.144-1.504-0.406-2.158-0.785c-0.654-0.379-1.191-0.903-1.609-1.569c-0.419-0.667-0.628-1.523-0.628-2.571v-21.934
		c0-1.02,0.216-1.863,0.647-2.531c0.432-0.667,0.968-1.19,1.609-1.569c0.64-0.379,1.354-0.64,2.138-0.784
		c0.785-0.144,1.531-0.216,2.236-0.216c0.707,0,1.453,0.073,2.237,0.216c0.784,0.144,1.503,0.405,2.158,0.784
		c0.653,0.379,1.197,0.896,1.628,1.55c0.431,0.654,0.647,1.505,0.647,2.55V-827.829z M164.202-849.958
		c0-0.707-0.117-1.276-0.353-1.708c-0.235-0.431-0.53-0.765-0.883-1c-0.353-0.236-0.759-0.393-1.216-0.471s-0.896-0.117-1.314-0.117
		c-0.392,0-0.805,0.039-1.236,0.117s-0.824,0.235-1.177,0.471c-0.353,0.235-0.647,0.569-0.883,1s-0.353,1-0.353,1.708v22.365
		c0,0.707,0.118,1.27,0.353,1.688c0.235,0.418,0.53,0.745,0.883,0.98c0.353,0.236,0.751,0.393,1.197,0.471
		c0.444,0.079,0.863,0.117,1.255,0.117c0.418,0,0.85-0.038,1.295-0.117c0.444-0.079,0.849-0.235,1.216-0.471
		c0.366-0.236,0.66-0.563,0.883-0.98c0.222-0.418,0.333-0.981,0.333-1.688V-849.958z"/>
	<path fill="#323232" d="M184.017-827.829c0,1.048-0.203,1.904-0.607,2.571c-0.406,0.667-0.936,1.19-1.589,1.569
		c-0.654,0.379-1.374,0.641-2.158,0.785c-0.785,0.144-1.544,0.215-2.276,0.215c-0.732,0-1.491-0.071-2.276-0.215
		c-0.785-0.144-1.504-0.406-2.158-0.785c-0.654-0.379-1.19-0.903-1.608-1.569c-0.419-0.667-0.628-1.523-0.628-2.571v-21.934
		c0-1.02,0.215-1.863,0.647-2.531c0.431-0.667,0.967-1.19,1.609-1.569c0.641-0.379,1.354-0.64,2.138-0.784s1.53-0.216,2.236-0.216
		c0.707,0,1.452,0.073,2.237,0.216c0.784,0.144,1.504,0.405,2.158,0.784c0.654,0.379,1.197,0.896,1.628,1.55
		c0.432,0.654,0.647,1.505,0.647,2.55V-827.829z M181.074-849.958c0-0.707-0.117-1.276-0.353-1.708c-0.235-0.431-0.53-0.765-0.882-1
		c-0.353-0.236-0.759-0.393-1.217-0.471c-0.457-0.079-0.896-0.117-1.314-0.117c-0.393,0-0.805,0.039-1.236,0.117
		c-0.432,0.079-0.825,0.235-1.178,0.471c-0.353,0.235-0.647,0.569-0.883,1c-0.234,0.431-0.353,1-0.353,1.708v22.365
		c0,0.707,0.119,1.27,0.353,1.688c0.235,0.418,0.53,0.745,0.883,0.98s0.751,0.393,1.197,0.471c0.444,0.079,0.863,0.117,1.255,0.117
		c0.418,0,0.85-0.038,1.295-0.117c0.445-0.079,0.85-0.235,1.217-0.471c0.365-0.236,0.66-0.563,0.883-0.98
		c0.222-0.418,0.333-0.981,0.333-1.688V-849.958z"/>
	<path fill="#323232" d="M200.889-827.829c0,1.048-0.203,1.904-0.608,2.571c-0.406,0.667-0.936,1.19-1.589,1.569
		c-0.654,0.379-1.373,0.641-2.159,0.785c-0.784,0.144-1.543,0.215-2.275,0.215c-0.732,0-1.491-0.071-2.276-0.215
		c-0.785-0.144-1.504-0.406-2.158-0.785c-0.654-0.379-1.19-0.903-1.609-1.569c-0.418-0.667-0.627-1.523-0.627-2.571v-21.934
		c0-1.02,0.216-1.863,0.647-2.531c0.432-0.667,0.968-1.19,1.609-1.569c0.64-0.379,1.353-0.64,2.138-0.784
		c0.785-0.144,1.531-0.216,2.237-0.216s1.452,0.073,2.236,0.216c0.785,0.144,1.505,0.405,2.158,0.784
		c0.654,0.379,1.197,0.896,1.628,1.55c0.432,0.654,0.647,1.505,0.647,2.55V-827.829z M197.947-849.958
		c0-0.707-0.118-1.276-0.353-1.708c-0.236-0.431-0.53-0.765-0.883-1c-0.353-0.236-0.759-0.393-1.216-0.471
		c-0.458-0.079-0.897-0.117-1.315-0.117c-0.392,0-0.804,0.039-1.236,0.117s-0.824,0.235-1.177,0.471
		c-0.354,0.235-0.648,0.569-0.884,1c-0.235,0.431-0.353,1-0.353,1.708v22.365c0,0.707,0.118,1.27,0.353,1.688
		c0.236,0.418,0.53,0.745,0.884,0.98c0.353,0.236,0.751,0.393,1.196,0.471c0.445,0.079,0.864,0.117,1.256,0.117
		c0.417,0,0.85-0.038,1.294-0.117c0.444-0.079,0.85-0.235,1.216-0.471c0.367-0.236,0.661-0.563,0.883-0.98
		c0.222-0.418,0.334-0.981,0.334-1.688V-849.958z"/>
</g>
<g>
	<g>
		<path fill="#323232" d="M37.03,192.851c-2.449,0-4.703-0.728-6.706-2.183c-1.992-1.457-3.584-3.467-4.719-6.006
			c-1.137-2.524-1.705-5.345-1.705-8.426c0-3.036,0.596-5.836,1.75-8.312c1.164-2.469,2.775-4.448,4.795-5.881
			c3.539-2.512,8.073-2.969,12.235-0.683c1.76,0.967,3.297,2.3,4.553,3.96c0.457,0.6,0.484,1.522,0.066,2.169l-3.287,5.063
			c-0.27,0.395-0.662,0.646-1.08,0.646h-0.009c-0.418-0.012-0.819-0.252-1.071-0.671c-0.623-0.978-1.332-1.739-2.188-2.31
			c-1.732-1.184-3.473-1.011-4.805,0.035c-0.745,0.58-1.313,1.34-1.741,2.378c-0.437,1.033-0.671,2.228-0.671,3.525
			c0,1.342,0.224,2.524,0.671,3.604c0.428,1.022,1.005,1.819,1.769,2.422c1.304,1.035,2.896,1.216,4.739,0.114
			c0.856-0.512,1.63-1.229,2.29-2.117c0.262-0.352,0.633-0.545,1.016-0.545h0.01c0.391,0,0.754,0.205,1.015,0.558l3.324,4.562
			c0.465,0.647,0.457,1.613-0.018,2.239c-1.323,1.761-2.914,3.185-4.703,4.241C40.726,192.305,38.874,192.851,37.03,192.851z"/>
	</g>
</g>
<g>
	<g>
		<path fill="#323232" d="M60.698,192.851c-2.484,0-4.776-0.728-6.825-2.16c-2.057-1.455-3.687-3.469-4.851-5.994
			c-1.174-2.513-1.76-5.344-1.76-8.415c0-3.069,0.586-5.89,1.76-8.369c1.172-2.489,2.802-4.469,4.833-5.903
			c4.068-2.832,9.608-2.832,13.706,0.035c2.058,1.433,3.678,3.412,4.842,5.902c1.172,2.469,1.76,5.287,1.76,8.335
			c0,3.082-0.587,5.927-1.751,8.415c-1.164,2.525-2.793,4.539-4.842,5.994C65.512,192.123,63.194,192.851,60.698,192.851z
			 M60.764,169.402c-0.875,0-1.658,0.284-2.412,0.863c-0.773,0.604-1.377,1.399-1.844,2.469c-0.465,1.081-0.697,2.252-0.697,3.593
			c0,1.33,0.232,2.524,0.708,3.628c0.457,1.081,1.061,1.889,1.843,2.489c1.5,1.173,3.315,1.173,4.768,0.012
			c0.754-0.603,1.331-1.408,1.787-2.48c0.457-1.1,0.68-2.295,0.68-3.648s-0.223-2.536-0.68-3.615
			c-0.447-1.047-1.033-1.854-1.779-2.457C62.412,169.687,61.629,169.402,60.764,169.402z"/>
	</g>
</g>
<g>
	<g>
		<path fill="#323232" d="M87.319,192.851c-2.327,0-4.376-0.591-6.108-1.738c-1.788-1.163-3.175-2.854-4.153-5.017
			c-0.94-2.138-1.425-4.641-1.425-7.438v-16.862c0-0.923,0.614-1.673,1.369-1.673h5.68c0.755,0,1.369,0.75,1.369,1.673v16.862
			c0,1.514,0.298,2.65,0.932,3.479c1.191,1.593,3.473,1.615,4.609,0.046c0.596-0.829,0.893-1.979,0.893-3.525v-16.862
			c0-0.923,0.615-1.673,1.369-1.673h5.661c0.754,0,1.359,0.75,1.359,1.673v16.862c0,2.797-0.475,5.3-1.415,7.426
			c-0.941,2.149-2.319,3.845-4.088,5.028C91.649,192.26,89.61,192.851,87.319,192.851z"/>
	</g>
</g>
<g>
	<g>
		<path fill="#323232" d="M108.512,192.521h-5.689c-0.754,0-1.368-0.75-1.368-1.673v-29.053c0-0.923,0.614-1.673,1.368-1.673h9.749
			c3.185,0,5.727,1.034,7.561,3.081c1.862,2.07,2.822,5.016,2.822,8.722c0,3.855-0.941,6.926-2.794,9.122
			c-1.833,2.205-4.386,3.309-7.589,3.309h-2.691v6.492C109.881,191.771,109.266,192.521,108.512,192.521z M109.881,175.203h2.403
			c0.903,0,1.536-0.252,1.955-0.741c0.391-0.466,0.586-1.229,0.586-2.295c0-1.025-0.176-1.73-0.577-2.174
			c-0.42-0.467-1.081-0.705-1.965-0.705h-2.403V175.203z"/>
	</g>
</g>
<g>
	<g>
		<path fill="#323232" d="M137.135,192.851c-2.486,0-4.776-0.728-6.825-2.16c-2.049-1.455-3.688-3.469-4.852-5.994
			c-1.173-2.513-1.76-5.344-1.76-8.415c0-3.069,0.587-5.89,1.77-8.369c1.164-2.489,2.793-4.469,4.832-5.903
			c4.069-2.832,9.6-2.832,13.697,0.035c2.058,1.433,3.688,3.412,4.852,5.902c1.164,2.469,1.759,5.287,1.759,8.335
			c0,3.082-0.596,5.927-1.759,8.415c-1.165,2.525-2.794,4.539-4.842,5.994C141.95,192.123,139.64,192.851,137.135,192.851z
			 M137.2,169.402c-0.875,0-1.657,0.284-2.411,0.863c-0.773,0.604-1.369,1.399-1.844,2.469c-0.466,1.081-0.699,2.252-0.699,3.593
			c0,1.33,0.232,2.524,0.708,3.628c0.466,1.081,1.071,1.889,1.844,2.489c1.5,1.173,3.316,1.173,4.768,0.012
			c0.754-0.603,1.341-1.408,1.788-2.48c0.457-1.1,0.68-2.295,0.68-3.648s-0.223-2.536-0.68-3.615
			c-0.446-1.047-1.034-1.854-1.778-2.457C138.849,169.687,138.076,169.402,137.2,169.402z"/>
	</g>
</g>
<g>
	<g>
		<path fill="#323232" d="M174.464,192.521h-5.009c-0.438,0-0.866-0.272-1.118-0.707l-7.803-13.577v12.611
			c0,0.923-0.614,1.673-1.368,1.673h-5.335c-0.754,0-1.359-0.75-1.359-1.673v-29.053c0-0.923,0.605-1.673,1.359-1.673h5.028
			c0.447,0,0.867,0.261,1.117,0.717l7.822,13.6v-12.644c0-0.923,0.614-1.673,1.368-1.673h5.299c0.754,0,1.369,0.75,1.369,1.673
			v29.053C175.833,191.771,175.219,192.521,174.464,192.521z"/>
	</g>
</g>
<g>
	<g>
		<path fill="#323232" d="M78.813,127.091c-8.592,0-15.576-7.027-15.576-15.661c0-8.646,6.984-15.678,15.576-15.678l3.936-0.043
			c3.183,0,11.639,0,11.639,10.099C94.388,114.183,87.701,127.091,78.813,127.091z M82.749,105.638l-3.936,0.039
			c-4.394,0-7.448,3.032-7.448,5.753c0,2.71,3.054,5.735,7.448,5.735c3.464,0,7.367-7.256,7.447-11.232
			C85.777,105.785,84.774,105.638,82.749,105.638z"/>
	</g>
	<g>
		<path fill="#323232" d="M126.366,114.609c-24.653,8.722-33.927-8.411-34.307-9.147c-0.869-1.663-0.912-3.642-0.107-5.102
			c0.797-1.478,2.292-2.173,3.886-1.803l29.155,6.601c1.92,0.426,3.504,2.315,3.825,4.557
			C129.15,111.967,128.13,113.984,126.366,114.609z"/>
	</g>
	<g>
		<path fill="#323232" d="M82.749,98.459L82.749,98.459l-3.936-0.043c-8.592,0-15.576-7.025-15.576-15.678
			c0-8.636,6.984-15.661,15.576-15.661c8.887,0,15.575,12.908,15.575,21.291c0,4.157-1.628,7.304-4.588,8.857
			C87.849,98.252,85.568,98.459,82.749,98.459z M78.813,77.004c-4.394,0-7.448,3.024-7.448,5.734c0,2.721,3.054,5.753,7.448,5.753
			l3.936,0.042l0,0c1.992,0,2.987-0.143,3.478-0.29C85.998,83.923,82.197,77.004,78.813,77.004z"/>
	</g>
	<g>
		<path fill="#323232" d="M94.303,98.317c-0.811-0.241-1.532-0.796-2.024-1.611c-0.875-1.419-0.927-3.399-0.142-5.104
			c0.345-0.753,8.77-18.325,33.821-10.819c1.792,0.536,2.908,2.507,2.688,4.767c-0.211,2.252-1.7,4.219-3.593,4.749l-28.797,8.021
			C95.581,98.509,94.915,98.501,94.303,98.317z"/>
	</g>
</g>
<g>
	<g>
		<path fill="#323232" d="M1277.129,401.36l-86.693-83.354c-3.504-3.367-3.613-8.957-0.248-12.457l34.467-35.844
			c3.367-3.506,8.951-3.61,12.457-0.244l86.691,83.354c3.506,3.367,3.615,8.952,0.248,12.457l-34.465,35.845
			C1286.223,404.617,1280.629,404.728,1277.129,401.36z M1233.186,273.55c-1.254-1.207-3.246-1.169-4.449,0.081l-34.465,35.849
			c-1.203,1.25-1.164,3.243,0.09,4.449l86.691,83.35c1.25,1.201,3.254,1.173,4.455-0.082l34.465-35.844
			c1.203-1.25,1.154-3.253-0.094-4.454L1233.186,273.55z"/>
	</g>
</g>
<g>
	<g>
		<path fill="#323232" d="M1566.787,316.91H1374.18c-3.439,0-6.23-2.79-6.23-6.229V163.369c0-3.438,2.791-6.229,6.23-6.229h223.725
			c3.439,0,6.23,2.791,6.23,6.229v139.759c0,3.44-2.791,6.231-6.23,6.231s-6.229-2.791-6.229-6.231V169.6h-211.266V304.45h186.378
			c3.439,0,6.23,2.791,6.23,6.231C1573.018,314.12,1570.227,316.91,1566.787,316.91z"/>
	</g>
</g>
<g>
	<g>
		<path fill="#323232" d="M453.93-514.861c-0.802,0-1.604-0.188-2.347-0.577l-23.453-12.328l-23.446,12.328
			c-1.703,0.888-3.761,0.75-5.319-0.389c-1.558-1.132-2.334-3.043-2.005-4.938l4.484-26.108l-18.975-18.497
			c-1.375-1.341-1.867-3.345-1.276-5.173c0.592-1.829,2.177-3.163,4.078-3.438l26.207-3.808l11.731-23.755
			c1.695-3.445,7.356-3.445,9.053,0l11.723,23.755l26.221,3.808c1.901,0.275,3.486,1.61,4.077,3.438
			c0.591,1.828,0.098,3.832-1.275,5.173l-18.976,18.497l4.484,26.108c0.322,1.895-0.46,3.814-2.011,4.938
			C456.021-515.183,454.982-514.861,453.93-514.861z M428.13-538.522c0.815,0,1.618,0.189,2.354,0.577l16.74,8.805l-3.195-18.64
			c-0.276-1.637,0.263-3.309,1.459-4.472l13.544-13.209l-18.725-2.716c-1.644-0.236-3.064-1.268-3.801-2.761L428.13-587.9
			l-8.37,16.962c-0.729,1.493-2.156,2.524-3.801,2.761l-18.718,2.716l13.545,13.209c1.197,1.163,1.735,2.835,1.459,4.472
			l-3.202,18.64l16.738-8.805C426.519-538.333,427.328-538.522,428.13-538.522z"/>
	</g>
</g>
<g>
	<g>
		<path fill="#323232" d="M1313.545,169.601h-26.947c-3.439,0-6.229-2.791-6.229-6.229c0-3.44,2.789-6.231,6.229-6.231h26.947
			c3.439,0,6.23,2.791,6.23,6.231C1319.775,166.81,1316.984,169.601,1313.545,169.601z"/>
	</g>
</g>
<g>
	<g>
		<path fill="#323232" d="M353.596-611.55h-26.947c-3.439,0-6.229-2.791-6.229-6.229c0-3.44,2.79-6.231,6.229-6.231h26.947
			c3.439,0,6.23,2.791,6.23,6.231C359.827-614.341,357.036-611.55,353.596-611.55z"/>
	</g>
</g>
<g>
	<path fill="none" stroke="#323333" stroke-width="3" stroke-miterlimit="10" d="M216.622-911.166c0,4.791-3.884,8.675-8.675,8.675
		H60.467c-4.792,0-8.676-3.884-8.676-8.675v-50.316v-72.295c0-4.791,3.884-8.675,8.676-8.675h147.479
		c4.792,0,8.675,3.885,8.675,8.675V-911.166z"/>
	
		<polyline fill="none" stroke="#323333" stroke-width="3" stroke-linecap="round" stroke-linejoin="round" stroke-miterlimit="10" points="
		51.791,-949.79 77.354,-978.708 116.738,-941.987 	"/>
	
		<polyline fill="none" stroke="#323333" stroke-width="3" stroke-linecap="round" stroke-linejoin="round" stroke-miterlimit="10" points="
		102.638,-955.133 123.868,-974.536 201.832,-902.491 	"/>
	
		<circle fill="none" stroke="#323333" stroke-width="3" stroke-linecap="round" stroke-linejoin="round" stroke-miterlimit="10" cx="173.907" cy="-1007.798" r="22.773"/>
</g>
<line fill="none" stroke="#323232" stroke-width="3" stroke-linecap="round" stroke-miterlimit="10" x1="450.912" y1="-879.863" x2="537.822" y2="-879.863"/>
<line fill="none" stroke="#323232" stroke-width="3" stroke-linecap="round" stroke-miterlimit="10" x1="405.136" y1="-864.168" x2="537.822" y2="-864.168"/>
<line fill="none" stroke="#323232" stroke-width="3" stroke-linecap="round" stroke-miterlimit="10" x1="349.912" y1="-847.689" x2="537.822" y2="-847.689"/>
<line fill="none" stroke="#323232" stroke-width="6" stroke-linecap="round" stroke-miterlimit="10" x1="610.653" y1="-1029.91" x2="610.653" y2="-793.932"/>
<line fill="none" stroke="#323232" stroke-width="6" stroke-linecap="round" stroke-miterlimit="10" x1="809.76" y1="-1019.41" x2="610.653" y2="-1019.41"/>
<line fill="none" stroke="#323232" stroke-width="6" stroke-linecap="round" stroke-miterlimit="10" x1="809.76" y1="-938.513" x2="610.653" y2="-938.513"/>
<line fill="none" stroke="#323232" stroke-width="6" stroke-linecap="round" stroke-miterlimit="10" x1="809.76" y1="-1029.91" x2="809.76" y2="-793.932"/>
<g>
	<path fill="none" stroke="#323333" stroke-width="6" stroke-miterlimit="10" d="M554.412-833.734c0,6.759-5.479,12.24-12.241,12.24
		H314.103c-6.76,0-12.241-5.48-12.241-12.24v-70.987v-67.793c0-6.759,5.48-12.24,12.241-12.24h228.069
		c6.761,0,12.241,5.48,12.241,12.24V-833.734z"/>
</g>
<g>
	<path fill="none" stroke="#323333" stroke-width="6" stroke-miterlimit="10" d="M554.412-490.104
		c0,6.759-5.479,12.239-12.241,12.239H314.103c-6.76,0-12.241-5.48-12.241-12.239v-70.987v-67.793c0-6.759,5.48-12.24,12.241-12.24
		h228.069c6.761,0,12.241,5.48,12.241,12.24V-490.104z"/>
</g>
<g>
	<path fill="none" stroke="#323333" stroke-width="6" stroke-miterlimit="10" d="M262.243,247.841
		c0,6.759-5.479,12.239-12.241,12.239H21.934c-6.76,0-12.241-5.48-12.241-12.239v-70.987v-67.793c0-6.76,5.48-12.24,12.241-12.24
		h228.069c6.761,0,12.241,5.48,12.241,12.24V247.841z"/>
</g>
<g>
	<path fill="none" stroke="#323333" stroke-width="3" stroke-miterlimit="10" d="M389.526-908.232c0,6.759-5.479,12.24-12.241,12.24
		h-43.968c-6.76,0-12.241-5.48-12.241-12.24v-24.372v-21.71c0-6.759,5.48-12.24,12.241-12.24h43.968
		c6.761,0,12.241,5.48,12.241,12.24V-908.232z"/>
</g>
<circle fill="none" stroke="#323333" stroke-miterlimit="10" cx="479.35" cy="-912.31" r="9.217"/>
<circle fill="none" stroke="#323333" stroke-miterlimit="10" cx="501.3" cy="-912.31" r="9.217"/>
<circle fill="none" stroke="#323333" stroke-miterlimit="10" cx="522.274" cy="-912.31" r="9.217"/>
<path fill="none" stroke="#323232" stroke-width="6" stroke-miterlimit="10" d="M233.759-799.257c0,1.657-1.343,3-3,3H37.653
	c-1.657,0-3-1.343-3-3v-258.675c0-1.657,1.343-3,3-3h193.106c1.657,0,3,1.343,3,3V-799.257z"/>
<path fill="#BAE3F9" stroke="#323232" stroke-width="6" stroke-miterlimit="10" d="M227.996-473.72
	c-0.117,1.385-1.334,2.414-2.72,2.297L63.788-485.011c-1.386-0.117-2.415-1.334-2.298-2.719l18.202-216.323
	c0.117-1.386,1.334-2.414,2.72-2.298L243.9-692.761c1.386,0.116,2.415,1.334,2.298,2.72L227.996-473.72z"/>
<path fill="#FFFCD3" stroke="#323232" stroke-width="6" stroke-miterlimit="10" d="M225.306-485.352
	c0.1,1.387-0.944,2.592-2.331,2.691L61.332-471.064c-1.387,0.1-2.592-0.943-2.691-2.33l-15.534-216.53
	c-0.1-1.387,0.944-2.592,2.331-2.691l161.644-11.597c1.387-0.099,2.592,0.944,2.691,2.331L225.306-485.352z"/>
<path fill="#FFFFFF" stroke="#323232" stroke-width="6" stroke-miterlimit="10" d="M211.898-466.958
	c0.128,1.384-0.89,2.61-2.275,2.738L48.255-449.265c-1.385,0.128-2.611-0.89-2.739-2.274l-20.032-216.16
	c-0.128-1.385,0.89-2.611,2.274-2.739l161.368-14.955c1.385-0.128,2.611,0.89,2.739,2.275L211.898-466.958z"/>
<line fill="none" stroke="#323232" stroke-width="3" stroke-linecap="round" stroke-miterlimit="10" x1="40.126" y1="-645.148" x2="172.266" y2="-657.17"/>
<line fill="none" stroke="#323232" stroke-width="3" stroke-linecap="round" stroke-miterlimit="10" x1="43.1" y1="-617.648" x2="175.239" y2="-629.67"/>
<line fill="none" stroke="#323232" stroke-width="3" stroke-linecap="round" stroke-miterlimit="10" x1="46.24" y1="-593.649" x2="178.379" y2="-605.671"/>
<line fill="none" stroke="#323232" stroke-width="3" stroke-linecap="round" stroke-miterlimit="10" x1="48.961" y1="-572.563" x2="181.101" y2="-584.584"/>
<line fill="none" stroke="#323232" stroke-width="3" stroke-linecap="round" stroke-miterlimit="10" x1="52.102" y1="-548.945" x2="184.241" y2="-560.967"/>
<line fill="none" stroke="#323232" stroke-width="3" stroke-linecap="round" stroke-miterlimit="10" x1="52.621" y1="-524.65" x2="184.761" y2="-536.672"/>
<line fill="none" stroke="#323232" stroke-width="3" stroke-linecap="round" stroke-miterlimit="10" x1="135.968" y1="-490.103" x2="184.761" y2="-494.542"/>
<polygon fill="none" stroke="#323232" stroke-width="0.5" stroke-miterlimit="10" points="426.079,-615.639 406.746,-585.41 
	377.079,-578.41 375.079,-564.077 392.079,-541.077 389.412,-507.41 399.079,-499.414 427.206,-516.41 448.412,-502.077 
	468.746,-511.41 463.079,-543.41 478.079,-559.494 481.412,-574.744 448.746,-585.41 435.746,-615.639 "/>
<polygon fill="none" stroke="#323232" stroke-width="6" stroke-linecap="round" stroke-linejoin="round" stroke-miterlimit="10" points="
	1662.263,-138.706 1612.763,-138.706 1612.763,72.294 1776.263,72.294 1776.263,-138.706 "/>
<polygon fill="#FFFFFF" stroke="#323232" stroke-width="6" stroke-linecap="round" stroke-linejoin="round" stroke-miterlimit="10" points="
	705.371,-458.083 739.592,-455.829 756.014,-705.351 642.975,-712.789 626.551,-463.271 "/>
<g>
	
		<polygon fill="#FFFFFF" stroke="#323232" stroke-width="6" stroke-linecap="round" stroke-linejoin="round" stroke-miterlimit="10" points="
		1048.911,-26.198 1027.031,16.469 1073.031,7.918 1166.531,-64.203 1141.031,-96.582 	"/>
	
		<line fill="#FFFFFF" stroke="#323232" stroke-width="6" stroke-linecap="round" stroke-linejoin="round" stroke-miterlimit="10" x1="1048.911" y1="-26.198" x2="1073.031" y2="7.918"/>
</g>
<g>
	<g>
		<path fill="#323232" d="M1752.801,70.999c-9.175-2.82-19.308-0.23-24.713,8.023c-5.396,8.239-0.188,17.323,8.094,20.711
			c12.006,4.91,30.784,2.613,36.845-10.381c1.994-4.276,2.131-9.553-0.716-13.469c-3.43-4.715-9.646-4.767-14.84-3.885
			c-3.174,0.539-1.823,5.357,1.33,4.822c3.994-0.679,8.935-0.602,10.438,3.921c1.13,3.398-0.76,7.329-2.87,9.9
			c-6.621,8.063-21.699,8.042-30.148,3.586c-5.66-2.985-6.842-9.105-2.863-14.013c4.389-5.414,11.801-6.336,18.114-4.395
			C1754.562,76.771,1755.873,71.944,1752.801,70.999L1752.801,70.999z"/>
	</g>
</g>
<g>
	<g>
		<path fill="#323232" d="M1236.879-55.499c6.268,8.207,33.417,56.014,12.158,58.238c-3.173,0.332-3.206,5.336,0,5
			c29.263-3.062,0.991-54.198-7.842-65.762C1239.267-60.549,1234.921-58.063,1236.879-55.499L1236.879-55.499z"/>
	</g>
</g>
<g>
	<g>
		<path fill="#323232" d="M1233.195-12.499c10.64-18.926,27.652-31.25,47.104-40.103c2.932-1.334,0.388-5.643-2.523-4.318
			c-20.203,9.195-37.863,22.271-48.896,41.897C1227.297-12.208,1231.616-9.688,1233.195-12.499L1233.195-12.499z"/>
	</g>
</g>
<g>
	<g>
		<path fill="#323232" d="M1253.167-73.897c13.02-0.042,25.892-0.606,38.335,3.911c3.038,1.103,4.336-3.73,1.33-4.822
			c-12.851-4.665-26.21-4.133-39.665-4.089C1249.943-78.887,1249.942-73.887,1253.167-73.897L1253.167-73.897z"/>
	</g>
</g>
<g>
	<g>
		<path fill="#323232" d="M1709.294,199.672c5.867-8.446,14.26-14.138,23.104-19.104c-1.225-0.498-2.448-0.995-3.672-1.493
			c2.32,6.436,0.164,12.756,0.91,19.335c0.225,1.982,1.926,2.982,3.762,2.158c13.638-6.117,23.984-18.283,38.403-22.747
			c-1.025-0.582-2.051-1.164-3.076-1.746c2.223,6.308,7.033,8.652,13.502,7.879c5.441-0.65,13.724-4.702,14.409,3.456
			c0.134,1.595,1.497,2.874,3.165,2.411c11.078-3.076,21.921-6.925,33-10c3.103-0.861,1.783-5.686-1.33-4.822
			c-11.078,3.076-21.921,6.925-33,10c1.056,0.804,2.11,1.607,3.165,2.411c-0.55-6.543-3.934-10.544-10.755-9.962
			c-5.767,0.493-14.662,4.884-17.334-2.703c-0.441-1.251-1.706-2.17-3.076-1.746c-14.914,4.619-25.526,16.94-39.597,23.253
			c1.254,0.719,2.508,1.438,3.762,2.158c-0.801-7.057,1.403-13.751-1.09-20.665c-0.549-1.521-2.182-2.33-3.672-1.493
			c-9.642,5.413-18.52,11.713-24.896,20.896C1703.133,199.804,1707.47,202.3,1709.294,199.672L1709.294,199.672z"/>
	</g>
</g>
<path fill="#FFFFFF" stroke="#323232" stroke-width="6" stroke-linecap="round" stroke-linejoin="round" stroke-miterlimit="10" d="
	M749.656-601.874c-0.084,2.785,29.016,128.314,29.016,128.314"/>
<circle fill="none" stroke="#323333" stroke-miterlimit="10" cx="743.567" cy="-692.832" r="6.089"/>
<circle fill="none" stroke="#323333" stroke-miterlimit="10" cx="725.411" cy="-471.058" r="6.089"/>
<circle fill="none" stroke="#323333" stroke-miterlimit="10" cx="639.079" cy="-477.864" r="6.089"/>
<circle fill="none" stroke="#323333" stroke-miterlimit="10" cx="654.104" cy="-698.921" r="6.089"/>
<g>
	<g>
		<path fill="#323333" d="M655.823-698.741c-1.375-3.992-3.209-7.829-4-12c-0.601-3.165-5.419-1.821-4.821,1.329
			c0.791,4.171,2.625,8.008,4,12C652.044-694.383,656.875-695.684,655.823-698.741L655.823-698.741z"/>
	</g>
</g>
<g>
	<g>
		<path fill="#323333" d="M745.912-693.41c0.133-5.219,1.848-10.193,2.578-15.336c0.445-3.152-4.371-4.51-4.822-1.328
			c-0.793,5.59-2.609,10.984-2.756,16.664C740.828-690.184,745.828-690.191,745.912-693.41L745.912-693.41z"/>
	</g>
</g>
<g>
	<g>
		<path fill="#323333" d="M636.817-478.902c-4.13,2.856-7.025,6.849-10.506,10.392c-2.261,2.301,1.273,5.838,3.535,3.535
			c3.146-3.201,5.767-7.031,9.494-9.608C641.973-476.405,639.477-480.741,636.817-478.902L636.817-478.902z"/>
	</g>
</g>
<g>
	<g>
		<path fill="#323333" d="M723.578-469.41c0.164,5.693,2.504,10.995,2.668,16.667c0.092,3.217,5.092,3.227,5,0
			c-0.164-5.693-2.504-10.995-2.668-16.667C728.486-472.627,723.486-472.637,723.578-469.41L723.578-469.41z"/>
	</g>
</g>
<g>
	
		<polygon fill="none" stroke="#323232" stroke-width="6" stroke-linecap="round" stroke-linejoin="round" stroke-miterlimit="10" points="
		50.274,-280.268 193.312,-277.768 187.108,-84.822 44.07,-87.322 	"/>
	
		<polyline fill="none" stroke="#323232" stroke-width="6" stroke-linecap="round" stroke-linejoin="round" stroke-miterlimit="10" points="
		50.274,-280.268 69.653,-263.474 176.083,-261.613 193.312,-277.768 	"/>
	
		<polyline fill="none" stroke="#323232" stroke-width="6" stroke-linecap="round" stroke-linejoin="round" stroke-miterlimit="10" points="
		187.14,-85.802 167.761,-102.597 61.331,-104.457 44.102,-88.303 	"/>
	
		<line fill="none" stroke="#323232" stroke-width="6" stroke-linecap="round" stroke-linejoin="round" stroke-miterlimit="10" x1="121.264" y1="-262.571" x2="116.15" y2="-103.498"/>
</g>
<g>
	
		<polygon fill="#FFFFFF" stroke="#323232" stroke-width="6" stroke-linecap="round" stroke-linejoin="round" stroke-miterlimit="10" points="
		159.613,-194.818 88.42,-154.383 88.42,-76.883 232.308,-75.421 232.308,-153.883 	"/>
	
		<polyline fill="#FFFFFF" stroke="#323232" stroke-width="6" stroke-linecap="round" stroke-linejoin="round" stroke-miterlimit="10" points="
		88.42,-154.383 160.364,-112.727 232.308,-153.883 	"/>
	
		<line fill="#FFFFFF" stroke="#323232" stroke-width="6" stroke-linecap="round" stroke-linejoin="round" stroke-miterlimit="10" x1="89.172" y1="-82.06" x2="145.08" y2="-121.576"/>
	
		<line fill="#FFFFFF" stroke="#323232" stroke-width="6" stroke-linecap="round" stroke-linejoin="round" stroke-miterlimit="10" x1="232.308" y1="-77.176" x2="175.833" y2="-121.576"/>
</g>
<path fill="none" stroke="#323232" stroke-width="6" stroke-linecap="round" stroke-linejoin="round" stroke-miterlimit="10" d="
	M397.412-258.909l4.619,5.01l13.005,14.104l27.875-1.115l20.806-18.363l78.361,60.196l-28.333,34.334l-31.452-19.168
	c0,0-0.031-5.508-0.007-3.332c0.138,12.259-1.716,54.236,16.887,107.173l-140.095-1.666c0,0,30.417-98.158,10.75-102.007
	s-0.75,0.584-0.75,0.584l-28.333,17.423l-27.667-31.845L397.412-258.909z"/>
<g>
	<g>
		<path fill="#323232" d="M451.261-205.701c0.077,14.664,2.574,31.252-7.268,43.566c1.393,0.367,2.786,0.735,4.178,1.103
			c-2.161-10.215,1.845-31.685,14.923-32.835c-0.804-0.612-1.607-1.224-2.411-1.835c3.027,7.964,2.616,16.299,2.577,24.668
			c-0.013,2.786,4.284,3.455,4.911,0.665c2.068-9.214,5.266-18.12,7.333-27.333c0.705-3.141-4.115-4.476-4.821-1.33
			c-2.068,9.214-5.266,18.119-7.333,27.333c1.637,0.222,3.274,0.443,4.911,0.665c0.041-8.799,0.424-17.632-2.756-25.998
			c-0.373-0.98-1.241-1.938-2.411-1.835c-16.829,1.48-22.656,25.4-19.744,39.165c0.365,1.726,3.016,2.557,4.178,1.103
			c10.913-13.654,8.818-30.734,8.732-47.102C456.244-208.925,451.244-208.927,451.261-205.701L451.261-205.701z"/>
	</g>
</g>
<g>
	<g>
		<g>
			<path fill="#323232" d="M987.268,266.078H902.88c-3.481,0-6.398-2.633-6.752-6.098L876.734,69.263
				c-0.194-1.909,0.429-3.817,1.715-5.24c1.29-1.423,3.119-2.236,5.037-2.236h123.175c1.917,0,3.747,0.813,5.037,2.236
				c1.286,1.423,1.908,3.331,1.714,5.24L994.019,259.98C993.665,263.445,990.749,266.078,987.268,266.078z M909.013,252.505h72.122
				L999.149,75.36H890.998L909.013,252.505z"/>
		</g>
		<g>
			<path fill="#323232" d="M984.501,312.342h-78.855c-3.747,0-6.787-3.04-6.787-6.787v-43.859c0-3.747,3.04-6.787,6.787-6.787
				s6.787,3.04,6.787,6.787v37.072h65.281v-37.072c0-3.747,3.04-6.787,6.787-6.787s6.787,3.04,6.787,6.787v43.859
				C991.288,309.302,988.248,312.342,984.501,312.342z"/>
		</g>
		<g>
			<path fill="#323232" d="M945.073,185.827c-19.835,0-35.371-10.198-35.371-23.225c0-13.035,15.536-23.242,35.371-23.242
				s35.372,10.207,35.372,23.242C980.445,175.629,964.908,185.827,945.073,185.827z M945.073,152.935
				c-13.105,0-21.797,5.814-21.797,9.668c0,3.844,8.691,9.65,21.797,9.65c13.106,0,21.798-5.807,21.798-9.65
				C966.871,158.749,958.18,152.935,945.073,152.935z"/>
		</g>
		<g>
			<path fill="#323232" d="M1003.7,94.759h-98.055c-3.747,0-6.787-3.04-6.787-6.787s3.04-6.787,6.787-6.787h98.055
				c3.747,0,6.787,3.04,6.787,6.787S1007.447,94.759,1003.7,94.759z"/>
		</g>
	</g>
	<g>
		<g>
			<g>
				<path fill="#323232" d="M1147.938,293.438H1025.1c-3.747,0-6.787-3.04-6.787-6.786v-77.777c0-3.747,3.04-6.787,6.787-6.787
					h122.839c3.747,0,6.787,3.04,6.787,6.787v77.777C1154.726,290.398,1151.686,293.438,1147.938,293.438z M1031.887,279.865
					h109.265v-64.203h-109.265V279.865z"/>
			</g>
			<g>
				<path fill="#323232" d="M1111.582,268.155h-50.121c-9.854,0-17.869-8.016-17.869-17.869v-5.072
					c0-9.845,8.016-17.86,17.869-17.86h50.121c9.854,0,17.869,8.016,17.869,17.86v5.072
					C1129.451,260.14,1121.436,268.155,1111.582,268.155z M1061.461,240.928c-2.368,0-4.295,1.927-4.295,4.286v5.072
					c0,2.368,1.927,4.295,4.295,4.295h50.121c2.368,0,4.295-1.927,4.295-4.295v-5.072c0-2.359-1.927-4.286-4.295-4.286H1061.461z"/>
			</g>
			<g>
				<path fill="#323232" d="M1139.861,312.342h-106.676c-3.746,0-6.787-3.04-6.787-6.787v-14.581c0-3.747,3.041-6.787,6.787-6.787
					c3.747,0,6.787,3.04,6.787,6.787v7.794h93.102v-7.794c0-3.747,3.04-6.787,6.787-6.787s6.787,3.04,6.787,6.787v14.581
					C1146.648,309.302,1143.608,312.342,1139.861,312.342z"/>
			</g>
		</g>
		<g>
			<path fill="#323232" d="M1134.471,214c-3.747,0-6.787-3.04-6.787-6.787c0-10.428-6.301-19.681-16.053-23.551
				c-1.617-0.646-2.93-1.883-3.659-3.465c-3.637-7.883-9.54-14.369-16.751-18.699c0.998,4.957,0.433,10.313-4.264,15.227
				c-2.607,2.739-7.865,4.445-15.62,5.063c-14.56,0.018-25.969,11.418-25.969,25.425c0,3.747-3.04,6.787-6.787,6.787
				s-6.787-3.04-6.787-6.787c0-21.492,17.498-38.981,39.004-38.981c2.43-0.221,6.04-0.919,7.03-1.44
				c0.896-1.096,0.455-3.208-2.938-10.163c-0.707-1.449-1.405-2.881-2.002-4.276c-0.99-2.315-0.618-4.976,0.959-6.938
				c1.582-1.953,4.113-2.854,6.579-2.396c16.583,3.234,30.873,14.043,38.707,29.119c13.526,6.469,22.125,19.955,22.125,35.075
				C1141.258,210.96,1138.218,214,1134.471,214z"/>
		</g>
	</g>
</g>
<g>
	<g>
		<g>
			<g>
				<path fill="#323232" d="M824.108-112.005l-52.652-2.967c-1.792-0.102-3.472-0.867-4.725-2.15l-14.938-15.284
					c-1.355-1.391-2.068-3.36-1.952-5.41c0.114-2.052,1.045-3.93,2.548-5.16l16.563-13.511c1.393-1.136,3.146-1.706,4.935-1.604
					l52.652,2.967c3.946,0.222,6.978,3.614,6.756,7.563l-1.623,28.8C831.447-114.813,828.055-111.783,824.108-112.005z
					 M773.688-154.573c-0.909-0.052-1.802,0.238-2.511,0.817l-16.562,13.512c-0.737,0.603-1.198,1.56-1.256,2.625
					c-0.063,1.064,0.288,2.066,0.953,2.75l14.939,15.282c0.64,0.657,1.491,1.045,2.403,1.097l52.651,2.966
					c2.006,0.113,3.731-1.43,3.845-3.437l1.623-28.8c0.113-2.008-1.428-3.733-3.435-3.846L773.688-154.573z"/>
			</g>
		</g>
		<g>
			<path fill="#323232" d="M767.646-130.548l-0.496-0.026c-3.31-0.188-5.851-3.033-5.664-6.342l0.028-0.493
				c0.186-3.309,3.03-5.851,6.34-5.664l0.495,0.027c3.309,0.187,5.85,3.032,5.663,6.341l-0.027,0.494
				C773.799-132.903,770.953-130.36,767.646-130.548z M767.657-139.555c-1.37-0.077-2.547,0.973-2.624,2.344l-0.028,0.494
				c-0.077,1.369,0.975,2.546,2.345,2.623l0.495,0.027c1.366,0.078,2.546-0.973,2.623-2.344l0.027-0.493
				c0.078-1.37-0.976-2.547-2.344-2.624L767.657-139.555z"/>
		</g>
		<g>
			<path fill="#323232" d="M769.225-131.247c-0.729-0.041-1.385-0.537-1.596-1.28c-1.077-3.819-3.573-9.097-6.849-14.475
				c-5.546-9.112-10.298-13.703-12.102-14.571c-0.057,2,1.838,8.327,7.387,17.441c0.505,0.831,0.242,1.915-0.591,2.422
				c-0.831,0.503-1.913,0.244-2.422-0.589c-1.954-3.217-11.467-19.426-6.36-22.534c5.112-3.114,15.138,12.779,17.099,15.996
				c3.432,5.643,6.067,11.237,7.229,15.353c0.265,0.936-0.277,1.91-1.217,2.174C769.611-131.254,769.417-131.236,769.225-131.247z"
				/>
		</g>
	</g>
	<g>
		<g>
			<path fill="#323232" d="M786.06-142.478c0.839,0.31,1.569,0.706,2.188,1.192l-1.327,2.524c-0.624-0.438-1.297-0.802-2.016-1.096
				c-0.719-0.295-1.331-0.456-1.834-0.485c-0.411-0.022-0.742,0.039-1,0.188c-0.255,0.147-0.391,0.373-0.407,0.686
				c-0.024,0.412,0.148,0.739,0.516,0.98c0.368,0.241,0.953,0.509,1.757,0.802c0.843,0.309,1.528,0.61,2.063,0.902
				c0.532,0.292,0.985,0.712,1.357,1.258c0.371,0.545,0.53,1.252,0.481,2.122c-0.048,0.844-0.307,1.557-0.775,2.137
				c-0.467,0.579-1.081,1.003-1.841,1.265c-0.76,0.261-1.602,0.365-2.526,0.313c-1.017-0.057-2.013-0.301-2.989-0.729
				c-0.972-0.431-1.807-0.989-2.506-1.674l1.348-2.494c0.593,0.606,1.298,1.117,2.121,1.533c0.823,0.414,1.559,0.64,2.21,0.676
				c0.504,0.029,0.902-0.045,1.195-0.221c0.293-0.173,0.45-0.452,0.472-0.829c0.023-0.424-0.155-0.759-0.536-1.003
				s-0.98-0.508-1.793-0.793c-0.83-0.294-1.508-0.583-2.039-0.864c-0.531-0.277-0.978-0.684-1.34-1.218
				c-0.363-0.532-0.522-1.216-0.476-2.048c0.045-0.795,0.286-1.478,0.723-2.044c0.436-0.568,1.034-0.992,1.796-1.275
				c0.76-0.283,1.626-0.397,2.598-0.343C784.36-142.967,785.219-142.787,786.06-142.478z"/>
		</g>
		<g>
			<path fill="#323232" d="M792.186-131.678l-1.026,2.354l-3.214-0.181l6.033-12.772l3.214,0.181l4.44,13.362l-3.335-0.188
				l-0.739-2.453L792.186-131.678z M795.301-138.885l-2.063,4.732l3.546,0.199L795.301-138.885z"/>
		</g>
		<g>
			<path fill="#323232" d="M811.259-130.98l-0.158,2.78l-8.338-0.471l0.737-13.07l3.126,0.177l-0.579,10.29L811.259-130.98z"/>
		</g>
		<g>
			<path fill="#323232" d="M816.301-138.396l-0.146,2.599l5.86,0.33l-0.147,2.615l-5.86-0.329l-0.147,2.625l6.684,0.377
				l-0.148,2.615l-9.811-0.554l0.735-13.071l9.624,0.543l-0.147,2.616L816.301-138.396z"/>
		</g>
	</g>
</g>
<g>
	<g>
		<g>
			<path fill="#323232" d="M1324.327,303.646h-59.692c-2.463,0-4.526-1.862-4.776-4.313l-13.721-134.908
				c-0.139-1.35,0.306-2.7,1.212-3.707c0.913-1.006,2.213-1.581,3.563-1.581h87.13c1.362,0,2.65,0.575,3.563,1.581
				c0.912,1.007,1.35,2.357,1.212,3.707l-13.715,134.908C1328.854,301.784,1326.79,303.646,1324.327,303.646z M1268.973,294.044
				h51.017l12.74-125.305h-76.503L1268.973,294.044z"/>
		</g>
		<g>
			<path fill="#323232" d="M1322.371,336.372h-55.78c-2.65,0-4.801-2.15-4.801-4.801v-31.025c0-2.65,2.15-4.801,4.801-4.801
				c2.651,0,4.802,2.15,4.802,4.801v26.224h46.178v-26.224c0-2.65,2.15-4.801,4.801-4.801s4.801,2.15,4.801,4.801v31.025
				C1327.172,334.222,1325.021,336.372,1322.371,336.372z"/>
		</g>
		<g>
			<path fill="#323232" d="M1294.484,246.879c-14.034,0-25.023-7.214-25.023-16.429c0-9.221,10.989-16.44,25.023-16.44
				c14.027,0,25.018,7.22,25.018,16.44C1319.502,239.665,1308.512,246.879,1294.484,246.879z M1294.484,223.612
				c-9.277,0-15.422,4.113-15.422,6.838c0,2.72,6.145,6.826,15.422,6.826c9.264,0,15.415-4.106,15.415-6.826
				C1309.899,227.726,1303.748,223.612,1294.484,223.612z"/>
		</g>
		<g>
			<path fill="#323232" d="M1335.955,182.46h-69.364c-2.65,0-4.801-2.15-4.801-4.801s2.15-4.801,4.801-4.801h69.364
				c2.65,0,4.801,2.15,4.801,4.801S1338.605,182.46,1335.955,182.46z"/>
		</g>
	</g>
	<g>
		<g>
			<g>
				<path fill="#323232" d="M1437.981,323.001h-86.893c-2.65,0-4.801-2.151-4.801-4.802v-55.017c0-2.65,2.15-4.801,4.801-4.801
					h86.893c2.65,0,4.801,2.15,4.801,4.801v55.017C1442.782,320.85,1440.632,323.001,1437.981,323.001z M1355.89,313.398h77.291
					v-45.415h-77.291V313.398z"/>
			</g>
			<g>
				<path fill="#323232" d="M1412.264,305.116h-35.45c-6.977,0-12.641-5.67-12.641-12.641v-3.588
					c0-6.965,5.664-12.635,12.641-12.635h35.45c6.97,0,12.64,5.67,12.64,12.635v3.588
					C1424.903,299.446,1419.233,305.116,1412.264,305.116z M1376.813,285.855c-1.676,0-3.039,1.362-3.039,3.032v3.588
					c0,1.676,1.363,3.038,3.039,3.038h35.45c1.675,0,3.038-1.362,3.038-3.038v-3.588c0-1.67-1.363-3.032-3.038-3.032H1376.813z"/>
			</g>
			<g>
				<path fill="#323232" d="M1432.268,336.372h-75.459c-2.65,0-4.801-2.15-4.801-4.801v-10.314c0-2.651,2.15-4.802,4.801-4.802
					c2.651,0,4.802,2.15,4.802,4.802v5.513h65.856v-5.513c0-2.651,2.15-4.802,4.801-4.802s4.801,2.15,4.801,4.802v10.314
					C1437.068,334.222,1434.918,336.372,1432.268,336.372z"/>
			</g>
		</g>
		<g>
			<path fill="#323232" d="M1428.454,266.808c-2.65,0-4.801-2.15-4.801-4.801c0-7.377-4.457-13.922-11.358-16.659
				c-1.138-0.456-2.069-1.331-2.588-2.45c-2.569-5.576-6.745-10.165-11.847-13.229c0.707,3.508,0.307,7.295-3.019,10.771
				c-1.838,1.938-5.563,3.145-11.046,3.582c-10.296,0.012-18.373,8.076-18.373,17.984c0,2.65-2.15,4.801-4.801,4.801
				s-4.801-2.15-4.801-4.801c0-15.203,12.377-27.574,27.593-27.574c1.72-0.156,4.276-0.65,4.976-1.02
				c0.632-0.774,0.319-2.269-2.081-7.188c-0.5-1.025-0.994-2.039-1.419-3.026c-0.7-1.638-0.438-3.52,0.682-4.907
				c1.119-1.381,2.906-2.02,4.656-1.693c11.728,2.287,21.836,9.933,27.381,20.598c9.564,4.575,15.646,14.115,15.646,24.811
				C1433.255,264.657,1431.104,266.808,1428.454,266.808z"/>
		</g>
	</g>
</g>
<g>
	<g>
		<g>
			<g>
				<path fill="#323232" d="M775.625-218.78h-13.33c-1.627,0-2.947-1.321-2.947-2.948c0-1.626,1.32-2.947,2.947-2.947h10.382
					v-16.441h-5.254c-1.627,0-2.947-1.322-2.947-2.948c0-1.628,1.32-2.948,2.947-2.948h8.202c1.627,0,2.947,1.32,2.947,2.948v22.337
					C778.572-220.102,777.252-218.78,775.625-218.78z"/>
			</g>
			<g>
				<path fill="#323232" d="M735.598-218.78H697.15c-1.628,0-2.948-1.321-2.948-2.948c0-1.626,1.32-2.947,2.948-2.947h38.447
					c1.627,0,2.947,1.321,2.947,2.947C738.545-220.102,737.225-218.78,735.598-218.78z"/>
			</g>
			<g>
				<path fill="#323232" d="M673.405-218.78h-15.542c-1.628,0-2.948-1.321-2.948-2.948v-23.922c0-0.483,0.119-0.961,0.341-1.383
					l21.582-40.715c0.514-0.962,1.518-1.564,2.605-1.564h16.455c1.627,0,2.947,1.318,2.947,2.947c0,1.627-1.32,2.947-2.947,2.947
					h-14.682l-20.407,38.495v20.247h12.594c1.627,0,2.947,1.321,2.947,2.947C676.353-220.102,675.032-218.78,673.405-218.78z"/>
			</g>
			<g>
				<path fill="#323232" d="M767.423-241.117h-66.196c-4.563,0-8.274-3.713-8.274-8.276v-40.964c0-4.564,3.712-8.274,8.274-8.274
					h66.196c4.559,0,8.271,3.71,8.271,8.274v40.964C775.694-244.83,771.981-241.117,767.423-241.117z M701.227-292.737
					c-1.313,0-2.38,1.067-2.38,2.38v40.964c0,1.313,1.067,2.38,2.38,2.38h66.196c1.309,0,2.375-1.066,2.375-2.38v-40.964
					c0-1.313-1.066-2.38-2.375-2.38H701.227z"/>
			</g>
			<g>
				<g>
					<path fill="#323232" d="M685.275-206.901c-8.172,0-14.819-6.651-14.819-14.822c0-8.176,6.647-14.823,14.819-14.823
						c8.176,0,14.822,6.647,14.822,14.823C700.098-213.553,693.451-206.901,685.275-206.901z M685.275-230.652
						c-4.921,0-8.923,4.004-8.923,8.929c0,4.92,4.002,8.928,8.923,8.928c4.925,0,8.927-4.008,8.927-8.928
						C694.202-226.648,690.2-230.652,685.275-230.652z"/>
				</g>
				<g>
					<path fill="#323232" d="M685.275-216.569c-2.844,0-5.155-2.313-5.155-5.154c0-2.85,2.312-5.159,5.155-5.159
						s5.159,2.31,5.159,5.159C690.435-218.883,688.119-216.569,685.275-216.569z M685.275-222.466c-0.406,0-0.737,0.335-0.737,0.742
						c0,0.813,1.479,0.813,1.479,0C686.017-222.131,685.682-222.466,685.275-222.466z"/>
				</g>
			</g>
			<g>
				<g>
					<path fill="#323232" d="M749.077-206.901c-8.176,0-14.823-6.651-14.823-14.822c0-8.176,6.647-14.823,14.823-14.823
						c8.174,0,14.822,6.647,14.822,14.823C763.899-213.553,757.251-206.901,749.077-206.901z M749.077-230.652
						c-4.925,0-8.929,4.004-8.929,8.929c0,4.92,4.004,8.928,8.929,8.928c4.924,0,8.927-4.008,8.927-8.928
						C758.004-226.648,754.001-230.652,749.077-230.652z"/>
				</g>
				<g>
					<path fill="#323232" d="M749.077-216.569c-2.846,0-5.155-2.313-5.155-5.154c0-2.85,2.31-5.159,5.155-5.159
						c2.843,0,5.153,2.31,5.153,5.159C754.23-218.883,751.92-216.569,749.077-216.569z M749.077-222.466
						c-0.408,0-0.741,0.335-0.741,0.742c0,0.813,1.48,0.813,1.48,0C749.816-222.131,749.483-222.466,749.077-222.466z"/>
				</g>
			</g>
		</g>
		<g>
			<path fill="#323232" d="M772.746-274.764h-76.847c-1.628,0-2.947-1.319-2.947-2.947s1.319-2.948,2.947-2.948h76.847
				c1.628,0,2.948,1.32,2.948,2.948S774.374-274.764,772.746-274.764z"/>
		</g>
		<g>
			<path fill="#323232" d="M772.746-259.093h-76.847c-1.628,0-2.947-1.319-2.947-2.947c0-1.627,1.319-2.948,2.947-2.948h76.847
				c1.628,0,2.948,1.321,2.948,2.948C775.694-260.412,774.374-259.093,772.746-259.093z"/>
		</g>
	</g>
	<g>
		<path fill="#323232" d="M679.751-247.462h-17.014c-1.627,0-2.947-1.32-2.947-2.949c0-1.627,1.32-2.947,2.947-2.947h14.066v-30.827
			c0-1.628,1.32-2.948,2.947-2.948c1.628,0,2.949,1.32,2.949,2.948v33.774C682.7-248.782,681.379-247.462,679.751-247.462z"/>
	</g>
</g>
<g>
	<g>
		<path fill="#323232" d="M1179.626,135.323h-19.605c-0.414,0-0.75-0.336-0.75-0.75v-18.927c0-0.414,0.336-0.75,0.75-0.75h19.605
			c0.414,0,0.75,0.336,0.75,0.75v18.927C1180.376,134.987,1180.04,135.323,1179.626,135.323z M1160.771,133.823h18.105v-17.427
			h-18.105V133.823z"/>
	</g>
	<g>
		<path fill="#323232" d="M1175.22,120.097c-0.414,0-0.75-0.336-0.75-0.75v-8.244c0-1.551-1.262-2.813-2.812-2.813h-3.669
			c-1.55,0-2.812,1.262-2.812,2.813v8.244c0,0.414-0.336,0.75-0.75,0.75s-0.75-0.336-0.75-0.75v-8.244
			c0-2.378,1.935-4.313,4.312-4.313h3.669c2.377,0,4.312,1.935,4.312,4.313v8.244C1175.97,119.761,1175.634,120.097,1175.22,120.097
			z"/>
	</g>
	<g>
		<path fill="#323232" d="M1164.428,121.073c-0.952,0-1.727-0.774-1.727-1.727s0.774-1.727,1.727-1.727s1.727,0.774,1.727,1.727
			S1165.38,121.073,1164.428,121.073z M1164.428,119.12c-0.125,0-0.227,0.102-0.227,0.227c0,0.25,0.453,0.25,0.453,0
			C1164.654,119.222,1164.553,119.12,1164.428,119.12z"/>
	</g>
	<g>
		<path fill="#323232" d="M1175.22,121.073c-0.952,0-1.727-0.774-1.727-1.727s0.774-1.727,1.727-1.727s1.727,0.774,1.727,1.727
			S1176.172,121.073,1175.22,121.073z M1175.22,119.12c-0.125,0-0.227,0.102-0.227,0.227c0,0.25,0.453,0.25,0.453,0
			C1175.446,119.222,1175.345,119.12,1175.22,119.12z"/>
	</g>
</g>
<g>
	
		<rect x="605.519" y="-140.714" fill="none" stroke="#323232" stroke-width="6" stroke-linecap="round" stroke-linejoin="round" stroke-miterlimit="10" width="92.106" height="46.086"/>
	
		<polyline fill="none" stroke="#323232" stroke-width="6" stroke-linecap="round" stroke-linejoin="round" stroke-miterlimit="10" points="
		605.519,-140.714 662.12,-177.493 743.834,-177.493 697.625,-140.714 697.625,-94.628 745.008,-136.061 743.834,-177.493 	"/>
</g>
<line fill="none" stroke="#323232" stroke-width="6" stroke-miterlimit="10" x1="651.572" y1="-140.714" x2="698.847" y2="-177.493"/>
<line fill="none" stroke="#323232" stroke-width="6" stroke-linecap="round" stroke-linejoin="round" stroke-miterlimit="10" x1="208.412" y1="110.231" x2="208.412" y2="141.446"/>
<line fill="none" stroke="#323232" stroke-width="6" stroke-linecap="round" stroke-linejoin="round" stroke-miterlimit="10" x1="208.412" y1="160.757" x2="208.412" y2="191.972"/>
<line fill="none" stroke="#323232" stroke-width="6" stroke-linecap="round" stroke-linejoin="round" stroke-miterlimit="10" x1="208.412" y1="211.282" x2="208.412" y2="242.497"/>
</svg>
