<?xml version="1.0" encoding="utf-8"?>
<!-- Generator: Adobe Illustrator 16.0.0, SVG Export Plug-In . SVG Version: 6.00 Build 0)  -->
<!DOCTYPE svg PUBLIC "-//W3C//DTD SVG 1.1//EN" "http://www.w3.org/Graphics/SVG/1.1/DTD/svg11.dtd">
<svg version="1.1" id="레이어_1" xmlns="http://www.w3.org/2000/svg" xmlns:xlink="http://www.w3.org/1999/xlink" x="0px"
	 y="0px" width="268.412px" height="334.754px" viewBox="0 0 268.412 334.754" enable-background="new 0 0 268.412 334.754"
	 xml:space="preserve">
<g>
	<path fill="#323232" d="M-212.176,268.11c0,1.048-0.203,1.904-0.608,2.571c-0.406,0.667-0.935,1.19-1.59,1.569
		c-0.653,0.379-1.373,0.641-2.157,0.785c-0.784,0.144-1.544,0.215-2.276,0.215c-0.732,0-1.491-0.071-2.276-0.215
		c-0.784-0.144-1.504-0.406-2.158-0.785c-0.654-0.379-1.19-0.903-1.609-1.569c-0.418-0.667-0.627-1.523-0.627-2.571v-21.934
		c0-1.02,0.216-1.863,0.647-2.531c0.431-0.667,0.967-1.19,1.609-1.569c0.64-0.379,1.354-0.64,2.138-0.784
		c0.785-0.144,1.531-0.216,2.237-0.216s1.453,0.073,2.237,0.216s1.504,0.405,2.158,0.784c0.653,0.379,1.197,0.896,1.628,1.55
		c0.432,0.654,0.648,1.505,0.648,2.55V268.11z M-215.118,245.981c0-0.707-0.118-1.276-0.353-1.708c-0.236-0.431-0.53-0.765-0.884-1
		c-0.353-0.236-0.759-0.393-1.216-0.471c-0.458-0.079-0.896-0.117-1.314-0.117c-0.392,0-0.804,0.039-1.236,0.117
		c-0.432,0.079-0.824,0.235-1.177,0.471c-0.353,0.235-0.647,0.569-0.883,1c-0.235,0.431-0.353,1-0.353,1.708v22.365
		c0,0.707,0.118,1.27,0.353,1.688c0.236,0.418,0.53,0.745,0.883,0.98c0.353,0.236,0.752,0.393,1.197,0.471
		c0.444,0.079,0.863,0.117,1.255,0.117c0.418,0,0.85-0.038,1.295-0.117c0.444-0.079,0.85-0.235,1.216-0.471
		c0.366-0.236,0.66-0.563,0.883-0.98c0.222-0.418,0.334-0.981,0.334-1.688V245.981z"/>
	<path fill="#323232" d="M-195.304,268.11c0,1.048-0.203,1.904-0.608,2.571c-0.406,0.667-0.936,1.19-1.588,1.569
		c-0.655,0.379-1.374,0.641-2.159,0.785c-0.785,0.144-1.544,0.215-2.275,0.215c-0.733,0-1.491-0.071-2.276-0.215
		c-0.785-0.144-1.504-0.406-2.158-0.785c-0.653-0.379-1.19-0.903-1.608-1.569c-0.419-0.667-0.627-1.523-0.627-2.571v-21.934
		c0-1.02,0.215-1.863,0.647-2.531c0.432-0.667,0.967-1.19,1.609-1.569c0.641-0.379,1.354-0.64,2.138-0.784
		c0.785-0.144,1.53-0.216,2.237-0.216c0.706,0,1.452,0.073,2.236,0.216c0.785,0.144,1.503,0.405,2.158,0.784
		c0.654,0.379,1.197,0.896,1.628,1.55c0.432,0.654,0.647,1.505,0.647,2.55V268.11z M-198.247,245.981
		c0-0.707-0.118-1.276-0.353-1.708s-0.53-0.765-0.883-1c-0.353-0.236-0.759-0.393-1.216-0.471c-0.458-0.079-0.897-0.117-1.315-0.117
		c-0.392,0-0.804,0.039-1.235,0.117c-0.432,0.079-0.825,0.235-1.178,0.471c-0.353,0.235-0.647,0.569-0.882,1
		c-0.236,0.431-0.354,1-0.354,1.708v22.365c0,0.707,0.118,1.27,0.354,1.688c0.235,0.418,0.53,0.745,0.882,0.98
		s0.751,0.393,1.197,0.471c0.444,0.079,0.863,0.117,1.255,0.117c0.418,0,0.849-0.038,1.295-0.117
		c0.443-0.079,0.849-0.235,1.216-0.471c0.366-0.236,0.66-0.563,0.883-0.98c0.222-0.418,0.333-0.981,0.333-1.688V245.981z"/>
	<path fill="#323232" d="M-178.432,268.11c0,1.048-0.204,1.904-0.608,2.571c-0.407,0.667-0.936,1.19-1.589,1.569
		c-0.654,0.379-1.373,0.641-2.159,0.785c-0.784,0.144-1.543,0.215-2.275,0.215c-0.733,0-1.492-0.071-2.276-0.215
		c-0.785-0.144-1.503-0.406-2.158-0.785c-0.654-0.379-1.191-0.903-1.609-1.569c-0.418-0.667-0.628-1.523-0.628-2.571v-21.934
		c0-1.02,0.216-1.863,0.648-2.531c0.431-0.667,0.967-1.19,1.608-1.569c0.641-0.379,1.354-0.64,2.138-0.784s1.531-0.216,2.237-0.216
		s1.452,0.073,2.236,0.216c0.785,0.144,1.504,0.405,2.158,0.784c0.654,0.379,1.197,0.896,1.628,1.55
		c0.432,0.654,0.648,1.505,0.648,2.55V268.11z M-181.375,245.981c0-0.707-0.117-1.276-0.353-1.708c-0.236-0.431-0.531-0.765-0.883-1
		c-0.353-0.236-0.759-0.393-1.216-0.471c-0.458-0.079-0.897-0.117-1.314-0.117c-0.392,0-0.805,0.039-1.236,0.117
		c-0.431,0.079-0.824,0.235-1.177,0.471c-0.354,0.235-0.648,0.569-0.883,1s-0.353,1-0.353,1.708v22.365
		c0,0.707,0.118,1.27,0.353,1.688c0.235,0.418,0.53,0.745,0.883,0.98c0.353,0.236,0.751,0.393,1.197,0.471
		c0.444,0.079,0.863,0.117,1.255,0.117c0.417,0,0.85-0.038,1.294-0.117c0.444-0.079,0.85-0.235,1.216-0.471
		c0.367-0.236,0.66-0.563,0.883-0.98c0.222-0.418,0.333-0.981,0.333-1.688V245.981z"/>
	<path fill="#323232" d="M-173.841,255.947h13.223v1.649h-13.223V255.947z"/>
	<path fill="#323232" d="M-142.726,268.11c0,1.048-0.203,1.904-0.608,2.571c-0.406,0.667-0.936,1.19-1.589,1.569
		c-0.654,0.379-1.373,0.641-2.159,0.785c-0.785,0.144-1.543,0.215-2.275,0.215c-0.733,0-1.492-0.071-2.276-0.215
		c-0.785-0.144-1.504-0.406-2.158-0.785c-0.654-0.379-1.19-0.903-1.609-1.569c-0.418-0.667-0.628-1.523-0.628-2.571v-21.934
		c0-1.02,0.216-1.863,0.648-2.531c0.431-0.667,0.967-1.19,1.608-1.569c0.641-0.379,1.353-0.64,2.138-0.784
		c0.784-0.144,1.531-0.216,2.237-0.216c0.706,0,1.452,0.073,2.236,0.216c0.785,0.144,1.504,0.405,2.158,0.784
		c0.653,0.379,1.197,0.896,1.628,1.55c0.431,0.654,0.647,1.505,0.647,2.55V268.11z M-145.669,245.981
		c0-0.707-0.117-1.276-0.353-1.708c-0.235-0.431-0.53-0.765-0.883-1c-0.353-0.236-0.759-0.393-1.217-0.471
		c-0.458-0.079-0.896-0.117-1.314-0.117c-0.393,0-0.805,0.039-1.236,0.117s-0.824,0.235-1.177,0.471
		c-0.353,0.235-0.648,0.569-0.883,1s-0.353,1-0.353,1.708v22.365c0,0.707,0.118,1.27,0.353,1.688c0.235,0.418,0.53,0.745,0.883,0.98
		s0.751,0.393,1.197,0.471c0.444,0.079,0.863,0.117,1.255,0.117c0.418,0,0.849-0.038,1.295-0.117
		c0.444-0.079,0.85-0.235,1.216-0.471c0.366-0.236,0.66-0.563,0.883-0.98c0.222-0.418,0.333-0.981,0.333-1.688V245.981z"/>
	<path fill="#323232" d="M-125.854,268.11c0,1.048-0.203,1.904-0.608,2.571c-0.406,0.667-0.935,1.19-1.589,1.569
		c-0.654,0.379-1.374,0.641-2.158,0.785c-0.785,0.144-1.544,0.215-2.276,0.215c-0.733,0-1.491-0.071-2.276-0.215
		c-0.784-0.144-1.504-0.406-2.158-0.785c-0.654-0.379-1.191-0.903-1.609-1.569c-0.419-0.667-0.628-1.523-0.628-2.571v-21.934
		c0-1.02,0.216-1.863,0.647-2.531c0.432-0.667,0.968-1.19,1.609-1.569c0.64-0.379,1.354-0.64,2.138-0.784
		c0.785-0.144,1.531-0.216,2.236-0.216c0.707,0,1.453,0.073,2.237,0.216c0.784,0.144,1.503,0.405,2.158,0.784
		c0.653,0.379,1.197,0.896,1.628,1.55c0.431,0.654,0.647,1.505,0.647,2.55V268.11z M-128.798,245.981
		c0-0.707-0.117-1.276-0.353-1.708c-0.235-0.431-0.53-0.765-0.883-1c-0.353-0.236-0.759-0.393-1.216-0.471s-0.896-0.117-1.314-0.117
		c-0.392,0-0.805,0.039-1.236,0.117s-0.824,0.235-1.177,0.471c-0.353,0.235-0.647,0.569-0.883,1s-0.353,1-0.353,1.708v22.365
		c0,0.707,0.118,1.27,0.353,1.688c0.235,0.418,0.53,0.745,0.883,0.98c0.353,0.236,0.751,0.393,1.197,0.471
		c0.444,0.079,0.863,0.117,1.255,0.117c0.418,0,0.85-0.038,1.295-0.117c0.444-0.079,0.849-0.235,1.216-0.471
		c0.366-0.236,0.66-0.563,0.883-0.98c0.222-0.418,0.333-0.981,0.333-1.688V245.981z"/>
	<path fill="#323232" d="M-108.983,268.11c0,1.048-0.203,1.904-0.607,2.571c-0.406,0.667-0.936,1.19-1.589,1.569
		c-0.654,0.379-1.374,0.641-2.158,0.785c-0.785,0.144-1.544,0.215-2.276,0.215c-0.732,0-1.491-0.071-2.276-0.215
		c-0.785-0.144-1.504-0.406-2.158-0.785c-0.654-0.379-1.19-0.903-1.608-1.569c-0.419-0.667-0.628-1.523-0.628-2.571v-21.934
		c0-1.02,0.215-1.863,0.647-2.531c0.431-0.667,0.967-1.19,1.609-1.569c0.641-0.379,1.354-0.64,2.138-0.784s1.53-0.216,2.236-0.216
		c0.707,0,1.452,0.073,2.237,0.216c0.784,0.144,1.504,0.405,2.158,0.784c0.654,0.379,1.197,0.896,1.628,1.55
		c0.432,0.654,0.647,1.505,0.647,2.55V268.11z M-111.926,245.981c0-0.707-0.117-1.276-0.353-1.708c-0.235-0.431-0.53-0.765-0.882-1
		c-0.353-0.236-0.759-0.393-1.217-0.471c-0.457-0.079-0.896-0.117-1.314-0.117c-0.393,0-0.805,0.039-1.236,0.117
		c-0.432,0.079-0.825,0.235-1.178,0.471c-0.353,0.235-0.647,0.569-0.883,1c-0.234,0.431-0.353,1-0.353,1.708v22.365
		c0,0.707,0.119,1.27,0.353,1.688c0.235,0.418,0.53,0.745,0.883,0.98s0.751,0.393,1.197,0.471c0.444,0.079,0.863,0.117,1.255,0.117
		c0.418,0,0.85-0.038,1.295-0.117c0.445-0.079,0.85-0.235,1.217-0.471c0.365-0.236,0.66-0.563,0.883-0.98
		c0.222-0.418,0.333-0.981,0.333-1.688V245.981z"/>
	<path fill="#323232" d="M-92.111,268.11c0,1.048-0.203,1.904-0.608,2.571c-0.406,0.667-0.936,1.19-1.589,1.569
		c-0.654,0.379-1.373,0.641-2.159,0.785c-0.784,0.144-1.543,0.215-2.275,0.215c-0.732,0-1.491-0.071-2.276-0.215
		c-0.785-0.144-1.504-0.406-2.158-0.785c-0.654-0.379-1.19-0.903-1.609-1.569c-0.418-0.667-0.627-1.523-0.627-2.571v-21.934
		c0-1.02,0.216-1.863,0.647-2.531c0.432-0.667,0.968-1.19,1.609-1.569c0.64-0.379,1.353-0.64,2.138-0.784
		c0.785-0.144,1.531-0.216,2.237-0.216s1.452,0.073,2.236,0.216c0.785,0.144,1.505,0.405,2.158,0.784
		c0.654,0.379,1.197,0.896,1.628,1.55c0.432,0.654,0.647,1.505,0.647,2.55V268.11z M-95.053,245.981
		c0-0.707-0.118-1.276-0.353-1.708c-0.236-0.431-0.53-0.765-0.883-1c-0.353-0.236-0.759-0.393-1.216-0.471
		c-0.458-0.079-0.897-0.117-1.315-0.117c-0.392,0-0.804,0.039-1.236,0.117s-0.824,0.235-1.177,0.471
		c-0.354,0.235-0.648,0.569-0.884,1c-0.235,0.431-0.353,1-0.353,1.708v22.365c0,0.707,0.118,1.27,0.353,1.688
		c0.236,0.418,0.53,0.745,0.884,0.98c0.353,0.236,0.751,0.393,1.196,0.471c0.445,0.079,0.864,0.117,1.256,0.117
		c0.417,0,0.85-0.038,1.294-0.117c0.444-0.079,0.85-0.235,1.216-0.471c0.367-0.236,0.661-0.563,0.883-0.98
		c0.222-0.418,0.334-0.981,0.334-1.688V245.981z"/>
</g>
<g>
	<path fill="#323232" d="M206.974,979.34H88.897c-4.941,0-8.966-4.021-8.966-8.966v-58.679c0-4.945,4.025-8.965,8.966-8.965h118.077
		c4.94,0,8.966,4.02,8.966,8.965v58.679C215.94,975.319,211.915,979.34,206.974,979.34z M88.897,908.491
		c-1.765,0-3.205,1.436-3.205,3.204v58.679c0,1.77,1.44,3.205,3.205,3.205h118.077c1.764,0,3.205-1.436,3.205-3.205v-58.679
		c0-1.769-1.44-3.204-3.205-3.204H88.897z"/>
	<g>
		<g>
			<path fill="#323232" d="M96.437,948.942c-1.254,0-2.409-0.306-3.434-0.916c-1.021-0.61-1.836-1.454-2.417-2.519
				c-0.582-1.059-0.873-2.241-0.873-3.533c0-1.273,0.305-2.447,0.896-3.486c0.596-1.035,1.421-1.865,2.456-2.466
				c1.813-1.054,4.135-1.245,6.267-0.286c0.901,0.405,1.688,0.964,2.332,1.66c0.234,0.252,0.248,0.639,0.034,0.91l-1.684,2.123
				c-0.138,0.166-0.339,0.271-0.553,0.271h-0.005c-0.214-0.005-0.419-0.105-0.548-0.281c-0.319-0.41-0.682-0.729-1.121-0.969
				c-0.887-0.496-1.779-0.424-2.461,0.015c-0.381,0.243-0.672,0.563-0.892,0.997c-0.224,0.434-0.344,0.935-0.344,1.479
				c0,0.563,0.115,1.059,0.344,1.512c0.219,0.429,0.515,0.763,0.906,1.016c0.668,0.434,1.483,0.51,2.428,0.048
				c0.438-0.215,0.834-0.516,1.173-0.888c0.134-0.147,0.324-0.229,0.52-0.229h0.005c0.2,0,0.386,0.086,0.52,0.233l1.703,1.913
				c0.238,0.271,0.234,0.677-0.009,0.939c-0.677,0.738-1.493,1.335-2.409,1.778C98.33,948.713,97.381,948.942,96.437,948.942z"/>
		</g>
	</g>
	<g>
		<g>
			<path fill="#323232" d="M108.56,948.942c-1.273,0-2.446-0.306-3.496-0.906c-1.054-0.61-1.888-1.455-2.484-2.514
				c-0.601-1.054-0.901-2.241-0.901-3.529c0-1.287,0.3-2.47,0.901-3.51c0.601-1.044,1.435-1.874,2.475-2.476
				c2.084-1.188,4.921-1.188,7.02,0.015c1.054,0.601,1.884,1.431,2.48,2.476c0.601,1.035,0.901,2.217,0.901,3.495
				c0,1.293-0.301,2.485-0.897,3.529c-0.596,1.059-1.431,1.903-2.48,2.514C111.025,948.637,109.838,948.942,108.56,948.942z
				 M108.593,939.108c-0.448,0-0.849,0.119-1.235,0.362c-0.396,0.253-0.706,0.587-0.944,1.035c-0.238,0.453-0.357,0.944-0.357,1.507
				c0,0.558,0.119,1.059,0.362,1.521c0.234,0.453,0.543,0.792,0.944,1.044c0.768,0.491,1.698,0.491,2.442,0.005
				c0.386-0.253,0.682-0.591,0.916-1.04c0.234-0.462,0.348-0.963,0.348-1.53s-0.114-1.063-0.348-1.517
				c-0.229-0.438-0.529-0.777-0.911-1.03C109.438,939.228,109.037,939.108,108.593,939.108z"/>
		</g>
	</g>
	<g>
		<g>
			<path fill="#323232" d="M122.194,948.942c-1.192,0-2.241-0.248-3.128-0.729c-0.916-0.487-1.626-1.197-2.127-2.104
				c-0.481-0.896-0.729-1.946-0.729-3.119v-7.072c0-0.387,0.314-0.701,0.701-0.701h2.909c0.387,0,0.701,0.314,0.701,0.701v7.072
				c0,0.635,0.153,1.111,0.477,1.459c0.61,0.668,1.779,0.678,2.361,0.02c0.305-0.348,0.458-0.83,0.458-1.479v-7.072
				c0-0.387,0.315-0.701,0.701-0.701h2.899c0.386,0,0.696,0.314,0.696,0.701v7.072c0,1.173-0.243,2.223-0.725,3.114
				c-0.482,0.901-1.188,1.612-2.094,2.108C124.412,948.694,123.368,948.942,122.194,948.942z"/>
		</g>
	</g>
	<g>
		<g>
			<path fill="#323232" d="M133.049,948.804h-2.914c-0.386,0-0.701-0.314-0.701-0.701v-12.185c0-0.387,0.314-0.701,0.701-0.701
				h4.993c1.631,0,2.933,0.434,3.873,1.292c0.954,0.868,1.445,2.104,1.445,3.658c0,1.616-0.482,2.904-1.431,3.825
				c-0.939,0.925-2.247,1.388-3.887,1.388h-1.378v2.723C133.75,948.489,133.435,948.804,133.049,948.804z M133.75,941.541h1.23
				c0.462,0,0.787-0.105,1.001-0.311c0.2-0.195,0.3-0.516,0.3-0.963c0-0.43-0.09-0.726-0.295-0.911
				c-0.215-0.196-0.553-0.296-1.006-0.296h-1.23V941.541z"/>
		</g>
	</g>
	<g>
		<g>
			<path fill="#323232" d="M147.709,948.942c-1.273,0-2.446-0.306-3.496-0.906c-1.049-0.61-1.889-1.455-2.485-2.514
				c-0.601-1.054-0.901-2.241-0.901-3.529c0-1.287,0.301-2.47,0.906-3.51c0.596-1.044,1.431-1.874,2.475-2.476
				c2.084-1.188,4.917-1.188,7.015,0.015c1.054,0.601,1.889,1.431,2.485,2.476c0.596,1.035,0.901,2.217,0.901,3.495
				c0,1.293-0.305,2.485-0.901,3.529c-0.596,1.059-1.431,1.903-2.48,2.514C150.175,948.637,148.992,948.942,147.709,948.942z
				 M147.742,939.108c-0.448,0-0.849,0.119-1.235,0.362c-0.396,0.253-0.701,0.587-0.944,1.035c-0.239,0.453-0.358,0.944-0.358,1.507
				c0,0.558,0.119,1.059,0.362,1.521c0.239,0.453,0.549,0.792,0.944,1.044c0.768,0.491,1.698,0.491,2.442,0.005
				c0.386-0.253,0.687-0.591,0.916-1.04c0.234-0.462,0.348-0.963,0.348-1.53s-0.114-1.063-0.348-1.517
				c-0.229-0.438-0.529-0.777-0.911-1.03C148.586,939.228,148.19,939.108,147.742,939.108z"/>
		</g>
	</g>
	<g>
		<g>
			<path fill="#323232" d="M166.828,948.804h-2.566c-0.224,0-0.443-0.114-0.572-0.296l-3.997-5.694v5.289
				c0,0.387-0.314,0.701-0.701,0.701h-2.733c-0.386,0-0.696-0.314-0.696-0.701v-12.185c0-0.387,0.31-0.701,0.696-0.701h2.575
				c0.229,0,0.444,0.109,0.572,0.301l4.006,5.703v-5.303c0-0.387,0.314-0.701,0.701-0.701h2.714c0.386,0,0.701,0.314,0.701,0.701
				v12.185C167.529,948.489,167.214,948.804,166.828,948.804z"/>
		</g>
	</g>
	<g>
		<path fill="#323232" d="M111.498,920.938c-6.09,0-11.041-4.078-11.041-9.09c0-5.018,4.95-9.1,11.041-9.1l2.79-0.024
			c2.255,0,8.25,0,8.25,5.861C122.538,913.446,117.797,920.938,111.498,920.938z M114.288,908.486l-2.79,0.023
			c-3.114,0-5.279,1.76-5.279,3.339c0,1.573,2.165,3.329,5.279,3.329c2.456,0,5.222-4.212,5.279-6.52
			C116.434,908.572,115.723,908.486,114.288,908.486z"/>
	</g>
	<g>
		<path fill="#323232" d="M137.584,917.748c-18.537,0-20.683-11.17-20.764-11.646c-0.186-1.078,0.253-2.17,1.135-2.813
			c0.882-0.653,2.046-0.744,3.023-0.233l17.922,9.256c1.183,0.605,1.793,1.946,1.479,3.234
			C140.069,916.842,138.91,917.748,137.584,917.748z"/>
	</g>
	<g>
		<path fill="#323232" d="M114.288,908.491L114.288,908.491l-2.79-0.024c-6.09,0-11.041-4.077-11.041-9.1
			c0-5.012,4.95-9.09,11.041-9.09c6.3,0,11.041,7.492,11.041,12.357c0,2.413-1.154,4.239-3.253,5.141
			C117.902,908.371,116.286,908.491,114.288,908.491z M111.498,896.039c-3.114,0-5.279,1.755-5.279,3.328
			c0,1.579,2.165,3.339,5.279,3.339l2.79,0.024l0,0c1.412,0,2.117-0.082,2.465-0.168
			C116.591,900.055,113.896,896.039,111.498,896.039z"/>
	</g>
	<g>
		<path fill="#323232" d="M119.657,908.491c-0.601,0-1.202-0.187-1.702-0.559c-0.882-0.644-1.321-1.735-1.135-2.813
			c0.081-0.477,2.227-11.65,20.764-11.65c1.326,0,2.485,0.91,2.795,2.203c0.315,1.287-0.296,2.628-1.474,3.238l-17.922,9.257
			C120.563,908.386,120.11,908.491,119.657,908.491z"/>
	</g>
	<g>
		<g>
			<rect x="178.479" y="909.292" fill="#323232" width="7.325" height="16.582"/>
		</g>
	</g>
	<g>
		<g>
			<rect x="178.479" y="933.738" fill="#323232" width="7.325" height="16.582"/>
		</g>
	</g>
	<g>
		<g>
			<rect x="178.479" y="958.18" fill="#323232" width="7.325" height="16.587"/>
		</g>
	</g>
</g>
<g>
	<g>
		<polygon fill="#D1EAF7" points="-710.875,415.113 -524.518,412.266 -524.518,641.807 -641.892,638.618 -709.099,577.373 		"/>
		<path fill="#323232" d="M-709.987,585.799c-3.915,0-7.103-3.178-7.103-7.104V411.863c0-3.915,3.188-7.093,7.103-7.093h184.581
			c3.926,0,7.103,3.178,7.103,7.093v115.173c0,3.915-3.177,7.093-7.103,7.093c-3.915,0-7.093-3.178-7.093-7.093v-108.07h-170.384
			v159.729C-702.884,582.621-706.062,585.799-709.987,585.799z"/>
		<path fill="#323232" d="M-525.407,647.223h-123.154c-3.915,0-7.103-3.177-7.103-7.103c0-3.913,3.188-7.091,7.103-7.091H-532.5
			V494.095c0-3.916,3.178-7.095,7.093-7.095c3.926,0,7.103,3.18,7.103,7.095V640.12
			C-518.304,644.046-521.481,647.223-525.407,647.223z"/>
		<path fill="#323232" d="M-648.561,647.223c-1.836,0-3.663-0.725-5.014-2.078l-61.426-61.424c-2.028-2.039-2.644-5.087-1.543-7.74
			c1.099-2.652,3.692-4.377,6.558-4.377h61.426c3.916,0,7.103,3.178,7.103,7.092v61.425c0,2.876-1.735,5.472-4.389,6.57
			C-646.724,647.043-647.643,647.223-648.561,647.223z M-692.845,585.799l37.181,37.189v-37.189H-692.845z"/>
		<path fill="#323232" d="M-552.668,456.63h-130.056c-3.925,0-7.103-3.177-7.103-7.093c0-3.925,3.178-7.103,7.103-7.103h130.056
			c3.924,0,7.103,3.178,7.103,7.103C-545.565,453.453-548.744,456.63-552.668,456.63z"/>
		<path fill="#323232" d="M-552.668,482.471h-48.824c-3.914,0-7.103-3.177-7.103-7.103c0-3.915,3.189-7.095,7.103-7.095h48.824
			c3.924,0,7.103,3.18,7.103,7.095C-545.565,479.293-548.744,482.471-552.668,482.471z"/>
		<g>
			<path fill="#323232" d="M-633.901,482.471h-48.823c-3.925,0-7.103-3.177-7.103-7.103c0-3.915,3.178-7.095,7.103-7.095h48.823
				c3.916,0,7.104,3.18,7.104,7.095C-626.798,479.293-629.986,482.471-633.901,482.471z"/>
		</g>
		<path fill="#323232" d="M-552.668,508.301h-48.824c-3.914,0-7.103-3.19-7.103-7.103c0-3.915,3.189-7.103,7.103-7.103h48.824
			c3.924,0,7.103,3.188,7.103,7.103C-545.565,505.111-548.744,508.301-552.668,508.301z"/>
		<g>
			<path fill="#323232" d="M-633.901,508.301h-48.823c-3.925,0-7.103-3.19-7.103-7.103c0-3.915,3.178-7.103,7.103-7.103h48.823
				c3.916,0,7.104,3.188,7.104,7.103C-626.798,505.111-629.986,508.301-633.901,508.301z"/>
		</g>
		<g>
			<path fill="#323232" d="M-552.668,534.129h-48.824c-3.914,0-7.103-3.178-7.103-7.093c0-3.926,3.189-7.104,7.103-7.104h48.824
				c3.924,0,7.103,3.178,7.103,7.104C-545.565,530.951-548.744,534.129-552.668,534.129z"/>
		</g>
		<g>
			<path fill="#323232" d="M-633.901,534.129h-48.823c-3.925,0-7.103-3.178-7.103-7.093c0-3.926,3.178-7.104,7.103-7.104h48.823
				c3.916,0,7.104,3.178,7.104,7.104C-626.798,530.951-629.986,534.129-633.901,534.129z"/>
		</g>
		<g>
			<path fill="#323232" d="M-568.732,559.969h-32.761c-3.914,0-7.103-3.178-7.103-7.104c0-3.914,3.189-7.092,7.103-7.092h32.761
				c3.925,0,7.103,3.178,7.103,7.092C-561.629,556.791-564.807,559.969-568.732,559.969z"/>
		</g>
		<g>
			<path fill="#323232" d="M-633.901,559.969h-48.823c-3.925,0-7.103-3.178-7.103-7.104c0-3.914,3.178-7.092,7.103-7.092h48.823
				c3.916,0,7.104,3.178,7.104,7.092C-626.798,556.791-629.986,559.969-633.901,559.969z"/>
		</g>
		<g>
			<path fill="#323232" d="M-568.732,585.799h-32.761c-3.914,0-7.103-3.178-7.103-7.104c0-3.914,3.189-7.092,7.103-7.092h32.761
				c3.925,0,7.103,3.178,7.103,7.092C-561.629,582.621-564.807,585.799-568.732,585.799z"/>
		</g>
		<g>
			<path fill="#323232" d="M-552.668,611.637h-48.824c-3.914,0-7.103-3.188-7.103-7.103c0-3.923,3.189-7.103,7.103-7.103h48.824
				c3.924,0,7.103,3.18,7.103,7.103C-545.565,608.449-548.744,611.637-552.668,611.637z"/>
		</g>
	</g>
	<g>
		<polygon fill="#FDFBDF" points="-752.293,423.193 -566.815,404.973 -547.866,633.734 -665.108,640.242 -737.139,584.75 		"/>
		<path fill="#323232" d="M-737.33,593.225c-3.895,0.322-7.335-2.582-7.659-6.498l-13.772-166.267
			c-0.322-3.896,2.593-7.326,6.498-7.648l183.945-15.235c3.914-0.322,7.345,2.583,7.668,6.487l9.504,114.781
			c0.324,3.895-2.583,7.324-6.498,7.646c-3.895,0.334-7.324-2.572-7.647-6.478l-8.919-107.706l-169.809,14.066l13.188,159.182
			C-730.509,589.471-733.416,592.893-737.33,593.225z"/>
		<path fill="#323232" d="M-548.31,639.203l-122.731,10.16c-3.905,0.333-7.346-2.574-7.668-6.486
			c-0.322-3.906,2.593-7.336,6.498-7.66l115.667-9.574l-11.472-138.461c-0.322-3.905,2.583-7.334,6.487-7.657
			c3.915-0.322,7.335,2.583,7.668,6.488l12.047,145.534C-541.489,635.451-544.396,638.881-548.31,639.203z"/>
		<path fill="#323232" d="M-671.041,649.363c-1.826,0.151-3.712-0.412-5.166-1.654l-66.289-56.15
			c-2.189-1.854-3.057-4.842-2.18-7.576c0.878-2.745,3.319-4.671,6.174-4.914l61.214-5.064c3.905-0.322,7.346,2.582,7.668,6.487
			l5.065,61.214c0.243,2.865-1.272,5.59-3.823,6.902C-669.225,649.031-670.123,649.293-671.041,649.363z M-720.248,591.803
			l40.126,34.002l-3.066-37.07L-720.248,591.803z"/>
		<path fill="#323232" d="M-591.202,451.515l-129.612,10.725c-3.915,0.322-7.345-2.583-7.668-6.477
			c-0.322-3.915,2.583-7.345,6.498-7.667l129.612-10.735c3.905-0.324,7.335,2.583,7.659,6.496
			C-584.391,447.761-587.297,451.193-591.202,451.515z"/>
		<path fill="#323232" d="M-589.073,477.264l-48.652,4.025c-3.905,0.322-7.346-2.583-7.668-6.487
			c-0.323-3.905,2.593-7.334,6.487-7.657l48.662-4.026c3.916-0.322,7.346,2.583,7.668,6.477
			C-582.251,473.51-585.157,476.942-589.073,477.264z"/>
		<g>
			<path fill="#323232" d="M-670.021,483.962L-718.684,488c-3.915,0.322-7.345-2.583-7.668-6.498
				c-0.322-3.905,2.583-7.337,6.498-7.659l48.652-4.024c3.904-0.322,7.345,2.583,7.668,6.487
				C-663.211,480.21-666.126,483.64-670.021,483.962z"/>
		</g>
		<path fill="#323232" d="M-586.943,503.003l-48.653,4.025c-3.905,0.322-7.345-2.583-7.667-6.488
			c-0.323-3.905,2.593-7.345,6.498-7.669l48.652-4.025c3.915-0.322,7.345,2.593,7.668,6.487
			C-580.123,499.239-583.028,502.681-586.943,503.003z"/>
		<g>
			<path fill="#323232" d="M-667.893,509.712l-48.662,4.027c-3.905,0.322-7.335-2.593-7.658-6.498
				c-0.324-3.895,2.572-7.336,6.487-7.659l48.662-4.035c3.895-0.324,7.335,2.593,7.658,6.498
				C-661.082,505.939-663.988,509.39-667.893,509.712z"/>
		</g>
		<g>
			<path fill="#323232" d="M-584.804,528.743l-48.663,4.035c-3.904,0.323-7.334-2.583-7.668-6.487
				c-0.323-3.905,2.593-7.336,6.498-7.659l48.653-4.035c3.914-0.324,7.345,2.583,7.668,6.498
				C-577.994,524.988-580.899,528.418-584.804,528.743z"/>
		</g>
		<g>
			<path fill="#323232" d="M-665.764,535.451l-48.653,4.027c-3.914,0.322-7.345-2.585-7.667-6.479
				c-0.323-3.913,2.583-7.345,6.487-7.667l48.662-4.027c3.905-0.322,7.345,2.574,7.668,6.487
				C-658.943,531.697-661.859,535.129-665.764,535.451z"/>
		</g>
		<g>
			<path fill="#323232" d="M-598.688,555.822l-32.65,2.705c-3.895,0.322-7.335-2.583-7.658-6.498
				c-0.323-3.895,2.593-7.326,6.487-7.648l32.65-2.705c3.915-0.322,7.346,2.583,7.668,6.477
				C-591.867,552.068-594.773,555.498-598.688,555.822z"/>
		</g>
		<g>
			<path fill="#323232" d="M-663.635,561.201l-48.653,4.023c-3.915,0.322-7.345-2.572-7.668-6.486
				c-0.322-3.905,2.584-7.335,6.498-7.657l48.653-4.026c3.905-0.322,7.345,2.582,7.668,6.477
				C-656.815,557.446-659.73,560.878-663.635,561.201z"/>
		</g>
		<g>
			<path fill="#323232" d="M-596.549,581.562l-32.65,2.704c-3.905,0.322-7.346-2.584-7.668-6.489
				c-0.323-3.903,2.593-7.335,6.498-7.657l32.64-2.704c3.915-0.322,7.345,2.583,7.668,6.487
				C-589.738,577.808-592.644,581.237-596.549,581.562z"/>
		</g>
		<g>
			<path fill="#323232" d="M-578.418,605.988l-48.652,4.035c-3.905,0.322-7.346-2.593-7.668-6.498
				c-0.323-3.914,2.593-7.344,6.497-7.668l48.653-4.025c3.916-0.322,7.346,2.582,7.668,6.498
				C-571.597,602.225-574.503,605.664-578.418,605.988z"/>
		</g>
	</g>
	<g>
		<polygon fill="#FFFFFF" points="-783.813,421.104 -598.153,404.799 -581.556,633.734 -698.858,639.041 -770.313,582.822 		"/>
		<path fill="#323232" d="M-770.595,591.287c-3.905,0.283-7.306-2.653-7.598-6.568l-12.057-166.399
			c-0.283-3.905,2.664-7.303,6.568-7.586l184.096-13.349c3.915-0.283,7.315,2.655,7.598,6.558l8.333,114.871
			c0.282,3.905-2.664,7.306-6.579,7.599c-3.905,0.281-7.304-2.666-7.587-6.57l-7.81-107.787l-169.94,12.318l11.553,159.316
			C-763.735,587.605-766.681,591.006-770.595,591.287z"/>
		<path fill="#323232" d="M-582.05,639.203l-122.832,8.908c-3.905,0.283-7.315-2.662-7.597-6.568
			c-0.283-3.914,2.664-7.303,6.568-7.596l115.758-8.385l-10.049-138.571c-0.282-3.905,2.665-7.305,6.569-7.588
			c3.904-0.283,7.314,2.655,7.597,6.56l10.554,145.643C-575.199,635.521-578.135,638.922-582.05,639.203z"/>
		<path fill="#323232" d="M-704.882,648.111c-1.836,0.133-3.713-0.463-5.155-1.715l-65.705-56.824
			c-2.168-1.887-3.006-4.873-2.098-7.607c0.897-2.724,3.36-4.633,6.225-4.833l61.264-4.45c3.905-0.283,7.316,2.663,7.598,6.568
			l4.44,61.265c0.202,2.866-1.332,5.581-3.905,6.861C-703.066,647.8-703.974,648.041-704.882,648.111z M-753.493,590.047
			l39.772,34.404l-2.693-37.088L-753.493,590.047z"/>
		<path fill="#323232" d="M-623.024,451.081l-129.713,9.403c-3.914,0.283-7.315-2.653-7.597-6.558
			c-0.283-3.914,2.654-7.314,6.568-7.597l129.713-9.403c3.915-0.283,7.315,2.653,7.597,6.568
			C-616.173,447.399-619.109,450.798-623.024,451.081z"/>
		<path fill="#323232" d="M-621.158,476.851l-48.692,3.531c-3.905,0.283-7.316-2.655-7.598-6.568
			c-0.282-3.905,2.663-7.306,6.568-7.588l48.693-3.531c3.914-0.283,7.315,2.653,7.598,6.558
			C-614.296,473.167-617.242,476.568-621.158,476.851z"/>
		<g>
			<path fill="#323232" d="M-702.177,482.723l-48.693,3.531c-3.914,0.283-7.315-2.653-7.597-6.568
				c-0.283-3.905,2.653-7.306,6.568-7.587l48.704-3.533c3.895-0.281,7.304,2.653,7.586,6.558
				C-695.316,479.039-698.272,482.44-702.177,482.723z"/>
		</g>
		<path fill="#323232" d="M-619.291,502.619l-48.693,3.521c-3.905,0.293-7.315-2.663-7.597-6.568
			c-0.283-3.905,2.663-7.314,6.568-7.597l48.693-3.531c3.914-0.283,7.315,2.673,7.607,6.579
			C-612.43,498.927-615.376,502.326-619.291,502.619z"/>
		<g>
			<path fill="#323232" d="M-700.311,508.491l-48.693,3.533c-3.914,0.281-7.315-2.673-7.598-6.579
				c-0.282-3.905,2.654-7.316,6.569-7.599l48.703-3.531c3.905-0.283,7.315,2.674,7.598,6.579S-696.406,508.21-700.311,508.491z"/>
		</g>
		<g>
			<path fill="#323232" d="M-617.424,528.379l-48.693,3.531c-3.904,0.283-7.315-2.663-7.597-6.558
				c-0.283-3.915,2.663-7.326,6.568-7.609l48.703-3.521c3.915-0.293,7.316,2.653,7.598,6.568
				C-610.564,524.695-613.51,528.096-617.424,528.379z"/>
		</g>
		<g>
			<path fill="#323232" d="M-698.444,534.25l-48.693,3.531c-3.915,0.283-7.315-2.653-7.597-6.558
				c-0.283-3.916,2.653-7.316,6.568-7.597l48.702-3.533c3.905-0.281,7.315,2.655,7.598,6.57
				C-691.583,530.569-694.539,533.968-698.444,534.25z"/>
		</g>
		<g>
			<path fill="#323232" d="M-631.569,555.309l-32.681,2.371c-3.905,0.281-7.315-2.654-7.597-6.57
				c-0.283-3.904,2.674-7.305,6.568-7.586l32.68-2.372c3.916-0.281,7.315,2.653,7.598,6.558
				C-624.72,551.624-627.655,555.025-631.569,555.309z"/>
		</g>
		<g>
			<path fill="#323232" d="M-696.568,560.019l-48.703,3.533c-3.915,0.28-7.315-2.655-7.598-6.57
				c-0.282-3.905,2.664-7.304,6.569-7.587l48.702-3.53c3.905-0.283,7.315,2.653,7.598,6.558
				C-689.717,556.337-692.663,559.738-696.568,560.019z"/>
		</g>
		<g>
			<path fill="#323232" d="M-629.704,581.076l-32.68,2.361c-3.905,0.283-7.315-2.652-7.598-6.568
				c-0.282-3.904,2.674-7.305,6.579-7.586l32.67-2.372c3.916-0.283,7.315,2.663,7.598,6.567
				C-622.853,577.395-625.789,580.785-629.704,581.076z"/>
		</g>
		<g>
			<path fill="#323232" d="M-611.815,605.686l-48.702,3.53c-3.895,0.283-7.315-2.673-7.598-6.578
				c-0.282-3.913,2.675-7.313,6.58-7.597l48.692-3.521c3.915-0.293,7.315,2.653,7.598,6.568
				C-604.964,601.992-607.899,605.402-611.815,605.686z"/>
		</g>
	</g>
</g>
<g>
	<g>
		<path fill="#323232" d="M-148.406,1004.082h-88.638c-2.022,0-3.663-1.641-3.663-3.663V886.663c0-2.022,1.641-3.663,3.663-3.663
			h25.286c2.022,0,3.663,1.641,3.663,3.663s-1.641,3.663-3.663,3.663h-21.623v106.431h81.313v-43.833
			c0-2.021,1.641-3.662,3.663-3.662s3.663,1.641,3.663,3.662v47.495C-144.744,1002.441-146.384,1004.082-148.406,1004.082z"/>
	</g>
	<g>
		<path fill="#323232" d="M-148.406,924.772c-2.022,0-3.663-1.641-3.663-3.663v-30.783h-21.623c-2.022,0-3.663-1.641-3.663-3.663
			s1.641-3.663,3.663-3.663h25.286c2.022,0,3.663,1.641,3.663,3.663v34.446C-144.744,923.132-146.384,924.772-148.406,924.772z"/>
	</g>
	<g>
		<g>
			<path fill="#323232" d="M-164.864,968.1c-1.083,0-2.151-0.473-2.871-1.383l-14.121-17.784c-0.601-0.763-0.877-1.731-0.768-2.699
				c0.109-0.964,0.601-1.846,1.359-2.451l50.523-40.099c1.579-1.254,3.892-0.996,5.141,0.592l14.126,17.783
				c0.601,0.764,0.877,1.731,0.772,2.699c-0.114,0.964-0.601,1.846-1.364,2.451l-50.523,40.099
				C-163.267,967.842-164.068,968.1-164.864,968.1z M-173.84,947.244l9.562,12.047l44.791-35.544l-9.571-12.047L-173.84,947.244z"/>
		</g>
		<g>
			<path fill="#323232" d="M-190.903,974.275c-1.102,0-2.165-0.501-2.866-1.383c-0.887-1.116-1.049-2.638-0.41-3.911l11.913-23.96
				c0.901-1.812,3.1-2.537,4.912-1.649c1.813,0.901,2.547,3.1,1.65,4.912l-8.441,16.963l18.432-4.368
				c1.975-0.467,3.939,0.754,4.412,2.719c0.462,1.969-0.753,3.939-2.723,4.406l-26.034,6.171
				C-190.336,974.242-190.622,974.275-190.903,974.275z"/>
		</g>
	</g>
</g>
<g>
	<path fill="#323232" d="M-615.487,986.527h-120.261c-4.86,0-8.813-3.954-8.813-8.809v-77.335c0-4.86,3.953-8.809,8.813-8.809
		h120.261c4.859,0,8.813,3.948,8.813,8.809v77.335C-606.674,982.573-610.628,986.527-615.487,986.527z M-735.749,897.24
		c-1.736,0-3.147,1.412-3.147,3.144v77.335c0,1.735,1.412,3.147,3.147,3.147h120.261c1.736,0,3.157-1.412,3.157-3.147v-77.335
		c0-1.731-1.421-3.144-3.157-3.144H-735.749z"/>
</g>
<path fill="#323232" d="M-700.109,928.76h-26.492c-1.564,0-2.837-1.27-2.837-2.828v-15.824c0-1.564,1.273-2.828,2.837-2.828h26.492
	c1.564,0,2.828,1.264,2.828,2.828v15.824C-697.281,927.49-698.545,928.76-700.109,928.76z M-723.773,923.099h20.836v-10.163h-20.836
	V923.099z"/>
<path fill="#323232" d="M-629.408,942.027h-24.36c-2.189,0-3.958-1.765-3.958-3.954c0-2.185,1.769-3.953,3.958-3.953h24.36
	c2.184,0,3.954,1.769,3.954,3.953C-625.455,940.263-627.224,942.027-629.408,942.027z"/>
<path fill="#323232" d="M-627.939,957.359h-52.693c-2.179,0-3.953-1.774-3.953-3.953c0-2.189,1.774-3.963,3.953-3.963h52.693
	c2.185,0,3.954,1.773,3.954,3.963C-623.986,955.585-625.755,957.359-627.939,957.359z"/>
<path fill="#323232" d="M-627.939,968.591h-52.693c-2.179,0-3.953-1.774-3.953-3.954c0-2.184,1.774-3.958,3.953-3.958h52.693
	c2.185,0,3.954,1.774,3.954,3.958C-623.986,966.816-625.755,968.591-627.939,968.591z"/>
<g>
	<g>
		<path fill="#323232" d="M522.967,1009.49l-86.692-83.354c-3.505-3.367-3.614-8.957-0.248-12.457l34.467-35.844
			c3.366-3.506,8.951-3.61,12.456-0.244l86.692,83.354c3.505,3.367,3.614,8.952,0.248,12.457l-34.466,35.845
			C532.062,1012.747,526.467,1012.857,522.967,1009.49z M479.024,881.68c-1.254-1.207-3.247-1.169-4.449,0.081l-34.466,35.849
			c-1.202,1.25-1.164,3.243,0.091,4.449l86.691,83.35c1.249,1.201,3.253,1.173,4.454-0.082l34.466-35.844
			c1.202-1.25,1.154-3.253-0.095-4.454L479.024,881.68z"/>
	</g>
</g>
<g>
	<g>
		<path fill="#323232" d="M-63.465,1005.68c-0.601-0.648-0.968-1.517-0.968-2.476l0.014-41.753
			c-0.005-2.027,1.636-3.667,3.667-3.667c2.017,0,3.658,1.636,3.658,3.662l-0.009,38.096l53.79,0.019l0.023-104.638l-53.79-0.019
			l0.005,72.537c0,2.021-1.646,3.658-3.667,3.662c-2.017-0.01-3.658-1.65-3.663-3.662l0.005-76.195c0-0.973,0.386-1.908,1.073-2.595
			c0.687-0.682,1.621-1.073,2.589-1.073l61.115,0.02c2.022,0.005,3.658,1.65,3.658,3.662l-0.029,111.964
			c0.005,0.968-0.386,1.902-1.073,2.589c-0.687,0.688-1.621,1.073-2.589,1.073l-61.115-0.014
			C-61.833,1006.862-62.797,1006.409-63.465,1005.68z"/>
	</g>
	<g>
		<path fill="#323232" d="M-55.224,904.313c-0.072-0.077-0.134-0.153-0.196-0.233l-8.212-10.598
			c-1.24-1.593-0.954-3.896,0.649-5.136c1.602-1.24,3.901-0.935,5.136,0.653l7.115,9.171l41.09,0.009l7.125-9.166
			c1.24-1.598,3.539-1.883,5.136-0.644c1.622,1.192,1.889,3.534,0.644,5.137l-8.217,10.592c-0.691,0.892-1.765,1.407-2.895,1.411
			l-44.681-0.009C-53.56,905.501-54.532,905.063-55.224,904.313z"/>
	</g>
	<g>
		<path fill="#323232" d="M-63.465,1005.68c-1.192-1.297-1.307-3.296-0.195-4.727l8.222-10.582c0.691-0.893,1.765-1.412,2.895-1.417
			l44.681,0.01c1.135,0.005,2.208,0.52,2.89,1.421l8.212,10.598c1.24,1.592,0.954,3.896-0.649,5.136
			c-1.602,1.24-3.93,0.982-5.136-0.653l-7.11-9.171l-41.095-0.005l-7.125,9.161c-1.24,1.598-3.543,1.884-5.136,0.649
			C-63.184,1005.966-63.331,1005.832-63.465,1005.68z"/>
	</g>
	<g>
		<path fill="#323232" d="M-32.909,995.097c-0.601-0.648-0.963-1.521-0.963-2.47l0.024-88.219c0-2.021,1.64-3.662,3.667-3.662
			c2.018,0.005,3.653,1.641,3.658,3.662l-0.024,88.219c0,2.021-1.641,3.657-3.667,3.662
			C-31.278,996.284-32.237,995.831-32.909,995.097z"/>
	</g>
</g>
<g>
	<g>
		<path fill="#323232" d="M701.796,899.384H509.188c-3.439,0-6.23-2.79-6.23-6.229V745.843c0-3.438,2.791-6.229,6.23-6.229h223.725
			c3.439,0,6.23,2.791,6.23,6.229v139.759c0,3.44-2.791,6.231-6.23,6.231s-6.229-2.791-6.229-6.231V752.073H515.418v134.851h186.378
			c3.439,0,6.23,2.791,6.23,6.231C708.026,896.594,705.235,899.384,701.796,899.384z"/>
	</g>
</g>
<g>
	<g>
		<path fill="#323232" d="M160.93,581.078c-0.802,0-1.604-0.188-2.347-0.577l-23.453-12.328l-23.446,12.328
			c-1.703,0.888-3.761,0.75-5.319-0.389c-1.558-1.132-2.334-3.043-2.005-4.938l4.484-26.108l-18.975-18.497
			c-1.375-1.341-1.867-3.345-1.276-5.173c0.592-1.829,2.177-3.163,4.078-3.438l26.207-3.808l11.731-23.755
			c1.695-3.445,7.356-3.445,9.053,0l11.723,23.755l26.221,3.808c1.901,0.275,3.486,1.61,4.077,3.438
			c0.591,1.828,0.098,3.832-1.275,5.173l-18.976,18.497l4.484,26.108c0.322,1.895-0.46,3.814-2.011,4.938
			C163.021,580.757,161.982,581.078,160.93,581.078z M135.13,557.417c0.815,0,1.618,0.189,2.354,0.577l16.74,8.805l-3.195-18.64
			c-0.276-1.637,0.263-3.309,1.459-4.472l13.544-13.209l-18.725-2.716c-1.644-0.236-3.064-1.268-3.801-2.761l-8.376-16.962
			l-8.37,16.962c-0.729,1.493-2.156,2.524-3.801,2.761l-18.718,2.716l13.545,13.209c1.197,1.163,1.735,2.835,1.459,4.472
			l-3.202,18.64l16.738-8.805C133.519,557.606,134.328,557.417,135.13,557.417z"/>
	</g>
</g>
<g>
	<g>
		<path fill="#323232" d="M559.384,777.73h-26.947c-3.439,0-6.229-2.791-6.229-6.229c0-3.44,2.79-6.231,6.229-6.231h26.947
			c3.439,0,6.23,2.791,6.23,6.231C565.614,774.939,562.823,777.73,559.384,777.73z"/>
	</g>
</g>
<g>
	<g>
		<path fill="#323232" d="M60.596,484.39H33.649c-3.439,0-6.229-2.791-6.229-6.229c0-3.44,2.79-6.231,6.229-6.231h26.947
			c3.439,0,6.23,2.791,6.23,6.231C66.827,481.599,64.036,484.39,60.596,484.39z"/>
	</g>
</g>
<g>
	<polygon fill="#FFFFFF" points="3.245,949.066 -36.443,971.948 -39.405,1016.371 43.281,1015.795 42.065,971.924 	"/>
	<g>
		<path fill="#323232" d="M44.159,1020.535h-84.441c-1.641,0-2.966-1.326-2.966-2.967v-46.012c0-1.14,0.658-2.184,1.688-2.676
			l41.376-23.678c1.488-0.715,3.248-0.076,3.954,1.397c0.706,1.479,0.076,3.253-1.397,3.953l-39.683,22.882v41.162h78.499v-41.186
			L1.461,950.545c-1.474-0.726-2.079-2.5-1.359-3.973c0.72-1.469,2.489-2.08,3.968-1.359l41.396,23.683
			c1.016,0.496,1.66,1.531,1.66,2.661v46.012C47.125,1019.209,45.799,1020.535,44.159,1020.535z"/>
	</g>
	<g>
		<path fill="#323232" d="M1.938,998.707c-0.515,0-1.021-0.129-1.474-0.396l-42.22-24.18c-1.426-0.811-1.913-2.628-1.102-4.044
			c0.815-1.421,2.613-1.917,4.054-1.102l40.742,23.335l40.742-23.335c1.44-0.815,3.243-0.319,4.054,1.102
			c0.811,1.416,0.324,3.233-1.102,4.044l-42.221,24.18C2.954,998.578,2.448,998.707,1.938,998.707z"/>
	</g>
	<g>
		<path fill="#323232" d="M-40.277,1017.854c-0.921,0-1.827-0.424-2.404-1.216c-0.963-1.326-0.672-3.181,0.653-4.148l33.321-24.246
			c1.34-0.959,3.186-0.663,4.145,0.658c0.963,1.32,0.672,3.176-0.653,4.139l-33.322,24.251
			C-39.066,1017.674-39.677,1017.854-40.277,1017.854z"/>
	</g>
	<g>
		<path fill="#323232" d="M44.154,1017.854c-0.606,0-1.221-0.181-1.75-0.572l-32.158-23.583c-1.326-0.968-1.612-2.823-0.639-4.145
			c0.963-1.32,2.809-1.621,4.144-0.639l32.158,23.583c1.326,0.964,1.607,2.828,0.639,4.145
			C45.971,1017.436,45.069,1017.854,44.154,1017.854z"/>
	</g>
</g>
<path fill="#323232" d="M375.937,1013.644c-0.033,0-0.062,0-0.1,0h-88.714c-1.135,0-2.198-0.52-2.89-1.411
	c-0.696-0.893-0.939-2.056-0.663-3.152c6.319-24.957,8.961-53.781,2.551-58.359c-1.354,0.797-4.831,4.449-7.458,8.094
	c-0.663,0.915-1.708,1.479-2.843,1.516c-1.092,0.129-2.212-0.438-2.938-1.302l-19.219-22.892c-0.639-0.768-0.944-1.76-0.834-2.751
	c0.109-0.992,0.615-1.898,1.407-2.509c0.253-0.191,25.057-19.276,31.905-26.74l1.159-1.292c3.419-3.839,7.268-8.16,17.011-10.525
	l4.139-9.314c0.582-1.325,1.898-2.179,3.348-2.179h39.373c1.445,0,2.757,0.854,3.348,2.179l4.13,9.314
	c9.743,2.365,13.591,6.687,17.011,10.525l1.159,1.292c6.848,7.469,31.652,26.549,31.904,26.74c0.792,0.61,1.298,1.517,1.407,2.509
	c0.109,0.991-0.195,1.983-0.835,2.751l-19.219,22.892c-0.725,0.863-1.793,1.431-2.938,1.302c-1.136-0.037-2.18-0.601-2.843-1.516
	c-2.557-3.539-5.909-7.092-7.535-8.041c-6.247,4.692-3.72,32.85,2.433,57.533c0.257,0.501,0.405,1.068,0.405,1.675
	C379.6,1012.003,377.959,1013.644,375.937,1013.644z M291.772,1006.318h79.414c-3.62-15.686-11.307-55.846,3.104-62.561
	c0.706-0.329,1.47-0.496,2.271-0.496c3.577,0,7.692,3.868,10.816,7.583l13.858-16.501c-6.986-5.446-23.969-18.885-29.815-25.257
	l-1.23-1.368c-3.42-3.84-6.119-6.873-14.861-8.633c-1.164-0.233-2.146-1.021-2.623-2.107l-3.92-8.828h-34.609l-3.916,8.828
	c-0.486,1.087-1.459,1.874-2.628,2.107c-8.747,1.76-11.446,4.793-14.865,8.633l-1.23,1.368c-5.847,6.372-22.83,19.811-29.816,25.257
	l13.859,16.501c3.124-3.715,7.239-7.583,10.816-7.583c0.801,0,1.564,0.167,2.27,0.496
	C303.08,950.473,295.392,990.633,291.772,1006.318z"/>
<g>
	<path fill="#323232" d="M331.637,909.312c-1.025,0-2.309-0.43-3-1.179l-19.534-21.16c-1.369-1.487-1.278-3.806,0.205-5.174
		c1.488-1.379,3.806-1.288,5.179,0.205l16.997,18.408l16.992-18.408c1.378-1.493,3.696-1.584,5.174-0.205
		c1.488,1.368,1.583,3.687,0.21,5.174l-19.534,21.16C333.63,908.882,332.658,909.312,331.637,909.312z"/>
</g>
<g>
	<path fill="none" stroke="#323333" stroke-width="3" stroke-miterlimit="10" d="M-76.378,184.773c0,4.791-3.884,8.675-8.675,8.675
		h-147.479c-4.792,0-8.676-3.884-8.676-8.675v-50.316V62.162c0-4.791,3.884-8.675,8.676-8.675h147.479
		c4.792,0,8.675,3.885,8.675,8.675V184.773z"/>
	
		<polyline fill="none" stroke="#323333" stroke-width="3" stroke-linecap="round" stroke-linejoin="round" stroke-miterlimit="10" points="
		-241.209,146.149 -215.646,117.231 -176.262,153.953 	"/>
	
		<polyline fill="none" stroke="#323333" stroke-width="3" stroke-linecap="round" stroke-linejoin="round" stroke-miterlimit="10" points="
		-190.362,140.806 -169.132,121.404 -91.168,193.449 	"/>
	
		<circle fill="none" stroke="#323333" stroke-width="3" stroke-linecap="round" stroke-linejoin="round" stroke-miterlimit="10" cx="-119.093" cy="88.141" r="22.773"/>
</g>
<line fill="none" stroke="#323232" stroke-width="3" stroke-linecap="round" stroke-miterlimit="10" x1="157.912" y1="216.077" x2="244.822" y2="216.076"/>
<line fill="none" stroke="#323232" stroke-width="3" stroke-linecap="round" stroke-miterlimit="10" x1="112.136" y1="231.771" x2="244.822" y2="231.771"/>
<line fill="none" stroke="#323232" stroke-width="3" stroke-linecap="round" stroke-miterlimit="10" x1="56.912" y1="248.25" x2="244.822" y2="248.25"/>
<line fill="none" stroke="#323232" stroke-width="6" stroke-linecap="round" stroke-miterlimit="10" x1="317.653" y1="66.029" x2="317.653" y2="302.008"/>
<line fill="none" stroke="#323232" stroke-width="6" stroke-linecap="round" stroke-miterlimit="10" x1="516.76" y1="76.529" x2="317.653" y2="76.529"/>
<line fill="none" stroke="#323232" stroke-width="6" stroke-linecap="round" stroke-miterlimit="10" x1="516.76" y1="157.426" x2="317.653" y2="157.426"/>
<line fill="none" stroke="#323232" stroke-width="6" stroke-linecap="round" stroke-miterlimit="10" x1="516.76" y1="66.029" x2="516.76" y2="302.008"/>
<g>
	<path fill="none" stroke="#323333" stroke-width="6" stroke-miterlimit="10" d="M261.412,262.206c0,6.759-5.479,12.24-12.241,12.24
		H21.103c-6.76,0-12.241-5.48-12.241-12.24v-70.987v-67.793c0-6.759,5.48-12.24,12.241-12.24h228.069
		c6.761,0,12.241,5.48,12.241,12.24V262.206z"/>
</g>
<g>
	<path fill="none" stroke="#323333" stroke-width="6" stroke-miterlimit="10" d="M261.412,605.836
		c0,6.759-5.479,12.239-12.241,12.239H21.103c-6.76,0-12.241-5.48-12.241-12.239v-70.987v-67.793c0-6.759,5.48-12.24,12.241-12.24
		h228.069c6.761,0,12.241,5.48,12.241,12.24V605.836z"/>
</g>
<g>
	<path fill="none" stroke="#323333" stroke-width="3" stroke-miterlimit="10" d="M96.526,187.708c0,6.759-5.479,12.24-12.241,12.24
		H40.317c-6.76,0-12.241-5.48-12.241-12.24v-24.372v-21.71c0-6.759,5.48-12.24,12.241-12.24h43.968
		c6.761,0,12.241,5.48,12.241,12.24V187.708z"/>
</g>
<circle fill="none" stroke="#323333" stroke-miterlimit="10" cx="186.35" cy="183.629" r="9.217"/>
<circle fill="none" stroke="#323333" stroke-miterlimit="10" cx="208.3" cy="183.629" r="9.217"/>
<circle fill="none" stroke="#323333" stroke-miterlimit="10" cx="229.274" cy="183.629" r="9.217"/>
<path fill="none" stroke="#323232" stroke-width="6" stroke-miterlimit="10" d="M-59.241,296.682c0,1.657-1.343,3-3,3h-193.106
	c-1.657,0-3-1.343-3-3V38.007c0-1.657,1.343-3,3-3h193.106c1.657,0,3,1.343,3,3V296.682z"/>
<path fill="#BAE3F9" stroke="#323232" stroke-width="6" stroke-miterlimit="10" d="M-65.004,622.22
	c-0.117,1.385-1.334,2.414-2.72,2.297l-161.488-13.588c-1.386-0.117-2.415-1.334-2.298-2.719l18.202-216.323
	c0.117-1.386,1.334-2.414,2.72-2.298L-49.1,403.178c1.386,0.116,2.415,1.334,2.298,2.72L-65.004,622.22z"/>
<path fill="#FFFCD3" stroke="#323232" stroke-width="6" stroke-miterlimit="10" d="M-67.694,610.588
	c0.1,1.387-0.944,2.592-2.331,2.691l-161.644,11.596c-1.387,0.1-2.592-0.943-2.691-2.33l-15.534-216.53
	c-0.1-1.387,0.944-2.592,2.331-2.691l161.644-11.597c1.387-0.099,2.592,0.944,2.691,2.331L-67.694,610.588z"/>
<path fill="#FFFFFF" stroke="#323232" stroke-width="6" stroke-miterlimit="10" d="M-81.102,628.981
	c0.128,1.384-0.89,2.61-2.275,2.738l-161.368,14.955c-1.385,0.128-2.611-0.89-2.739-2.274l-20.032-216.16
	c-0.128-1.385,0.89-2.611,2.274-2.739l161.368-14.955c1.385-0.128,2.611,0.89,2.739,2.275L-81.102,628.981z"/>
<line fill="none" stroke="#323232" stroke-width="3" stroke-linecap="round" stroke-miterlimit="10" x1="-252.874" y1="450.791" x2="-120.734" y2="438.769"/>
<line fill="none" stroke="#323232" stroke-width="3" stroke-linecap="round" stroke-miterlimit="10" x1="-249.9" y1="478.291" x2="-117.761" y2="466.269"/>
<line fill="none" stroke="#323232" stroke-width="3" stroke-linecap="round" stroke-miterlimit="10" x1="-246.76" y1="502.291" x2="-114.621" y2="490.269"/>
<line fill="none" stroke="#323232" stroke-width="3" stroke-linecap="round" stroke-miterlimit="10" x1="-244.039" y1="523.377" x2="-111.899" y2="511.355"/>
<line fill="none" stroke="#323232" stroke-width="3" stroke-linecap="round" stroke-miterlimit="10" x1="-240.898" y1="546.994" x2="-108.759" y2="534.972"/>
<line fill="none" stroke="#323232" stroke-width="3" stroke-linecap="round" stroke-miterlimit="10" x1="-240.379" y1="571.289" x2="-108.239" y2="559.268"/>
<line fill="none" stroke="#323232" stroke-width="3" stroke-linecap="round" stroke-miterlimit="10" x1="-157.032" y1="605.837" x2="-108.239" y2="601.397"/>
<polygon fill="none" stroke="#323232" stroke-width="0.5" stroke-miterlimit="10" points="133.079,480.301 113.746,510.529 
	84.079,517.529 82.079,531.862 99.079,554.862 96.412,588.529 106.079,596.525 134.206,579.529 155.412,593.862 175.746,584.529 
	170.079,552.529 185.079,536.445 188.412,521.196 155.746,510.529 142.746,480.301 "/>
</svg>
