<?xml version="1.0" encoding="utf-8"?>
<!-- Generator: Adobe Illustrator 16.0.0, SVG Export Plug-In . SVG Version: 6.00 Build 0)  -->
<!DOCTYPE svg PUBLIC "-//W3C//DTD SVG 1.1//EN" "http://www.w3.org/Graphics/SVG/1.1/DTD/svg11.dtd">
<svg version="1.1" id="레이어_1" xmlns="http://www.w3.org/2000/svg" xmlns:xlink="http://www.w3.org/1999/xlink" x="0px"
	 y="0px" width="268.412px" height="334.754px" viewBox="0 0 268.412 334.754" enable-background="new 0 0 268.412 334.754"
	 xml:space="preserve">
<g>
	<path fill="#323232" d="M-212.176-462.871c0,1.048-0.203,1.904-0.608,2.571c-0.406,0.667-0.935,1.19-1.59,1.569
		c-0.653,0.379-1.373,0.641-2.157,0.785c-0.784,0.144-1.544,0.215-2.276,0.215c-0.732,0-1.491-0.071-2.276-0.215
		c-0.784-0.144-1.504-0.406-2.158-0.785c-0.654-0.379-1.19-0.903-1.609-1.569c-0.418-0.667-0.627-1.523-0.627-2.571v-21.934
		c0-1.02,0.216-1.863,0.647-2.531c0.431-0.667,0.967-1.19,1.609-1.569c0.64-0.379,1.354-0.64,2.138-0.784
		c0.785-0.144,1.531-0.216,2.237-0.216s1.453,0.073,2.237,0.216s1.504,0.405,2.158,0.784c0.653,0.379,1.197,0.896,1.628,1.55
		c0.432,0.654,0.648,1.505,0.648,2.55V-462.871z M-215.118-485c0-0.707-0.118-1.276-0.353-1.708c-0.236-0.431-0.53-0.765-0.884-1
		c-0.353-0.236-0.759-0.393-1.216-0.471c-0.458-0.079-0.896-0.117-1.314-0.117c-0.392,0-0.804,0.039-1.236,0.117
		c-0.432,0.079-0.824,0.235-1.177,0.471c-0.353,0.235-0.647,0.569-0.883,1c-0.235,0.431-0.353,1-0.353,1.708v22.365
		c0,0.707,0.118,1.27,0.353,1.688c0.236,0.418,0.53,0.745,0.883,0.98c0.353,0.236,0.752,0.393,1.197,0.471
		c0.444,0.079,0.863,0.117,1.255,0.117c0.418,0,0.85-0.038,1.295-0.117c0.444-0.079,0.85-0.235,1.216-0.471
		c0.366-0.236,0.66-0.563,0.883-0.98c0.222-0.418,0.334-0.981,0.334-1.688V-485z"/>
	<path fill="#323232" d="M-195.304-462.871c0,1.048-0.203,1.904-0.608,2.571c-0.406,0.667-0.936,1.19-1.588,1.569
		c-0.655,0.379-1.374,0.641-2.159,0.785c-0.785,0.144-1.544,0.215-2.275,0.215c-0.733,0-1.491-0.071-2.276-0.215
		c-0.785-0.144-1.504-0.406-2.158-0.785c-0.653-0.379-1.19-0.903-1.608-1.569c-0.419-0.667-0.627-1.523-0.627-2.571v-21.934
		c0-1.02,0.215-1.863,0.647-2.531c0.432-0.667,0.967-1.19,1.609-1.569c0.641-0.379,1.354-0.64,2.138-0.784
		c0.785-0.144,1.53-0.216,2.237-0.216c0.706,0,1.452,0.073,2.236,0.216c0.785,0.144,1.503,0.405,2.158,0.784
		c0.654,0.379,1.197,0.896,1.628,1.55c0.432,0.654,0.647,1.505,0.647,2.55V-462.871z M-198.247-485c0-0.707-0.118-1.276-0.353-1.708
		s-0.53-0.765-0.883-1c-0.353-0.236-0.759-0.393-1.216-0.471c-0.458-0.079-0.897-0.117-1.315-0.117
		c-0.392,0-0.804,0.039-1.235,0.117c-0.432,0.079-0.825,0.235-1.178,0.471c-0.353,0.235-0.647,0.569-0.882,1
		c-0.236,0.431-0.354,1-0.354,1.708v22.365c0,0.707,0.118,1.27,0.354,1.688c0.235,0.418,0.53,0.745,0.882,0.98
		s0.751,0.393,1.197,0.471c0.444,0.079,0.863,0.117,1.255,0.117c0.418,0,0.849-0.038,1.295-0.117
		c0.443-0.079,0.849-0.235,1.216-0.471c0.366-0.236,0.66-0.563,0.883-0.98c0.222-0.418,0.333-0.981,0.333-1.688V-485z"/>
	<path fill="#323232" d="M-178.432-462.871c0,1.048-0.204,1.904-0.608,2.571c-0.407,0.667-0.936,1.19-1.589,1.569
		c-0.654,0.379-1.373,0.641-2.159,0.785c-0.784,0.144-1.543,0.215-2.275,0.215c-0.733,0-1.492-0.071-2.276-0.215
		c-0.785-0.144-1.503-0.406-2.158-0.785c-0.654-0.379-1.191-0.903-1.609-1.569c-0.418-0.667-0.628-1.523-0.628-2.571v-21.934
		c0-1.02,0.216-1.863,0.648-2.531c0.431-0.667,0.967-1.19,1.608-1.569c0.641-0.379,1.354-0.64,2.138-0.784s1.531-0.216,2.237-0.216
		s1.452,0.073,2.236,0.216c0.785,0.144,1.504,0.405,2.158,0.784c0.654,0.379,1.197,0.896,1.628,1.55
		c0.432,0.654,0.648,1.505,0.648,2.55V-462.871z M-181.375-485c0-0.707-0.117-1.276-0.353-1.708c-0.236-0.431-0.531-0.765-0.883-1
		c-0.353-0.236-0.759-0.393-1.216-0.471c-0.458-0.079-0.897-0.117-1.314-0.117c-0.392,0-0.805,0.039-1.236,0.117
		c-0.431,0.079-0.824,0.235-1.177,0.471c-0.354,0.235-0.648,0.569-0.883,1s-0.353,1-0.353,1.708v22.365
		c0,0.707,0.118,1.27,0.353,1.688c0.235,0.418,0.53,0.745,0.883,0.98c0.353,0.236,0.751,0.393,1.197,0.471
		c0.444,0.079,0.863,0.117,1.255,0.117c0.417,0,0.85-0.038,1.294-0.117c0.444-0.079,0.85-0.235,1.216-0.471
		c0.367-0.236,0.66-0.563,0.883-0.98c0.222-0.418,0.333-0.981,0.333-1.688V-485z"/>
	<path fill="#323232" d="M-173.841-475.035h13.223v1.649h-13.223V-475.035z"/>
	<path fill="#323232" d="M-142.726-462.871c0,1.048-0.203,1.904-0.608,2.571c-0.406,0.667-0.936,1.19-1.589,1.569
		c-0.654,0.379-1.373,0.641-2.159,0.785c-0.785,0.144-1.543,0.215-2.275,0.215c-0.733,0-1.492-0.071-2.276-0.215
		c-0.785-0.144-1.504-0.406-2.158-0.785c-0.654-0.379-1.19-0.903-1.609-1.569c-0.418-0.667-0.628-1.523-0.628-2.571v-21.934
		c0-1.02,0.216-1.863,0.648-2.531c0.431-0.667,0.967-1.19,1.608-1.569c0.641-0.379,1.353-0.64,2.138-0.784
		c0.784-0.144,1.531-0.216,2.237-0.216c0.706,0,1.452,0.073,2.236,0.216c0.785,0.144,1.504,0.405,2.158,0.784
		c0.653,0.379,1.197,0.896,1.628,1.55c0.431,0.654,0.647,1.505,0.647,2.55V-462.871z M-145.669-485c0-0.707-0.117-1.276-0.353-1.708
		c-0.235-0.431-0.53-0.765-0.883-1c-0.353-0.236-0.759-0.393-1.217-0.471c-0.458-0.079-0.896-0.117-1.314-0.117
		c-0.393,0-0.805,0.039-1.236,0.117s-0.824,0.235-1.177,0.471c-0.353,0.235-0.648,0.569-0.883,1s-0.353,1-0.353,1.708v22.365
		c0,0.707,0.118,1.27,0.353,1.688c0.235,0.418,0.53,0.745,0.883,0.98s0.751,0.393,1.197,0.471c0.444,0.079,0.863,0.117,1.255,0.117
		c0.418,0,0.849-0.038,1.295-0.117c0.444-0.079,0.85-0.235,1.216-0.471c0.366-0.236,0.66-0.563,0.883-0.98
		c0.222-0.418,0.333-0.981,0.333-1.688V-485z"/>
	<path fill="#323232" d="M-125.854-462.871c0,1.048-0.203,1.904-0.608,2.571c-0.406,0.667-0.935,1.19-1.589,1.569
		c-0.654,0.379-1.374,0.641-2.158,0.785c-0.785,0.144-1.544,0.215-2.276,0.215c-0.733,0-1.491-0.071-2.276-0.215
		c-0.784-0.144-1.504-0.406-2.158-0.785c-0.654-0.379-1.191-0.903-1.609-1.569c-0.419-0.667-0.628-1.523-0.628-2.571v-21.934
		c0-1.02,0.216-1.863,0.647-2.531c0.432-0.667,0.968-1.19,1.609-1.569c0.64-0.379,1.354-0.64,2.138-0.784
		c0.785-0.144,1.531-0.216,2.236-0.216c0.707,0,1.453,0.073,2.237,0.216c0.784,0.144,1.503,0.405,2.158,0.784
		c0.653,0.379,1.197,0.896,1.628,1.55c0.431,0.654,0.647,1.505,0.647,2.55V-462.871z M-128.798-485c0-0.707-0.117-1.276-0.353-1.708
		c-0.235-0.431-0.53-0.765-0.883-1c-0.353-0.236-0.759-0.393-1.216-0.471s-0.896-0.117-1.314-0.117
		c-0.392,0-0.805,0.039-1.236,0.117s-0.824,0.235-1.177,0.471c-0.353,0.235-0.647,0.569-0.883,1s-0.353,1-0.353,1.708v22.365
		c0,0.707,0.118,1.27,0.353,1.688c0.235,0.418,0.53,0.745,0.883,0.98c0.353,0.236,0.751,0.393,1.197,0.471
		c0.444,0.079,0.863,0.117,1.255,0.117c0.418,0,0.85-0.038,1.295-0.117c0.444-0.079,0.849-0.235,1.216-0.471
		c0.366-0.236,0.66-0.563,0.883-0.98c0.222-0.418,0.333-0.981,0.333-1.688V-485z"/>
	<path fill="#323232" d="M-108.983-462.871c0,1.048-0.203,1.904-0.607,2.571c-0.406,0.667-0.936,1.19-1.589,1.569
		c-0.654,0.379-1.374,0.641-2.158,0.785c-0.785,0.144-1.544,0.215-2.276,0.215c-0.732,0-1.491-0.071-2.276-0.215
		c-0.785-0.144-1.504-0.406-2.158-0.785c-0.654-0.379-1.19-0.903-1.608-1.569c-0.419-0.667-0.628-1.523-0.628-2.571v-21.934
		c0-1.02,0.215-1.863,0.647-2.531c0.431-0.667,0.967-1.19,1.609-1.569c0.641-0.379,1.354-0.64,2.138-0.784s1.53-0.216,2.236-0.216
		c0.707,0,1.452,0.073,2.237,0.216c0.784,0.144,1.504,0.405,2.158,0.784c0.654,0.379,1.197,0.896,1.628,1.55
		c0.432,0.654,0.647,1.505,0.647,2.55V-462.871z M-111.926-485c0-0.707-0.117-1.276-0.353-1.708c-0.235-0.431-0.53-0.765-0.882-1
		c-0.353-0.236-0.759-0.393-1.217-0.471c-0.457-0.079-0.896-0.117-1.314-0.117c-0.393,0-0.805,0.039-1.236,0.117
		c-0.432,0.079-0.825,0.235-1.178,0.471c-0.353,0.235-0.647,0.569-0.883,1c-0.234,0.431-0.353,1-0.353,1.708v22.365
		c0,0.707,0.119,1.27,0.353,1.688c0.235,0.418,0.53,0.745,0.883,0.98s0.751,0.393,1.197,0.471c0.444,0.079,0.863,0.117,1.255,0.117
		c0.418,0,0.85-0.038,1.295-0.117c0.445-0.079,0.85-0.235,1.217-0.471c0.365-0.236,0.66-0.563,0.883-0.98
		c0.222-0.418,0.333-0.981,0.333-1.688V-485z"/>
	<path fill="#323232" d="M-92.111-462.871c0,1.048-0.203,1.904-0.608,2.571c-0.406,0.667-0.936,1.19-1.589,1.569
		c-0.654,0.379-1.373,0.641-2.159,0.785c-0.784,0.144-1.543,0.215-2.275,0.215c-0.732,0-1.491-0.071-2.276-0.215
		c-0.785-0.144-1.504-0.406-2.158-0.785c-0.654-0.379-1.19-0.903-1.609-1.569c-0.418-0.667-0.627-1.523-0.627-2.571v-21.934
		c0-1.02,0.216-1.863,0.647-2.531c0.432-0.667,0.968-1.19,1.609-1.569c0.64-0.379,1.353-0.64,2.138-0.784
		c0.785-0.144,1.531-0.216,2.237-0.216s1.452,0.073,2.236,0.216c0.785,0.144,1.505,0.405,2.158,0.784
		c0.654,0.379,1.197,0.896,1.628,1.55c0.432,0.654,0.647,1.505,0.647,2.55V-462.871z M-95.053-485c0-0.707-0.118-1.276-0.353-1.708
		c-0.236-0.431-0.53-0.765-0.883-1c-0.353-0.236-0.759-0.393-1.216-0.471c-0.458-0.079-0.897-0.117-1.315-0.117
		c-0.392,0-0.804,0.039-1.236,0.117s-0.824,0.235-1.177,0.471c-0.354,0.235-0.648,0.569-0.884,1c-0.235,0.431-0.353,1-0.353,1.708
		v22.365c0,0.707,0.118,1.27,0.353,1.688c0.236,0.418,0.53,0.745,0.884,0.98c0.353,0.236,0.751,0.393,1.196,0.471
		c0.445,0.079,0.864,0.117,1.256,0.117c0.417,0,0.85-0.038,1.294-0.117c0.444-0.079,0.85-0.235,1.216-0.471
		c0.367-0.236,0.661-0.563,0.883-0.98c0.222-0.418,0.334-0.981,0.334-1.688V-485z"/>
</g>
<g>
	<path fill="#323232" d="M246.29,743.613H128.213c-4.941,0-8.966-4.021-8.966-8.966v-58.679c0-4.945,4.025-8.965,8.966-8.965H246.29
		c4.94,0,8.966,4.02,8.966,8.965v58.679C255.256,739.593,251.23,743.613,246.29,743.613z M128.213,672.765
		c-1.765,0-3.205,1.436-3.205,3.204v58.679c0,1.77,1.44,3.205,3.205,3.205H246.29c1.764,0,3.205-1.436,3.205-3.205v-58.679
		c0-1.769-1.44-3.204-3.205-3.204H128.213z"/>
	<g>
		<g>
			<path fill="#323232" d="M135.753,713.216c-1.254,0-2.409-0.306-3.434-0.916c-1.021-0.61-1.836-1.454-2.417-2.519
				c-0.582-1.059-0.873-2.241-0.873-3.533c0-1.273,0.305-2.447,0.896-3.486c0.596-1.035,1.421-1.865,2.456-2.466
				c1.813-1.054,4.135-1.245,6.267-0.286c0.901,0.405,1.688,0.964,2.332,1.66c0.234,0.252,0.248,0.639,0.034,0.91l-1.684,2.123
				c-0.138,0.166-0.339,0.271-0.553,0.271h-0.005c-0.214-0.005-0.419-0.105-0.548-0.281c-0.319-0.41-0.682-0.729-1.121-0.969
				c-0.887-0.496-1.779-0.424-2.461,0.015c-0.381,0.243-0.672,0.563-0.892,0.997c-0.224,0.434-0.344,0.935-0.344,1.479
				c0,0.563,0.115,1.059,0.344,1.512c0.219,0.429,0.515,0.763,0.906,1.016c0.668,0.434,1.483,0.51,2.428,0.048
				c0.438-0.215,0.834-0.516,1.173-0.888c0.134-0.147,0.324-0.229,0.52-0.229h0.005c0.2,0,0.386,0.086,0.52,0.233l1.703,1.913
				c0.238,0.271,0.234,0.677-0.009,0.939c-0.677,0.738-1.493,1.335-2.409,1.778C137.646,712.986,136.697,713.216,135.753,713.216z"
				/>
		</g>
	</g>
	<g>
		<g>
			<path fill="#323232" d="M147.875,713.216c-1.273,0-2.446-0.306-3.496-0.906c-1.054-0.61-1.888-1.455-2.484-2.514
				c-0.601-1.054-0.901-2.241-0.901-3.529c0-1.287,0.3-2.47,0.901-3.51c0.601-1.044,1.435-1.874,2.475-2.476
				c2.084-1.188,4.921-1.188,7.02,0.015c1.054,0.601,1.884,1.431,2.48,2.476c0.601,1.035,0.901,2.217,0.901,3.495
				c0,1.293-0.301,2.485-0.897,3.529c-0.596,1.059-1.431,1.903-2.48,2.514C150.341,712.91,149.154,713.216,147.875,713.216z
				 M147.909,703.382c-0.448,0-0.849,0.119-1.235,0.362c-0.396,0.253-0.706,0.587-0.944,1.035c-0.238,0.453-0.357,0.944-0.357,1.507
				c0,0.558,0.119,1.059,0.362,1.521c0.234,0.453,0.543,0.792,0.944,1.044c0.768,0.491,1.698,0.491,2.442,0.005
				c0.386-0.253,0.682-0.591,0.916-1.04c0.234-0.462,0.348-0.963,0.348-1.53s-0.114-1.063-0.348-1.517
				c-0.229-0.438-0.529-0.777-0.911-1.03C148.753,703.501,148.353,703.382,147.909,703.382z"/>
		</g>
	</g>
	<g>
		<g>
			<path fill="#323232" d="M161.51,713.216c-1.192,0-2.241-0.248-3.128-0.729c-0.916-0.487-1.626-1.197-2.127-2.104
				c-0.481-0.896-0.729-1.946-0.729-3.119v-7.072c0-0.387,0.314-0.701,0.701-0.701h2.909c0.387,0,0.701,0.314,0.701,0.701v7.072
				c0,0.635,0.153,1.111,0.477,1.459c0.61,0.668,1.779,0.678,2.361,0.02c0.305-0.348,0.458-0.83,0.458-1.479v-7.072
				c0-0.387,0.315-0.701,0.701-0.701h2.899c0.386,0,0.696,0.314,0.696,0.701v7.072c0,1.173-0.243,2.223-0.725,3.114
				c-0.482,0.901-1.188,1.612-2.094,2.108C163.728,712.968,162.684,713.216,161.51,713.216z"/>
		</g>
	</g>
	<g>
		<g>
			<path fill="#323232" d="M172.365,713.077h-2.914c-0.386,0-0.701-0.314-0.701-0.701v-12.185c0-0.387,0.314-0.701,0.701-0.701
				h4.993c1.631,0,2.933,0.434,3.873,1.292c0.954,0.868,1.445,2.104,1.445,3.658c0,1.616-0.482,2.904-1.431,3.825
				c-0.939,0.925-2.247,1.388-3.887,1.388h-1.378v2.723C173.066,712.763,172.751,713.077,172.365,713.077z M173.066,705.814h1.23
				c0.462,0,0.787-0.105,1.001-0.311c0.2-0.195,0.3-0.516,0.3-0.963c0-0.43-0.09-0.726-0.295-0.911
				c-0.215-0.196-0.553-0.296-1.006-0.296h-1.23V705.814z"/>
		</g>
	</g>
	<g>
		<g>
			<path fill="#323232" d="M187.025,713.216c-1.273,0-2.446-0.306-3.496-0.906c-1.049-0.61-1.889-1.455-2.485-2.514
				c-0.601-1.054-0.901-2.241-0.901-3.529c0-1.287,0.301-2.47,0.906-3.51c0.596-1.044,1.431-1.874,2.475-2.476
				c2.084-1.188,4.917-1.188,7.015,0.015c1.054,0.601,1.889,1.431,2.485,2.476c0.596,1.035,0.901,2.217,0.901,3.495
				c0,1.293-0.305,2.485-0.901,3.529c-0.596,1.059-1.431,1.903-2.48,2.514C189.491,712.91,188.308,713.216,187.025,713.216z
				 M187.058,703.382c-0.448,0-0.849,0.119-1.235,0.362c-0.396,0.253-0.701,0.587-0.944,1.035c-0.239,0.453-0.358,0.944-0.358,1.507
				c0,0.558,0.119,1.059,0.362,1.521c0.239,0.453,0.549,0.792,0.944,1.044c0.768,0.491,1.698,0.491,2.442,0.005
				c0.386-0.253,0.687-0.591,0.916-1.04c0.234-0.462,0.348-0.963,0.348-1.53s-0.114-1.063-0.348-1.517
				c-0.229-0.438-0.529-0.777-0.911-1.03C187.902,703.501,187.506,703.382,187.058,703.382z"/>
		</g>
	</g>
	<g>
		<g>
			<path fill="#323232" d="M206.144,713.077h-2.566c-0.224,0-0.443-0.114-0.572-0.296l-3.997-5.694v5.289
				c0,0.387-0.314,0.701-0.701,0.701h-2.733c-0.386,0-0.696-0.314-0.696-0.701v-12.185c0-0.387,0.31-0.701,0.696-0.701h2.575
				c0.229,0,0.444,0.109,0.572,0.301l4.006,5.703v-5.303c0-0.387,0.314-0.701,0.701-0.701h2.714c0.386,0,0.701,0.314,0.701,0.701
				v12.185C206.845,712.763,206.53,713.077,206.144,713.077z"/>
		</g>
	</g>
	<g>
		<path fill="#323232" d="M150.813,685.212c-6.09,0-11.041-4.078-11.041-9.09c0-5.018,4.95-9.1,11.041-9.1l2.79-0.024
			c2.255,0,8.25,0,8.25,5.861C161.854,677.72,157.113,685.212,150.813,685.212z M153.604,672.76l-2.79,0.023
			c-3.114,0-5.279,1.76-5.279,3.339c0,1.573,2.165,3.329,5.279,3.329c2.456,0,5.222-4.212,5.279-6.52
			C155.75,672.846,155.039,672.76,153.604,672.76z"/>
	</g>
	<g>
		<path fill="#323232" d="M176.9,682.021c-18.537,0-20.683-11.17-20.764-11.646c-0.186-1.078,0.253-2.17,1.135-2.813
			c0.882-0.653,2.046-0.744,3.023-0.233l17.922,9.256c1.183,0.605,1.793,1.946,1.479,3.234
			C179.385,681.115,178.226,682.021,176.9,682.021z"/>
	</g>
	<g>
		<path fill="#323232" d="M153.604,672.765L153.604,672.765l-2.79-0.024c-6.09,0-11.041-4.077-11.041-9.1
			c0-5.012,4.95-9.09,11.041-9.09c6.3,0,11.041,7.492,11.041,12.357c0,2.413-1.154,4.239-3.253,5.141
			C157.218,672.645,155.602,672.765,153.604,672.765z M150.813,660.313c-3.114,0-5.279,1.755-5.279,3.328
			c0,1.579,2.165,3.339,5.279,3.339l2.79,0.024l0,0c1.412,0,2.117-0.082,2.465-0.168
			C155.907,664.328,153.212,660.313,150.813,660.313z"/>
	</g>
	<g>
		<path fill="#323232" d="M158.973,672.765c-0.601,0-1.202-0.187-1.702-0.559c-0.882-0.644-1.321-1.735-1.135-2.813
			c0.081-0.477,2.227-11.65,20.764-11.65c1.326,0,2.485,0.91,2.795,2.203c0.315,1.287-0.296,2.628-1.474,3.238l-17.922,9.257
			C159.879,672.659,159.426,672.765,158.973,672.765z"/>
	</g>
	<g>
		<g>
			<rect x="217.795" y="673.565" fill="#323232" width="7.325" height="16.582"/>
		</g>
	</g>
	<g>
		<g>
			<rect x="217.795" y="698.012" fill="#323232" width="7.325" height="16.582"/>
		</g>
	</g>
	<g>
		<g>
			<rect x="217.795" y="722.453" fill="#323232" width="7.325" height="16.587"/>
		</g>
	</g>
</g>
<g>
	<path fill="#323232" d="M-576.171,750.801h-120.261c-4.86,0-8.813-3.954-8.813-8.809v-77.335c0-4.86,3.953-8.809,8.813-8.809
		h120.261c4.859,0,8.813,3.948,8.813,8.809v77.335C-567.358,746.847-571.312,750.801-576.171,750.801z M-696.433,661.514
		c-1.736,0-3.147,1.412-3.147,3.144v77.335c0,1.735,1.412,3.147,3.147,3.147h120.261c1.736,0,3.157-1.412,3.157-3.147v-77.335
		c0-1.731-1.421-3.144-3.157-3.144H-696.433z"/>
</g>
<path fill="#323232" d="M-660.793,693.033h-26.492c-1.564,0-2.837-1.27-2.837-2.828v-15.824c0-1.564,1.273-2.828,2.837-2.828h26.492
	c1.564,0,2.828,1.264,2.828,2.828v15.824C-657.965,691.764-659.229,693.033-660.793,693.033z M-684.458,687.372h20.836v-10.163
	h-20.836V687.372z"/>
<path fill="#323232" d="M-590.092,706.301h-24.36c-2.189,0-3.958-1.765-3.958-3.954c0-2.185,1.769-3.953,3.958-3.953h24.36
	c2.184,0,3.954,1.769,3.954,3.953C-586.139,704.536-587.908,706.301-590.092,706.301z"/>
<path fill="#323232" d="M-588.624,721.633h-52.693c-2.179,0-3.953-1.774-3.953-3.953c0-2.189,1.774-3.963,3.953-3.963h52.693
	c2.185,0,3.954,1.773,3.954,3.963C-584.67,719.858-586.439,721.633-588.624,721.633z"/>
<path fill="#323232" d="M-588.624,732.864h-52.693c-2.179,0-3.953-1.774-3.953-3.954c0-2.184,1.774-3.958,3.953-3.958h52.693
	c2.185,0,3.954,1.774,3.954,3.958C-584.67,731.09-586.439,732.864-588.624,732.864z"/>
<g>
	<g>
		<path fill="#323232" d="M562.283,773.764L475.59,690.41c-3.504-3.367-3.613-8.957-0.248-12.457l34.467-35.844
			c3.367-3.506,8.951-3.61,12.457-0.244l86.691,83.354c3.506,3.367,3.615,8.952,0.248,12.457l-34.465,35.845
			C571.377,777.021,565.783,777.131,562.283,773.764z M518.34,645.953c-1.254-1.207-3.246-1.169-4.449,0.081l-34.465,35.849
			c-1.203,1.25-1.164,3.243,0.09,4.449l86.691,83.35c1.25,1.201,3.254,1.173,4.455-0.082l34.465-35.844
			c1.203-1.25,1.154-3.253-0.094-4.454L518.34,645.953z"/>
	</g>
</g>
<g>
	<g>
		<path fill="#323232" d="M851.941,689.313H659.334c-3.439,0-6.23-2.79-6.23-6.229V535.772c0-3.438,2.791-6.229,6.23-6.229h223.725
			c3.439,0,6.23,2.791,6.23,6.229v139.759c0,3.44-2.791,6.231-6.23,6.231s-6.229-2.791-6.229-6.231V542.003H665.563v134.851h186.378
			c3.439,0,6.23,2.791,6.23,6.231C858.172,686.523,855.381,689.313,851.941,689.313z"/>
	</g>
</g>
<g>
	<g>
		<path fill="#323232" d="M160.93-149.903c-0.802,0-1.604-0.188-2.347-0.577l-23.453-12.328l-23.446,12.328
			c-1.703,0.888-3.761,0.75-5.319-0.389c-1.558-1.132-2.334-3.043-2.005-4.938l4.484-26.108l-18.975-18.497
			c-1.375-1.341-1.867-3.345-1.276-5.173c0.592-1.829,2.177-3.163,4.078-3.438l26.207-3.808l11.731-23.755
			c1.695-3.445,7.356-3.445,9.053,0l11.723,23.755l26.221,3.808c1.901,0.275,3.486,1.61,4.077,3.438
			c0.591,1.828,0.098,3.832-1.275,5.173l-18.976,18.497l4.484,26.108c0.322,1.895-0.46,3.814-2.011,4.938
			C163.021-150.225,161.982-149.903,160.93-149.903z M135.13-173.564c0.815,0,1.618,0.189,2.354,0.577l16.74,8.805l-3.195-18.64
			c-0.276-1.637,0.263-3.309,1.459-4.472l13.544-13.209l-18.725-2.716c-1.644-0.236-3.064-1.268-3.801-2.761l-8.376-16.962
			l-8.37,16.962c-0.729,1.493-2.156,2.524-3.801,2.761l-18.718,2.716l13.545,13.209c1.197,1.163,1.735,2.835,1.459,4.472
			l-3.202,18.64l16.738-8.805C133.519-173.375,134.328-173.564,135.13-173.564z"/>
	</g>
</g>
<g>
	<g>
		<path fill="#323232" d="M598.699,542.004h-26.947c-3.439,0-6.229-2.791-6.229-6.229c0-3.44,2.789-6.231,6.229-6.231h26.947
			c3.439,0,6.23,2.791,6.23,6.231C604.93,539.213,602.139,542.004,598.699,542.004z"/>
	</g>
</g>
<g>
	<g>
		<path fill="#323232" d="M60.596-246.592H33.649c-3.439,0-6.229-2.791-6.229-6.229c0-3.44,2.79-6.231,6.229-6.231h26.947
			c3.439,0,6.23,2.791,6.23,6.231C66.827-249.383,64.036-246.592,60.596-246.592z"/>
	</g>
</g>
<g>
	<path fill="none" stroke="#323333" stroke-width="3" stroke-miterlimit="10" d="M-76.378-546.208c0,4.791-3.884,8.675-8.675,8.675
		h-147.479c-4.792,0-8.676-3.884-8.676-8.675v-50.316v-72.295c0-4.791,3.884-8.675,8.676-8.675h147.479
		c4.792,0,8.675,3.885,8.675,8.675V-546.208z"/>
	
		<polyline fill="none" stroke="#323333" stroke-width="3" stroke-linecap="round" stroke-linejoin="round" stroke-miterlimit="10" points="
		-241.209,-584.832 -215.646,-613.75 -176.262,-577.029 	"/>
	
		<polyline fill="none" stroke="#323333" stroke-width="3" stroke-linecap="round" stroke-linejoin="round" stroke-miterlimit="10" points="
		-190.362,-590.175 -169.132,-609.578 -91.168,-537.533 	"/>
	
		<circle fill="none" stroke="#323333" stroke-width="3" stroke-linecap="round" stroke-linejoin="round" stroke-miterlimit="10" cx="-119.093" cy="-642.84" r="22.773"/>
</g>
<line fill="none" stroke="#323232" stroke-width="3" stroke-linecap="round" stroke-miterlimit="10" x1="157.912" y1="-514.905" x2="244.822" y2="-514.905"/>
<line fill="none" stroke="#323232" stroke-width="3" stroke-linecap="round" stroke-miterlimit="10" x1="112.136" y1="-499.21" x2="244.822" y2="-499.21"/>
<line fill="none" stroke="#323232" stroke-width="3" stroke-linecap="round" stroke-miterlimit="10" x1="56.912" y1="-482.731" x2="244.822" y2="-482.731"/>
<line fill="none" stroke="#323232" stroke-width="6" stroke-linecap="round" stroke-miterlimit="10" x1="317.653" y1="-664.952" x2="317.653" y2="-428.974"/>
<line fill="none" stroke="#323232" stroke-width="6" stroke-linecap="round" stroke-miterlimit="10" x1="516.76" y1="-654.452" x2="317.653" y2="-654.452"/>
<line fill="none" stroke="#323232" stroke-width="6" stroke-linecap="round" stroke-miterlimit="10" x1="516.76" y1="-573.555" x2="317.653" y2="-573.555"/>
<line fill="none" stroke="#323232" stroke-width="6" stroke-linecap="round" stroke-miterlimit="10" x1="516.76" y1="-664.952" x2="516.76" y2="-428.974"/>
<g>
	<path fill="none" stroke="#323333" stroke-width="6" stroke-miterlimit="10" d="M261.412-468.776c0,6.759-5.479,12.24-12.241,12.24
		H21.103c-6.76,0-12.241-5.48-12.241-12.24v-70.987v-67.793c0-6.759,5.48-12.24,12.241-12.24h228.069
		c6.761,0,12.241,5.48,12.241,12.24V-468.776z"/>
</g>
<g>
	<path fill="none" stroke="#323333" stroke-width="6" stroke-miterlimit="10" d="M261.412-125.146
		c0,6.759-5.479,12.239-12.241,12.239H21.103c-6.76,0-12.241-5.48-12.241-12.239v-70.987v-67.793c0-6.759,5.48-12.24,12.241-12.24
		h228.069c6.761,0,12.241,5.48,12.241,12.24V-125.146z"/>
</g>
<g>
	<path fill="none" stroke="#323333" stroke-width="3" stroke-miterlimit="10" d="M96.526-543.274c0,6.759-5.479,12.24-12.241,12.24
		H40.317c-6.76,0-12.241-5.48-12.241-12.24v-24.372v-21.71c0-6.759,5.48-12.24,12.241-12.24h43.968
		c6.761,0,12.241,5.48,12.241,12.24V-543.274z"/>
</g>
<circle fill="none" stroke="#323333" stroke-miterlimit="10" cx="186.35" cy="-547.352" r="9.217"/>
<circle fill="none" stroke="#323333" stroke-miterlimit="10" cx="208.3" cy="-547.352" r="9.217"/>
<circle fill="none" stroke="#323333" stroke-miterlimit="10" cx="229.274" cy="-547.352" r="9.217"/>
<path fill="none" stroke="#323232" stroke-width="6" stroke-miterlimit="10" d="M-59.241-434.299c0,1.657-1.343,3-3,3h-193.106
	c-1.657,0-3-1.343-3-3v-258.675c0-1.657,1.343-3,3-3h193.106c1.657,0,3,1.343,3,3V-434.299z"/>
<path fill="#BAE3F9" stroke="#323232" stroke-width="6" stroke-miterlimit="10" d="M-65.004-108.762
	c-0.117,1.385-1.334,2.414-2.72,2.297l-161.488-13.588c-1.386-0.117-2.415-1.334-2.298-2.719l18.202-216.323
	c0.117-1.386,1.334-2.414,2.72-2.298L-49.1-327.803c1.386,0.116,2.415,1.334,2.298,2.72L-65.004-108.762z"/>
<path fill="#FFFCD3" stroke="#323232" stroke-width="6" stroke-miterlimit="10" d="M-67.694-120.394
	c0.1,1.387-0.944,2.592-2.331,2.691l-161.644,11.596c-1.387,0.1-2.592-0.943-2.691-2.33l-15.534-216.53
	c-0.1-1.387,0.944-2.592,2.331-2.691l161.644-11.597c1.387-0.099,2.592,0.944,2.691,2.331L-67.694-120.394z"/>
<path fill="#FFFFFF" stroke="#323232" stroke-width="6" stroke-miterlimit="10" d="M-81.102-102c0.128,1.384-0.89,2.61-2.275,2.738
	l-161.368,14.955c-1.385,0.128-2.611-0.89-2.739-2.274l-20.032-216.16c-0.128-1.385,0.89-2.611,2.274-2.739l161.368-14.955
	c1.385-0.128,2.611,0.89,2.739,2.275L-81.102-102z"/>
<line fill="none" stroke="#323232" stroke-width="3" stroke-linecap="round" stroke-miterlimit="10" x1="-252.874" y1="-280.19" x2="-120.734" y2="-292.212"/>
<line fill="none" stroke="#323232" stroke-width="3" stroke-linecap="round" stroke-miterlimit="10" x1="-249.9" y1="-252.69" x2="-117.761" y2="-264.712"/>
<line fill="none" stroke="#323232" stroke-width="3" stroke-linecap="round" stroke-miterlimit="10" x1="-246.76" y1="-228.691" x2="-114.621" y2="-240.713"/>
<line fill="none" stroke="#323232" stroke-width="3" stroke-linecap="round" stroke-miterlimit="10" x1="-244.039" y1="-207.604" x2="-111.899" y2="-219.626"/>
<line fill="none" stroke="#323232" stroke-width="3" stroke-linecap="round" stroke-miterlimit="10" x1="-240.898" y1="-183.987" x2="-108.759" y2="-196.009"/>
<line fill="none" stroke="#323232" stroke-width="3" stroke-linecap="round" stroke-miterlimit="10" x1="-240.379" y1="-159.692" x2="-108.239" y2="-171.714"/>
<line fill="none" stroke="#323232" stroke-width="3" stroke-linecap="round" stroke-miterlimit="10" x1="-157.032" y1="-125.145" x2="-108.239" y2="-129.584"/>
<polygon fill="none" stroke="#323232" stroke-width="0.5" stroke-miterlimit="10" points="133.079,-250.681 113.746,-220.452 
	84.079,-213.452 82.079,-199.119 99.079,-176.119 96.412,-142.452 106.079,-134.456 134.206,-151.452 155.412,-137.119 
	175.746,-146.452 170.079,-178.452 185.079,-194.536 188.412,-209.786 155.746,-220.452 142.746,-250.681 "/>
<polygon fill="none" stroke="#323232" stroke-width="6" stroke-linecap="round" stroke-linejoin="round" stroke-miterlimit="10" points="
	947.417,233.697 897.917,233.697 897.917,444.697 1061.417,444.697 1061.417,233.697 "/>
<polygon fill="#FFFFFF" stroke="#323232" stroke-width="6" stroke-linecap="round" stroke-linejoin="round" stroke-miterlimit="10" points="
	412.371,-93.125 446.592,-90.871 463.014,-340.393 349.975,-347.831 333.551,-98.313 "/>
<g>
	
		<polygon fill="#FFFFFF" stroke="#323232" stroke-width="6" stroke-linecap="round" stroke-linejoin="round" stroke-miterlimit="10" points="
		755.911,338.76 734.031,381.427 780.031,372.876 873.531,300.755 848.031,268.376 	"/>
	
		<line fill="#FFFFFF" stroke="#323232" stroke-width="6" stroke-linecap="round" stroke-linejoin="round" stroke-miterlimit="10" x1="755.911" y1="338.76" x2="780.031" y2="372.876"/>
</g>
<g>
	<g>
		<path fill="#323232" d="M1037.955,443.402c-9.175-2.82-19.308-0.23-24.713,8.023c-5.396,8.239-0.188,17.323,8.094,20.711
			c12.006,4.91,30.784,2.613,36.845-10.381c1.994-4.276,2.131-9.553-0.716-13.469c-3.43-4.715-9.646-4.767-14.84-3.885
			c-3.174,0.539-1.823,5.357,1.33,4.822c3.994-0.679,8.935-0.602,10.438,3.921c1.13,3.398-0.76,7.329-2.87,9.9
			c-6.621,8.063-21.699,8.042-30.148,3.586c-5.66-2.985-6.842-9.105-2.863-14.013c4.389-5.414,11.801-6.336,18.114-4.395
			C1039.716,449.174,1041.027,444.348,1037.955,443.402L1037.955,443.402z"/>
	</g>
</g>
<g>
	<g>
		<path fill="#323232" d="M838.247,154.829c-9.982,11.35-19.835,25.502-15.611,41.344c1.271,4.768,4.301,10.354,9.138,12.258
			c6.045,2.382,11.237-1.635,15.009-6.066c2.076-2.439-1.443-5.994-3.535-3.535c-3.414,4.01-7.697,7.58-12.195,3.008
			c-2.986-3.036-4.19-8.031-4.508-12.125c-0.926-11.949,7.854-22.95,15.238-31.348C843.901,155.954,840.38,152.403,838.247,154.829
			L838.247,154.829z"/>
	</g>
</g>
<g>
	<g>
		<path fill="#323232" d="M943.879,309.459c6.268,8.207,33.417,56.014,12.158,58.238c-3.173,0.332-3.206,5.336,0,5
			c29.263-3.062,0.991-54.198-7.842-65.762C946.267,304.409,941.921,306.896,943.879,309.459L943.879,309.459z"/>
	</g>
</g>
<g>
	<g>
		<path fill="#323232" d="M940.195,352.459c10.64-18.926,27.652-31.25,47.104-40.103c2.932-1.334,0.388-5.643-2.523-4.318
			c-20.203,9.195-37.863,22.271-48.896,41.897C934.297,352.75,938.616,355.27,940.195,352.459L940.195,352.459z"/>
	</g>
</g>
<g>
	<g>
		<path fill="#323232" d="M960.167,291.061c13.02-0.042,25.892-0.606,38.335,3.911c3.038,1.103,4.336-3.73,1.33-4.822
			c-12.851-4.665-26.21-4.133-39.665-4.089C956.943,286.071,956.942,291.071,960.167,291.061L960.167,291.061z"/>
	</g>
</g>
<g>
	<g>
		<path fill="#323232" d="M994.448,572.075c5.867-8.446,14.26-14.138,23.104-19.104c-1.225-0.498-2.448-0.995-3.672-1.493
			c2.32,6.436,0.164,12.756,0.91,19.335c0.225,1.982,1.926,2.982,3.762,2.158c13.638-6.117,23.984-18.283,38.403-22.747
			c-1.025-0.582-2.051-1.164-3.076-1.746c2.223,6.308,7.033,8.652,13.502,7.879c5.441-0.65,13.724-4.702,14.409,3.456
			c0.134,1.595,1.497,2.874,3.165,2.411c11.078-3.076,21.921-6.925,33-10c3.103-0.861,1.783-5.686-1.33-4.822
			c-11.078,3.076-21.921,6.925-33,10c1.056,0.804,2.11,1.607,3.165,2.411c-0.55-6.543-3.934-10.544-10.755-9.962
			c-5.767,0.493-14.662,4.884-17.334-2.703c-0.441-1.251-1.706-2.17-3.076-1.746c-14.914,4.619-25.526,16.94-39.597,23.253
			c1.254,0.719,2.508,1.438,3.762,2.158c-0.801-7.057,1.403-13.751-1.09-20.665c-0.549-1.521-2.182-2.33-3.672-1.493
			c-9.642,5.413-18.52,11.713-24.896,20.896C988.287,572.207,992.624,574.703,994.448,572.075L994.448,572.075z"/>
	</g>
</g>
<path fill="#FFFFFF" stroke="#323232" stroke-width="6" stroke-linecap="round" stroke-linejoin="round" stroke-miterlimit="10" d="
	M456.656-236.916c-0.084,2.785,29.016,128.314,29.016,128.314"/>
<circle fill="none" stroke="#323333" stroke-miterlimit="10" cx="450.567" cy="-327.874" r="6.089"/>
<circle fill="none" stroke="#323333" stroke-miterlimit="10" cx="432.411" cy="-106.1" r="6.089"/>
<circle fill="none" stroke="#323333" stroke-miterlimit="10" cx="346.079" cy="-112.906" r="6.089"/>
<circle fill="none" stroke="#323333" stroke-miterlimit="10" cx="361.104" cy="-333.963" r="6.089"/>
<g>
	<g>
		<path fill="#323333" d="M362.823-333.783c-1.375-3.992-3.209-7.829-4-12c-0.601-3.165-5.419-1.821-4.821,1.329
			c0.791,4.171,2.625,8.008,4,12C359.044-329.425,363.875-330.726,362.823-333.783L362.823-333.783z"/>
	</g>
</g>
<g>
	<g>
		<path fill="#323333" d="M452.912-328.452c0.133-5.219,1.848-10.193,2.578-15.336c0.445-3.152-4.371-4.51-4.822-1.328
			c-0.793,5.59-2.609,10.984-2.756,16.664C447.828-325.226,452.828-325.233,452.912-328.452L452.912-328.452z"/>
	</g>
</g>
<g>
	<g>
		<path fill="#323333" d="M343.817-113.944c-4.13,2.856-7.025,6.849-10.506,10.392c-2.261,2.301,1.273,5.838,3.535,3.535
			c3.146-3.201,5.767-7.031,9.494-9.608C348.973-111.447,346.477-115.783,343.817-113.944L343.817-113.944z"/>
	</g>
</g>
<g>
	<g>
		<path fill="#323333" d="M430.578-104.452c0.164,5.693,2.504,10.995,2.668,16.667c0.092,3.217,5.092,3.227,5,0
			c-0.164-5.693-2.504-10.995-2.668-16.667C435.486-107.669,430.486-107.679,430.578-104.452L430.578-104.452z"/>
	</g>
</g>
<g>
	
		<polygon fill="none" stroke="#323232" stroke-width="6" stroke-linecap="round" stroke-linejoin="round" stroke-miterlimit="10" points="
		-242.726,84.69 -99.688,87.19 -105.892,280.136 -248.93,277.636 	"/>
	
		<polyline fill="none" stroke="#323232" stroke-width="6" stroke-linecap="round" stroke-linejoin="round" stroke-miterlimit="10" points="
		-242.726,84.69 -223.347,101.484 -116.917,103.345 -99.688,87.19 	"/>
	
		<polyline fill="none" stroke="#323232" stroke-width="6" stroke-linecap="round" stroke-linejoin="round" stroke-miterlimit="10" points="
		-105.86,279.156 -125.239,262.361 -231.669,260.501 -248.898,276.655 	"/>
	
		<line fill="none" stroke="#323232" stroke-width="6" stroke-linecap="round" stroke-linejoin="round" stroke-miterlimit="10" x1="-171.736" y1="102.387" x2="-176.85" y2="261.46"/>
</g>
<g>
	
		<polygon fill="#FFFFFF" stroke="#323232" stroke-width="6" stroke-linecap="round" stroke-linejoin="round" stroke-miterlimit="10" points="
		-133.387,170.14 -204.58,210.575 -204.58,288.075 -60.692,289.537 -60.692,211.075 	"/>
	
		<polyline fill="#FFFFFF" stroke="#323232" stroke-width="6" stroke-linecap="round" stroke-linejoin="round" stroke-miterlimit="10" points="
		-204.58,210.575 -132.636,252.231 -60.692,211.075 	"/>
	
		<line fill="#FFFFFF" stroke="#323232" stroke-width="6" stroke-linecap="round" stroke-linejoin="round" stroke-miterlimit="10" x1="-203.828" y1="282.898" x2="-147.92" y2="243.382"/>
	
		<line fill="#FFFFFF" stroke="#323232" stroke-width="6" stroke-linecap="round" stroke-linejoin="round" stroke-miterlimit="10" x1="-60.692" y1="287.782" x2="-117.167" y2="243.382"/>
</g>
<path fill="none" stroke="#323232" stroke-width="6" stroke-linecap="round" stroke-linejoin="round" stroke-miterlimit="10" d="
	M104.412,106.049l4.619,5.01l13.005,14.104l27.875-1.115l20.806-18.363l78.361,60.196l-28.333,34.334l-31.452-19.168
	c0,0-0.031-5.508-0.007-3.332c0.138,12.259-1.716,54.236,16.887,107.173l-140.095-1.666c0,0,30.417-98.158,10.75-102.007
	s-0.75,0.584-0.75,0.584l-28.333,17.423l-27.667-31.845L104.412,106.049z"/>
<g>
	<g>
		<path fill="#323232" d="M158.261,159.257c0.077,14.664,2.574,31.252-7.268,43.566c1.393,0.367,2.786,0.735,4.178,1.103
			c-2.161-10.215,1.845-31.685,14.923-32.835c-0.804-0.612-1.607-1.224-2.411-1.835c3.027,7.964,2.616,16.299,2.577,24.668
			c-0.013,2.786,4.284,3.455,4.911,0.665c2.068-9.214,5.266-18.12,7.333-27.333c0.705-3.141-4.115-4.476-4.821-1.33
			c-2.068,9.214-5.266,18.119-7.333,27.333c1.637,0.222,3.274,0.443,4.911,0.665c0.041-8.799,0.424-17.632-2.756-25.998
			c-0.373-0.98-1.241-1.938-2.411-1.835c-16.829,1.48-22.656,25.4-19.744,39.165c0.365,1.726,3.016,2.557,4.178,1.103
			c10.913-13.654,8.818-30.734,8.732-47.102C163.244,156.033,158.244,156.031,158.261,159.257L158.261,159.257z"/>
	</g>
</g>
</svg>
