<?xml version="1.0" encoding="utf-8"?>
<!-- Generator: Adobe Illustrator 16.0.0, SVG Export Plug-In . SVG Version: 6.00 Build 0)  -->
<!DOCTYPE svg PUBLIC "-//W3C//DTD SVG 1.1//EN" "http://www.w3.org/Graphics/SVG/1.1/DTD/svg11.dtd">
<svg version="1.1" id="레이어_1" xmlns="http://www.w3.org/2000/svg" xmlns:xlink="http://www.w3.org/1999/xlink" x="0px"
	 y="0px" width="268.412px" height="334.754px" viewBox="0 0 268.412 334.754" enable-background="new 0 0 268.412 334.754"
	 xml:space="preserve">
<g>
	<path fill="#323232" d="M-495.176-87.89c0,1.048-0.203,1.904-0.608,2.571c-0.406,0.667-0.935,1.19-1.59,1.569
		c-0.653,0.379-1.373,0.641-2.157,0.785c-0.784,0.144-1.544,0.215-2.276,0.215c-0.732,0-1.491-0.071-2.276-0.215
		c-0.784-0.144-1.504-0.406-2.158-0.785c-0.654-0.379-1.19-0.903-1.609-1.569c-0.418-0.667-0.627-1.523-0.627-2.571v-21.934
		c0-1.02,0.216-1.863,0.647-2.531c0.431-0.667,0.967-1.19,1.609-1.569c0.64-0.379,1.354-0.64,2.138-0.784
		c0.785-0.144,1.531-0.216,2.237-0.216s1.453,0.073,2.237,0.216s1.504,0.405,2.158,0.784c0.653,0.379,1.197,0.896,1.628,1.55
		c0.432,0.654,0.648,1.505,0.648,2.55V-87.89z M-498.118-110.019c0-0.707-0.118-1.276-0.353-1.708c-0.236-0.431-0.53-0.765-0.884-1
		c-0.353-0.236-0.759-0.393-1.216-0.471c-0.458-0.079-0.896-0.117-1.314-0.117c-0.392,0-0.804,0.039-1.236,0.117
		c-0.432,0.079-0.824,0.235-1.177,0.471c-0.353,0.235-0.647,0.569-0.883,1c-0.235,0.431-0.353,1-0.353,1.708v22.365
		c0,0.707,0.118,1.27,0.353,1.688c0.236,0.418,0.53,0.745,0.883,0.98c0.353,0.236,0.752,0.393,1.197,0.471
		c0.444,0.079,0.863,0.117,1.255,0.117c0.418,0,0.85-0.038,1.295-0.117c0.444-0.079,0.85-0.235,1.216-0.471
		c0.366-0.236,0.66-0.563,0.883-0.98c0.222-0.418,0.334-0.981,0.334-1.688V-110.019z"/>
	<path fill="#323232" d="M-478.304-87.89c0,1.048-0.203,1.904-0.608,2.571c-0.406,0.667-0.936,1.19-1.588,1.569
		c-0.655,0.379-1.374,0.641-2.159,0.785c-0.785,0.144-1.544,0.215-2.275,0.215c-0.733,0-1.491-0.071-2.276-0.215
		c-0.785-0.144-1.504-0.406-2.158-0.785c-0.653-0.379-1.19-0.903-1.608-1.569c-0.419-0.667-0.627-1.523-0.627-2.571v-21.934
		c0-1.02,0.215-1.863,0.647-2.531c0.432-0.667,0.967-1.19,1.609-1.569c0.641-0.379,1.354-0.64,2.138-0.784
		c0.785-0.144,1.53-0.216,2.237-0.216c0.706,0,1.452,0.073,2.236,0.216c0.785,0.144,1.503,0.405,2.158,0.784
		c0.654,0.379,1.197,0.896,1.628,1.55c0.432,0.654,0.647,1.505,0.647,2.55V-87.89z M-481.247-110.019
		c0-0.707-0.118-1.276-0.353-1.708s-0.53-0.765-0.883-1c-0.353-0.236-0.759-0.393-1.216-0.471c-0.458-0.079-0.897-0.117-1.315-0.117
		c-0.392,0-0.804,0.039-1.235,0.117c-0.432,0.079-0.825,0.235-1.178,0.471c-0.353,0.235-0.647,0.569-0.882,1
		c-0.236,0.431-0.354,1-0.354,1.708v22.365c0,0.707,0.118,1.27,0.354,1.688c0.235,0.418,0.53,0.745,0.882,0.98
		s0.751,0.393,1.197,0.471c0.444,0.079,0.863,0.117,1.255,0.117c0.418,0,0.849-0.038,1.295-0.117
		c0.443-0.079,0.849-0.235,1.216-0.471c0.366-0.236,0.66-0.563,0.883-0.98c0.222-0.418,0.333-0.981,0.333-1.688V-110.019z"/>
	<path fill="#323232" d="M-461.432-87.89c0,1.048-0.204,1.904-0.608,2.571c-0.407,0.667-0.936,1.19-1.589,1.569
		c-0.654,0.379-1.373,0.641-2.159,0.785c-0.784,0.144-1.543,0.215-2.275,0.215c-0.733,0-1.492-0.071-2.276-0.215
		c-0.785-0.144-1.503-0.406-2.158-0.785c-0.654-0.379-1.191-0.903-1.609-1.569c-0.418-0.667-0.628-1.523-0.628-2.571v-21.934
		c0-1.02,0.216-1.863,0.648-2.531c0.431-0.667,0.967-1.19,1.608-1.569c0.641-0.379,1.354-0.64,2.138-0.784s1.531-0.216,2.237-0.216
		s1.452,0.073,2.236,0.216c0.785,0.144,1.504,0.405,2.158,0.784c0.654,0.379,1.197,0.896,1.628,1.55
		c0.432,0.654,0.648,1.505,0.648,2.55V-87.89z M-464.375-110.019c0-0.707-0.117-1.276-0.353-1.708c-0.236-0.431-0.531-0.765-0.883-1
		c-0.353-0.236-0.759-0.393-1.216-0.471c-0.458-0.079-0.897-0.117-1.314-0.117c-0.392,0-0.805,0.039-1.236,0.117
		c-0.431,0.079-0.824,0.235-1.177,0.471c-0.354,0.235-0.648,0.569-0.883,1s-0.353,1-0.353,1.708v22.365
		c0,0.707,0.118,1.27,0.353,1.688c0.235,0.418,0.53,0.745,0.883,0.98c0.353,0.236,0.751,0.393,1.197,0.471
		c0.444,0.079,0.863,0.117,1.255,0.117c0.417,0,0.85-0.038,1.294-0.117c0.444-0.079,0.85-0.235,1.216-0.471
		c0.367-0.236,0.66-0.563,0.883-0.98c0.222-0.418,0.333-0.981,0.333-1.688V-110.019z"/>
	<path fill="#323232" d="M-456.841-100.053h13.223v1.649h-13.223V-100.053z"/>
	<path fill="#323232" d="M-425.726-87.89c0,1.048-0.203,1.904-0.608,2.571c-0.406,0.667-0.936,1.19-1.589,1.569
		c-0.654,0.379-1.373,0.641-2.159,0.785c-0.785,0.144-1.543,0.215-2.275,0.215c-0.733,0-1.492-0.071-2.276-0.215
		c-0.785-0.144-1.504-0.406-2.158-0.785c-0.654-0.379-1.19-0.903-1.609-1.569c-0.418-0.667-0.628-1.523-0.628-2.571v-21.934
		c0-1.02,0.216-1.863,0.648-2.531c0.431-0.667,0.967-1.19,1.608-1.569c0.641-0.379,1.353-0.64,2.138-0.784
		c0.784-0.144,1.531-0.216,2.237-0.216c0.706,0,1.452,0.073,2.236,0.216c0.785,0.144,1.504,0.405,2.158,0.784
		c0.653,0.379,1.197,0.896,1.628,1.55c0.431,0.654,0.647,1.505,0.647,2.55V-87.89z M-428.669-110.019
		c0-0.707-0.117-1.276-0.353-1.708c-0.235-0.431-0.53-0.765-0.883-1c-0.353-0.236-0.759-0.393-1.217-0.471
		c-0.458-0.079-0.896-0.117-1.314-0.117c-0.393,0-0.805,0.039-1.236,0.117s-0.824,0.235-1.177,0.471
		c-0.353,0.235-0.648,0.569-0.883,1s-0.353,1-0.353,1.708v22.365c0,0.707,0.118,1.27,0.353,1.688c0.235,0.418,0.53,0.745,0.883,0.98
		s0.751,0.393,1.197,0.471c0.444,0.079,0.863,0.117,1.255,0.117c0.418,0,0.849-0.038,1.295-0.117
		c0.444-0.079,0.85-0.235,1.216-0.471c0.366-0.236,0.66-0.563,0.883-0.98c0.222-0.418,0.333-0.981,0.333-1.688V-110.019z"/>
	<path fill="#323232" d="M-408.854-87.89c0,1.048-0.203,1.904-0.608,2.571c-0.406,0.667-0.935,1.19-1.589,1.569
		c-0.654,0.379-1.374,0.641-2.158,0.785c-0.785,0.144-1.544,0.215-2.276,0.215c-0.733,0-1.491-0.071-2.276-0.215
		c-0.784-0.144-1.504-0.406-2.158-0.785c-0.654-0.379-1.191-0.903-1.609-1.569c-0.419-0.667-0.628-1.523-0.628-2.571v-21.934
		c0-1.02,0.216-1.863,0.647-2.531c0.432-0.667,0.968-1.19,1.609-1.569c0.64-0.379,1.354-0.64,2.138-0.784
		c0.785-0.144,1.531-0.216,2.236-0.216c0.707,0,1.453,0.073,2.237,0.216c0.784,0.144,1.503,0.405,2.158,0.784
		c0.653,0.379,1.197,0.896,1.628,1.55c0.431,0.654,0.647,1.505,0.647,2.55V-87.89z M-411.798-110.019
		c0-0.707-0.117-1.276-0.353-1.708c-0.235-0.431-0.53-0.765-0.883-1c-0.353-0.236-0.759-0.393-1.216-0.471s-0.896-0.117-1.314-0.117
		c-0.392,0-0.805,0.039-1.236,0.117s-0.824,0.235-1.177,0.471c-0.353,0.235-0.647,0.569-0.883,1s-0.353,1-0.353,1.708v22.365
		c0,0.707,0.118,1.27,0.353,1.688c0.235,0.418,0.53,0.745,0.883,0.98c0.353,0.236,0.751,0.393,1.197,0.471
		c0.444,0.079,0.863,0.117,1.255,0.117c0.418,0,0.85-0.038,1.295-0.117c0.444-0.079,0.849-0.235,1.216-0.471
		c0.366-0.236,0.66-0.563,0.883-0.98c0.222-0.418,0.333-0.981,0.333-1.688V-110.019z"/>
	<path fill="#323232" d="M-391.983-87.89c0,1.048-0.203,1.904-0.607,2.571c-0.406,0.667-0.936,1.19-1.589,1.569
		c-0.654,0.379-1.374,0.641-2.158,0.785c-0.785,0.144-1.544,0.215-2.276,0.215c-0.732,0-1.491-0.071-2.276-0.215
		c-0.785-0.144-1.504-0.406-2.158-0.785c-0.654-0.379-1.19-0.903-1.608-1.569c-0.419-0.667-0.628-1.523-0.628-2.571v-21.934
		c0-1.02,0.215-1.863,0.647-2.531c0.431-0.667,0.967-1.19,1.609-1.569c0.641-0.379,1.354-0.64,2.138-0.784s1.53-0.216,2.236-0.216
		c0.707,0,1.452,0.073,2.237,0.216c0.784,0.144,1.504,0.405,2.158,0.784c0.654,0.379,1.197,0.896,1.628,1.55
		c0.432,0.654,0.647,1.505,0.647,2.55V-87.89z M-394.926-110.019c0-0.707-0.117-1.276-0.353-1.708c-0.235-0.431-0.53-0.765-0.882-1
		c-0.353-0.236-0.759-0.393-1.217-0.471c-0.457-0.079-0.896-0.117-1.314-0.117c-0.393,0-0.805,0.039-1.236,0.117
		c-0.432,0.079-0.825,0.235-1.178,0.471c-0.353,0.235-0.647,0.569-0.883,1c-0.234,0.431-0.353,1-0.353,1.708v22.365
		c0,0.707,0.119,1.27,0.353,1.688c0.235,0.418,0.53,0.745,0.883,0.98s0.751,0.393,1.197,0.471c0.444,0.079,0.863,0.117,1.255,0.117
		c0.418,0,0.85-0.038,1.295-0.117c0.445-0.079,0.85-0.235,1.217-0.471c0.365-0.236,0.66-0.563,0.883-0.98
		c0.222-0.418,0.333-0.981,0.333-1.688V-110.019z"/>
	<path fill="#323232" d="M-375.111-87.89c0,1.048-0.203,1.904-0.608,2.571c-0.406,0.667-0.936,1.19-1.589,1.569
		c-0.654,0.379-1.373,0.641-2.159,0.785c-0.784,0.144-1.543,0.215-2.275,0.215c-0.732,0-1.491-0.071-2.276-0.215
		c-0.785-0.144-1.504-0.406-2.158-0.785c-0.654-0.379-1.19-0.903-1.609-1.569c-0.418-0.667-0.627-1.523-0.627-2.571v-21.934
		c0-1.02,0.216-1.863,0.647-2.531c0.432-0.667,0.968-1.19,1.609-1.569c0.64-0.379,1.353-0.64,2.138-0.784
		c0.785-0.144,1.531-0.216,2.237-0.216s1.452,0.073,2.236,0.216c0.785,0.144,1.505,0.405,2.158,0.784
		c0.654,0.379,1.197,0.896,1.628,1.55c0.432,0.654,0.647,1.505,0.647,2.55V-87.89z M-378.053-110.019
		c0-0.707-0.118-1.276-0.353-1.708c-0.236-0.431-0.53-0.765-0.883-1c-0.353-0.236-0.759-0.393-1.216-0.471
		c-0.458-0.079-0.897-0.117-1.315-0.117c-0.392,0-0.804,0.039-1.236,0.117s-0.824,0.235-1.177,0.471
		c-0.354,0.235-0.648,0.569-0.884,1c-0.235,0.431-0.353,1-0.353,1.708v22.365c0,0.707,0.118,1.27,0.353,1.688
		c0.236,0.418,0.53,0.745,0.884,0.98c0.353,0.236,0.751,0.393,1.196,0.471c0.445,0.079,0.864,0.117,1.256,0.117
		c0.417,0,0.85-0.038,1.294-0.117c0.444-0.079,0.85-0.235,1.216-0.471c0.367-0.236,0.661-0.563,0.883-0.98
		c0.222-0.418,0.334-0.981,0.334-1.688V-110.019z"/>
</g>
<g>
	<path fill="#323232" d="M-76.026,623.34h-118.077c-4.941,0-8.966-4.021-8.966-8.966v-58.679c0-4.945,4.025-8.965,8.966-8.965
		h118.077c4.94,0,8.966,4.02,8.966,8.965v58.679C-67.06,619.319-71.085,623.34-76.026,623.34z M-194.103,552.491
		c-1.765,0-3.205,1.436-3.205,3.204v58.679c0,1.77,1.44,3.205,3.205,3.205h118.077c1.764,0,3.205-1.436,3.205-3.205v-58.679
		c0-1.769-1.44-3.204-3.205-3.204H-194.103z"/>
	<g>
		<g>
			<path fill="#323232" d="M-186.563,592.942c-1.254,0-2.409-0.306-3.434-0.916c-1.021-0.61-1.836-1.454-2.417-2.519
				c-0.582-1.059-0.873-2.241-0.873-3.533c0-1.273,0.305-2.447,0.896-3.486c0.596-1.035,1.421-1.865,2.456-2.466
				c1.813-1.054,4.135-1.245,6.267-0.286c0.901,0.405,1.688,0.964,2.332,1.66c0.234,0.252,0.248,0.639,0.034,0.91l-1.684,2.123
				c-0.138,0.166-0.339,0.271-0.553,0.271h-0.005c-0.214-0.005-0.419-0.105-0.548-0.281c-0.319-0.41-0.682-0.729-1.121-0.969
				c-0.887-0.496-1.779-0.424-2.461,0.015c-0.381,0.243-0.672,0.563-0.892,0.997c-0.224,0.434-0.344,0.935-0.344,1.479
				c0,0.563,0.115,1.059,0.344,1.512c0.219,0.429,0.515,0.763,0.906,1.016c0.668,0.434,1.483,0.51,2.428,0.048
				c0.438-0.215,0.834-0.516,1.173-0.888c0.134-0.147,0.324-0.229,0.52-0.229h0.005c0.2,0,0.386,0.086,0.52,0.233l1.703,1.913
				c0.238,0.271,0.234,0.677-0.009,0.939c-0.677,0.738-1.493,1.335-2.409,1.778C-184.67,592.713-185.619,592.942-186.563,592.942z"
				/>
		</g>
	</g>
	<g>
		<g>
			<path fill="#323232" d="M-174.44,592.942c-1.273,0-2.446-0.306-3.496-0.906c-1.054-0.61-1.888-1.455-2.484-2.514
				c-0.601-1.054-0.901-2.241-0.901-3.529c0-1.287,0.3-2.47,0.901-3.51c0.601-1.044,1.435-1.874,2.475-2.476
				c2.084-1.188,4.921-1.188,7.02,0.015c1.054,0.601,1.884,1.431,2.48,2.476c0.601,1.035,0.901,2.217,0.901,3.495
				c0,1.293-0.301,2.485-0.897,3.529c-0.596,1.059-1.431,1.903-2.48,2.514C-171.975,592.637-173.162,592.942-174.44,592.942z
				 M-174.407,583.108c-0.448,0-0.849,0.119-1.235,0.362c-0.396,0.253-0.706,0.587-0.944,1.035
				c-0.238,0.453-0.357,0.944-0.357,1.507c0,0.558,0.119,1.059,0.362,1.521c0.234,0.453,0.543,0.792,0.944,1.044
				c0.768,0.491,1.698,0.491,2.442,0.005c0.386-0.253,0.682-0.591,0.916-1.04c0.234-0.462,0.348-0.963,0.348-1.53
				s-0.114-1.063-0.348-1.517c-0.229-0.438-0.529-0.777-0.911-1.03C-173.563,583.228-173.963,583.108-174.407,583.108z"/>
		</g>
	</g>
	<g>
		<g>
			<path fill="#323232" d="M-160.806,592.942c-1.192,0-2.241-0.248-3.128-0.729c-0.916-0.487-1.626-1.197-2.127-2.104
				c-0.481-0.896-0.729-1.946-0.729-3.119v-7.072c0-0.387,0.314-0.701,0.701-0.701h2.909c0.387,0,0.701,0.314,0.701,0.701v7.072
				c0,0.635,0.153,1.111,0.477,1.459c0.61,0.668,1.779,0.678,2.361,0.02c0.305-0.348,0.458-0.83,0.458-1.479v-7.072
				c0-0.387,0.315-0.701,0.701-0.701h2.899c0.386,0,0.696,0.314,0.696,0.701v7.072c0,1.173-0.243,2.223-0.725,3.114
				c-0.482,0.901-1.188,1.612-2.094,2.108C-158.588,592.694-159.632,592.942-160.806,592.942z"/>
		</g>
	</g>
	<g>
		<g>
			<path fill="#323232" d="M-149.951,592.804h-2.914c-0.386,0-0.701-0.314-0.701-0.701v-12.185c0-0.387,0.314-0.701,0.701-0.701
				h4.993c1.631,0,2.933,0.434,3.873,1.292c0.954,0.868,1.445,2.104,1.445,3.658c0,1.616-0.482,2.904-1.431,3.825
				c-0.939,0.925-2.247,1.388-3.887,1.388h-1.378v2.723C-149.25,592.489-149.565,592.804-149.951,592.804z M-149.25,585.541h1.23
				c0.462,0,0.787-0.105,1.001-0.311c0.2-0.195,0.3-0.516,0.3-0.963c0-0.43-0.09-0.726-0.295-0.911
				c-0.215-0.196-0.553-0.296-1.006-0.296h-1.23V585.541z"/>
		</g>
	</g>
	<g>
		<g>
			<path fill="#323232" d="M-135.291,592.942c-1.273,0-2.446-0.306-3.496-0.906c-1.049-0.61-1.889-1.455-2.485-2.514
				c-0.601-1.054-0.901-2.241-0.901-3.529c0-1.287,0.301-2.47,0.906-3.51c0.596-1.044,1.431-1.874,2.475-2.476
				c2.084-1.188,4.917-1.188,7.015,0.015c1.054,0.601,1.889,1.431,2.485,2.476c0.596,1.035,0.901,2.217,0.901,3.495
				c0,1.293-0.305,2.485-0.901,3.529c-0.596,1.059-1.431,1.903-2.48,2.514C-132.825,592.637-134.008,592.942-135.291,592.942z
				 M-135.258,583.108c-0.448,0-0.849,0.119-1.235,0.362c-0.396,0.253-0.701,0.587-0.944,1.035
				c-0.239,0.453-0.358,0.944-0.358,1.507c0,0.558,0.119,1.059,0.362,1.521c0.239,0.453,0.549,0.792,0.944,1.044
				c0.768,0.491,1.698,0.491,2.442,0.005c0.386-0.253,0.687-0.591,0.916-1.04c0.234-0.462,0.348-0.963,0.348-1.53
				s-0.114-1.063-0.348-1.517c-0.229-0.438-0.529-0.777-0.911-1.03C-134.414,583.228-134.81,583.108-135.258,583.108z"/>
		</g>
	</g>
	<g>
		<g>
			<path fill="#323232" d="M-116.172,592.804h-2.566c-0.224,0-0.443-0.114-0.572-0.296l-3.997-5.694v5.289
				c0,0.387-0.314,0.701-0.701,0.701h-2.733c-0.386,0-0.696-0.314-0.696-0.701v-12.185c0-0.387,0.31-0.701,0.696-0.701h2.575
				c0.229,0,0.444,0.109,0.572,0.301l4.006,5.703v-5.303c0-0.387,0.314-0.701,0.701-0.701h2.714c0.386,0,0.701,0.314,0.701,0.701
				v12.185C-115.471,592.489-115.786,592.804-116.172,592.804z"/>
		</g>
	</g>
	<g>
		<path fill="#323232" d="M-171.502,564.938c-6.09,0-11.041-4.078-11.041-9.09c0-5.018,4.95-9.1,11.041-9.1l2.79-0.024
			c2.255,0,8.25,0,8.25,5.861C-160.462,557.446-165.203,564.938-171.502,564.938z M-168.712,552.486l-2.79,0.023
			c-3.114,0-5.279,1.76-5.279,3.339c0,1.573,2.165,3.329,5.279,3.329c2.456,0,5.222-4.212,5.279-6.52
			C-166.566,552.572-167.277,552.486-168.712,552.486z"/>
	</g>
	<g>
		<path fill="#323232" d="M-145.416,561.748c-18.537,0-20.683-11.17-20.764-11.646c-0.186-1.078,0.253-2.17,1.135-2.813
			c0.882-0.653,2.046-0.744,3.023-0.233l17.922,9.256c1.183,0.605,1.793,1.946,1.479,3.234
			C-142.931,560.842-144.09,561.748-145.416,561.748z"/>
	</g>
	<g>
		<path fill="#323232" d="M-168.712,552.491L-168.712,552.491l-2.79-0.024c-6.09,0-11.041-4.077-11.041-9.1
			c0-5.012,4.95-9.09,11.041-9.09c6.3,0,11.041,7.492,11.041,12.357c0,2.413-1.154,4.239-3.253,5.141
			C-165.098,552.371-166.714,552.491-168.712,552.491z M-171.502,540.039c-3.114,0-5.279,1.755-5.279,3.328
			c0,1.579,2.165,3.339,5.279,3.339l2.79,0.024l0,0c1.412,0,2.117-0.082,2.465-0.168
			C-166.409,544.055-169.104,540.039-171.502,540.039z"/>
	</g>
	<g>
		<path fill="#323232" d="M-163.343,552.491c-0.601,0-1.202-0.187-1.702-0.559c-0.882-0.644-1.321-1.735-1.135-2.813
			c0.081-0.477,2.227-11.65,20.764-11.65c1.326,0,2.485,0.91,2.795,2.203c0.315,1.287-0.296,2.628-1.474,3.238l-17.922,9.257
			C-162.437,552.386-162.89,552.491-163.343,552.491z"/>
	</g>
	<g>
		<g>
			<rect x="-104.521" y="553.292" fill="#323232" width="7.325" height="16.582"/>
		</g>
	</g>
	<g>
		<g>
			<rect x="-104.521" y="577.738" fill="#323232" width="7.325" height="16.582"/>
		</g>
	</g>
	<g>
		<g>
			<rect x="-104.521" y="602.18" fill="#323232" width="7.325" height="16.587"/>
		</g>
	</g>
</g>
<g>
	<path fill="#323232" d="M-898.487,630.527h-120.261c-4.86,0-8.813-3.954-8.813-8.809v-77.335c0-4.86,3.953-8.809,8.813-8.809
		h120.261c4.859,0,8.813,3.948,8.813,8.809v77.335C-889.674,626.573-893.628,630.527-898.487,630.527z M-1018.749,541.24
		c-1.736,0-3.147,1.412-3.147,3.144v77.335c0,1.735,1.412,3.147,3.147,3.147h120.261c1.736,0,3.157-1.412,3.157-3.147v-77.335
		c0-1.731-1.421-3.144-3.157-3.144H-1018.749z"/>
</g>
<path fill="#323232" d="M-983.109,572.76h-26.492c-1.564,0-2.837-1.27-2.837-2.828v-15.824c0-1.564,1.273-2.828,2.837-2.828h26.492
	c1.564,0,2.828,1.264,2.828,2.828v15.824C-980.281,571.49-981.545,572.76-983.109,572.76z M-1006.773,567.099h20.836v-10.163
	h-20.836V567.099z"/>
<path fill="#323232" d="M-912.408,586.027h-24.36c-2.189,0-3.958-1.765-3.958-3.954c0-2.185,1.769-3.953,3.958-3.953h24.36
	c2.184,0,3.954,1.769,3.954,3.953C-908.455,584.263-910.224,586.027-912.408,586.027z"/>
<path fill="#323232" d="M-910.939,601.359h-52.693c-2.179,0-3.953-1.774-3.953-3.953c0-2.189,1.774-3.963,3.953-3.963h52.693
	c2.185,0,3.954,1.773,3.954,3.963C-906.986,599.585-908.755,601.359-910.939,601.359z"/>
<path fill="#323232" d="M-910.939,612.591h-52.693c-2.179,0-3.953-1.774-3.953-3.954c0-2.184,1.774-3.958,3.953-3.958h52.693
	c2.185,0,3.954,1.774,3.954,3.958C-906.986,610.816-908.755,612.591-910.939,612.591z"/>
<g>
	<g>
		<path fill="#323232" d="M239.967,653.49l-86.692-83.354c-3.505-3.367-3.614-8.957-0.248-12.457l34.467-35.844
			c3.366-3.506,8.951-3.61,12.456-0.244l86.692,83.354c3.505,3.367,3.614,8.952,0.248,12.457l-34.466,35.845
			C249.062,656.747,243.467,656.857,239.967,653.49z M196.024,525.68c-1.254-1.207-3.247-1.169-4.449,0.081l-34.466,35.849
			c-1.202,1.25-1.164,3.243,0.091,4.449l86.691,83.35c1.249,1.201,3.253,1.173,4.454-0.082l34.466-35.844
			c1.202-1.25,1.154-3.253-0.095-4.454L196.024,525.68z"/>
	</g>
</g>
<g>
	<g>
		<path fill="#323232" d="M-346.465,649.68c-0.601-0.648-0.968-1.517-0.968-2.476l0.014-41.753
			c-0.005-2.027,1.636-3.667,3.667-3.667c2.017,0,3.658,1.636,3.658,3.662l-0.009,38.096l53.79,0.019l0.023-104.638l-53.79-0.019
			l0.005,72.537c0,2.021-1.646,3.658-3.667,3.662c-2.017-0.01-3.658-1.65-3.663-3.662l0.005-76.195c0-0.973,0.386-1.908,1.073-2.595
			c0.687-0.682,1.621-1.073,2.589-1.073l61.115,0.02c2.022,0.005,3.658,1.65,3.658,3.662l-0.029,111.964
			c0.005,0.968-0.386,1.902-1.073,2.589c-0.687,0.688-1.621,1.073-2.589,1.073l-61.115-0.014
			C-344.833,650.862-345.797,650.409-346.465,649.68z"/>
	</g>
	<g>
		<path fill="#323232" d="M-338.224,548.313c-0.072-0.077-0.134-0.153-0.196-0.233l-8.212-10.598
			c-1.24-1.593-0.954-3.896,0.649-5.136c1.602-1.24,3.901-0.935,5.136,0.653l7.115,9.171l41.09,0.009l7.125-9.166
			c1.24-1.598,3.539-1.883,5.136-0.644c1.622,1.192,1.889,3.534,0.644,5.137l-8.217,10.592c-0.691,0.892-1.765,1.407-2.895,1.411
			l-44.681-0.009C-336.56,549.501-337.532,549.063-338.224,548.313z"/>
	</g>
	<g>
		<path fill="#323232" d="M-346.465,649.68c-1.192-1.297-1.307-3.296-0.195-4.727l8.222-10.582c0.691-0.893,1.765-1.412,2.895-1.417
			l44.681,0.01c1.135,0.005,2.208,0.52,2.89,1.421l8.212,10.598c1.24,1.592,0.954,3.896-0.649,5.136
			c-1.602,1.24-3.93,0.982-5.136-0.653l-7.11-9.171l-41.095-0.005l-7.125,9.161c-1.24,1.598-3.543,1.884-5.136,0.649
			C-346.184,649.966-346.331,649.832-346.465,649.68z"/>
	</g>
	<g>
		<path fill="#323232" d="M-315.909,639.097c-0.601-0.648-0.963-1.521-0.963-2.47l0.024-88.219c0-2.021,1.64-3.662,3.667-3.662
			c2.018,0.005,3.653,1.641,3.658,3.662l-0.024,88.219c0,2.021-1.641,3.657-3.667,3.662
			C-314.278,640.284-315.237,639.831-315.909,639.097z"/>
	</g>
</g>
<g>
	<g>
		<path fill="#323232" d="M418.796,543.384H226.188c-3.439,0-6.23-2.79-6.23-6.229V389.843c0-3.438,2.791-6.229,6.23-6.229h223.725
			c3.439,0,6.23,2.791,6.23,6.229v139.759c0,3.44-2.791,6.231-6.23,6.231s-6.229-2.791-6.229-6.231V396.073H232.418v134.851h186.378
			c3.439,0,6.23,2.791,6.23,6.231C425.026,540.594,422.235,543.384,418.796,543.384z"/>
	</g>
</g>
<g>
	<g>
		<path fill="#323232" d="M-122.07,225.078c-0.802,0-1.604-0.188-2.347-0.577l-23.453-12.328l-23.446,12.328
			c-1.703,0.888-3.761,0.75-5.319-0.389c-1.558-1.132-2.334-3.043-2.005-4.938l4.484-26.108l-18.975-18.497
			c-1.375-1.341-1.867-3.345-1.276-5.173c0.592-1.829,2.177-3.163,4.078-3.438l26.207-3.808l11.731-23.755
			c1.695-3.445,7.356-3.445,9.053,0l11.723,23.755l26.221,3.808c1.901,0.275,3.486,1.61,4.077,3.438
			c0.591,1.828,0.098,3.832-1.275,5.173l-18.976,18.497l4.484,26.108c0.322,1.895-0.46,3.814-2.011,4.938
			C-119.979,224.757-121.018,225.078-122.07,225.078z M-147.87,201.417c0.815,0,1.618,0.189,2.354,0.577l16.74,8.805l-3.195-18.64
			c-0.276-1.637,0.263-3.309,1.459-4.472l13.544-13.209l-18.725-2.716c-1.644-0.236-3.064-1.268-3.801-2.761l-8.376-16.962
			l-8.37,16.962c-0.729,1.493-2.156,2.524-3.801,2.761l-18.718,2.716l13.545,13.209c1.197,1.163,1.735,2.835,1.459,4.472
			l-3.202,18.64l16.738-8.805C-149.481,201.606-148.672,201.417-147.87,201.417z"/>
	</g>
</g>
<g>
	<g>
		<path fill="#323232" d="M276.384,421.73h-26.947c-3.439,0-6.229-2.791-6.229-6.229c0-3.44,2.79-6.231,6.229-6.231h26.947
			c3.439,0,6.23,2.791,6.23,6.231C282.614,418.939,279.823,421.73,276.384,421.73z"/>
	</g>
</g>
<g>
	<g>
		<path fill="#323232" d="M-222.404,128.39h-26.947c-3.439,0-6.229-2.791-6.229-6.229c0-3.44,2.79-6.231,6.229-6.231h26.947
			c3.439,0,6.23,2.791,6.23,6.231C-216.173,125.599-218.964,128.39-222.404,128.39z"/>
	</g>
</g>
<g>
	<polygon fill="#FFFFFF" points="-279.755,593.066 -319.443,615.948 -322.405,660.371 -239.719,659.795 -240.935,615.924 	"/>
	<g>
		<path fill="#323232" d="M-238.841,664.535h-84.441c-1.641,0-2.966-1.326-2.966-2.967v-46.012c0-1.14,0.658-2.184,1.688-2.676
			l41.376-23.678c1.488-0.715,3.248-0.076,3.954,1.397c0.706,1.479,0.076,3.253-1.397,3.953l-39.683,22.882v41.162h78.499v-41.186
			l-39.727-22.867c-1.474-0.726-2.079-2.5-1.359-3.973c0.72-1.469,2.489-2.08,3.968-1.359l41.396,23.683
			c1.016,0.496,1.66,1.531,1.66,2.661v46.012C-235.875,663.209-237.201,664.535-238.841,664.535z"/>
	</g>
	<g>
		<path fill="#323232" d="M-281.062,642.707c-0.515,0-1.021-0.129-1.474-0.396l-42.22-24.18c-1.426-0.811-1.913-2.628-1.102-4.044
			c0.815-1.421,2.613-1.917,4.054-1.102l40.742,23.335l40.742-23.335c1.44-0.815,3.243-0.319,4.054,1.102
			c0.811,1.416,0.324,3.233-1.102,4.044l-42.221,24.18C-280.046,642.578-280.552,642.707-281.062,642.707z"/>
	</g>
	<g>
		<path fill="#323232" d="M-323.277,661.854c-0.921,0-1.827-0.424-2.404-1.216c-0.963-1.326-0.672-3.181,0.653-4.148l33.321-24.246
			c1.34-0.959,3.186-0.663,4.145,0.658c0.963,1.32,0.672,3.176-0.653,4.139l-33.322,24.251
			C-322.066,661.674-322.677,661.854-323.277,661.854z"/>
	</g>
	<g>
		<path fill="#323232" d="M-238.846,661.854c-0.606,0-1.221-0.181-1.75-0.572l-32.158-23.583c-1.326-0.968-1.612-2.823-0.639-4.145
			c0.963-1.32,2.809-1.621,4.144-0.639l32.158,23.583c1.326,0.964,1.607,2.828,0.639,4.145
			C-237.029,661.436-237.931,661.854-238.846,661.854z"/>
	</g>
</g>
<path fill="#323232" d="M92.937,657.644c-0.033,0-0.062,0-0.1,0H4.123c-1.135,0-2.198-0.52-2.89-1.411
	c-0.696-0.893-0.939-2.056-0.663-3.152c6.319-24.957,8.961-53.781,2.551-58.359c-1.354,0.797-4.831,4.449-7.458,8.094
	c-0.663,0.915-1.708,1.479-2.843,1.516c-1.092,0.129-2.212-0.438-2.938-1.302l-19.219-22.892c-0.639-0.768-0.944-1.76-0.834-2.751
	c0.109-0.992,0.615-1.898,1.407-2.509c0.253-0.191,25.057-19.276,31.905-26.74l1.159-1.292c3.419-3.839,7.268-8.16,17.011-10.525
	l4.139-9.314c0.582-1.325,1.898-2.179,3.348-2.179h39.373c1.445,0,2.757,0.854,3.348,2.179l4.13,9.314
	c9.743,2.365,13.591,6.687,17.011,10.525l1.159,1.292c6.848,7.469,31.652,26.549,31.904,26.74c0.792,0.61,1.298,1.517,1.407,2.509
	c0.109,0.991-0.195,1.983-0.835,2.751l-19.219,22.892c-0.725,0.863-1.793,1.431-2.938,1.302c-1.136-0.037-2.18-0.601-2.843-1.516
	c-2.557-3.539-5.909-7.092-7.535-8.041c-6.247,4.692-3.72,32.85,2.433,57.533c0.257,0.501,0.405,1.068,0.405,1.675
	C96.6,656.003,94.959,657.644,92.937,657.644z M8.772,650.318h79.414c-3.62-15.686-11.307-55.846,3.104-62.561
	c0.706-0.329,1.47-0.496,2.271-0.496c3.577,0,7.692,3.868,10.816,7.583l13.858-16.501c-6.986-5.446-23.969-18.885-29.815-25.257
	l-1.23-1.368c-3.42-3.84-6.119-6.873-14.861-8.633c-1.164-0.233-2.146-1.021-2.623-2.107l-3.92-8.828H31.178l-3.916,8.828
	c-0.486,1.087-1.459,1.874-2.628,2.107c-8.747,1.76-11.446,4.793-14.865,8.633l-1.23,1.368c-5.847,6.372-22.83,19.811-29.816,25.257
	l13.859,16.501c3.124-3.715,7.239-7.583,10.816-7.583c0.801,0,1.564,0.167,2.27,0.496C20.08,594.473,12.392,634.633,8.772,650.318z"
	/>
<g>
	<path fill="#323232" d="M48.637,553.312c-1.025,0-2.309-0.43-3-1.179l-19.534-21.16c-1.369-1.487-1.278-3.806,0.205-5.174
		c1.488-1.379,3.806-1.288,5.179,0.205l16.997,18.408l16.992-18.408c1.378-1.493,3.696-1.584,5.174-0.205
		c1.488,1.368,1.583,3.687,0.21,5.174l-19.534,21.16C50.63,552.882,49.658,553.312,48.637,553.312z"/>
</g>
<g>
	<path fill="none" stroke="#323333" stroke-width="3" stroke-miterlimit="10" d="M-359.378-171.227c0,4.791-3.884,8.675-8.675,8.675
		h-147.479c-4.792,0-8.676-3.884-8.676-8.675v-50.316v-72.295c0-4.791,3.884-8.675,8.676-8.675h147.479
		c4.792,0,8.675,3.885,8.675,8.675V-171.227z"/>
	
		<polyline fill="none" stroke="#323333" stroke-width="3" stroke-linecap="round" stroke-linejoin="round" stroke-miterlimit="10" points="
		-524.209,-209.851 -498.646,-238.769 -459.262,-202.047 	"/>
	
		<polyline fill="none" stroke="#323333" stroke-width="3" stroke-linecap="round" stroke-linejoin="round" stroke-miterlimit="10" points="
		-473.362,-215.194 -452.132,-234.596 -374.168,-162.551 	"/>
	
		<circle fill="none" stroke="#323333" stroke-width="3" stroke-linecap="round" stroke-linejoin="round" stroke-miterlimit="10" cx="-402.093" cy="-267.859" r="22.773"/>
</g>
<line fill="none" stroke="#323232" stroke-width="3" stroke-linecap="round" stroke-miterlimit="10" x1="-125.088" y1="-139.923" x2="-38.178" y2="-139.924"/>
<line fill="none" stroke="#323232" stroke-width="3" stroke-linecap="round" stroke-miterlimit="10" x1="-170.864" y1="-124.229" x2="-38.178" y2="-124.229"/>
<line fill="none" stroke="#323232" stroke-width="3" stroke-linecap="round" stroke-miterlimit="10" x1="-226.088" y1="-107.75" x2="-38.178" y2="-107.75"/>
<line fill="none" stroke="#323232" stroke-width="6" stroke-linecap="round" stroke-miterlimit="10" x1="34.653" y1="-289.971" x2="34.653" y2="-53.992"/>
<line fill="none" stroke="#323232" stroke-width="6" stroke-linecap="round" stroke-miterlimit="10" x1="233.76" y1="-279.471" x2="34.653" y2="-279.471"/>
<line fill="none" stroke="#323232" stroke-width="6" stroke-linecap="round" stroke-miterlimit="10" x1="233.76" y1="-198.574" x2="34.653" y2="-198.574"/>
<line fill="none" stroke="#323232" stroke-width="6" stroke-linecap="round" stroke-miterlimit="10" x1="233.76" y1="-289.971" x2="233.76" y2="-53.992"/>
<g>
	<path fill="none" stroke="#323333" stroke-width="6" stroke-miterlimit="10" d="M-21.588-93.794c0,6.759-5.479,12.24-12.241,12.24
		h-228.069c-6.76,0-12.241-5.48-12.241-12.24v-70.987v-67.793c0-6.759,5.48-12.24,12.241-12.24h228.069
		c6.761,0,12.241,5.48,12.241,12.24V-93.794z"/>
</g>
<g>
	<path fill="none" stroke="#323333" stroke-width="6" stroke-miterlimit="10" d="M-21.588,249.836
		c0,6.759-5.479,12.239-12.241,12.239h-228.069c-6.76,0-12.241-5.48-12.241-12.239v-70.987v-67.793c0-6.759,5.48-12.24,12.241-12.24
		h228.069c6.761,0,12.241,5.48,12.241,12.24V249.836z"/>
</g>
<g>
	<path fill="none" stroke="#323333" stroke-width="3" stroke-miterlimit="10" d="M-186.474-168.292
		c0,6.759-5.479,12.24-12.241,12.24h-43.968c-6.76,0-12.241-5.48-12.241-12.24v-24.372v-21.71c0-6.759,5.48-12.24,12.241-12.24
		h43.968c6.761,0,12.241,5.48,12.241,12.24V-168.292z"/>
</g>
<circle fill="none" stroke="#323333" stroke-miterlimit="10" cx="-96.65" cy="-172.371" r="9.217"/>
<circle fill="none" stroke="#323333" stroke-miterlimit="10" cx="-74.7" cy="-172.371" r="9.217"/>
<circle fill="none" stroke="#323333" stroke-miterlimit="10" cx="-53.726" cy="-172.371" r="9.217"/>
<path fill="none" stroke="#323232" stroke-width="6" stroke-miterlimit="10" d="M-342.241-59.318c0,1.657-1.343,3-3,3h-193.106
	c-1.657,0-3-1.343-3-3v-258.675c0-1.657,1.343-3,3-3h193.106c1.657,0,3,1.343,3,3V-59.318z"/>
<path fill="#BAE3F9" stroke="#323232" stroke-width="6" stroke-miterlimit="10" d="M-348.004,266.22
	c-0.117,1.385-1.334,2.414-2.72,2.297l-161.488-13.588c-1.386-0.117-2.415-1.334-2.298-2.719l18.202-216.323
	c0.117-1.386,1.334-2.414,2.72-2.298L-332.1,47.178c1.386,0.116,2.415,1.334,2.298,2.72L-348.004,266.22z"/>
<path fill="#FFFCD3" stroke="#323232" stroke-width="6" stroke-miterlimit="10" d="M-350.694,254.588
	c0.1,1.387-0.944,2.592-2.331,2.691l-161.644,11.596c-1.387,0.1-2.592-0.943-2.691-2.33l-15.534-216.53
	c-0.1-1.387,0.944-2.592,2.331-2.691l161.644-11.597c1.387-0.099,2.592,0.944,2.691,2.331L-350.694,254.588z"/>
<path fill="#FFFFFF" stroke="#323232" stroke-width="6" stroke-miterlimit="10" d="M-364.102,272.981
	c0.128,1.384-0.89,2.61-2.275,2.738l-161.368,14.955c-1.385,0.128-2.611-0.89-2.739-2.274l-20.032-216.16
	c-0.128-1.385,0.89-2.611,2.274-2.739l161.368-14.955c1.385-0.128,2.611,0.89,2.739,2.275L-364.102,272.981z"/>
<line fill="none" stroke="#323232" stroke-width="3" stroke-linecap="round" stroke-miterlimit="10" x1="-535.874" y1="94.791" x2="-403.734" y2="82.769"/>
<line fill="none" stroke="#323232" stroke-width="3" stroke-linecap="round" stroke-miterlimit="10" x1="-532.9" y1="122.291" x2="-400.761" y2="110.269"/>
<line fill="none" stroke="#323232" stroke-width="3" stroke-linecap="round" stroke-miterlimit="10" x1="-529.76" y1="146.291" x2="-397.621" y2="134.269"/>
<line fill="none" stroke="#323232" stroke-width="3" stroke-linecap="round" stroke-miterlimit="10" x1="-527.039" y1="167.377" x2="-394.899" y2="155.355"/>
<line fill="none" stroke="#323232" stroke-width="3" stroke-linecap="round" stroke-miterlimit="10" x1="-523.898" y1="190.994" x2="-391.759" y2="178.972"/>
<line fill="none" stroke="#323232" stroke-width="3" stroke-linecap="round" stroke-miterlimit="10" x1="-523.379" y1="215.289" x2="-391.239" y2="203.268"/>
<line fill="none" stroke="#323232" stroke-width="3" stroke-linecap="round" stroke-miterlimit="10" x1="-440.032" y1="249.837" x2="-391.239" y2="245.397"/>
<polygon fill="none" stroke="#323232" stroke-width="0.5" stroke-miterlimit="10" points="-149.921,124.301 -169.254,154.529 
	-198.921,161.529 -200.921,175.862 -183.921,198.862 -186.588,232.529 -176.921,240.525 -148.794,223.529 -127.588,237.862 
	-107.254,228.529 -112.921,196.529 -97.921,180.445 -94.588,165.196 -127.254,154.529 -140.254,124.301 "/>
<polygon fill="none" stroke="#323232" stroke-width="6" stroke-linecap="round" stroke-linejoin="round" stroke-miterlimit="10" points="
	514.271,87.768 464.771,87.768 464.771,298.768 628.271,298.768 628.271,87.768 "/>
<polygon fill="#FFFFFF" stroke="#323232" stroke-width="6" stroke-linecap="round" stroke-linejoin="round" stroke-miterlimit="10" points="
	129.371,281.856 163.592,284.11 180.015,34.589 66.975,27.15 50.551,276.668 "/>
<g>
	
		<polygon fill="#FFFFFF" stroke="#323232" stroke-width="6" stroke-linecap="round" stroke-linejoin="round" stroke-miterlimit="10" points="
		322.766,192.83 300.886,235.497 346.886,226.946 440.386,154.826 414.886,122.447 	"/>
	
		<line fill="#FFFFFF" stroke="#323232" stroke-width="6" stroke-linecap="round" stroke-linejoin="round" stroke-miterlimit="10" x1="322.766" y1="192.83" x2="346.886" y2="226.946"/>
</g>
<g>
	<g>
		<path fill="#323232" d="M604.81,297.473c-9.175-2.82-19.308-0.23-24.713,8.023c-5.396,8.239-0.188,17.323,8.094,20.711
			c12.006,4.91,30.784,2.613,36.845-10.381c1.994-4.276,2.131-9.553-0.716-13.469c-3.43-4.715-9.646-4.767-14.84-3.885
			c-3.174,0.539-1.823,5.357,1.33,4.822c3.994-0.679,8.935-0.602,10.438,3.921c1.13,3.398-0.76,7.329-2.87,9.9
			c-6.621,8.063-21.699,8.042-30.148,3.586c-5.66-2.985-6.842-9.105-2.863-14.013c4.389-5.414,11.801-6.336,18.114-4.395
			C606.57,303.244,607.882,298.418,604.81,297.473L604.81,297.473z"/>
	</g>
</g>
<g>
	<g>
		<path fill="#323232" d="M405.102,8.899c-9.982,11.35-19.835,25.501-15.611,41.344c1.271,4.767,4.301,10.353,9.138,12.258
			c6.045,2.381,11.237-1.635,15.009-6.067c2.076-2.44-1.443-5.995-3.535-3.535c-3.414,4.01-7.697,7.581-12.195,3.008
			c-2.986-3.036-4.19-8.032-4.508-12.125c-0.926-11.949,7.854-22.95,15.238-31.348C410.756,10.024,407.234,6.474,405.102,8.899
			L405.102,8.899z"/>
	</g>
</g>
<g>
	<g>
		<path fill="#323232" d="M510.733,163.529c6.268,8.207,33.417,56.014,12.158,58.238c-3.173,0.332-3.206,5.336,0,5
			c29.263-3.062,0.991-54.198-7.842-65.762C513.121,158.48,508.775,160.966,510.733,163.529L510.733,163.529z"/>
	</g>
</g>
<g>
	<g>
		<path fill="#323232" d="M507.05,206.529c10.64-18.926,27.652-31.25,47.104-40.103c2.932-1.334,0.388-5.643-2.523-4.317
			c-20.203,9.195-37.863,22.27-48.896,41.897C501.151,206.82,505.471,209.34,507.05,206.529L507.05,206.529z"/>
	</g>
</g>
<g>
	<g>
		<path fill="#323232" d="M527.021,145.131c13.02-0.042,25.892-0.607,38.335,3.911c3.038,1.103,4.336-3.73,1.33-4.821
			c-12.851-4.666-26.21-4.133-39.665-4.089C523.798,140.142,523.797,145.142,527.021,145.131L527.021,145.131z"/>
	</g>
</g>
<g>
	<g>
		<path fill="#323232" d="M561.303,426.146c5.867-8.446,14.26-14.138,23.104-19.104c-1.225-0.498-2.448-0.995-3.672-1.493
			c2.32,6.436,0.164,12.756,0.91,19.335c0.225,1.982,1.926,2.982,3.762,2.158c13.638-6.117,23.984-18.283,38.403-22.747
			c-1.025-0.582-2.051-1.164-3.076-1.746c2.223,6.308,7.033,8.652,13.502,7.879c5.441-0.65,13.724-4.702,14.409,3.456
			c0.134,1.595,1.497,2.874,3.165,2.411c11.078-3.076,21.921-6.925,33-10c3.103-0.861,1.783-5.686-1.33-4.822
			c-11.078,3.076-21.921,6.925-33,10c1.056,0.804,2.11,1.607,3.165,2.411c-0.55-6.543-3.934-10.544-10.755-9.962
			c-5.767,0.493-14.662,4.884-17.334-2.703c-0.441-1.251-1.706-2.17-3.076-1.746c-14.914,4.619-25.526,16.94-39.597,23.253
			c1.254,0.719,2.508,1.438,3.762,2.158c-0.801-7.057,1.403-13.751-1.09-20.665c-0.549-1.521-2.182-2.33-3.672-1.493
			c-9.642,5.413-18.52,11.713-24.896,20.896C555.142,426.277,559.479,428.773,561.303,426.146L561.303,426.146z"/>
	</g>
</g>
<path fill="#FFFFFF" stroke="#323232" stroke-width="6" stroke-linecap="round" stroke-linejoin="round" stroke-miterlimit="10" d="
	M173.656,138.065c-0.084,2.786,29.016,128.315,29.016,128.315"/>
<circle fill="none" stroke="#323333" stroke-miterlimit="10" cx="167.567" cy="47.107" r="6.089"/>
<circle fill="none" stroke="#323333" stroke-miterlimit="10" cx="149.412" cy="268.882" r="6.089"/>
<circle fill="none" stroke="#323333" stroke-miterlimit="10" cx="63.079" cy="262.075" r="6.089"/>
<circle fill="none" stroke="#323333" stroke-miterlimit="10" cx="78.104" cy="41.019" r="6.089"/>
<g>
	<g>
		<path fill="#323333" d="M79.823,41.198c-1.375-3.992-3.209-7.83-4-12c-0.601-3.166-5.419-1.821-4.821,1.329
			c0.791,4.171,2.625,8.008,4,12C76.044,45.557,80.875,44.255,79.823,41.198L79.823,41.198z"/>
	</g>
</g>
<g>
	<g>
		<path fill="#323333" d="M169.912,46.529c0.134-5.219,1.849-10.194,2.578-15.335c0.446-3.152-4.37-4.511-4.822-1.329
			c-0.793,5.59-2.609,10.985-2.756,16.665C164.829,49.755,169.829,49.748,169.912,46.529L169.912,46.529z"/>
	</g>
</g>
<g>
	<g>
		<path fill="#323333" d="M60.817,261.037c-4.13,2.856-7.025,6.849-10.506,10.392c-2.261,2.301,1.273,5.838,3.535,3.535
			c3.146-3.201,5.767-7.031,9.494-9.608C65.973,263.534,63.477,259.198,60.817,261.037L60.817,261.037z"/>
	</g>
</g>
<g>
	<g>
		<path fill="#323333" d="M147.579,270.529c0.163,5.693,2.504,10.995,2.667,16.667c0.093,3.217,5.093,3.227,5,0
			c-0.163-5.693-2.504-10.995-2.667-16.667C152.486,267.313,147.486,267.303,147.579,270.529L147.579,270.529z"/>
	</g>
</g>
</svg>
