<?xml version="1.0" encoding="utf-8"?>
<!-- Generator: Adobe Illustrator 16.0.0, SVG Export Plug-In . SVG Version: 6.00 Build 0)  -->
<!DOCTYPE svg PUBLIC "-//W3C//DTD SVG 1.1//EN" "http://www.w3.org/Graphics/SVG/1.1/DTD/svg11.dtd">
<svg version="1.1" id="레이어_1" xmlns="http://www.w3.org/2000/svg" xmlns:xlink="http://www.w3.org/1999/xlink" x="0px"
	 y="0px" width="268.412px" height="334.754px" viewBox="0 0 268.412 334.754" enable-background="new 0 0 268.412 334.754"
	 xml:space="preserve">
<g>
	<path fill="#323232" d="M80.824-87.89c0,1.048-0.203,1.904-0.608,2.571c-0.406,0.667-0.935,1.19-1.59,1.569
		c-0.653,0.379-1.373,0.641-2.157,0.785c-0.784,0.144-1.544,0.215-2.276,0.215c-0.732,0-1.491-0.071-2.276-0.215
		c-0.784-0.144-1.504-0.406-2.158-0.785c-0.654-0.379-1.19-0.903-1.609-1.569c-0.418-0.667-0.627-1.523-0.627-2.571v-21.934
		c0-1.02,0.216-1.863,0.647-2.531c0.431-0.667,0.967-1.19,1.609-1.569c0.64-0.379,1.354-0.64,2.138-0.784
		c0.785-0.144,1.531-0.216,2.237-0.216s1.453,0.073,2.237,0.216s1.504,0.405,2.158,0.784c0.653,0.379,1.197,0.896,1.628,1.55
		c0.432,0.654,0.648,1.505,0.648,2.55V-87.89z M77.882-110.019c0-0.707-0.118-1.276-0.353-1.708c-0.236-0.431-0.53-0.765-0.884-1
		c-0.353-0.236-0.759-0.393-1.216-0.471c-0.458-0.079-0.896-0.117-1.314-0.117c-0.392,0-0.804,0.039-1.236,0.117
		c-0.432,0.079-0.824,0.235-1.177,0.471c-0.353,0.235-0.647,0.569-0.883,1c-0.235,0.431-0.353,1-0.353,1.708v22.365
		c0,0.707,0.118,1.27,0.353,1.688c0.236,0.418,0.53,0.745,0.883,0.98c0.353,0.236,0.752,0.393,1.197,0.471
		c0.444,0.079,0.863,0.117,1.255,0.117c0.418,0,0.85-0.038,1.295-0.117c0.444-0.079,0.85-0.235,1.216-0.471
		c0.366-0.236,0.66-0.563,0.883-0.98c0.222-0.418,0.334-0.981,0.334-1.688V-110.019z"/>
	<path fill="#323232" d="M97.696-87.89c0,1.048-0.203,1.904-0.608,2.571c-0.406,0.667-0.936,1.19-1.588,1.569
		c-0.655,0.379-1.374,0.641-2.159,0.785c-0.785,0.144-1.544,0.215-2.275,0.215c-0.733,0-1.491-0.071-2.276-0.215
		c-0.785-0.144-1.504-0.406-2.158-0.785c-0.653-0.379-1.19-0.903-1.608-1.569c-0.419-0.667-0.627-1.523-0.627-2.571v-21.934
		c0-1.02,0.215-1.863,0.647-2.531c0.432-0.667,0.967-1.19,1.609-1.569c0.641-0.379,1.354-0.64,2.138-0.784
		c0.785-0.144,1.53-0.216,2.237-0.216c0.706,0,1.452,0.073,2.236,0.216c0.785,0.144,1.503,0.405,2.158,0.784
		c0.654,0.379,1.197,0.896,1.628,1.55c0.432,0.654,0.647,1.505,0.647,2.55V-87.89z M94.753-110.019c0-0.707-0.118-1.276-0.353-1.708
		s-0.53-0.765-0.883-1c-0.353-0.236-0.759-0.393-1.216-0.471c-0.458-0.079-0.897-0.117-1.315-0.117
		c-0.392,0-0.804,0.039-1.235,0.117c-0.432,0.079-0.825,0.235-1.178,0.471c-0.353,0.235-0.647,0.569-0.882,1
		c-0.236,0.431-0.354,1-0.354,1.708v22.365c0,0.707,0.118,1.27,0.354,1.688c0.235,0.418,0.53,0.745,0.882,0.98
		s0.751,0.393,1.197,0.471c0.444,0.079,0.863,0.117,1.255,0.117c0.418,0,0.849-0.038,1.295-0.117
		c0.443-0.079,0.849-0.235,1.216-0.471c0.366-0.236,0.66-0.563,0.883-0.98c0.222-0.418,0.333-0.981,0.333-1.688V-110.019z"/>
	<path fill="#323232" d="M114.568-87.89c0,1.048-0.204,1.904-0.608,2.571c-0.407,0.667-0.936,1.19-1.589,1.569
		c-0.654,0.379-1.373,0.641-2.159,0.785c-0.784,0.144-1.543,0.215-2.275,0.215c-0.733,0-1.492-0.071-2.276-0.215
		c-0.785-0.144-1.503-0.406-2.158-0.785c-0.654-0.379-1.191-0.903-1.609-1.569c-0.418-0.667-0.628-1.523-0.628-2.571v-21.934
		c0-1.02,0.216-1.863,0.648-2.531c0.431-0.667,0.967-1.19,1.608-1.569c0.641-0.379,1.354-0.64,2.138-0.784s1.531-0.216,2.237-0.216
		s1.452,0.073,2.236,0.216c0.785,0.144,1.504,0.405,2.158,0.784c0.654,0.379,1.197,0.896,1.628,1.55
		c0.432,0.654,0.648,1.505,0.648,2.55V-87.89z M111.625-110.019c0-0.707-0.117-1.276-0.353-1.708c-0.236-0.431-0.531-0.765-0.883-1
		c-0.353-0.236-0.759-0.393-1.216-0.471c-0.458-0.079-0.897-0.117-1.314-0.117c-0.392,0-0.805,0.039-1.236,0.117
		c-0.431,0.079-0.824,0.235-1.177,0.471c-0.354,0.235-0.648,0.569-0.883,1s-0.353,1-0.353,1.708v22.365
		c0,0.707,0.118,1.27,0.353,1.688c0.235,0.418,0.53,0.745,0.883,0.98c0.353,0.236,0.751,0.393,1.197,0.471
		c0.444,0.079,0.863,0.117,1.255,0.117c0.417,0,0.85-0.038,1.294-0.117c0.444-0.079,0.85-0.235,1.216-0.471
		c0.367-0.236,0.66-0.563,0.883-0.98c0.222-0.418,0.333-0.981,0.333-1.688V-110.019z"/>
	<path fill="#323232" d="M119.159-100.053h13.223v1.649h-13.223V-100.053z"/>
	<path fill="#323232" d="M150.274-87.89c0,1.048-0.203,1.904-0.608,2.571c-0.406,0.667-0.936,1.19-1.589,1.569
		c-0.654,0.379-1.373,0.641-2.159,0.785c-0.785,0.144-1.543,0.215-2.275,0.215c-0.733,0-1.492-0.071-2.276-0.215
		c-0.785-0.144-1.504-0.406-2.158-0.785c-0.654-0.379-1.19-0.903-1.609-1.569c-0.418-0.667-0.628-1.523-0.628-2.571v-21.934
		c0-1.02,0.216-1.863,0.648-2.531c0.431-0.667,0.967-1.19,1.608-1.569c0.641-0.379,1.353-0.64,2.138-0.784
		c0.784-0.144,1.531-0.216,2.237-0.216c0.706,0,1.452,0.073,2.236,0.216c0.785,0.144,1.504,0.405,2.158,0.784
		c0.653,0.379,1.197,0.896,1.628,1.55c0.431,0.654,0.647,1.505,0.647,2.55V-87.89z M147.331-110.019
		c0-0.707-0.117-1.276-0.353-1.708c-0.235-0.431-0.53-0.765-0.883-1c-0.353-0.236-0.759-0.393-1.217-0.471
		c-0.458-0.079-0.896-0.117-1.314-0.117c-0.393,0-0.805,0.039-1.236,0.117s-0.824,0.235-1.177,0.471
		c-0.353,0.235-0.648,0.569-0.883,1s-0.353,1-0.353,1.708v22.365c0,0.707,0.118,1.27,0.353,1.688c0.235,0.418,0.53,0.745,0.883,0.98
		s0.751,0.393,1.197,0.471c0.444,0.079,0.863,0.117,1.255,0.117c0.418,0,0.849-0.038,1.295-0.117
		c0.444-0.079,0.85-0.235,1.216-0.471c0.366-0.236,0.66-0.563,0.883-0.98c0.222-0.418,0.333-0.981,0.333-1.688V-110.019z"/>
	<path fill="#323232" d="M167.146-87.89c0,1.048-0.203,1.904-0.608,2.571c-0.406,0.667-0.935,1.19-1.589,1.569
		c-0.654,0.379-1.374,0.641-2.158,0.785c-0.785,0.144-1.544,0.215-2.276,0.215c-0.733,0-1.491-0.071-2.276-0.215
		c-0.784-0.144-1.504-0.406-2.158-0.785c-0.654-0.379-1.191-0.903-1.609-1.569c-0.419-0.667-0.628-1.523-0.628-2.571v-21.934
		c0-1.02,0.216-1.863,0.647-2.531c0.432-0.667,0.968-1.19,1.609-1.569c0.64-0.379,1.354-0.64,2.138-0.784
		c0.785-0.144,1.531-0.216,2.236-0.216c0.707,0,1.453,0.073,2.237,0.216c0.784,0.144,1.503,0.405,2.158,0.784
		c0.653,0.379,1.197,0.896,1.628,1.55c0.431,0.654,0.647,1.505,0.647,2.55V-87.89z M164.202-110.019
		c0-0.707-0.117-1.276-0.353-1.708c-0.235-0.431-0.53-0.765-0.883-1c-0.353-0.236-0.759-0.393-1.216-0.471s-0.896-0.117-1.314-0.117
		c-0.392,0-0.805,0.039-1.236,0.117s-0.824,0.235-1.177,0.471c-0.353,0.235-0.647,0.569-0.883,1s-0.353,1-0.353,1.708v22.365
		c0,0.707,0.118,1.27,0.353,1.688c0.235,0.418,0.53,0.745,0.883,0.98c0.353,0.236,0.751,0.393,1.197,0.471
		c0.444,0.079,0.863,0.117,1.255,0.117c0.418,0,0.85-0.038,1.295-0.117c0.444-0.079,0.849-0.235,1.216-0.471
		c0.366-0.236,0.66-0.563,0.883-0.98c0.222-0.418,0.333-0.981,0.333-1.688V-110.019z"/>
	<path fill="#323232" d="M184.017-87.89c0,1.048-0.203,1.904-0.607,2.571c-0.406,0.667-0.936,1.19-1.589,1.569
		c-0.654,0.379-1.374,0.641-2.158,0.785c-0.785,0.144-1.544,0.215-2.276,0.215c-0.732,0-1.491-0.071-2.276-0.215
		c-0.785-0.144-1.504-0.406-2.158-0.785c-0.654-0.379-1.19-0.903-1.608-1.569c-0.419-0.667-0.628-1.523-0.628-2.571v-21.934
		c0-1.02,0.215-1.863,0.647-2.531c0.431-0.667,0.967-1.19,1.609-1.569c0.641-0.379,1.354-0.64,2.138-0.784s1.53-0.216,2.236-0.216
		c0.707,0,1.452,0.073,2.237,0.216c0.784,0.144,1.504,0.405,2.158,0.784c0.654,0.379,1.197,0.896,1.628,1.55
		c0.432,0.654,0.647,1.505,0.647,2.55V-87.89z M181.074-110.019c0-0.707-0.117-1.276-0.353-1.708c-0.235-0.431-0.53-0.765-0.882-1
		c-0.353-0.236-0.759-0.393-1.217-0.471c-0.457-0.079-0.896-0.117-1.314-0.117c-0.393,0-0.805,0.039-1.236,0.117
		c-0.432,0.079-0.825,0.235-1.178,0.471c-0.353,0.235-0.647,0.569-0.883,1c-0.234,0.431-0.353,1-0.353,1.708v22.365
		c0,0.707,0.119,1.27,0.353,1.688c0.235,0.418,0.53,0.745,0.883,0.98s0.751,0.393,1.197,0.471c0.444,0.079,0.863,0.117,1.255,0.117
		c0.418,0,0.85-0.038,1.295-0.117c0.445-0.079,0.85-0.235,1.217-0.471c0.365-0.236,0.66-0.563,0.883-0.98
		c0.222-0.418,0.333-0.981,0.333-1.688V-110.019z"/>
	<path fill="#323232" d="M200.889-87.89c0,1.048-0.203,1.904-0.608,2.571c-0.406,0.667-0.936,1.19-1.589,1.569
		c-0.654,0.379-1.373,0.641-2.159,0.785c-0.784,0.144-1.543,0.215-2.275,0.215c-0.732,0-1.491-0.071-2.276-0.215
		c-0.785-0.144-1.504-0.406-2.158-0.785c-0.654-0.379-1.19-0.903-1.609-1.569c-0.418-0.667-0.627-1.523-0.627-2.571v-21.934
		c0-1.02,0.216-1.863,0.647-2.531c0.432-0.667,0.968-1.19,1.609-1.569c0.64-0.379,1.353-0.64,2.138-0.784
		c0.785-0.144,1.531-0.216,2.237-0.216s1.452,0.073,2.236,0.216c0.785,0.144,1.505,0.405,2.158,0.784
		c0.654,0.379,1.197,0.896,1.628,1.55c0.432,0.654,0.647,1.505,0.647,2.55V-87.89z M197.947-110.019
		c0-0.707-0.118-1.276-0.353-1.708c-0.236-0.431-0.53-0.765-0.883-1c-0.353-0.236-0.759-0.393-1.216-0.471
		c-0.458-0.079-0.897-0.117-1.315-0.117c-0.392,0-0.804,0.039-1.236,0.117s-0.824,0.235-1.177,0.471
		c-0.354,0.235-0.648,0.569-0.884,1c-0.235,0.431-0.353,1-0.353,1.708v22.365c0,0.707,0.118,1.27,0.353,1.688
		c0.236,0.418,0.53,0.745,0.884,0.98c0.353,0.236,0.751,0.393,1.196,0.471c0.445,0.079,0.864,0.117,1.256,0.117
		c0.417,0,0.85-0.038,1.294-0.117c0.444-0.079,0.85-0.235,1.216-0.471c0.367-0.236,0.661-0.563,0.883-0.98
		c0.222-0.418,0.334-0.981,0.334-1.688V-110.019z"/>
</g>
<g>
	<path fill="#323232" d="M499.974,623.34H381.897c-4.941,0-8.966-4.021-8.966-8.966v-58.679c0-4.945,4.025-8.965,8.966-8.965
		h118.077c4.94,0,8.966,4.02,8.966,8.965v58.679C508.94,619.319,504.915,623.34,499.974,623.34z M381.897,552.491
		c-1.765,0-3.205,1.436-3.205,3.204v58.679c0,1.77,1.44,3.205,3.205,3.205h118.077c1.764,0,3.205-1.436,3.205-3.205v-58.679
		c0-1.769-1.44-3.204-3.205-3.204H381.897z"/>
	<g>
		<g>
			<path fill="#323232" d="M389.437,592.942c-1.254,0-2.409-0.306-3.434-0.916c-1.021-0.61-1.836-1.454-2.417-2.519
				c-0.582-1.059-0.873-2.241-0.873-3.533c0-1.273,0.305-2.447,0.896-3.486c0.596-1.035,1.421-1.865,2.456-2.466
				c1.813-1.054,4.135-1.245,6.267-0.286c0.901,0.405,1.688,0.964,2.332,1.66c0.234,0.252,0.248,0.639,0.034,0.91l-1.684,2.123
				c-0.138,0.166-0.339,0.271-0.553,0.271h-0.005c-0.214-0.005-0.419-0.105-0.548-0.281c-0.319-0.41-0.682-0.729-1.121-0.969
				c-0.887-0.496-1.779-0.424-2.461,0.015c-0.381,0.243-0.672,0.563-0.892,0.997c-0.224,0.434-0.344,0.935-0.344,1.479
				c0,0.563,0.115,1.059,0.344,1.512c0.219,0.429,0.515,0.763,0.906,1.016c0.668,0.434,1.483,0.51,2.428,0.048
				c0.438-0.215,0.834-0.516,1.173-0.888c0.134-0.147,0.324-0.229,0.52-0.229h0.005c0.2,0,0.386,0.086,0.52,0.233l1.703,1.913
				c0.238,0.271,0.234,0.677-0.009,0.939c-0.677,0.738-1.493,1.335-2.409,1.778C391.33,592.713,390.381,592.942,389.437,592.942z"/>
		</g>
	</g>
	<g>
		<g>
			<path fill="#323232" d="M401.56,592.942c-1.273,0-2.446-0.306-3.496-0.906c-1.054-0.61-1.888-1.455-2.484-2.514
				c-0.601-1.054-0.901-2.241-0.901-3.529c0-1.287,0.3-2.47,0.901-3.51c0.601-1.044,1.435-1.874,2.475-2.476
				c2.084-1.188,4.921-1.188,7.02,0.015c1.054,0.601,1.884,1.431,2.48,2.476c0.601,1.035,0.901,2.217,0.901,3.495
				c0,1.293-0.301,2.485-0.897,3.529c-0.596,1.059-1.431,1.903-2.48,2.514C404.025,592.637,402.838,592.942,401.56,592.942z
				 M401.593,583.108c-0.448,0-0.849,0.119-1.235,0.362c-0.396,0.253-0.706,0.587-0.944,1.035c-0.238,0.453-0.357,0.944-0.357,1.507
				c0,0.558,0.119,1.059,0.362,1.521c0.234,0.453,0.543,0.792,0.944,1.044c0.768,0.491,1.698,0.491,2.442,0.005
				c0.386-0.253,0.682-0.591,0.916-1.04c0.234-0.462,0.348-0.963,0.348-1.53s-0.114-1.063-0.348-1.517
				c-0.229-0.438-0.529-0.777-0.911-1.03C402.438,583.228,402.037,583.108,401.593,583.108z"/>
		</g>
	</g>
	<g>
		<g>
			<path fill="#323232" d="M415.194,592.942c-1.192,0-2.241-0.248-3.128-0.729c-0.916-0.487-1.626-1.197-2.127-2.104
				c-0.481-0.896-0.729-1.946-0.729-3.119v-7.072c0-0.387,0.314-0.701,0.701-0.701h2.909c0.387,0,0.701,0.314,0.701,0.701v7.072
				c0,0.635,0.153,1.111,0.477,1.459c0.61,0.668,1.779,0.678,2.361,0.02c0.305-0.348,0.458-0.83,0.458-1.479v-7.072
				c0-0.387,0.315-0.701,0.701-0.701h2.899c0.386,0,0.696,0.314,0.696,0.701v7.072c0,1.173-0.243,2.223-0.725,3.114
				c-0.482,0.901-1.188,1.612-2.094,2.108C417.412,592.694,416.368,592.942,415.194,592.942z"/>
		</g>
	</g>
	<g>
		<g>
			<path fill="#323232" d="M426.049,592.804h-2.914c-0.386,0-0.701-0.314-0.701-0.701v-12.185c0-0.387,0.314-0.701,0.701-0.701
				h4.993c1.631,0,2.933,0.434,3.873,1.292c0.954,0.868,1.445,2.104,1.445,3.658c0,1.616-0.482,2.904-1.431,3.825
				c-0.939,0.925-2.247,1.388-3.887,1.388h-1.378v2.723C426.75,592.489,426.435,592.804,426.049,592.804z M426.75,585.541h1.23
				c0.462,0,0.787-0.105,1.001-0.311c0.2-0.195,0.3-0.516,0.3-0.963c0-0.43-0.09-0.726-0.295-0.911
				c-0.215-0.196-0.553-0.296-1.006-0.296h-1.23V585.541z"/>
		</g>
	</g>
	<g>
		<g>
			<path fill="#323232" d="M440.709,592.942c-1.273,0-2.446-0.306-3.496-0.906c-1.049-0.61-1.889-1.455-2.485-2.514
				c-0.601-1.054-0.901-2.241-0.901-3.529c0-1.287,0.301-2.47,0.906-3.51c0.596-1.044,1.431-1.874,2.475-2.476
				c2.084-1.188,4.917-1.188,7.015,0.015c1.054,0.601,1.889,1.431,2.485,2.476c0.596,1.035,0.901,2.217,0.901,3.495
				c0,1.293-0.305,2.485-0.901,3.529c-0.596,1.059-1.431,1.903-2.48,2.514C443.175,592.637,441.992,592.942,440.709,592.942z
				 M440.742,583.108c-0.448,0-0.849,0.119-1.235,0.362c-0.396,0.253-0.701,0.587-0.944,1.035c-0.239,0.453-0.358,0.944-0.358,1.507
				c0,0.558,0.119,1.059,0.362,1.521c0.239,0.453,0.549,0.792,0.944,1.044c0.768,0.491,1.698,0.491,2.442,0.005
				c0.386-0.253,0.687-0.591,0.916-1.04c0.234-0.462,0.348-0.963,0.348-1.53s-0.114-1.063-0.348-1.517
				c-0.229-0.438-0.529-0.777-0.911-1.03C441.586,583.228,441.19,583.108,440.742,583.108z"/>
		</g>
	</g>
	<g>
		<g>
			<path fill="#323232" d="M459.828,592.804h-2.566c-0.224,0-0.443-0.114-0.572-0.296l-3.997-5.694v5.289
				c0,0.387-0.314,0.701-0.701,0.701h-2.733c-0.386,0-0.696-0.314-0.696-0.701v-12.185c0-0.387,0.31-0.701,0.696-0.701h2.575
				c0.229,0,0.444,0.109,0.572,0.301l4.006,5.703v-5.303c0-0.387,0.314-0.701,0.701-0.701h2.714c0.386,0,0.701,0.314,0.701,0.701
				v12.185C460.529,592.489,460.214,592.804,459.828,592.804z"/>
		</g>
	</g>
	<g>
		<path fill="#323232" d="M404.498,564.938c-6.09,0-11.041-4.078-11.041-9.09c0-5.018,4.95-9.1,11.041-9.1l2.79-0.024
			c2.255,0,8.25,0,8.25,5.861C415.538,557.446,410.797,564.938,404.498,564.938z M407.288,552.486l-2.79,0.023
			c-3.114,0-5.279,1.76-5.279,3.339c0,1.573,2.165,3.329,5.279,3.329c2.456,0,5.222-4.212,5.279-6.52
			C409.434,552.572,408.723,552.486,407.288,552.486z"/>
	</g>
	<g>
		<path fill="#323232" d="M430.584,561.748c-18.537,0-20.683-11.17-20.764-11.646c-0.186-1.078,0.253-2.17,1.135-2.813
			c0.882-0.653,2.046-0.744,3.023-0.233l17.922,9.256c1.183,0.605,1.793,1.946,1.479,3.234
			C433.069,560.842,431.91,561.748,430.584,561.748z"/>
	</g>
	<g>
		<path fill="#323232" d="M407.288,552.491L407.288,552.491l-2.79-0.024c-6.09,0-11.041-4.077-11.041-9.1
			c0-5.012,4.95-9.09,11.041-9.09c6.3,0,11.041,7.492,11.041,12.357c0,2.413-1.154,4.239-3.253,5.141
			C410.902,552.371,409.286,552.491,407.288,552.491z M404.498,540.039c-3.114,0-5.279,1.755-5.279,3.328
			c0,1.579,2.165,3.339,5.279,3.339l2.79,0.024l0,0c1.412,0,2.117-0.082,2.465-0.168
			C409.591,544.055,406.896,540.039,404.498,540.039z"/>
	</g>
	<g>
		<path fill="#323232" d="M412.657,552.491c-0.601,0-1.202-0.187-1.702-0.559c-0.882-0.644-1.321-1.735-1.135-2.813
			c0.081-0.477,2.227-11.65,20.764-11.65c1.326,0,2.485,0.91,2.795,2.203c0.315,1.287-0.296,2.628-1.474,3.238l-17.922,9.257
			C413.563,552.386,413.11,552.491,412.657,552.491z"/>
	</g>
	<g>
		<g>
			<rect x="471.479" y="553.292" fill="#323232" width="7.325" height="16.582"/>
		</g>
	</g>
	<g>
		<g>
			<rect x="471.479" y="577.738" fill="#323232" width="7.325" height="16.582"/>
		</g>
	</g>
	<g>
		<g>
			<rect x="471.479" y="602.18" fill="#323232" width="7.325" height="16.587"/>
		</g>
	</g>
</g>
<g>
	<g>
		<polygon fill="#D1EAF7" points="-417.875,59.113 -231.518,56.266 -231.518,285.807 -348.892,282.618 -416.099,221.373 		"/>
		<path fill="#323232" d="M-416.987,229.799c-3.915,0-7.103-3.178-7.103-7.104V55.863c0-3.915,3.188-7.093,7.103-7.093h184.581
			c3.926,0,7.103,3.178,7.103,7.093v115.173c0,3.915-3.177,7.093-7.103,7.093c-3.915,0-7.093-3.178-7.093-7.093V62.966h-170.384
			v159.729C-409.884,226.621-413.062,229.799-416.987,229.799z"/>
		<path fill="#323232" d="M-232.407,291.223h-123.154c-3.915,0-7.103-3.177-7.103-7.103c0-3.913,3.188-7.091,7.103-7.091H-239.5
			V138.095c0-3.916,3.178-7.095,7.093-7.095c3.926,0,7.103,3.18,7.103,7.095V284.12
			C-225.304,288.046-228.481,291.223-232.407,291.223z"/>
		<path fill="#323232" d="M-355.561,291.223c-1.836,0-3.663-0.725-5.014-2.078l-61.426-61.424c-2.028-2.039-2.644-5.087-1.543-7.74
			c1.099-2.652,3.692-4.377,6.558-4.377h61.426c3.916,0,7.103,3.178,7.103,7.092v61.425c0,2.876-1.735,5.472-4.389,6.57
			C-353.724,291.043-354.643,291.223-355.561,291.223z M-399.845,229.799l37.181,37.189v-37.189H-399.845z"/>
		<path fill="#323232" d="M-259.668,100.63h-130.056c-3.925,0-7.103-3.177-7.103-7.093c0-3.925,3.178-7.103,7.103-7.103h130.056
			c3.924,0,7.103,3.178,7.103,7.103C-252.565,97.453-255.744,100.63-259.668,100.63z"/>
		<path fill="#323232" d="M-259.668,126.471h-48.824c-3.914,0-7.103-3.177-7.103-7.103c0-3.915,3.189-7.095,7.103-7.095h48.824
			c3.924,0,7.103,3.18,7.103,7.095C-252.565,123.293-255.744,126.471-259.668,126.471z"/>
		<g>
			<path fill="#323232" d="M-340.901,126.471h-48.823c-3.925,0-7.103-3.177-7.103-7.103c0-3.915,3.178-7.095,7.103-7.095h48.823
				c3.916,0,7.104,3.18,7.104,7.095C-333.798,123.293-336.986,126.471-340.901,126.471z"/>
		</g>
		<path fill="#323232" d="M-259.668,152.301h-48.824c-3.914,0-7.103-3.19-7.103-7.103c0-3.915,3.189-7.103,7.103-7.103h48.824
			c3.924,0,7.103,3.188,7.103,7.103C-252.565,149.111-255.744,152.301-259.668,152.301z"/>
		<g>
			<path fill="#323232" d="M-340.901,152.301h-48.823c-3.925,0-7.103-3.19-7.103-7.103c0-3.915,3.178-7.103,7.103-7.103h48.823
				c3.916,0,7.104,3.188,7.104,7.103C-333.798,149.111-336.986,152.301-340.901,152.301z"/>
		</g>
		<g>
			<path fill="#323232" d="M-259.668,178.129h-48.824c-3.914,0-7.103-3.178-7.103-7.093c0-3.926,3.189-7.104,7.103-7.104h48.824
				c3.924,0,7.103,3.178,7.103,7.104C-252.565,174.951-255.744,178.129-259.668,178.129z"/>
		</g>
		<g>
			<path fill="#323232" d="M-340.901,178.129h-48.823c-3.925,0-7.103-3.178-7.103-7.093c0-3.926,3.178-7.104,7.103-7.104h48.823
				c3.916,0,7.104,3.178,7.104,7.104C-333.798,174.951-336.986,178.129-340.901,178.129z"/>
		</g>
		<g>
			<path fill="#323232" d="M-275.732,203.969h-32.761c-3.914,0-7.103-3.178-7.103-7.104c0-3.914,3.189-7.092,7.103-7.092h32.761
				c3.925,0,7.103,3.178,7.103,7.092C-268.629,200.791-271.807,203.969-275.732,203.969z"/>
		</g>
		<g>
			<path fill="#323232" d="M-340.901,203.969h-48.823c-3.925,0-7.103-3.178-7.103-7.104c0-3.914,3.178-7.092,7.103-7.092h48.823
				c3.916,0,7.104,3.178,7.104,7.092C-333.798,200.791-336.986,203.969-340.901,203.969z"/>
		</g>
		<g>
			<path fill="#323232" d="M-275.732,229.799h-32.761c-3.914,0-7.103-3.178-7.103-7.104c0-3.914,3.189-7.092,7.103-7.092h32.761
				c3.925,0,7.103,3.178,7.103,7.092C-268.629,226.621-271.807,229.799-275.732,229.799z"/>
		</g>
		<g>
			<path fill="#323232" d="M-259.668,255.637h-48.824c-3.914,0-7.103-3.188-7.103-7.103c0-3.923,3.189-7.103,7.103-7.103h48.824
				c3.924,0,7.103,3.18,7.103,7.103C-252.565,252.449-255.744,255.637-259.668,255.637z"/>
		</g>
	</g>
	<g>
		<polygon fill="#FDFBDF" points="-459.293,67.193 -273.815,48.973 -254.866,277.734 -372.108,284.242 -444.139,228.75 		"/>
		<path fill="#323232" d="M-444.33,237.225c-3.895,0.322-7.335-2.582-7.659-6.498L-465.761,64.46
			c-0.322-3.896,2.593-7.326,6.498-7.648l183.945-15.235c3.914-0.322,7.345,2.583,7.668,6.487l9.504,114.781
			c0.324,3.895-2.583,7.324-6.498,7.646c-3.895,0.334-7.324-2.572-7.647-6.478l-8.919-107.706L-451.02,70.373l13.188,159.182
			C-437.509,233.471-440.416,236.893-444.33,237.225z"/>
		<path fill="#323232" d="M-255.31,283.203l-122.731,10.16c-3.905,0.333-7.346-2.574-7.668-6.486
			c-0.322-3.906,2.593-7.336,6.498-7.66l115.667-9.574l-11.472-138.461c-0.322-3.905,2.583-7.334,6.487-7.657
			c3.915-0.322,7.335,2.583,7.668,6.488l12.047,145.534C-248.489,279.451-251.396,282.881-255.31,283.203z"/>
		<path fill="#323232" d="M-378.041,293.363c-1.826,0.151-3.712-0.412-5.166-1.654l-66.289-56.15
			c-2.189-1.854-3.057-4.842-2.18-7.576c0.878-2.745,3.319-4.671,6.174-4.914l61.214-5.064c3.905-0.322,7.346,2.582,7.668,6.487
			l5.065,61.214c0.243,2.865-1.272,5.59-3.823,6.902C-376.225,293.031-377.123,293.293-378.041,293.363z M-427.248,235.803
			l40.126,34.002l-3.066-37.07L-427.248,235.803z"/>
		<path fill="#323232" d="M-298.202,95.515l-129.612,10.725c-3.915,0.322-7.345-2.583-7.668-6.477
			c-0.322-3.915,2.583-7.345,6.498-7.667l129.612-10.735c3.905-0.324,7.335,2.583,7.659,6.496
			C-291.391,91.761-294.297,95.193-298.202,95.515z"/>
		<path fill="#323232" d="M-296.073,121.264l-48.652,4.025c-3.905,0.322-7.346-2.583-7.668-6.487
			c-0.323-3.905,2.593-7.334,6.487-7.657l48.662-4.026c3.916-0.322,7.346,2.583,7.668,6.477
			C-289.251,117.51-292.157,120.942-296.073,121.264z"/>
		<g>
			<path fill="#323232" d="M-377.021,127.962L-425.684,132c-3.915,0.322-7.345-2.583-7.668-6.498
				c-0.322-3.905,2.583-7.337,6.498-7.659l48.652-4.024c3.904-0.322,7.345,2.583,7.668,6.487
				C-370.211,124.21-373.126,127.64-377.021,127.962z"/>
		</g>
		<path fill="#323232" d="M-293.943,147.003l-48.653,4.025c-3.905,0.322-7.345-2.583-7.667-6.488
			c-0.323-3.905,2.593-7.345,6.498-7.669l48.652-4.025c3.915-0.322,7.345,2.593,7.668,6.487
			C-287.123,143.239-290.028,146.681-293.943,147.003z"/>
		<g>
			<path fill="#323232" d="M-374.893,153.712l-48.662,4.027c-3.905,0.322-7.335-2.593-7.658-6.498
				c-0.324-3.895,2.572-7.336,6.487-7.659l48.662-4.035c3.895-0.324,7.335,2.593,7.658,6.498
				C-368.082,149.939-370.988,153.39-374.893,153.712z"/>
		</g>
		<g>
			<path fill="#323232" d="M-291.804,172.743l-48.663,4.035c-3.904,0.323-7.334-2.583-7.668-6.487
				c-0.323-3.905,2.593-7.336,6.498-7.659l48.653-4.035c3.914-0.324,7.345,2.583,7.668,6.498
				C-284.994,168.988-287.899,172.418-291.804,172.743z"/>
		</g>
		<g>
			<path fill="#323232" d="M-372.764,179.451l-48.653,4.027c-3.914,0.322-7.345-2.585-7.667-6.479
				c-0.323-3.913,2.583-7.345,6.487-7.667l48.662-4.027c3.905-0.322,7.345,2.574,7.668,6.487
				C-365.943,175.697-368.859,179.129-372.764,179.451z"/>
		</g>
		<g>
			<path fill="#323232" d="M-305.688,199.822l-32.65,2.705c-3.895,0.322-7.335-2.583-7.658-6.498
				c-0.323-3.895,2.593-7.326,6.487-7.648l32.65-2.705c3.915-0.322,7.346,2.583,7.668,6.477
				C-298.867,196.068-301.773,199.498-305.688,199.822z"/>
		</g>
		<g>
			<path fill="#323232" d="M-370.635,205.201l-48.653,4.023c-3.915,0.322-7.345-2.572-7.668-6.486
				c-0.322-3.905,2.584-7.335,6.498-7.657l48.653-4.026c3.905-0.322,7.345,2.582,7.668,6.477
				C-363.815,201.446-366.73,204.878-370.635,205.201z"/>
		</g>
		<g>
			<path fill="#323232" d="M-303.549,225.562l-32.65,2.704c-3.905,0.322-7.346-2.584-7.668-6.489
				c-0.323-3.903,2.593-7.335,6.498-7.657l32.64-2.704c3.915-0.322,7.345,2.583,7.668,6.487
				C-296.738,221.808-299.644,225.237-303.549,225.562z"/>
		</g>
		<g>
			<path fill="#323232" d="M-285.418,249.988l-48.652,4.035c-3.905,0.322-7.346-2.593-7.668-6.498
				c-0.323-3.914,2.593-7.344,6.497-7.668l48.653-4.025c3.916-0.322,7.346,2.582,7.668,6.498
				C-278.597,246.225-281.503,249.664-285.418,249.988z"/>
		</g>
	</g>
	<g>
		<polygon fill="#FFFFFF" points="-490.813,65.104 -305.153,48.799 -288.556,277.734 -405.858,283.041 -477.313,226.822 		"/>
		<path fill="#323232" d="M-477.595,235.287c-3.905,0.283-7.306-2.653-7.598-6.568L-497.25,62.319
			c-0.283-3.905,2.664-7.303,6.568-7.586l184.096-13.349c3.915-0.283,7.315,2.655,7.598,6.558l8.333,114.871
			c0.282,3.905-2.664,7.306-6.579,7.599c-3.905,0.281-7.304-2.666-7.587-6.57l-7.81-107.787l-169.94,12.318l11.553,159.316
			C-470.735,231.605-473.681,235.006-477.595,235.287z"/>
		<path fill="#323232" d="M-289.05,283.203l-122.832,8.908c-3.905,0.283-7.315-2.662-7.597-6.568
			c-0.283-3.914,2.664-7.303,6.568-7.596l115.758-8.385l-10.049-138.571c-0.282-3.905,2.665-7.305,6.569-7.588
			c3.904-0.283,7.314,2.655,7.597,6.56l10.554,145.643C-282.199,279.521-285.135,282.922-289.05,283.203z"/>
		<path fill="#323232" d="M-411.882,292.111c-1.836,0.133-3.713-0.463-5.155-1.715l-65.705-56.824
			c-2.168-1.887-3.006-4.873-2.098-7.607c0.897-2.724,3.36-4.633,6.225-4.833l61.264-4.45c3.905-0.283,7.316,2.663,7.598,6.568
			l4.44,61.265c0.202,2.866-1.332,5.581-3.905,6.861C-410.066,291.8-410.974,292.041-411.882,292.111z M-460.493,234.047
			l39.772,34.404l-2.693-37.088L-460.493,234.047z"/>
		<path fill="#323232" d="M-330.024,95.081l-129.713,9.403c-3.914,0.283-7.315-2.653-7.597-6.558
			c-0.283-3.914,2.654-7.314,6.568-7.597l129.713-9.403c3.915-0.283,7.315,2.653,7.597,6.568
			C-323.173,91.399-326.109,94.798-330.024,95.081z"/>
		<path fill="#323232" d="M-328.158,120.851l-48.692,3.531c-3.905,0.283-7.316-2.655-7.598-6.568
			c-0.282-3.905,2.663-7.306,6.568-7.588l48.693-3.531c3.914-0.283,7.315,2.653,7.598,6.558
			C-321.296,117.167-324.242,120.568-328.158,120.851z"/>
		<g>
			<path fill="#323232" d="M-409.177,126.723l-48.693,3.531c-3.914,0.283-7.315-2.653-7.597-6.568
				c-0.283-3.905,2.653-7.306,6.568-7.587l48.704-3.533c3.895-0.281,7.304,2.653,7.586,6.558
				C-402.316,123.039-405.272,126.44-409.177,126.723z"/>
		</g>
		<path fill="#323232" d="M-326.291,146.619l-48.693,3.521c-3.905,0.293-7.315-2.663-7.597-6.568
			c-0.283-3.905,2.663-7.314,6.568-7.597l48.693-3.531c3.914-0.283,7.315,2.673,7.607,6.579
			C-319.43,142.927-322.376,146.326-326.291,146.619z"/>
		<g>
			<path fill="#323232" d="M-407.311,152.491l-48.693,3.533c-3.914,0.281-7.315-2.673-7.598-6.579
				c-0.282-3.905,2.654-7.316,6.569-7.599l48.703-3.531c3.905-0.283,7.315,2.674,7.598,6.579S-403.406,152.21-407.311,152.491z"/>
		</g>
		<g>
			<path fill="#323232" d="M-324.424,172.379l-48.693,3.531c-3.904,0.283-7.315-2.663-7.597-6.558
				c-0.283-3.915,2.663-7.326,6.568-7.609l48.703-3.521c3.915-0.293,7.316,2.653,7.598,6.568
				C-317.564,168.695-320.51,172.096-324.424,172.379z"/>
		</g>
		<g>
			<path fill="#323232" d="M-405.444,178.25l-48.693,3.531c-3.915,0.283-7.315-2.653-7.597-6.558
				c-0.283-3.916,2.653-7.316,6.568-7.597l48.702-3.533c3.905-0.281,7.315,2.655,7.598,6.57
				C-398.583,174.569-401.539,177.968-405.444,178.25z"/>
		</g>
		<g>
			<path fill="#323232" d="M-338.569,199.309l-32.681,2.371c-3.905,0.281-7.315-2.654-7.597-6.57
				c-0.283-3.904,2.674-7.305,6.568-7.586l32.68-2.372c3.916-0.281,7.315,2.653,7.598,6.558
				C-331.72,195.624-334.655,199.025-338.569,199.309z"/>
		</g>
		<g>
			<path fill="#323232" d="M-403.568,204.019l-48.703,3.533c-3.915,0.28-7.315-2.655-7.598-6.57
				c-0.282-3.905,2.664-7.304,6.569-7.587l48.702-3.53c3.905-0.283,7.315,2.653,7.598,6.558
				C-396.717,200.337-399.663,203.738-403.568,204.019z"/>
		</g>
		<g>
			<path fill="#323232" d="M-336.704,225.076l-32.68,2.361c-3.905,0.283-7.315-2.652-7.598-6.568
				c-0.282-3.904,2.674-7.305,6.579-7.586l32.67-2.372c3.916-0.283,7.315,2.663,7.598,6.567
				C-329.853,221.395-332.789,224.785-336.704,225.076z"/>
		</g>
		<g>
			<path fill="#323232" d="M-318.815,249.686l-48.702,3.53c-3.895,0.283-7.315-2.673-7.598-6.578
				c-0.282-3.913,2.675-7.313,6.58-7.597l48.692-3.521c3.915-0.293,7.315,2.653,7.598,6.568
				C-311.964,245.992-314.899,249.402-318.815,249.686z"/>
		</g>
	</g>
</g>
<g>
	<g>
		<path fill="#323232" d="M144.594,648.082H55.956c-2.022,0-3.663-1.641-3.663-3.663V530.663c0-2.022,1.641-3.663,3.663-3.663
			h25.286c2.022,0,3.663,1.641,3.663,3.663s-1.641,3.663-3.663,3.663H59.619v106.431h81.313v-43.833
			c0-2.021,1.641-3.662,3.663-3.662s3.663,1.641,3.663,3.662v47.495C148.256,646.441,146.616,648.082,144.594,648.082z"/>
	</g>
	<g>
		<path fill="#323232" d="M144.594,568.772c-2.022,0-3.663-1.641-3.663-3.663v-30.783h-21.623c-2.022,0-3.663-1.641-3.663-3.663
			s1.641-3.663,3.663-3.663h25.286c2.022,0,3.663,1.641,3.663,3.663v34.446C148.256,567.132,146.616,568.772,144.594,568.772z"/>
	</g>
	<g>
		<g>
			<path fill="#323232" d="M128.136,612.1c-1.083,0-2.151-0.473-2.871-1.383l-14.121-17.784c-0.601-0.763-0.877-1.731-0.768-2.699
				c0.109-0.964,0.601-1.846,1.359-2.451l50.523-40.099c1.579-1.254,3.892-0.996,5.141,0.592l14.126,17.783
				c0.601,0.764,0.877,1.731,0.772,2.699c-0.114,0.964-0.601,1.846-1.364,2.451l-50.523,40.099
				C129.733,611.842,128.932,612.1,128.136,612.1z M119.16,591.244l9.562,12.047l44.791-35.544l-9.571-12.047L119.16,591.244z"/>
		</g>
		<g>
			<path fill="#323232" d="M102.097,618.275c-1.102,0-2.165-0.501-2.866-1.383c-0.887-1.116-1.049-2.638-0.41-3.911l11.913-23.96
				c0.901-1.812,3.1-2.537,4.912-1.649c1.813,0.901,2.547,3.1,1.65,4.912l-8.441,16.963l18.432-4.368
				c1.975-0.467,3.939,0.754,4.412,2.719c0.462,1.969-0.753,3.939-2.723,4.406l-26.034,6.171
				C102.664,618.242,102.378,618.275,102.097,618.275z"/>
		</g>
	</g>
</g>
<g>
	<path fill="#323232" d="M-322.487,630.527h-120.261c-4.86,0-8.813-3.954-8.813-8.809v-77.335c0-4.86,3.953-8.809,8.813-8.809
		h120.261c4.859,0,8.813,3.948,8.813,8.809v77.335C-313.674,626.573-317.628,630.527-322.487,630.527z M-442.749,541.24
		c-1.736,0-3.147,1.412-3.147,3.144v77.335c0,1.735,1.412,3.147,3.147,3.147h120.261c1.736,0,3.157-1.412,3.157-3.147v-77.335
		c0-1.731-1.421-3.144-3.157-3.144H-442.749z"/>
</g>
<path fill="#323232" d="M-407.109,572.76h-26.492c-1.564,0-2.837-1.27-2.837-2.828v-15.824c0-1.564,1.273-2.828,2.837-2.828h26.492
	c1.564,0,2.828,1.264,2.828,2.828v15.824C-404.281,571.49-405.545,572.76-407.109,572.76z M-430.773,567.099h20.836v-10.163h-20.836
	V567.099z"/>
<path fill="#323232" d="M-336.408,586.027h-24.36c-2.189,0-3.958-1.765-3.958-3.954c0-2.185,1.769-3.953,3.958-3.953h24.36
	c2.184,0,3.954,1.769,3.954,3.953C-332.455,584.263-334.224,586.027-336.408,586.027z"/>
<path fill="#323232" d="M-334.939,601.359h-52.693c-2.179,0-3.953-1.774-3.953-3.953c0-2.189,1.774-3.963,3.953-3.963h52.693
	c2.185,0,3.954,1.773,3.954,3.963C-330.986,599.585-332.755,601.359-334.939,601.359z"/>
<path fill="#323232" d="M-334.939,612.591h-52.693c-2.179,0-3.953-1.774-3.953-3.954c0-2.184,1.774-3.958,3.953-3.958h52.693
	c2.185,0,3.954,1.774,3.954,3.958C-330.986,610.816-332.755,612.591-334.939,612.591z"/>
<g>
	<g>
		<path fill="#323232" d="M815.967,653.49l-86.692-83.354c-3.505-3.367-3.614-8.957-0.248-12.457l34.467-35.844
			c3.366-3.506,8.951-3.61,12.456-0.244l86.692,83.354c3.505,3.367,3.614,8.952,0.248,12.457l-34.466,35.845
			C825.062,656.747,819.467,656.857,815.967,653.49z M772.024,525.68c-1.254-1.207-3.247-1.169-4.449,0.081l-34.466,35.849
			c-1.202,1.25-1.164,3.243,0.091,4.449l86.691,83.35c1.249,1.201,3.253,1.173,4.454-0.082l34.466-35.844
			c1.202-1.25,1.154-3.253-0.095-4.454L772.024,525.68z"/>
	</g>
</g>
<g>
	<g>
		<path fill="#323232" d="M229.535,649.68c-0.601-0.648-0.968-1.517-0.968-2.476l0.014-41.753c-0.005-2.027,1.636-3.667,3.667-3.667
			c2.017,0,3.658,1.636,3.658,3.662l-0.009,38.096l53.79,0.019l0.023-104.638l-53.79-0.019l0.005,72.537
			c0,2.021-1.646,3.658-3.667,3.662c-2.017-0.01-3.658-1.65-3.663-3.662l0.005-76.195c0-0.973,0.386-1.908,1.073-2.595
			c0.687-0.682,1.621-1.073,2.589-1.073l61.115,0.02c2.022,0.005,3.658,1.65,3.658,3.662l-0.029,111.964
			c0.005,0.968-0.386,1.902-1.073,2.589c-0.687,0.688-1.621,1.073-2.589,1.073l-61.115-0.014
			C231.167,650.862,230.203,650.409,229.535,649.68z"/>
	</g>
	<g>
		<path fill="#323232" d="M237.776,548.313c-0.072-0.077-0.134-0.153-0.196-0.233l-8.212-10.598
			c-1.24-1.593-0.954-3.896,0.649-5.136c1.602-1.24,3.901-0.935,5.136,0.653l7.115,9.171l41.09,0.009l7.125-9.166
			c1.24-1.598,3.539-1.883,5.136-0.644c1.622,1.192,1.889,3.534,0.644,5.137l-8.217,10.592c-0.691,0.892-1.765,1.407-2.895,1.411
			l-44.681-0.009C239.44,549.501,238.468,549.063,237.776,548.313z"/>
	</g>
	<g>
		<path fill="#323232" d="M229.535,649.68c-1.192-1.297-1.307-3.296-0.195-4.727l8.222-10.582c0.691-0.893,1.765-1.412,2.895-1.417
			l44.681,0.01c1.135,0.005,2.208,0.52,2.89,1.421l8.212,10.598c1.24,1.592,0.954,3.896-0.649,5.136
			c-1.602,1.24-3.93,0.982-5.136-0.653l-7.11-9.171l-41.095-0.005l-7.125,9.161c-1.24,1.598-3.543,1.884-5.136,0.649
			C229.816,649.966,229.669,649.832,229.535,649.68z"/>
	</g>
	<g>
		<path fill="#323232" d="M260.091,639.097c-0.601-0.648-0.963-1.521-0.963-2.47l0.024-88.219c0-2.021,1.64-3.662,3.667-3.662
			c2.018,0.005,3.653,1.641,3.658,3.662l-0.024,88.219c0,2.021-1.641,3.657-3.667,3.662
			C261.722,640.284,260.763,639.831,260.091,639.097z"/>
	</g>
</g>
<g>
	<g>
		<path fill="#323232" d="M994.796,543.384H802.188c-3.439,0-6.23-2.79-6.23-6.229V389.843c0-3.438,2.791-6.229,6.23-6.229h223.725
			c3.439,0,6.23,2.791,6.23,6.229v139.759c0,3.44-2.791,6.231-6.23,6.231s-6.229-2.791-6.229-6.231V396.073H808.418v134.851h186.378
			c3.439,0,6.23,2.791,6.23,6.231C1001.026,540.594,998.235,543.384,994.796,543.384z"/>
	</g>
</g>
<g>
	<g>
		<path fill="#323232" d="M453.93,225.078c-0.802,0-1.604-0.188-2.347-0.577l-23.453-12.328l-23.446,12.328
			c-1.703,0.888-3.761,0.75-5.319-0.389c-1.558-1.132-2.334-3.043-2.005-4.938l4.484-26.108l-18.975-18.497
			c-1.375-1.341-1.867-3.345-1.276-5.173c0.592-1.829,2.177-3.163,4.078-3.438l26.207-3.808l11.731-23.755
			c1.695-3.445,7.356-3.445,9.053,0l11.723,23.755l26.221,3.808c1.901,0.275,3.486,1.61,4.077,3.438
			c0.591,1.828,0.098,3.832-1.275,5.173l-18.976,18.497l4.484,26.108c0.322,1.895-0.46,3.814-2.011,4.938
			C456.021,224.757,454.982,225.078,453.93,225.078z M428.13,201.417c0.815,0,1.618,0.189,2.354,0.577l16.74,8.805l-3.195-18.64
			c-0.276-1.637,0.263-3.309,1.459-4.472l13.544-13.209l-18.725-2.716c-1.644-0.236-3.064-1.268-3.801-2.761l-8.376-16.962
			l-8.37,16.962c-0.729,1.493-2.156,2.524-3.801,2.761l-18.718,2.716l13.545,13.209c1.197,1.163,1.735,2.835,1.459,4.472
			l-3.202,18.64l16.738-8.805C426.519,201.606,427.328,201.417,428.13,201.417z"/>
	</g>
</g>
<g>
	<g>
		<path fill="#323232" d="M852.384,421.73h-26.947c-3.439,0-6.229-2.791-6.229-6.229c0-3.44,2.79-6.231,6.229-6.231h26.947
			c3.439,0,6.23,2.791,6.23,6.231C858.614,418.939,855.823,421.73,852.384,421.73z"/>
	</g>
</g>
<g>
	<g>
		<path fill="#323232" d="M353.596,128.39h-26.947c-3.439,0-6.229-2.791-6.229-6.229c0-3.44,2.79-6.231,6.229-6.231h26.947
			c3.439,0,6.23,2.791,6.23,6.231C359.827,125.599,357.036,128.39,353.596,128.39z"/>
	</g>
</g>
<g>
	<polygon fill="#FFFFFF" points="296.245,593.066 256.557,615.948 253.595,660.371 336.281,659.795 335.065,615.924 	"/>
	<g>
		<path fill="#323232" d="M337.159,664.535h-84.441c-1.641,0-2.966-1.326-2.966-2.967v-46.012c0-1.14,0.658-2.184,1.688-2.676
			l41.376-23.678c1.488-0.715,3.248-0.076,3.954,1.397c0.706,1.479,0.076,3.253-1.397,3.953l-39.683,22.882v41.162h78.499v-41.186
			l-39.727-22.867c-1.474-0.726-2.079-2.5-1.359-3.973c0.72-1.469,2.489-2.08,3.968-1.359l41.396,23.683
			c1.016,0.496,1.66,1.531,1.66,2.661v46.012C340.125,663.209,338.799,664.535,337.159,664.535z"/>
	</g>
	<g>
		<path fill="#323232" d="M294.938,642.707c-0.515,0-1.021-0.129-1.474-0.396l-42.22-24.18c-1.426-0.811-1.913-2.628-1.102-4.044
			c0.815-1.421,2.613-1.917,4.054-1.102l40.742,23.335l40.742-23.335c1.44-0.815,3.243-0.319,4.054,1.102
			c0.811,1.416,0.324,3.233-1.102,4.044l-42.221,24.18C295.954,642.578,295.448,642.707,294.938,642.707z"/>
	</g>
	<g>
		<path fill="#323232" d="M252.723,661.854c-0.921,0-1.827-0.424-2.404-1.216c-0.963-1.326-0.672-3.181,0.653-4.148l33.321-24.246
			c1.34-0.959,3.186-0.663,4.145,0.658c0.963,1.32,0.672,3.176-0.653,4.139l-33.322,24.251
			C253.934,661.674,253.323,661.854,252.723,661.854z"/>
	</g>
	<g>
		<path fill="#323232" d="M337.154,661.854c-0.606,0-1.221-0.181-1.75-0.572l-32.158-23.583c-1.326-0.968-1.612-2.823-0.639-4.145
			c0.963-1.32,2.809-1.621,4.144-0.639l32.158,23.583c1.326,0.964,1.607,2.828,0.639,4.145
			C338.971,661.436,338.069,661.854,337.154,661.854z"/>
	</g>
</g>
<path fill="#323232" d="M668.937,657.644c-0.033,0-0.062,0-0.1,0h-88.714c-1.135,0-2.198-0.52-2.89-1.411
	c-0.696-0.893-0.939-2.056-0.663-3.152c6.319-24.957,8.961-53.781,2.551-58.359c-1.354,0.797-4.831,4.449-7.458,8.094
	c-0.663,0.915-1.708,1.479-2.843,1.516c-1.092,0.129-2.212-0.438-2.938-1.302l-19.219-22.892c-0.639-0.768-0.944-1.76-0.834-2.751
	c0.109-0.992,0.615-1.898,1.407-2.509c0.253-0.191,25.057-19.276,31.905-26.74l1.159-1.292c3.419-3.839,7.268-8.16,17.011-10.525
	l4.139-9.314c0.582-1.325,1.898-2.179,3.348-2.179h39.373c1.445,0,2.757,0.854,3.348,2.179l4.13,9.314
	c9.743,2.365,13.591,6.687,17.011,10.525l1.159,1.292c6.848,7.469,31.652,26.549,31.904,26.74c0.792,0.61,1.298,1.517,1.407,2.509
	c0.109,0.991-0.195,1.983-0.835,2.751l-19.219,22.892c-0.725,0.863-1.793,1.431-2.938,1.302c-1.136-0.037-2.18-0.601-2.843-1.516
	c-2.557-3.539-5.909-7.092-7.535-8.041c-6.247,4.692-3.72,32.85,2.433,57.533c0.257,0.501,0.405,1.068,0.405,1.675
	C672.6,656.003,670.959,657.644,668.937,657.644z M584.772,650.318h79.414c-3.62-15.686-11.307-55.846,3.104-62.561
	c0.706-0.329,1.47-0.496,2.271-0.496c3.577,0,7.692,3.868,10.816,7.583l13.858-16.501c-6.986-5.446-23.969-18.885-29.815-25.257
	l-1.23-1.368c-3.42-3.84-6.119-6.873-14.861-8.633c-1.164-0.233-2.146-1.021-2.623-2.107l-3.92-8.828h-34.609l-3.916,8.828
	c-0.486,1.087-1.459,1.874-2.628,2.107c-8.747,1.76-11.446,4.793-14.865,8.633l-1.23,1.368c-5.847,6.372-22.83,19.811-29.816,25.257
	l13.859,16.501c3.124-3.715,7.239-7.583,10.816-7.583c0.801,0,1.564,0.167,2.27,0.496
	C596.08,594.473,588.392,634.633,584.772,650.318z"/>
<g>
	<path fill="#323232" d="M624.637,553.312c-1.025,0-2.309-0.43-3-1.179l-19.534-21.16c-1.369-1.487-1.278-3.806,0.205-5.174
		c1.488-1.379,3.806-1.288,5.179,0.205l16.997,18.408l16.992-18.408c1.378-1.493,3.696-1.584,5.174-0.205
		c1.488,1.368,1.583,3.687,0.21,5.174l-19.534,21.16C626.63,552.882,625.658,553.312,624.637,553.312z"/>
</g>
<g>
	<path fill="none" stroke="#323333" stroke-width="3" stroke-miterlimit="10" d="M216.622-171.227c0,4.791-3.884,8.675-8.675,8.675
		H60.467c-4.792,0-8.676-3.884-8.676-8.675v-50.316v-72.295c0-4.791,3.884-8.675,8.676-8.675h147.479
		c4.792,0,8.675,3.885,8.675,8.675V-171.227z"/>
	
		<polyline fill="none" stroke="#323333" stroke-width="3" stroke-linecap="round" stroke-linejoin="round" stroke-miterlimit="10" points="
		51.791,-209.851 77.354,-238.769 116.738,-202.047 	"/>
	
		<polyline fill="none" stroke="#323333" stroke-width="3" stroke-linecap="round" stroke-linejoin="round" stroke-miterlimit="10" points="
		102.638,-215.194 123.868,-234.596 201.832,-162.551 	"/>
	
		<circle fill="none" stroke="#323333" stroke-width="3" stroke-linecap="round" stroke-linejoin="round" stroke-miterlimit="10" cx="173.907" cy="-267.859" r="22.773"/>
</g>
<line fill="none" stroke="#323232" stroke-width="3" stroke-linecap="round" stroke-miterlimit="10" x1="450.912" y1="-139.923" x2="537.822" y2="-139.924"/>
<line fill="none" stroke="#323232" stroke-width="3" stroke-linecap="round" stroke-miterlimit="10" x1="405.136" y1="-124.229" x2="537.822" y2="-124.229"/>
<line fill="none" stroke="#323232" stroke-width="3" stroke-linecap="round" stroke-miterlimit="10" x1="349.912" y1="-107.75" x2="537.822" y2="-107.75"/>
<line fill="none" stroke="#323232" stroke-width="6" stroke-linecap="round" stroke-miterlimit="10" x1="610.653" y1="-289.971" x2="610.653" y2="-53.992"/>
<line fill="none" stroke="#323232" stroke-width="6" stroke-linecap="round" stroke-miterlimit="10" x1="809.76" y1="-279.471" x2="610.653" y2="-279.471"/>
<line fill="none" stroke="#323232" stroke-width="6" stroke-linecap="round" stroke-miterlimit="10" x1="809.76" y1="-198.574" x2="610.653" y2="-198.574"/>
<line fill="none" stroke="#323232" stroke-width="6" stroke-linecap="round" stroke-miterlimit="10" x1="809.76" y1="-289.971" x2="809.76" y2="-53.992"/>
<g>
	<path fill="none" stroke="#323333" stroke-width="6" stroke-miterlimit="10" d="M554.412-93.794c0,6.759-5.479,12.24-12.241,12.24
		H314.103c-6.76,0-12.241-5.48-12.241-12.24v-70.987v-67.793c0-6.759,5.48-12.24,12.241-12.24h228.069
		c6.761,0,12.241,5.48,12.241,12.24V-93.794z"/>
</g>
<g>
	<path fill="none" stroke="#323333" stroke-width="6" stroke-miterlimit="10" d="M554.412,249.836
		c0,6.759-5.479,12.239-12.241,12.239H314.103c-6.76,0-12.241-5.48-12.241-12.239v-70.987v-67.793c0-6.759,5.48-12.24,12.241-12.24
		h228.069c6.761,0,12.241,5.48,12.241,12.24V249.836z"/>
</g>
<g>
	<path fill="none" stroke="#323333" stroke-width="3" stroke-miterlimit="10" d="M389.526-168.292c0,6.759-5.479,12.24-12.241,12.24
		h-43.968c-6.76,0-12.241-5.48-12.241-12.24v-24.372v-21.71c0-6.759,5.48-12.24,12.241-12.24h43.968
		c6.761,0,12.241,5.48,12.241,12.24V-168.292z"/>
</g>
<circle fill="none" stroke="#323333" stroke-miterlimit="10" cx="479.35" cy="-172.371" r="9.217"/>
<circle fill="none" stroke="#323333" stroke-miterlimit="10" cx="501.3" cy="-172.371" r="9.217"/>
<circle fill="none" stroke="#323333" stroke-miterlimit="10" cx="522.274" cy="-172.371" r="9.217"/>
<path fill="none" stroke="#323232" stroke-width="6" stroke-miterlimit="10" d="M233.759-59.318c0,1.657-1.343,3-3,3H37.653
	c-1.657,0-3-1.343-3-3v-258.675c0-1.657,1.343-3,3-3h193.106c1.657,0,3,1.343,3,3V-59.318z"/>
<path fill="#BAE3F9" stroke="#323232" stroke-width="6" stroke-miterlimit="10" d="M227.996,266.22
	c-0.117,1.385-1.334,2.414-2.72,2.297L63.788,254.929c-1.386-0.117-2.415-1.334-2.298-2.719L79.692,35.887
	c0.117-1.386,1.334-2.414,2.72-2.298L243.9,47.178c1.386,0.116,2.415,1.334,2.298,2.72L227.996,266.22z"/>
<path fill="#FFFCD3" stroke="#323232" stroke-width="6" stroke-miterlimit="10" d="M225.306,254.588
	c0.1,1.387-0.944,2.592-2.331,2.691L61.332,268.875c-1.387,0.1-2.592-0.943-2.691-2.33L43.106,50.015
	c-0.1-1.387,0.944-2.592,2.331-2.691l161.644-11.597c1.387-0.099,2.592,0.944,2.691,2.331L225.306,254.588z"/>
<path fill="#FFFFFF" stroke="#323232" stroke-width="6" stroke-miterlimit="10" d="M211.898,272.981
	c0.128,1.384-0.89,2.61-2.275,2.738L48.255,290.675c-1.385,0.128-2.611-0.89-2.739-2.274L25.484,72.241
	c-0.128-1.385,0.89-2.611,2.274-2.739l161.368-14.955c1.385-0.128,2.611,0.89,2.739,2.275L211.898,272.981z"/>
<line fill="none" stroke="#323232" stroke-width="3" stroke-linecap="round" stroke-miterlimit="10" x1="40.126" y1="94.791" x2="172.266" y2="82.769"/>
<line fill="none" stroke="#323232" stroke-width="3" stroke-linecap="round" stroke-miterlimit="10" x1="43.1" y1="122.291" x2="175.239" y2="110.269"/>
<line fill="none" stroke="#323232" stroke-width="3" stroke-linecap="round" stroke-miterlimit="10" x1="46.24" y1="146.291" x2="178.379" y2="134.269"/>
<line fill="none" stroke="#323232" stroke-width="3" stroke-linecap="round" stroke-miterlimit="10" x1="48.961" y1="167.377" x2="181.101" y2="155.355"/>
<line fill="none" stroke="#323232" stroke-width="3" stroke-linecap="round" stroke-miterlimit="10" x1="52.102" y1="190.994" x2="184.241" y2="178.972"/>
<line fill="none" stroke="#323232" stroke-width="3" stroke-linecap="round" stroke-miterlimit="10" x1="52.621" y1="215.289" x2="184.761" y2="203.268"/>
<line fill="none" stroke="#323232" stroke-width="3" stroke-linecap="round" stroke-miterlimit="10" x1="135.968" y1="249.837" x2="184.761" y2="245.397"/>
<polygon fill="none" stroke="#323232" stroke-width="0.5" stroke-miterlimit="10" points="426.079,124.301 406.746,154.529 
	377.079,161.529 375.079,175.862 392.079,198.862 389.412,232.529 399.079,240.525 427.206,223.529 448.412,237.862 
	468.746,228.529 463.079,196.529 478.079,180.445 481.412,165.196 448.746,154.529 435.746,124.301 "/>
</svg>
