<?xml version="1.0" encoding="utf-8"?>
<!-- Generator: Adobe Illustrator 16.0.0, SVG Export Plug-In . SVG Version: 6.00 Build 0)  -->
<!DOCTYPE svg PUBLIC "-//W3C//DTD SVG 1.1//EN" "http://www.w3.org/Graphics/SVG/1.1/DTD/svg11.dtd">
<svg version="1.1" id="레이어_1" xmlns="http://www.w3.org/2000/svg" xmlns:xlink="http://www.w3.org/1999/xlink" x="0px"
	 y="0px" width="370.339px" height="114px" viewBox="0 0 370.339 114" enable-background="new 0 0 370.339 114"
	 xml:space="preserve">
<g>
	<path fill="#5BB042" d="M134.726,35.674c0,0-8.355-4.654-6.765-8.86c2.136-5.639,7.376-1.338,7.376-1.338s4.355-4.026,7.378-0.485
		c3.025,3.534-3.54,10.006-6.167,10.833l-0.92-7.543L134.726,35.674z"/>
	<path fill="#124626" d="M135.529,38.145c0,0-0.256,9.115-4.948,9.862c-6.284,1.015-4.847-5.383-4.847-5.383
		s-5.86-1.599-4.051-5.799c1.812-4.201,11.039-1.992,13.098-0.243l-6.569,4.443L135.529,38.145z"/>
	<path fill="#B9C43A" d="M137.251,36.253c0,0,8.595-4.244,11.594-0.778c4.007,4.647-2.639,6.596-2.639,6.596
		s1.382,5.575-3.415,6.148c-4.792,0.578-7.251-8.053-6.622-10.592l7.337,3.205L137.251,36.253z"/>
	<rect x="130.924" y="49.668" fill="#124626" width="9.552" height="39.45"/>
	<path fill="#124626" d="M178.052,88.186c-1.798,0.69-3.391,1.237-4.771,1.661c-1.388,0.41-2.807,0.621-4.256,0.621
		c-5.956,0-10.971-2.028-15.053-6.073c-4.082-4.051-6.123-8.909-6.123-14.584c0-5.744,2.041-10.571,6.123-14.486
		c4.082-3.907,9.097-5.861,15.053-5.861c1.449,0,2.887,0.137,4.307,0.41c1.418,0.279,2.991,0.804,4.721,1.562v10.068
		c-2.352-1.313-4.15-2.14-5.394-2.495c-1.252-0.344-2.458-0.517-3.634-0.517c-3.323,0-6.161,1.107-8.513,3.323
		c-2.358,2.215-3.528,4.915-3.528,8.095c0,3.186,1.17,5.919,3.528,8.201c2.352,2.283,5.189,3.43,8.513,3.43
		c1.176,0,2.401-0.206,3.684-0.623c1.275-0.417,3.061-1.108,5.344-2.078V88.186z"/>
	<rect x="186.147" y="28.909" fill="#124626" width="9.551" height="60.209"/>
	<path fill="#124626" d="M240.439,54.341c4.013,4.014,6.022,8.861,6.022,14.536s-2.01,10.516-6.022,14.529
		c-4.015,4.013-8.862,6.022-14.53,6.022c-5.675,0-10.522-2.01-14.53-6.022c-4.02-4.014-6.022-8.854-6.022-14.529
		s2.003-10.522,6.022-14.536c4.008-4.013,8.855-6.024,14.53-6.024C231.577,48.316,236.425,50.328,240.439,54.341 M234.11,77.389
		c2.354-2.357,3.528-5.151,3.528-8.412c0-3.248-1.175-6.055-3.528-8.407c-2.357-2.352-5.157-3.527-8.406-3.527
		c-3.254,0-6.061,1.176-8.412,3.527c-2.354,2.353-3.529,5.159-3.529,8.407c0,3.261,1.176,6.055,3.529,8.412
		c2.352,2.353,5.158,3.528,8.412,3.528C228.953,80.917,231.753,79.741,234.11,77.389"/>
	<path fill="#124626" d="M292.862,50.085c-2.283,2.633-4.561,5.812-6.851,9.551l-16.297,29.999l-16.09-30.204
		c-2.284-4.021-4.5-7.131-6.64-9.346h11.523l11.312,21.388l11.524-21.388H292.862z"/>
	<path fill="#124626" d="M300.759,72.716c0.411,2.563,1.654,4.754,3.733,6.589c2.078,1.836,4.431,2.751,7.056,2.751
		c2.01,0,3.759-0.535,5.246-1.605c1.487-1.075,2.993-2.545,4.512-4.412l8.308,3.733c-2.559,3.467-5.259,6.093-8.096,7.891
		c-2.839,1.805-6.093,2.701-9.757,2.701c-5.949,0-10.833-2.01-14.642-6.023c-3.802-4.009-5.706-8.854-5.706-14.529
		c0-5.744,1.904-10.591,5.706-14.537c3.809-3.943,8.692-5.88,14.642-5.811c5.257,0.068,9.619,1.573,13.079,4.517
		c3.46,2.938,5.706,6.659,6.746,11.157c0,0.068,0.085,0.865,0.261,2.39c0.168,1.524,0.225,3.254,0.154,5.189H300.759z
		 M321.933,64.932c-0.832-2.427-2.184-4.207-4.051-5.345c-1.866-1.145-3.98-1.711-6.334-1.711c-2.146,0-4.219,0.566-6.222,1.711
		c-2.01,1.138-3.322,2.918-3.951,5.345H321.933z"/>
	<path fill="#124626" d="M362.522,58.392c-1.038-0.211-2.04-0.448-3.011-0.728c-1.177-0.417-2.905-0.343-5.19,0.212
		c-2.283,0.547-3.423,1.896-3.423,4.043v27.094h-9.444V61.919c0-0.21-0.026-1.661-0.056-4.361c-0.038-2.693-0.225-5.151-0.573-7.367
		h10.073v1.761c1.588-1.313,3.093-2.109,4.519-2.383c1.412-0.28,2.781-0.386,4.095-0.317c0.759,0,1.574,0.075,2.438,0.212
		c0.865,0.137,2.028,0.447,3.479,0.934L362.522,58.392z"/>
</g>
<g>
	<path fill="#5BB042" d="M50.82,24.072c-4.814,8.66-11.926,18.657-21.797,26.465C46.316,54.48,67.066,64.41,73.875,89.054
		c5.57-3.7,11.111-8.079,16.246-13.242C90.314,46.982,64.625,30.727,50.82,24.072"/>
	<path fill="#B9C43A" d="M110.852,42.303L59.209,4.9c0,0-2.49,8.574-8.389,19.172c13.805,6.654,39.494,22.91,39.301,51.739
		C98.85,67.055,106.416,56.068,110.852,42.303"/>
	<path fill="#124626" d="M29.023,50.537C21.188,56.747,11.605,61.581,0,63.218l31.609,44.077c0,0,21.227-4.262,42.266-18.241
		C67.066,64.41,46.316,54.48,29.023,50.537"/>
	<path fill="#FFFFFF" d="M54.424,56.96c0,0-19.229-14.677-11.693-25.003c10.105-13.805,21.129-1.046,21.129-1.046
		s14.938-8.941,20.488,1.124c5.551,10.074-17.281,24.615-25.08,25.894l3.236-19.704L54.424,56.96z"/>
	<path fill="#FFFFFF" d="M54.715,63.576c0,0-7.645,23.365-21.012,23.782c-17.902,0.571-9.088-15.412-9.088-15.412
		S9.834,65.93,17.98,55.701C26.127,45.48,49.6,54.15,53.861,59.314l-21.283,9.299L54.715,63.576z"/>
	<path fill="#FFFFFF" d="M60.865,59.266c0,0,26.68-8.156,32.201,1.744c7.391,13.252-12.225,16.109-12.225,16.109
		s-0.494,14.813-13.998,14.734c-13.506-0.078-13.621-23.075-9.988-29.4l17.563,10.607L60.865,59.266z"/>
	<path fill="#DEDFDF" d="M31.756,107.295c0,0,40.367,2.965,61.137-6.82c0,0-7.422-1.782-16.914-2.974
		C66.484,96.31,31.756,107.295,31.756,107.295"/>
</g>
<text transform="matrix(1 0 0 1 210.6406 42.3936)" fill="#124626" font-family="'KoreanYNMYT-L'" font-size="8.7709">Design &amp; Distribution &amp; Inovation</text>
</svg>
