<?xml version="1.0" encoding="utf-8"?>
<!-- Generator: Adobe Illustrator 16.0.0, SVG Export Plug-In . SVG Version: 6.00 Build 0)  -->
<!DOCTYPE svg PUBLIC "-//W3C//DTD SVG 1.1//EN" "http://www.w3.org/Graphics/SVG/1.1/DTD/svg11.dtd">
<svg version="1.1" id="레이어_1" xmlns="http://www.w3.org/2000/svg" xmlns:xlink="http://www.w3.org/1999/xlink" x="0px"
	 y="0px" width="566.93px" height="215.433px" viewBox="0 0 566.93 215.433" style="enable-background:new 0 0 566.93 215.433;"
	 xml:space="preserve">
<g>
	<g>
		<g>
			<g>
				<path style="fill:#5BB042;" d="M185.485,70.586c0,0-13.01-7.246-10.531-13.795c3.324-8.777,11.48-2.083,11.48-2.083
					s6.781-6.268,11.488-0.756c4.709,5.503-5.512,15.577-9.6,16.866l-1.434-11.742L185.485,70.586z"/>
				<path style="fill:#124626;" d="M186.735,74.432c0,0-0.398,14.191-7.703,15.354c-9.783,1.579-7.545-8.379-7.545-8.379
					s-9.125-2.49-6.307-9.029s17.186-3.1,20.391-0.377l-10.229,6.916L186.735,74.432z"/>
				<path style="fill:#B9C43A;" d="M189.417,71.486c0,0,13.379-6.607,18.049-1.211c6.238,7.236-4.107,10.269-4.107,10.269
					s2.15,8.68-5.318,9.571c-7.459,0.9-11.287-12.535-10.309-16.488l11.422,4.988L189.417,71.486z"/>
				<rect x="179.565" y="92.372" style="fill:#124626;" width="14.871" height="61.417"/>
				<path style="fill:#124626;" d="M252.937,152.336c-2.799,1.075-5.279,1.928-7.43,2.586c-2.16,0.64-4.369,0.969-6.625,0.969
					c-9.271,0-17.08-3.158-23.434-9.454c-6.355-6.307-9.533-13.872-9.533-22.707c0-8.941,3.178-16.458,9.533-22.552
					c6.354-6.084,14.162-9.125,23.434-9.125c2.256,0,4.494,0.213,6.703,0.639c2.209,0.436,4.658,1.25,7.352,2.432v15.674
					c-3.662-2.044-6.461-3.332-8.398-3.885c-1.947-0.533-3.826-0.804-5.656-0.804c-5.174,0-9.592,1.724-13.254,5.173
					c-3.67,3.449-5.492,7.652-5.492,12.604c0,4.959,1.822,9.213,5.492,12.768c3.662,3.555,8.08,5.338,13.254,5.338
					c1.83,0,3.738-0.32,5.734-0.969c1.986-0.649,4.766-1.725,8.32-3.236V152.336z"/>
				<rect x="265.54" y="60.055" style="fill:#124626;" width="14.869" height="93.734"/>
				<path style="fill:#124626;" d="M350.062,99.646c6.248,6.248,9.377,13.795,9.377,22.63s-3.129,16.372-9.377,22.62
					s-13.795,9.377-22.619,9.377c-8.836,0-16.383-3.129-22.621-9.377c-6.258-6.248-9.377-13.785-9.377-22.62
					s3.119-16.382,9.377-22.63c6.238-6.248,13.785-9.377,22.621-9.377C336.267,90.27,343.813,93.398,350.062,99.646 M340.21,135.528
					c3.662-3.671,5.492-8.021,5.492-13.097c0-5.057-1.83-9.426-5.492-13.088c-3.672-3.662-8.031-5.492-13.088-5.492
					c-5.066,0-9.436,1.83-13.098,5.492s-5.492,8.031-5.492,13.088c0,5.076,1.83,9.426,5.492,13.097
					c3.662,3.662,8.031,5.493,13.098,5.493C332.179,141.021,336.538,139.19,340.21,135.528"/>
				<path style="fill:#124626;" d="M431.677,93.021c-3.557,4.098-7.102,9.047-10.666,14.869l-25.371,46.702l-25.051-47.021
					c-3.555-6.259-7.004-11.102-10.336-14.55h17.939l17.611,33.295l17.941-33.295H431.677z"/>
				<path style="fill:#124626;" d="M443.97,128.254c0.639,3.99,2.576,7.4,5.813,10.258c3.234,2.858,6.896,4.282,10.984,4.282
					c3.129,0,5.852-0.833,8.166-2.499c2.316-1.676,4.66-3.963,7.023-6.869l12.934,5.813c-3.982,5.396-8.186,9.484-12.604,12.283
					c-4.418,2.811-9.484,4.205-15.189,4.205c-9.262,0-16.865-3.129-22.795-9.377c-5.918-6.239-8.883-13.785-8.883-22.62
					c0-8.941,2.965-16.487,8.883-22.63c5.93-6.141,13.533-9.154,22.795-9.047c8.186,0.105,14.977,2.45,20.361,7.032
					c5.387,4.572,8.885,10.365,10.502,17.369c0,0.106,0.135,1.347,0.406,3.72c0.262,2.373,0.35,5.066,0.242,8.08H443.97z
					 M476.935,116.135c-1.297-3.778-3.4-6.549-6.307-8.321c-2.906-1.782-6.199-2.664-9.861-2.664c-3.342,0-6.568,0.882-9.688,2.664
					c-3.129,1.772-5.172,4.543-6.15,8.321H476.935z"/>
				<path style="fill:#124626;" d="M540.124,105.953c-1.617-0.329-3.176-0.697-4.688-1.133c-1.832-0.649-4.523-0.533-8.08,0.329
					c-3.555,0.853-5.328,2.954-5.328,6.296v42.179h-14.705v-42.179c0-0.328-0.039-2.586-0.086-6.79
					c-0.059-4.194-0.35-8.021-0.893-11.47h15.684v2.742c2.471-2.045,4.814-3.285,7.033-3.711c2.199-0.436,4.33-0.601,6.375-0.494
					c1.182,0,2.451,0.116,3.797,0.33c1.348,0.213,3.158,0.697,5.416,1.453L540.124,105.953z"/>
			</g>
			<g>
				<path style="fill:#5BB042;" d="M70.071,72.242c-4.814,8.66-11.926,18.657-21.797,26.465
					c17.293,3.943,38.043,13.873,44.852,38.517c5.57-3.7,11.111-8.079,16.246-13.242C109.565,95.152,83.876,78.896,70.071,72.242"/>
				<path style="fill:#B9C43A;" d="M130.103,90.473L78.46,53.07c0,0-2.49,8.574-8.389,19.172
					c13.805,6.654,39.494,22.91,39.301,51.739C118.101,115.225,125.667,104.238,130.103,90.473"/>
				<path style="fill:#124626;" d="M48.274,98.707c-7.836,6.21-17.418,11.044-29.023,12.681l31.609,44.077
					c0,0,21.227-4.262,42.266-18.241C86.317,112.58,65.567,102.65,48.274,98.707"/>
				<path style="fill:#FFFFFF;" d="M73.675,105.13c0,0-19.229-14.677-11.693-25.003c10.105-13.805,21.129-1.046,21.129-1.046
					s14.938-8.941,20.488,1.124c5.551,10.074-17.281,24.615-25.08,25.894l3.236-19.704L73.675,105.13z"/>
				<path style="fill:#FFFFFF;" d="M73.966,111.746c0,0-7.645,23.365-21.012,23.782c-17.902,0.571-9.088-15.412-9.088-15.412
					s-14.781-6.017-6.635-16.245c8.146-10.221,31.619-1.551,35.881,3.613l-21.283,9.299L73.966,111.746z"/>
				<path style="fill:#FFFFFF;" d="M80.116,107.436c0,0,26.68-8.156,32.201,1.744c7.391,13.252-12.225,16.109-12.225,16.109
					s-0.494,14.813-13.998,14.734c-13.506-0.078-13.621-23.075-9.988-29.4l17.563,10.607L80.116,107.436z"/>
				<path style="fill:#DEDFDF;" d="M51.007,155.465c0,0,40.367,2.965,61.137-6.82c0,0-7.422-1.782-16.914-2.974
					C85.735,144.479,51.007,155.465,51.007,155.465"/>
			</g>
		</g>
		<text transform="matrix(1 0 0 1 303.6729 81.0449)" style="fill:#124626; font-family:'KoreanYNMYT-L'; font-size:13.6547;">Design &amp; Distribution &amp; Inovation</text>
	</g>
</g>
</svg>
