<?xml version="1.0" encoding="utf-8"?>
<!-- Generator: Adobe Illustrator 16.0.0, SVG Export Plug-In . SVG Version: 6.00 Build 0)  -->
<!DOCTYPE svg PUBLIC "-//W3C//DTD SVG 1.1//EN" "http://www.w3.org/Graphics/SVG/1.1/DTD/svg11.dtd">
<svg version="1.1" xmlns="http://www.w3.org/2000/svg" xmlns:xlink="http://www.w3.org/1999/xlink" x="0px" y="0px"
	 width="1128.339px" height="806.556px" viewBox="0 0 1128.339 806.556" enable-background="new 0 0 1128.339 806.556"
	 xml:space="preserve">
<g>
	<polygon fill="#FBFBFB" points="1128.339,6.552 568.566,3.285 563.924,803.296 1123.697,806.556 	"/>
	<polygon fill="#FFFFFF" points="4.859,0 0.201,800.021 583.055,803.403 587.696,3.399 	"/>
	<g>
		<path fill="#D82925" d="M586.561,205.652l-57.06,99.657l55.619,144.551c26.792-33.452,52.614-70.181,110.447-69.843
			c58.615,0.345,74.298-7.549,85.236,14.577C776.251,290.641,691.559,207.307,586.561,205.652z"/>
		<path fill="#DB3A3A" d="M584.567,205.554c-109.262-0.651-198.357,87.416-199,196.704c-0.016,2.148,0.255,4.223,0.305,6.371
			c12.562,23.071,46.853,94.331,110.521,94.692c43.183,0.247,66.32-25.459,88.727-53.462l1.44-244.208
			C585.869,205.652,585.227,205.545,584.567,205.554z"/>
		<path fill="#1C478D" d="M781.272,404.554c0.017-3.35-0.305-6.609-0.469-9.96c-10.938-22.126-36.31-46.902-94.916-47.239
			c-52.409-0.313-77.333,28.966-100.513,58.641l-38.457,96.149l37.328,99.057C692.621,600.773,780.64,513.158,781.272,404.554z"/>
		<path fill="#2E5A99" d="M491.505,467.178c-63.637-0.37-93.071-35.478-105.633-58.549
			c2.749,106.308,89.244,192.004,196.384,192.613c0.674,0,1.316-0.026,1.99-0.041l1.129-195.206
			C561.545,436.508,539.567,467.466,491.505,467.178z"/>
	</g>
	<g>
		<g>
			<g>
				<polygon fill="#383838" points="889.53,595.184 820.808,663.158 799.274,641.377 868.023,573.421 				"/>
			</g>
			<g>
				<polygon fill="#383838" points="969.779,515.899 900.998,583.865 879.521,562.093 948.236,494.11 				"/>
			</g>
			<g>
				<polygon fill="#383838" points="922.416,628.445 853.685,696.413 832.142,674.649 900.891,606.674 				"/>
			</g>
			<g>
				<polygon fill="#383838" points="1002.637,549.138 933.873,617.111 912.382,595.34 981.163,527.382 				"/>
			</g>
			<g>
				<polygon fill="#383838" points="955.273,661.692 886.56,729.675 865.019,707.902 933.766,639.938 				"/>
			</g>
			<g>
				<polygon fill="#383838" points="1035.523,582.425 966.757,650.375 945.266,628.604 1014.038,560.628 				"/>
			</g>
		</g>
		<g>
			<g>
				<polygon fill="#383838" points="936.524,170.973 868.574,102.175 890.329,80.684 958.271,149.457 				"/>
			</g>
			<g>
				<polygon fill="#383838" points="1015.841,251.196 947.826,182.431 969.606,160.906 1037.589,229.654 				"/>
			</g>
			<g>
				<polygon fill="#383838" points="982.529,284.08 835.287,135.06 857.018,113.584 1004.325,262.563 				"/>
			</g>
			<g>
				<polygon fill="#383838" points="870.014,236.717 802.04,167.928 823.771,146.428 891.754,215.192 				"/>
			</g>
			<g>
				<polygon fill="#383838" points="949.283,316.939 881.342,248.167 903.088,226.65 971.062,295.431 				"/>
			</g>
		</g>
		<g>
			<g>
				<polygon fill="#383838" points="343.086,660.384 195.777,511.405 217.549,489.881 364.841,638.884 				"/>
			</g>
			<g>
				<polygon fill="#383838" points="230.497,613.029 162.523,544.265 184.303,522.748 252.26,591.538 				"/>
			</g>
			<g>
				<polygon fill="#383838" points="309.814,693.259 241.832,624.486 263.611,602.971 331.578,671.735 				"/>
			</g>
			<g>
				<polygon fill="#383838" points="276.534,726.119 129.277,577.141 151.024,555.624 298.266,704.604 				"/>
			</g>
		</g>
		<g>
			<g>
				<polygon fill="#383838" points="301.854,98.916 152.852,246.15 131.327,224.427 280.313,77.152 				"/>
			</g>
			<g>
				<polygon fill="#383838" points="334.706,132.171 185.719,279.454 164.235,257.666 313.214,110.415 				"/>
			</g>
			<g>
				<polygon fill="#383838" points="367.599,165.433 218.595,312.676 197.119,290.929 346.073,143.661 				"/>
			</g>
		</g>
	</g>
</g>
</svg>
