<svg xmlns="http://www.w3.org/2000/svg" width="141.732" height="141.732" viewBox="226.774 350.079 141.732 141.732"><path fill="none" stroke="#9FA0A0" stroke-miterlimit="10" d="M275.998 463.48s36.83-19.027 35.277-42.972M303.467 477.658s11.724-24.68 12.009-55.475M275.998 364.081s29.291-1.874 35.277 48.433M302.52 372.211s17.722 3.367 12.051 41.7"/><path fill="#9FA0A0" d="M311.276 412.514l-1.895.395.272 7.599 4.712 2.351 1.913-.857v-8.384z"/><path fill="#FFF" d="M305.289 481.416l-31.849-15.161V360.411l31.849 10.085z"/><path fill="#9FA0A0" d="M305.584 481.88l-32.434-15.434V360.009l32.434 10.274V481.88zm-31.848-15.806l31.253 14.875V370.714l-31.253-9.901v105.261z"/><circle fill="none" stroke="#9FA0A0" stroke-width=".5" stroke-miterlimit="10" cx="275.998" cy="364.081" r=".948"/><circle fill="none" stroke="#9FA0A0" stroke-width=".5" stroke-miterlimit="10" cx="275.998" cy="463.48" r=".948"/><circle fill="none" stroke="#9FA0A0" stroke-width=".5" stroke-miterlimit="10" cx="302.52" cy="372.211" r=".947"/><circle fill="none" stroke="#9FA0A0" stroke-width=".5" stroke-miterlimit="10" cx="302.52" cy="475.531" r=".947"/><path fill="none" stroke="#9FA0A0" stroke-miterlimit="10" d="M315.476 416.752l20.184 52.31-20.184-52.31z"/></svg>