<?xml version="1.0" encoding="utf-8"?>
<!-- Generator: Adobe Illustrator 16.0.0, SVG Export Plug-In . SVG Version: 6.00 Build 0)  -->
<!DOCTYPE svg PUBLIC "-//W3C//DTD SVG 1.1//EN" "http://www.w3.org/Graphics/SVG/1.1/DTD/svg11.dtd">
<svg version="1.1" id="레이어_1" xmlns="http://www.w3.org/2000/svg" xmlns:xlink="http://www.w3.org/1999/xlink" x="0px"
	 y="0px" width="141.732px" height="141.732px" viewBox="226.774 350.079 141.732 141.732"
	 enable-background="new 226.774 350.079 141.732 141.732" xml:space="preserve">
<rect x="218.113" y="321.414" fill="none" width="160.027" height="200.035"/>
<g>
	<g>
		<path fill="#7D7D7D" stroke="#7D7D7D" stroke-miterlimit="10" d="M342.42,482.291h-88.588c-2.328,0-4.228-1.894-4.228-4.229
			V368.103c0-2.329,1.899-4.228,4.228-4.228h88.595c2.328,0,4.227,1.893,4.227,4.228v109.965
			C346.648,480.397,344.755,482.291,342.42,482.291z M253.832,364.473c-2,0-3.63,1.63-3.63,3.63v109.965
			c0,2.001,1.63,3.63,3.63,3.63h88.595c2,0,3.63-1.629,3.63-3.63V368.103c0-2-1.63-3.63-3.63-3.63H253.832L253.832,364.473z"/>
	</g>
	<g>
		<path fill="#7D7D7D" stroke="#7D7D7D" stroke-miterlimit="10" d="M340.038,476.223h-83.824V369.948h83.818v106.275H340.038z
			 M256.812,475.626h82.623V370.545h-82.623V475.626z"/>
	</g>
	<g>
		<g>
			<path fill="#7D7D7D" d="M322.811,360.573h-49.363c-2.705,0-4.909,2.203-4.909,4.908v3.708c0,2.711,2.204,4.908,4.909,4.908
				h13.304c1.905,0,3.379,2.042,4.09,3.26c1.505,2.586,4.299,4.192,7.291,4.192s5.792-1.606,7.291-4.192
				c0.71-1.218,2.186-3.26,4.09-3.26h13.298c2.706,0,4.909-2.203,4.909-4.908v-3.708
				C327.72,362.776,325.517,360.573,322.811,360.573z M325.755,369.189c0,1.624-1.32,2.944-2.944,2.944h-13.298
				c-2.167,0-4.167,1.462-5.785,4.239c-1.159,1.989-3.303,3.219-5.596,3.219c-2.298,0-4.442-1.23-5.6-3.219
				c-1.613-2.771-3.613-4.233-5.781-4.233h-13.304c-1.625,0-2.944-1.32-2.944-2.944v-3.708c0-1.618,1.319-2.95,2.944-2.95h49.363
				c1.624,0,2.944,1.326,2.944,2.95V369.189L325.755,369.189z"/>
		</g>
	</g>
	<g>
		<g>
			<path fill="#9FA0A0" stroke="#FFFFFF" stroke-miterlimit="10" d="M274.307,385.312h-9.595c-1.624,0-2.944,1.32-2.944,2.944v9.59
				c0,1.624,1.32,2.95,2.944,2.95h9.595c1.624,0,2.943-1.319,2.943-2.95v-9.59C277.257,386.631,275.931,385.312,274.307,385.312z
				 M275.292,397.851c0,0.543-0.441,0.979-0.979,0.979h-9.595c-0.544,0-0.979-0.442-0.979-0.979v-9.59
				c0-0.543,0.441-0.979,0.979-0.979h9.595c0.543,0,0.979,0.442,0.979,0.979V397.851z"/>
		</g>
	</g>
	<g>
		<rect x="281.819" y="392.071" fill="#7D7D7D" stroke="#FFFFFF" stroke-miterlimit="10" width="50.975" height="1.965"/>
	</g>
	<g>
		<g>
			<polygon fill="#9FA0A0" stroke="#FFFFFF" stroke-miterlimit="10" points="269.59,393.57 264.067,388.59 261.44,391.516 
				269.781,399.021 281.156,387.252 278.332,384.524 			"/>
		</g>
		<g>
			<path fill="#FFFFFF" stroke="#FFFFFF" stroke-miterlimit="10" d="M269.8,399.434l-8.785-7.9l3.028-3.368l5.535,4.986l8.748-9.052
				l3.254,3.147L269.8,399.434z M261.858,391.492l7.911,7.118l10.963-11.345l-2.395-2.317l-8.736,9.035l-5.517-4.968
				L261.858,391.492z"/>
		</g>
	</g>
	<g>
		<g>
			<path fill="#9FA0A0" stroke="#FFFFFF" stroke-miterlimit="10" d="M274.307,408.582h-9.595c-1.624,0-2.944,1.326-2.944,2.95v9.589
				c0,1.625,1.32,2.949,2.944,2.949h9.595c1.624,0,2.943-1.318,2.943-2.949v-9.589C277.257,409.901,275.931,408.582,274.307,408.582
				z M275.292,421.115c0,0.543-0.441,0.985-0.979,0.985h-9.595c-0.544,0-0.979-0.442-0.979-0.985v-9.59
				c0-0.543,0.441-0.985,0.979-0.985h9.595c0.543,0,0.979,0.442,0.979,0.985V421.115z"/>
		</g>
	</g>
	<g>
		<rect x="281.819" y="415.341" fill="#7D7D7D" stroke="#FFFFFF" stroke-miterlimit="10" width="50.975" height="1.958"/>
	</g>
	<g>
		<g>
			<polygon fill="#9FA0A0" stroke="#FFFFFF" stroke-miterlimit="10" points="269.59,416.839 264.067,411.866 261.44,414.786 
				269.781,422.291 281.156,410.522 278.332,407.793 			"/>
		</g>
		<g>
			<path fill="#FFFFFF" stroke="#FFFFFF" stroke-miterlimit="10" d="M269.8,422.709l-8.785-7.9l3.028-3.362l5.535,4.979l8.748-9.052
				l3.254,3.146L269.8,422.709z M261.858,414.761l7.911,7.119l10.963-11.353l-2.395-2.317l-8.736,9.041l-5.517-4.968
				L261.858,414.761z"/>
		</g>
	</g>
	<g>
		<g>
			<path fill="#9FA0A0" stroke="#FFFFFF" stroke-miterlimit="10" d="M274.307,431.85h-9.595c-1.624,0-2.944,1.321-2.944,2.945v9.595
				c0,1.63,1.32,2.944,2.944,2.944h9.595c1.624,0,2.943-1.314,2.943-2.944v-9.595C277.257,433.171,275.931,431.85,274.307,431.85z
				 M275.292,444.384c0,0.544-0.441,0.979-0.979,0.979h-9.595c-0.544,0-0.979-0.44-0.979-0.979v-9.595
				c0-0.545,0.441-0.986,0.979-0.986h9.595c0.543,0,0.979,0.441,0.979,0.986V444.384z"/>
		</g>
	</g>
	<g>
		<rect x="281.819" y="438.611" fill="#7D7D7D" stroke="#FFFFFF" stroke-miterlimit="10" width="50.975" height="1.964"/>
	</g>
	<g>
		<g>
			<polygon fill="#9FA0A0" stroke="#FFFFFF" stroke-miterlimit="10" points="269.59,440.104 264.067,435.13 261.44,438.049 
				269.781,445.561 281.156,433.792 278.332,431.062 			"/>
		</g>
		<g>
			<path fill="#FFFFFF" stroke="#FFFFFF" stroke-miterlimit="10" d="M269.8,445.972l-8.785-7.899l3.028-3.361l5.535,4.979
				l8.748-9.053l3.254,3.147L269.8,445.972z M261.858,438.026l7.911,7.117l10.963-11.346l-2.395-2.316l-8.736,9.035l-5.517-4.969
				L261.858,438.026z"/>
		</g>
	</g>
	<g>
		<g>
			<path fill="#9FA0A0" stroke="#FFFFFF" stroke-miterlimit="10" d="M274.307,455.115h-9.595c-1.624,0-2.944,1.32-2.944,2.944v9.595
				c0,1.625,1.32,2.943,2.944,2.943h9.595c1.624,0,2.943-1.313,2.943-2.943v-9.595C277.257,456.435,275.931,455.115,274.307,455.115
				z M275.292,467.66c0,0.537-0.441,0.986-0.979,0.986h-9.595c-0.544,0-0.979-0.442-0.979-0.986v-9.596
				c0-0.536,0.441-0.979,0.979-0.979h9.595c0.543,0,0.979,0.443,0.979,0.979V467.66z"/>
		</g>
	</g>
	<g>
		<rect x="281.819" y="461.874" fill="#7D7D7D" stroke="#FFFFFF" stroke-miterlimit="10" width="50.975" height="1.965"/>
	</g>
	<g>
		<g>
			<polygon fill="#9FA0A0" stroke="#FFFFFF" stroke-miterlimit="10" points="269.59,463.373 264.067,458.399 261.44,461.318 
				269.781,468.831 281.156,457.062 278.332,454.327 			"/>
		</g>
		<g>
			<path fill="#FFFFFF" stroke="#FFFFFF" stroke-miterlimit="10" d="M269.8,469.243l-8.785-7.9l3.028-3.361l5.535,4.979l8.748-9.052
				l3.254,3.147L269.8,469.243z M261.858,461.294l7.911,7.118l10.963-11.345l-2.395-2.317l-8.736,9.035l-5.517-4.962
				L261.858,461.294z"/>
		</g>
	</g>
</g>
</svg>
