<svg xmlns="http://www.w3.org/2000/svg" width="141.732" height="141.732" viewBox="226.774 350.079 141.732 141.732"><g stroke-miterlimit="10"><g fill="#7D7D7D" stroke="#FFF" stroke-width="1.245"><path d="M271.717 426.225c-7.071 0-12.829-5.751-12.829-12.821 0-7.078 5.75-12.828 12.829-12.828 7.07 0 12.821 5.75 12.821 12.828 0 7.07-5.751 12.821-12.821 12.821zm0-19.768c-3.829 0-6.947 3.119-6.947 6.947s3.118 6.939 6.947 6.939c3.828 0 6.939-3.111 6.939-6.939s-3.119-6.947-6.939-6.947z"/><path d="M286.49 446.54a2.935 2.935 0 01-2.941-2.94c0-9.417-5.418-17.366-11.833-17.366s-11.84 7.949-11.84 17.366a2.935 2.935 0 01-2.941 2.94 2.935 2.935 0 01-2.941-2.94c0-12.821 7.95-23.248 17.714-23.248s17.715 10.427 17.715 23.248a2.932 2.932 0 01-2.933 2.94z"/></g><path fill="none" stroke="#7D7D7D" stroke-width="1.42" d="M356.646 462.934H238.627a2.935 2.935 0 01-2.941-2.939v-78.099a2.935 2.935 0 012.941-2.94h118.026a2.935 2.935 0 012.941 2.94v78.099a2.944 2.944 0 01-2.948 2.939zm-115.086-5.881h112.145V384.83H241.56v72.223z"/><path fill="#7D7D7D" stroke="#FFF" stroke-width="3" d="M338.83 421.6h-34.889a2.94 2.94 0 010-5.88h34.889c1.629 0 2.941 1.313 2.941 2.941s-1.312 2.939-2.941 2.939zM313.22 410.078h-9.278a2.94 2.94 0 010-5.881h9.278c1.629 0 2.941 1.312 2.941 2.94s-1.312 2.941-2.941 2.941zM338.83 437.501h-34.889c-1.62 0-2.94-1.312-2.94-2.94s1.313-2.941 2.94-2.941h34.889c1.629 0 2.941 1.313 2.941 2.941s-1.312 2.94-2.941 2.94zM338.83 429.551h-34.889a2.94 2.94 0 010-5.881h34.889a2.935 2.935 0 012.941 2.94 2.934 2.934 0 01-2.941 2.941z"/></g></svg>