<svg xmlns="http://www.w3.org/2000/svg" width="900" height="461" viewBox="0 101.5 900 461"><path fill="#CEE0F3" d="M230.562 227.396c-10.429 4.115-21.793 9.049-25.771 18.023-8.572 19.338 23.317 37.287 19.986 57.699-2.852 17.466-28.259 24.653-42.408 37.827-11.238 10.465-15.226 25.921-10.13 39.267 5.098 13.347 19.093 24.104 35.56 27.331 25.91 5.081 55.914-7.141 78.514 4.507 16.597 8.556 22.953 27.494 40.685 34.314 19.049 7.329 40.845-2.77 57.857-12.962s37.221-21.479 57.31-16.4c19.376 4.902 31.66 23.927 51.9 24.725 20.302.804 34.359-17.152 53.861-21.891 19.828-4.816 40.146 4.83 60.587 7.332 29.631 3.632 61.202-9.6 75.188-31.508 3.683-5.768 6.206-11.984 8.715-18.172 4.072-10.047 8.146-20.092 12.22-30.135 5.631-13.895 11.323-28.059 11.62-42.711.396-19.597-9.44-39.189-26.505-52.789-17.065-13.6-41.104-21.004-64.769-19.948-10.491.467-22.858 1.959-29.849-4.53-10.012-9.298 1.502-24.196-2.226-36.258-2.954-9.555-15.438-15.405-27.354-15.811-11.912-.406-23.382 3.433-34.312 7.377-10.931 3.946-22.112 8.138-34.032 8.507-19.51.604-37.029-8.985-55.461-14.314-18.433-5.329-43.47-4.295-51.95 10.251-5.345 9.165-3.537 22.573-14.625 26.975-10.822 4.296-22.135-4.725-29.204-12.751-5.158-5.856-13.751-14.732-23.641-13.087-6.992 1.165-15.981 9.098-22.618 11.851-22.814 9.459-46.114 18.193-69.148 27.281z"/><path fill="#67B087" d="M636.362 333.209s10.062 47.518 25.442 65.92c2.131 2.546 4.442 5.053 7.378 6.607 3.829 2.031 9.42 1.785 11.574-1.977 2.124-3.703-.172-8.371.342-12.611 2.592 5.007 5.414 10.014 9.521 13.869 4.107 3.858 9.735 6.463 15.322 5.724.983-.13 1.981-.374 2.766-.976 2.121-1.621 1.727-4.994.412-7.313-1.313-2.323-3.333-4.3-4.038-6.872 4.392 5.337 10.966 8.589 17.751 9.906 6.785 1.32 13.807.839 20.624-.301 6.111-1.024 12.688-2.514 18.265.189-6.523-8.664-9.32-19.689-15.874-28.333-6.931-9.14-17.997-15.009-29.45-15.619 3.805-1.146 8.231-2.948 8.989-6.848.728-3.743-2.489-7.082-5.772-9.019-9.123-5.382-20.322-5.678-30.886-4.906 3.458-1.656 7.473-4.209 7.201-8.031-.244-3.483-3.985-5.563-7.356-6.477-8.923-2.414-52.211 7.068-52.211 7.068z"/><g opacity=".6" fill="#FFF"><path d="M636.164 333.314a69.43 69.43 0 004.145 8.39l.379 1.04a355.546 355.546 0 005.582 14.298 352.932 352.932 0 006.13 14.058c2.176 4.631 4.398 9.24 6.845 13.734.581 1.139 1.237 2.238 1.866 3.354.627 1.114 1.263 2.225 1.938 3.313s1.305 2.199 2.009 3.266l2.131 3.186c-2.548-4.426-4.879-8.96-7.082-13.553-2.216-4.588-4.292-9.244-6.328-13.914-2.051-4.662-3.972-9.383-5.904-14.099a927.597 927.597 0 01-3.124-7.877 82.525 82.525 0 0010.935 12.154c.188.173.378.337.565.51.956 1.96 1.92 3.915 2.926 5.853a336.022 336.022 0 004.887 9.18 268.062 268.062 0 005.18 9.015c1.801 2.964 3.62 5.911 5.551 8.788-1.604-3.072-3.271-6.1-4.827-9.191a835.094 835.094 0 01-4.714-9.236l-4.606-9.287c-.365-.764-.735-1.521-1.104-2.282a94.326 94.326 0 009.625 6.933 73.382 73.382 0 006.938 3.813 57.19 57.19 0 011.791 1.923c2.529 2.868 4.97 5.855 7.363 8.857a289.328 289.328 0 016.967 9.2c2.308 3.091 4.572 6.238 7.167 9.1-2.296-3.105-4.397-6.324-6.475-9.574-2.099-3.24-4.28-6.441-6.586-9.55a168.279 168.279 0 00-6.457-8.237c1.534.659 3.09 1.278 4.647 1.86a105.23 105.23 0 004.875 1.664c1.59 1.053 3.162 2.188 4.709 3.331a455.696 455.696 0 017.223 5.459l14.392 11.079c-2.14-2.151-4.389-4.187-6.617-6.243a265.437 265.437 0 00-6.872-5.961 223.148 223.148 0 00-7.098-5.704c-.205-.155-.417-.304-.625-.457 4.877 1.317 9.809 2.349 14.747 3.22l5.762 2.598a95.033 95.033 0 016.886 3.422 94.975 94.975 0 016.568 4.021c2.176 1.396 4.264 2.918 6.407 4.381-1.886-1.787-3.866-3.453-5.878-5.104-2.036-1.615-4.155-3.146-6.383-4.521-2.21-1.39-4.534-2.593-6.864-3.735l1.454.219c5.479.824 10.943 1.634 16.182 3.263.103.033.202.071.305.104l-.006.229.57-.045c4.899 1.622 9.582 4.096 13.177 7.891a.219.219 0 00.304.019.22.22 0 00.025-.312c-1.798-2.151-3.962-4-6.335-5.522-1.418-.907-2.915-1.687-4.442-2.383.064-.013.132-.019.198-.03 1.147-.217 2.29-.49 3.39-.886 1.095-.397 2.159-.878 3.145-1.485.977-.611 1.909-1.32 2.627-2.207-.824.781-1.819 1.348-2.835 1.814-1.023.459-2.099.783-3.181 1.023-1.086.237-2.194.351-3.297.414-.553.03-1.108.012-1.655.021l-1.658-.089v.075c-5.248-1.926-10.722-3.053-16.121-4.135a358.804 358.804 0 01-3.852-.756 79.449 79.449 0 001.82-.464c2.342-.62 4.675-1.288 6.969-2.088a66.024 66.024 0 006.752-2.722c2.181-1.064 4.327-2.201 6.323-3.571-2.185 1.032-4.384 2.003-6.647 2.796-2.248.829-4.534 1.545-6.834 2.203a145.187 145.187 0 01-6.957 1.775c-1.834.416-3.668.821-5.51 1.207-5.999-1.316-11.919-2.869-17.655-4.871 1.024-.263 2.05-.537 3.066-.828 2.57-.725 5.125-1.514 7.65-2.387a130.172 130.172 0 007.491-2.82c2.46-1.041 4.912-2.092 7.296-3.286-2.527.85-5.032 1.733-7.573 2.521-2.53.811-5.071 1.575-7.613 2.319-2.55.728-5.105 1.426-7.673 2.078-1.854.457-3.716.903-5.578 1.333a111.642 111.642 0 01-3.2-1.28 79.05 79.05 0 01-10.565-5.397c2.343-.293 4.651-.78 6.907-1.354a158.415 158.415 0 0012.017-3.738 160.22 160.22 0 0011.67-4.652c3.81-1.74 7.58-3.559 11.229-5.596-3.836 1.666-7.666 3.312-11.571 4.767a221.074 221.074 0 01-11.78 4.142c-3.963 1.249-7.961 2.442-11.979 3.428-2.95.734-5.939 1.291-8.927 1.459-.412-.271-.826-.543-1.236-.824-4.197-2.854-8.282-5.844-12.207-9.028 2.564-.144 5.109-.459 7.629-.86 3.852-.654 7.646-1.557 11.383-2.645 3.736-1.082 7.41-2.348 11.029-3.738 3.606-1.434 7.188-2.925 10.674-4.609-3.647 1.297-7.283 2.61-10.975 3.756a185.954 185.954 0 01-11.106 3.213c-3.729.941-7.485 1.77-11.275 2.338a69.58 69.58 0 01-9.407.841c-3.768-3.187-7.305-6.629-10.648-10.295a187.914 187.914 0 01-2.243-2.593c2.75.119 5.497.029 8.227-.178 3.75-.273 7.461-.844 11.138-1.541 3.67-.723 7.313-1.582 10.903-2.604 3.593-1.025 7.156-2.125 10.661-3.396-3.604.951-7.206 1.886-10.841 2.678-3.636.788-7.275 1.521-10.94 2.088-3.66.586-7.343.999-11.024 1.221-3.223.186-6.448.17-9.646-.09a100.786 100.786 0 01-1.504-1.896c-1.687-2.18-3.299-4.428-4.898-6.709a.227.227 0 00-.271-.077.2.2 0 00-.138.277zm36.826-.262c-1.122.353-2.229.781-3.28 1.405 1.217.102 2.389.051 3.55-.045a46.01 46.01 0 003.44-.42 68.5 68.5 0 003.387-.646 70.62 70.62 0 003.418-.818c-1.148-.43-2.365-.537-3.553-.557a20.165 20.165 0 00-3.531.266 22.85 22.85 0 00-3.431.815zm-.824-.712a33.191 33.191 0 003.17-1.059c1.042-.405 2.069-.864 3.068-1.486-1.17-.094-2.305-.007-3.418.148a25.672 25.672 0 00-3.299.683 24.86 24.86 0 00-3.176 1.112c-1.039.441-2.052.949-3.008 1.639 1.177.02 2.296-.118 3.4-.309a31.884 31.884 0 003.263-.728z"/><path d="M708.436 349.346c-.909.391-1.78.877-2.527 1.577 1.022-.01 1.959-.123 2.891-.228.927-.115 1.839-.239 2.744-.375l2.734-.428c.923-.166 1.854-.322 2.836-.604-.914-.457-1.892-.673-2.873-.788-.983-.104-1.977-.08-2.954.063s-1.938.4-2.851.783zm-.975-1.694c.905-.227 1.808-.453 2.721-.709.914-.266 1.837-.521 2.792-.918-.976-.346-1.979-.453-2.977-.463-.997 0-1.991.127-2.962.361-.967.233-1.906.582-2.794 1.041-.881.469-1.721 1.026-2.425 1.784 1.028-.087 1.968-.282 2.899-.472a80.27 80.27 0 002.746-.624z"/></g><path fill="#43895E" d="M699.058 340.997c-.424-2.325-.092-4.888-.713-7.133-1.167-4.218-5.281-6.288-8.261-9.188-1.196-1.157-2.217-3.183-.98-4.696.48-.592 1.196-.912 1.886-1.067 3.32-.729 5.938 1.951 7.345 4.828 1.443 2.956 2.215 6.295 3.336 9.44 1.123 3.143 2.677 6.197 5.307 8.024 2.63 1.829 6.533 2.155 9.544.006 7.521-5.371 15.084-10.271 18.848-18.762-10.597 6.25-23.931 4.823-31.027-3.32-1.019-1.165-1.947-2.542-1.985-4.228-.038-1.684 1.143-3.689 2.783-4.012 1.948-.383 3.159 1.561 4.085 3.174 2.622 4.572 6.646 8.381 11.852 9.418 5.207 1.035 11.645-1.215 15.063-6.221 3.844-5.633 2.285-15.017 7.54-19.261-7.765 1.35-15.544.578-22.326-2.222-1.214-.501-2.497-1.184-2.844-2.515-.412-1.586.791-3.53 2.346-4.366 1.553-.838 3.31-.763 4.818-.303 2.962.901 5.208 3.108 7.695 4.86 2.488 1.75 5.615 3.101 8.824 2.055 2.989-.971 5.369-3.873 6.599-6.92 1.23-3.048 1.51-6.268 1.772-9.416.271-3.218.54-6.438.808-9.657-6.538 3.615-13.593 5.902-20.578 6.666-1.617.177-3.279.267-4.705-.292s-2.571-1.909-2.479-3.587c.111-1.947 1.858-3.727 3.693-4.406 1.842-.678 3.739-.493 5.53-.206 6.051.967 12.536 2.882 18.438-.446 1.242-5.775.72-11.37-1.868-16.01.098.058.363-.229.21-.336-.181-.126-.459.088-.591.313-2.43 4.221-6.782 7.823-11.171 7.805-1.528-.007-3.234-.799-3.136-2.405.061-.959.77-1.845 1.521-2.516 2.604-2.32 5.994-3.069 9.182-3.723 1.737-.355 3.138-2.196 3.53-4.002.394-1.808-.012-3.571-.549-5.186-.878-2.63-2.121-5.113-2.483-7.946-.259-2.041-.302-4.087.563-5.834-1.931 1.95-4.626 3.089-7.174 3.373-3.274.368-13.838-.99-15.792-1.506-2.67 7.174.955 14.403-.676 21.75-.238 1.065-.642 2.208-1.509 2.91-2.417-.973-3.534-3.73-4.077-6.426-1.112-5.559-.605-11.595 1.601-17.347-4.335-.197-9.403-.083-12.679 3.507-3.508 3.85-2.961 9.646-1.127 13.852 1.836 4.206 4.7 7.975 5.045 12.791.154 2.165-.786 5.099-2.92 5.534-.554.11-1.098.022-1.6-.14-2.062-.667-3.445-2.485-4.581-4.336-2.352-3.829-4.087-8.209-4.354-13.012-.27-4.802 1.041-10.062 4.17-14.195-5.285 5.222-11.107 8.821-17.758 11.254-.396 9.39 7.188 15.646 10.168 23.983.369 1.031.668 2.169.366 3.329-.608 2.329-3.493 3.658-5.581 3.126-2.091-.531-3.484-2.341-4.569-4.201-4.018-6.885-5.373-15.664-3.771-24.355a166.21 166.21 0 00-12.23 7.26c-2.045 1.336-4.164 2.824-5.386 4.985-2.805 4.95.518 10.375 4.516 13.14 1.669 1.155 3.493 2.133 4.855 3.653 1.361 1.517 2.212 3.743 1.54 5.975-9.15-.029-16.716-7.439-17.229-16.883-4.646 4.322-7.099 10.68-7.81 16.721-.557 4.688.032 9.783 3.354 12.377 4.606 3.601 11.987.833 17.805 2.235 2.458.594 4.902 2.671 4.127 5.391-.731 2.578-3.79 3.815-6.278 3.988-8.913.617-15.685-5.77-21.539-11.794 2.019 14.232 14.835 24.35 29.092 22.96-.251 7.987 3.287 15.569 8.734 20.334 5.11 4.469 11.831 6.838 18.886 7.481-1.611-.5-2.704-2.286-3.041-4.121zm30.579-95.429c-.891-.164-1.432-1.054-1.532-1.999-.102-.943.15-1.942.405-2.916.346-1.344.779-2.824 1.888-3.701l.392-.198c2.313.12 3.041 3.202 2.298 5.626-.504 1.641-1.939 3.468-3.451 3.188zm-23.135 30.486c1.179 1.107 1.286 3.107.817 4.891-.202.768-.506 1.545-1.031 2.169-1.153 1.375-3.225 1.644-4.445.726-1.223-.92-1.575-2.795-1.04-4.469.478-1.478.911-2.49 2.05-3.308.102-.079.208-.143.318-.205.059-.036.104-.075.17-.11l-.041.038c1.055-.541 2.406-.475 3.202.268zm-23.373 21.998c-3.795-1.154-5.263-6.042-4.112-10.351 2.415-9.06 7.199-2.656 8.81 1.901.454 1.282.905 2.599.873 4.038-.035 1.437-.653 3.039-1.881 3.916-1.121.804-2.528.847-3.69.496zm52.455-16.072c1.844.125 3.547.885 4.798 2.14 1.001 1.007 1.688 2.723.77 4.107-.898 1.354-2.712 1.489-4.096 1.188-1.982-.43-3.913-1.581-4.37-3.625-.459-2.048.841-3.948 2.898-3.81zm-23.434 22.95a2.357 2.357 0 01-.064-.412c-.098-1.387 1.184-2.689 2.538-2.724 1.516-.042 3.98.384 2.933 3.781-.15.487-.456.968-.901 1.202-.697.369-1.509.367-2.208.188-1.05-.266-2.008-.955-2.298-2.035z"/><path fill="#499537" d="M702.095 345.12c.429.135.892.18 1.392.104a58.03 58.03 0 01-1.392-.104z"/><path opacity=".4" fill="#FFF" d="M704.586 299.947a61.843 61.843 0 00-6.841 1.654 58.13 58.13 0 00-4.541 1.547c.626-.59 1.25-1.181 1.872-1.773 1.299-1.244 2.618-2.47 3.879-3.763 2.501-2.606 5.063-5.157 7.437-7.902a157.304 157.304 0 004.73-5.504c1.201-.416 2.399-.82 3.606-1.192 1.702-.51 3.409-1.025 5.128-1.46 1.716-.455 3.438-.853 5.17-1.234 1.73-.374 3.471-.716 5.22-1.049a45.051 45.051 0 00-5.203.075 56.489 56.489 0 00-5.267.614c-1.756.301-3.519.641-5.272 1.102-.362.091-.726.197-1.091.294a140.368 140.368 0 006.371-8.809c2.043-3.003 3.877-6.153 5.583-9.344.802-1.628 1.618-3.237 2.301-4.904.36-.824.657-1.674.979-2.504.274-.85.565-1.694.751-2.552-.768 1.617-1.683 3.156-2.607 4.679-.494.751-.926 1.521-1.427 2.26l-1.479 2.221a183.072 183.072 0 01-6.297 8.614 316.696 316.696 0 01-4.753 5.914c.038-.125.08-.248.115-.371.749-2.482 1.3-5.01 1.688-7.538.354-2.531.502-5.069.327-7.531-.175-2.459-.644-4.857-1.532-7.005.723 4.752.384 9.646-.634 14.483-.476 2.42-1.167 4.827-1.893 7.234-.37 1.204-.773 2.401-1.188 3.6-.163.486-.342.973-.512 1.459a264.434 264.434 0 01-5.326 6.083l-1.763 2.004c-.591.666-1.212 1.301-1.813 1.958l-3.613 3.933c-2.168 2.325-4.376 4.611-6.547 6.947 1.076-2.5 1.926-5.074 2.44-7.665a33.87 33.87 0 00.689-7.792c-.099-2.549-.473-5.036-1.235-7.324.268 2.475.337 4.969.124 7.477a40.877 40.877 0 01-1.281 7.472c-.672 2.462-1.528 4.894-2.65 7.222-1.082 2.345-2.423 4.582-3.942 6.682l.003.002c-.791.836-1.582 1.67-2.383 2.489-2.503 2.563-5.014 5.124-7.438 7.817 2.893-2.078 5.693-4.287 8.51-6.492a294.888 294.888 0 004.859-4.135c1.13-.748 2.395-1.367 3.683-1.965a107.989 107.989 0 016.509-2.713 105.34 105.34 0 016.637-2.256c2.229-.693 4.48-1.27 6.745-1.853-2.263.102-4.547.383-6.828.794z"/><path fill="#C1DFB4" d="M720.482 297.782c5.916-1.447 24.104-4.396 30.071-6.759 5.693-1.819 19.656-10.742 24.037-2.665 3.006 5.582-1.725 14.807-6.939 21.606-7.3.218-15.384.685-21.8.39 4.832 1.785 12.349 2.446 18.472 3.689a87.247 87.247 0 01-3.061 3.329c-24.001 25.21-60.84 37.021-94.223 30.524-5.646-1.037-11.453-2.722-15.555-6.762-1.667-1.637-3.027-3.711-3.353-6.001-.798-5.846 4.646-10.166 9.561-12.444 18.363-8.457 37.724-17.873 62.79-24.907z"/><g fill="#FFF"><path opacity=".4" d="M712.143 323.821c1.036.342 2.076.683 3.12 1.015 1.202.355 2.41.697 3.625 1.021a64.33 64.33 0 007.435 1.514c2.521.332 5.081.504 7.649.4 2.562-.108 5.132-.459 7.608-1.185-2.55.251-5.08.306-7.584.147a55.99 55.99 0 01-7.418-.965c-2.445-.447-4.853-1.08-7.244-1.727a128.327 128.327 0 01-4.363-1.302 259.503 259.503 0 009.894-4.104 198.74 198.74 0 006.406-2.992c.033.012.068.022.104.031 1.94.592 3.928 1.014 5.93 1.375 2.006.34 4.033.563 6.073.666 1.021.042 2.047.063 3.067.063a68.488 68.488 0 003.074-.137c2.05-.166 4.097-.429 6.119-.894-2.055 0-4.089-.006-6.109-.113a68.347 68.347 0 01-3.016-.196 64.715 64.715 0 01-2.995-.297 75.08 75.08 0 01-5.902-.931 59.704 59.704 0 01-3.74-.848c.237-.12.48-.232.717-.354a215.48 215.48 0 0014.165-7.849l.459-.004a53.107 53.107 0 004.609-.29c1.532-.18 3.069-.381 4.59-.699a48.64 48.64 0 004.537-1.116c1.495-.461 2.98-.965 4.429-1.598-1.532.235-3.063.461-4.592.665-1.522.22-3.043.392-4.558.554-1.514.14-3.022.292-4.534.367-.516.031-1.029.035-1.545.062.069-.062.138-.119.206-.182a200.742 200.742 0 0018.697-13.342 280.983 280.983 0 01-15.131 9.591c.239-.284.488-.563.721-.852a105.269 105.269 0 002.931-3.776c.938-1.294 1.864-2.586 2.72-3.95-1.158 1.071-2.263 2.194-3.38 3.299-1.104 1.124-2.214 2.246-3.308 3.378-1.104 1.108-2.178 2.248-3.33 3.267a31.007 31.007 0 01-3.028 2.449 258.274 258.274 0 01-14.021 7.23c.045-.104.094-.209.137-.314a47.645 47.645 0 012.216-4.692c.832-1.502 1.724-2.978 2.723-4.373.979-1.414 2.059-2.746 3.18-4.06a27.593 27.593 0 00-3.813 3.47 29.29 29.29 0 00-1.689 2.011 28.47 28.47 0 00-1.543 2.162 39.201 39.201 0 00-1.384 2.303c-.422.79-.831 1.616-1.2 2.412-.377.797-.754 1.559-1.18 2.227a7.494 7.494 0 01-.064.093 257.734 257.734 0 01-17.672 7.384c.241-.559.471-1.113.694-1.652a34.68 34.68 0 012.592-5.016 68.101 68.101 0 013.223-4.648c1.126-1.517 2.291-3.006 3.404-4.541a91.175 91.175 0 00-3.997 3.97c-1.3 1.375-2.548 2.825-3.694 4.396a36.657 36.657 0 00-1.622 2.448c-.506.845-.97 1.742-1.384 2.644-.547 1.18-1.058 2.34-1.695 3.313a260.513 260.513 0 01-8.488 2.917 205.334 205.334 0 01-9.221 2.733c.484-.75.978-1.5 1.483-2.243 1.132-1.646 2.243-3.317 3.368-4.97 1.103-1.672 2.211-3.332 3.256-5.037 1.055-1.694 2.082-3.409 2.991-5.197a270.775 270.775 0 01-3.593 4.704c-1.226 1.554-2.436 3.127-3.666 4.694-1.207 1.586-2.453 3.152-3.645 4.781-.599.813-1.193 1.635-1.778 2.481-.322.479-.643.957-.947 1.466a261.69 261.69 0 01-8.729 2.173 252.57 252.57 0 01-7.026 1.429c.469-.664.938-1.328 1.427-1.979 1.245-1.654 2.492-3.301 3.804-4.88 1.298-1.601 2.646-3.146 4-4.673a199.444 199.444 0 014.172-4.485 63.326 63.326 0 00-4.701 3.882 78.73 78.73 0 00-4.416 4.336c-1.412 1.524-2.809 3.085-4.119 4.733a91.833 91.833 0 00-2.695 3.541c-.286.051-.568.108-.854.161-3.294.625-6.617 1.078-9.943 1.515.483-.595.923-1.208 1.327-1.825 1.03-1.553 1.962-3.048 3.089-4.408 1.125-1.361 2.363-2.641 3.647-3.865 1.279-1.236 2.614-2.422 3.892-3.674a70.6 70.6 0 00-4.428 2.967c-1.431 1.074-2.849 2.219-4.121 3.562a24.286 24.286 0 00-1.822 2.119c-.563.742-1.094 1.495-1.629 2.219-.916 1.226-1.854 2.386-2.96 3.267-2.705.32-5.412.608-8.135.798-1.205.089-2.413.171-3.617.241-.5.031-.904.402-.981.896l-.005.022c-.104.644.419 1.225 1.073 1.209 1.256-.033 2.51-.078 3.763-.137 1.794-.086 3.588-.158 5.372-.303.881-.075 1.756-.167 2.632-.254 1.59 1.066 3.232 2.043 4.899 2.984a67.58 67.58 0 005.863 2.865 94.41 94.41 0 003.032 1.217 81.31 81.31 0 003.099 1.054c2.084.635 4.197 1.192 6.353 1.571-2.034-.813-4.054-1.609-6.031-2.487a86.976 86.976 0 01-2.948-1.343 91.117 91.117 0 01-2.899-1.409c-1.914-.968-3.8-1.985-5.642-3.068a74.01 74.01 0 01-2.771-1.671c3.332-.373 6.668-.763 9.974-1.309a191.309 191.309 0 002.071 1.014c.685.314 1.373.632 2.063.943.693.302 1.397.584 2.1.869.704.272 1.413.543 2.121.811 2.847 1.055 5.771 1.896 8.733 2.597a72.777 72.777 0 009.021 1.47c3.042.293 6.109.408 9.172.256-3.046-.336-6.058-.742-9.031-1.291a100.24 100.24 0 01-8.795-2.02c-2.892-.777-5.724-1.73-8.514-2.768-.694-.27-1.384-.54-2.076-.814-.688-.285-1.367-.582-2.056-.863-.566-.248-1.132-.5-1.699-.752 2.63-.469 5.255-.968 7.868-1.519a271.488 271.488 0 008.52-2.063 61.43 61.43 0 007.436 3.192c2.788 1.006 5.663 1.78 8.574 2.382 2.92.576 5.886.965 8.873 1.113 2.987.15 5.994.094 8.983-.253-2.995-.147-5.953-.396-8.876-.802a83.136 83.136 0 01-8.637-1.666c-2.838-.688-5.61-1.563-8.335-2.545a88.338 88.338 0 01-5.257-2.155 201.35 201.35 0 009.402-2.854 255.978 255.978 0 007.314-2.53z"/><path opacity=".4" d="M693.198 344.684a60.334 60.334 0 00-2.748-.726c-.923-.222-1.853-.426-2.809-.556.829.507 1.697.91 2.585 1.27s1.79.674 2.711.936c.918.267 1.854.479 2.796.646.944.167 1.903.287 2.879.299-.887-.402-1.789-.723-2.691-1.023a61.469 61.469 0 00-2.723-.846zm.438-.923c.926.15 1.857.253 2.809.24a31.625 31.625 0 00-2.634-.968 76.555 76.555 0 00-2.645-.817 95.358 95.358 0 00-2.664-.728 30.89 30.89 0 00-2.724-.588c.794.52 1.635.935 2.493 1.3a23.86 23.86 0 005.365 1.561z"/></g><path fill="#67B087" d="M265.639 306.908s-10.063-47.521-25.444-65.919c-2.132-2.55-4.441-5.054-7.378-6.611-3.826-2.029-9.419-1.782-11.572 1.976-2.122 3.703.172 8.372-.342 12.611-2.591-5.005-5.415-10.013-9.522-13.869-4.109-3.859-9.737-6.462-15.324-5.723-.979.128-1.979.374-2.766.976-2.119 1.623-1.726 4.992-.41 7.314 1.313 2.323 3.333 4.299 4.036 6.874-4.393-5.339-10.963-8.592-17.75-9.912-6.786-1.317-13.807-.835-20.625.305-6.112 1.024-12.688 2.511-18.264-.189 6.524 8.663 9.321 19.691 15.875 28.333 6.93 9.139 17.996 15.009 29.449 15.618-3.802 1.145-8.232 2.95-8.989 6.847-.727 3.743 2.49 7.083 5.773 9.019 9.124 5.38 20.323 5.675 30.886 4.906-3.458 1.657-7.472 4.21-7.203 8.037.247 3.48 3.986 5.557 7.356 6.475 8.926 2.415 52.214-7.068 52.214-7.068z"/><g opacity=".6" fill="#FFF"><path d="M265.833 306.799a69.887 69.887 0 00-4.142-8.387l-.381-1.043a358.985 358.985 0 00-5.579-14.295 356.033 356.033 0 00-6.132-14.061c-2.175-4.628-4.398-9.235-6.844-13.732-.583-1.14-1.239-2.239-1.866-3.354a89.41 89.41 0 00-1.938-3.31c-.674-1.087-1.305-2.198-2.011-3.268l-2.13-3.185c2.549 4.427 4.879 8.961 7.083 13.556 2.215 4.587 4.293 9.242 6.325 13.91 2.052 4.665 3.974 9.385 5.905 14.1a901.013 901.013 0 013.123 7.876 82.507 82.507 0 00-10.933-12.155c-.188-.171-.379-.338-.566-.507a241.795 241.795 0 00-2.926-5.853 322.363 322.363 0 00-4.887-9.179c-1.663-3.04-3.4-6.042-5.178-9.017-1.8-2.963-3.621-5.911-5.55-8.791 1.603 3.075 3.271 6.103 4.828 9.193a944.31 944.31 0 014.714 9.239l4.605 9.29c.366.761.735 1.52 1.104 2.279a94.522 94.522 0 00-9.623-6.933 73.817 73.817 0 00-6.939-3.813 61.535 61.535 0 01-1.793-1.922c-2.527-2.869-4.966-5.855-7.361-8.858a290.867 290.867 0 01-6.968-9.2c-2.307-3.091-4.57-6.237-7.168-9.098 2.295 3.104 4.4 6.322 6.478 9.576 2.098 3.239 4.276 6.44 6.582 9.546a171.089 171.089 0 006.46 8.239 102.342 102.342 0 00-4.65-1.86 106.044 106.044 0 00-4.875-1.668c-1.589-1.05-3.164-2.185-4.708-3.329a441.165 441.165 0 01-7.224-5.461l-14.393-11.076c2.142 2.151 4.389 4.185 6.619 6.242a259.73 259.73 0 006.871 5.961 216.16 216.16 0 007.1 5.704c.204.154.416.303.622.456-4.874-1.315-9.805-2.346-14.746-3.217l-5.761-2.597a94.186 94.186 0 01-6.884-3.423 92.785 92.785 0 01-6.571-4.023c-2.172-1.394-4.261-2.917-6.404-4.379 1.882 1.787 3.868 3.456 5.879 5.104 2.036 1.615 4.155 3.145 6.38 4.52 2.212 1.388 4.536 2.593 6.867 3.737-.485-.074-.97-.148-1.454-.22-5.482-.822-10.944-1.634-16.185-3.265-.101-.03-.199-.068-.303-.1l.005-.233-.57.044c-4.9-1.62-9.581-4.095-13.175-7.89a.225.225 0 00-.305-.018.224.224 0 00-.028.313c1.801 2.151 3.965 4 6.336 5.522a36.272 36.272 0 004.444 2.384c-.063.012-.13.02-.195.033-1.152.214-2.292.486-3.391.881-1.096.397-2.16.878-3.145 1.487-.977.613-1.908 1.319-2.626 2.21.825-.786 1.82-1.35 2.836-1.818a16.16 16.16 0 013.179-1.022c1.086-.24 2.193-.352 3.297-.415.551-.03 1.107-.012 1.658-.021l1.655.088v-.075c5.25 1.925 10.722 3.052 16.123 4.133 1.283.245 2.565.498 3.848.758-.606.147-1.213.3-1.817.462-2.344.62-4.677 1.288-6.971 2.088a64.626 64.626 0 00-6.751 2.723c-2.182 1.064-4.331 2.201-6.324 3.568 2.185-1.033 4.382-2.002 6.646-2.796 2.25-.828 4.534-1.542 6.834-2.204 2.305-.64 4.623-1.241 6.959-1.774 1.831-.414 3.667-.819 5.508-1.205 5.997 1.316 11.918 2.869 17.658 4.87-1.027.264-2.05.536-3.069.828a136.243 136.243 0 00-7.649 2.388 128.616 128.616 0 00-7.494 2.82c-2.458 1.042-4.909 2.091-7.294 3.285 2.526-.851 5.033-1.734 7.573-2.52a301.647 301.647 0 017.614-2.318c2.55-.727 5.104-1.428 7.671-2.081 1.857-.458 3.716-.903 5.579-1.332 1.075.411 2.144.836 3.203 1.282a78.768 78.768 0 0110.565 5.398c-2.344.292-4.652.779-6.907 1.35a157.868 157.868 0 00-12.018 3.741 160.664 160.664 0 00-11.67 4.651c-3.808 1.742-7.58 3.557-11.229 5.595 3.833-1.665 7.666-3.311 11.572-4.765a217.447 217.447 0 0111.778-4.14c3.962-1.25 7.96-2.443 11.979-3.429 2.948-.734 5.938-1.292 8.926-1.46.414.272.829.545 1.238.826 4.197 2.852 8.279 5.842 12.206 9.027-2.563.145-5.108.458-7.628.863-3.853.652-7.647 1.555-11.383 2.645a135.74 135.74 0 00-11.032 3.739c-3.605 1.431-7.186 2.923-10.674 4.609 3.649-1.301 7.285-2.613 10.976-3.757a192.993 192.993 0 0111.104-3.215c3.731-.941 7.487-1.767 11.277-2.335a70.269 70.269 0 019.409-.845 114.948 114.948 0 0110.647 10.297c.752.858 1.502 1.721 2.243 2.594-2.749-.118-5.498-.029-8.226.176-3.75.273-7.461.847-11.139 1.544-3.672.722-7.312 1.58-10.903 2.604-3.59 1.021-7.156 2.124-10.661 3.393 3.604-.945 7.207-1.884 10.842-2.674 3.633-.789 7.274-1.522 10.939-2.088 3.659-.586 7.342-.998 11.026-1.22a69.089 69.089 0 019.643.091 87.525 87.525 0 011.505 1.896c1.688 2.177 3.299 4.426 4.902 6.708a.222.222 0 00.268.076.213.213 0 00.131-.289zm-36.823.265c1.124-.354 2.229-.785 3.28-1.408-1.215-.096-2.388-.047-3.548.049-1.16.1-2.307.23-3.44.417a63.646 63.646 0 00-3.389.647 74.246 74.246 0 00-3.417.818c1.149.432 2.366.537 3.552.555a20.67 20.67 0 003.532-.265 23.233 23.233 0 003.43-.813zm.825.709c-1.071.3-2.126.652-3.169 1.061-1.044.407-2.075.866-3.071 1.486 1.17.094 2.303.007 3.42-.149a25.277 25.277 0 003.295-.683 25.07 25.07 0 003.177-1.111c1.037-.441 2.053-.953 3.008-1.639-1.176-.019-2.295.117-3.4.31a31.295 31.295 0 00-3.26.725z"/><path d="M193.563 290.77c.909-.39 1.782-.878 2.528-1.579-1.021.01-1.96.125-2.89.229-.929.113-1.836.238-2.745.372l-2.735.427c-.923.168-1.854.323-2.836.605.916.457 1.891.673 2.873.789.984.104 1.979.079 2.955-.063.978-.14 1.937-.401 2.85-.78zm.977 1.694c-.906.221-1.81.452-2.723.707-.914.266-1.837.524-2.792.917.976.347 1.978.456 2.976.465a12.67 12.67 0 002.961-.361 12.517 12.517 0 002.794-1.041c.882-.469 1.723-1.028 2.426-1.786-1.029.088-1.968.282-2.901.47a84.4 84.4 0 00-2.741.629z"/></g><path fill="#43895E" d="M202.941 299.118c.422 2.325.092 4.887.714 7.133 1.166 4.216 5.28 6.285 8.263 9.185 1.193 1.159 2.214 3.186.979 4.698-.48.591-1.196.913-1.887 1.066-3.319.729-5.938-1.949-7.343-4.826-1.445-2.958-2.215-6.296-3.336-9.44-1.121-3.146-2.679-6.199-5.307-8.027s-6.533-2.155-9.546-.002c-7.519 5.37-15.083 10.268-18.847 18.76 10.596-6.251 23.931-4.824 31.031 3.318 1.016 1.164 1.943 2.545 1.981 4.227.038 1.686-1.141 3.691-2.783 4.016-1.947.381-3.158-1.56-4.085-3.175-2.621-4.577-6.643-8.382-11.851-9.419-5.205-1.039-11.645 1.215-15.062 6.223-3.844 5.631-2.286 15.018-7.541 19.26 7.764-1.353 15.542-.577 22.323 2.221 1.215.504 2.5 1.184 2.847 2.518.411 1.582-.791 3.525-2.347 4.364-1.554.835-3.31.763-4.817.304-2.962-.902-5.208-3.107-7.696-4.858-2.489-1.753-5.613-3.101-8.822-2.058-2.992.974-5.371 3.875-6.601 6.92-1.231 3.049-1.51 6.269-1.773 9.418l-.806 9.653c6.536-3.612 13.593-5.897 20.58-6.664 1.616-.177 3.277-.266 4.704.292 1.426.561 2.57 1.909 2.478 3.588-.108 1.943-1.856 3.728-3.696 4.407-1.84.679-3.736.494-5.527.204-6.048-.965-12.535-2.879-18.435.445-1.245 5.775-.723 11.371 1.868 16.011-.099-.058-.367.229-.213.337.181.128.46-.087.589-.311 2.432-4.225 6.786-7.826 11.174-7.808 1.527.005 3.234.798 3.135 2.403-.061.961-.768 1.844-1.521 2.518-2.605 2.316-5.993 3.069-9.183 3.725-1.738.354-3.137 2.193-3.529 4-.393 1.809.011 3.57.55 5.188.876 2.628 2.12 5.11 2.483 7.943.259 2.04.302 4.089-.564 5.833 1.931-1.946 4.628-3.087 7.172-3.373 3.277-.368 13.844.988 15.796 1.506 2.671-7.173-.957-14.402.676-21.751.235-1.063.64-2.205 1.508-2.907 2.415.973 3.535 3.732 4.075 6.422 1.113 5.563.607 11.602-1.6 17.353 4.335.196 9.406.082 12.678-3.509 3.508-3.849 2.963-9.646 1.126-13.853-1.835-4.204-4.701-7.974-5.043-12.788-.154-2.168.787-5.102 2.919-5.535.554-.111 1.097-.022 1.599.14 2.062.669 3.446 2.485 4.583 4.34 2.349 3.827 4.085 8.208 4.355 13.012.27 4.8-1.043 10.063-4.172 14.193 5.287-5.222 11.107-8.821 17.759-11.257.396-9.391-7.187-15.646-10.167-23.981-.369-1.028-.668-2.168-.365-3.328.608-2.332 3.493-3.657 5.582-3.125 2.089.53 3.482 2.343 4.566 4.2 4.017 6.887 5.376 15.663 3.771 24.354a164.09 164.09 0 0012.231-7.26c2.046-1.338 4.165-2.822 5.39-4.984 2.8-4.947-.521-10.375-4.518-13.141-1.671-1.154-3.496-2.134-4.857-3.652-1.362-1.521-2.211-3.744-1.541-5.976 9.152.029 16.717 7.438 17.229 16.884 4.646-4.322 7.097-10.683 7.81-16.722.554-4.687-.033-9.782-3.354-12.378-4.606-3.6-11.986-.836-17.804-2.236-2.459-.591-4.901-2.666-4.128-5.39.731-2.575 3.79-3.815 6.278-3.987 8.913-.617 15.685 5.771 21.538 11.795-2.016-14.23-14.833-24.351-29.091-22.959.253-7.99-3.286-15.572-8.731-20.336-5.111-4.47-11.833-6.841-18.885-7.479 1.605.495 2.699 2.286 3.034 4.118zm-30.581 95.428c.891.163 1.433 1.054 1.534 1.997.103.943-.151 1.943-.404 2.917-.349 1.345-.78 2.823-1.889 3.701l-.391.196c-2.313-.119-3.042-3.201-2.298-5.627.504-1.637 1.937-3.464 3.448-3.184zm23.138-30.487c-1.182-1.104-1.288-3.104-.82-4.889.202-.77.508-1.543 1.032-2.169 1.154-1.375 3.225-1.644 4.448-.726 1.222.918 1.576 2.791 1.036 4.467-.475 1.48-.908 2.49-2.047 3.31a3.167 3.167 0 01-.317.205c-.059.037-.108.072-.17.111l.04-.039c-1.056.54-2.408.474-3.202-.27zm23.371-21.996c3.797 1.152 5.262 6.045 4.113 10.354-2.416 9.061-7.199 2.652-8.812-1.902-.453-1.283-.906-2.602-.871-4.037.034-1.438.654-3.041 1.879-3.916 1.123-.809 2.529-.854 3.691-.499zm-52.454 16.072c-1.844-.123-3.548-.887-4.798-2.142-1-1.007-1.688-2.724-.77-4.108.898-1.352 2.711-1.486 4.098-1.186 1.979.433 3.909 1.582 4.368 3.625.459 2.049-.839 3.949-2.898 3.811zm23.433-22.949c.035.133.058.271.068.41.095 1.385-1.188 2.689-2.54 2.725-1.517.043-3.979-.383-2.932-3.78.15-.487.455-.968.9-1.205.698-.367 1.509-.364 2.206-.187 1.052.268 2.009.955 2.298 2.037z"/><path fill="#499537" d="M199.906 294.997a3.057 3.057 0 00-1.393-.106c.466.027.929.061 1.393.106z"/><path opacity=".4" fill="#FFF" d="M197.414 340.169a62.727 62.727 0 006.839-1.655 58.109 58.109 0 004.54-1.548c-.625.589-1.248 1.181-1.87 1.772-1.301 1.246-2.618 2.474-3.88 3.763-2.503 2.608-5.063 5.158-7.436 7.903a155.817 155.817 0 00-4.733 5.507c-1.198.411-2.397.821-3.604 1.19-1.704.512-3.41 1.026-5.128 1.459-1.716.455-3.438.854-5.171 1.233a207.64 207.64 0 01-5.22 1.049 44.16 44.16 0 005.203-.073 57.986 57.986 0 005.266-.611c1.759-.305 3.522-.645 5.275-1.104.362-.093.726-.197 1.088-.295a141.377 141.377 0 00-6.369 8.811c-2.043 3.005-3.875 6.152-5.586 9.342-.799 1.629-1.615 3.238-2.299 4.904-.36.826-.654 1.675-.979 2.506-.271.851-.564 1.695-.751 2.553.77-1.617 1.685-3.157 2.611-4.678.49-.754.923-1.521 1.423-2.264l1.482-2.223a180.03 180.03 0 016.296-8.611 312.621 312.621 0 014.752-5.914c-.037.125-.081.248-.117.371a55.732 55.732 0 00-1.688 7.537c-.35 2.53-.5 5.068-.324 7.531.173 2.46.641 4.857 1.531 7.004-.723-4.751-.383-9.646.632-14.48.478-2.422 1.169-4.83 1.896-7.234.371-1.203.774-2.4 1.188-3.604.164-.483.342-.972.51-1.457 1.75-2.049 3.52-4.084 5.329-6.084l1.764-2.002c.588-.666 1.209-1.305 1.811-1.959l3.613-3.935c2.169-2.323 4.376-4.61 6.547-6.944-1.076 2.498-1.925 5.07-2.439 7.663a33.756 33.756 0 00-.69 7.792c.097 2.547.472 5.036 1.237 7.321-.267-2.474-.337-4.968-.126-7.476.187-2.502.628-5.01 1.282-7.474.673-2.464 1.53-4.894 2.653-7.222 1.081-2.346 2.421-4.581 3.938-6.682l-.002-.002c.79-.836 1.581-1.67 2.385-2.488 2.5-2.563 5.012-5.127 7.435-7.817-2.891 2.076-5.691 4.286-8.507 6.492a287.371 287.371 0 00-4.858 4.134c-1.133.749-2.396 1.365-3.686 1.964a104.697 104.697 0 01-6.508 2.716 106.58 106.58 0 01-6.636 2.252c-2.23.696-4.479 1.272-6.746 1.854 2.261-.099 4.543-.378 6.827-.787z"/><path fill="#C1DFB4" d="M181.519 342.332c-5.917 1.447-24.105 4.396-30.074 6.76-5.691 1.816-19.654 10.743-24.035 2.667-3.005-5.582 1.723-14.808 6.938-21.608 7.3-.217 15.386-.684 21.8-.387-4.832-1.787-12.347-2.449-18.473-3.69a90.842 90.842 0 013.063-3.332c24-25.206 60.841-37.02 94.224-30.523 5.643 1.04 11.453 2.723 15.553 6.763 1.667 1.638 3.026 3.708 3.35 6 .8 5.849-4.646 10.166-9.559 12.444-18.362 8.457-37.722 17.872-62.787 24.906z"/><g fill="#FFF"><path opacity=".4" d="M189.857 316.294a264.542 264.542 0 00-3.122-1.013 125.689 125.689 0 00-3.624-1.024 64.37 64.37 0 00-7.435-1.514c-2.521-.331-5.081-.504-7.647-.399-2.563.107-5.134.459-7.61 1.184a46.968 46.968 0 017.584-.147c2.502.156 4.978.487 7.417.966 2.447.447 4.851 1.08 7.246 1.723 1.195.334 2.386.688 3.569 1.056.266.083.529.167.794.247a261.933 261.933 0 00-9.896 4.105 203.225 203.225 0 00-6.404 2.994c-.035-.01-.069-.022-.104-.033-1.938-.59-3.928-1.012-5.929-1.371a51.997 51.997 0 00-6.073-.67 69.65 69.65 0 00-3.068-.061c-1.025.023-2.05.07-3.075.137-2.049.161-4.097.43-6.119.893 2.056 0 4.09.005 6.111.109 1.01.045 2.016.113 3.019.2a69.27 69.27 0 012.991.298c1.986.231 3.956.543 5.902.93 1.261.234 2.503.535 3.743.848-.239.121-.48.232-.718.354a216.723 216.723 0 00-14.166 7.851l-.458.004c-1.535.033-3.073.12-4.608.29-1.534.179-3.07.381-4.591.695a49.54 49.54 0 00-4.537 1.119c-1.496.459-2.981.965-4.43 1.599 1.533-.235 3.063-.459 4.594-.666 1.521-.22 3.042-.392 4.556-.554 1.517-.137 3.024-.293 4.533-.366.518-.031 1.031-.039 1.546-.06-.068.06-.137.117-.204.176a201.282 201.282 0 00-18.699 13.345 284.834 284.834 0 0115.132-9.593c-.241.287-.491.563-.724.854a106.112 106.112 0 00-2.929 3.776c-.936 1.293-1.866 2.587-2.719 3.948 1.156-1.071 2.262-2.192 3.381-3.299 1.104-1.123 2.213-2.244 3.304-3.375 1.108-1.109 2.179-2.248 3.331-3.269a32.116 32.116 0 013.026-2.454 266.882 266.882 0 0114.023-7.229c-.044.106-.094.213-.137.313a48.355 48.355 0 01-2.215 4.694c-.835 1.502-1.726 2.979-2.724 4.373-.98 1.414-2.059 2.746-3.18 4.061a27.774 27.774 0 003.813-3.471 29.494 29.494 0 001.691-2.01 27.973 27.973 0 001.541-2.164c.487-.748.948-1.515 1.385-2.299.421-.793.83-1.619 1.201-2.418.375-.793.752-1.554 1.18-2.226.021-.032.044-.062.064-.091a259.067 259.067 0 0117.672-7.387c-.244.562-.472 1.116-.695 1.655a34.611 34.611 0 01-2.591 5.015 67.616 67.616 0 01-3.222 4.649c-1.127 1.517-2.293 3.007-3.405 4.544a92.89 92.89 0 003.995-3.972 45.362 45.362 0 003.696-4.394 38.08 38.08 0 001.623-2.451c.507-.844.968-1.741 1.384-2.645.545-1.18 1.055-2.34 1.693-3.313a255.116 255.116 0 018.491-2.913 199.05 199.05 0 019.216-2.736c-.481.751-.977 1.5-1.479 2.241-1.134 1.646-2.244 3.318-3.368 4.973-1.103 1.672-2.213 3.334-3.259 5.035-1.054 1.695-2.081 3.411-2.989 5.198a255.722 255.722 0 013.596-4.704c1.222-1.555 2.433-3.126 3.663-4.694 1.208-1.584 2.455-3.149 3.646-4.78.598-.817 1.193-1.638 1.776-2.483.324-.479.644-.956.95-1.465a255.514 255.514 0 018.726-2.173c2.335-.514 4.68-.979 7.029-1.431-.471.667-.94 1.331-1.428 1.98-1.243 1.655-2.491 3.301-3.806 4.881a135.151 135.151 0 01-4 4.675 194.447 194.447 0 01-4.171 4.483 62.776 62.776 0 004.702-3.886 76.685 76.685 0 004.417-4.334c1.412-1.522 2.808-3.084 4.119-4.731a92.125 92.125 0 002.694-3.543c.285-.054.567-.108.853-.158 3.294-.624 6.619-1.08 9.944-1.516a21.817 21.817 0 00-1.328 1.823c-1.031 1.553-1.961 3.05-3.087 4.41-1.123 1.363-2.361 2.637-3.647 3.865-1.281 1.236-2.614 2.42-3.89 3.673a68.697 68.697 0 004.425-2.967c1.434-1.071 2.851-2.218 4.123-3.563a25.025 25.025 0 001.823-2.113c.563-.745 1.091-1.495 1.626-2.221.917-1.228 1.854-2.387 2.961-3.269 2.705-.319 5.414-.606 8.135-.796 1.205-.092 2.411-.171 3.618-.243.498-.026.901-.401.98-.894.001-.008.002-.016.004-.021a1.054 1.054 0 00-1.073-1.21 173.9 173.9 0 00-3.762.138c-1.792.084-3.587.156-5.374.299-.878.078-1.754.172-2.631.257-1.587-1.066-3.231-2.044-4.899-2.985a67.878 67.878 0 00-5.863-2.866 86.364 86.364 0 00-3.033-1.217 90.907 90.907 0 00-3.096-1.053c-2.087-.636-4.2-1.195-6.354-1.57 2.035.811 4.055 1.608 6.032 2.488a91.01 91.01 0 012.948 1.339c.976.454 1.941.925 2.898 1.411 1.916.971 3.802 1.985 5.642 3.069a71.98 71.98 0 012.772 1.672c-3.333.371-6.667.763-9.973 1.309-.011-.007-.025-.012-.037-.02-.675-.332-1.354-.664-2.036-.998-.686-.314-1.374-.631-2.063-.941-.694-.302-1.396-.582-2.099-.868-.706-.272-1.414-.545-2.125-.81-2.843-1.055-5.767-1.896-8.729-2.596a72.343 72.343 0 00-9.023-1.471c-3.04-.295-6.106-.406-9.17-.253 3.044.333 6.058.742 9.03 1.29 2.972.55 5.909 1.209 8.794 2.017 2.891.779 5.725 1.732 8.513 2.768.695.271 1.388.543 2.077.816.688.285 1.369.582 2.055.86.568.25 1.136.502 1.701.754a265.51 265.51 0 00-7.867 1.519 273.013 273.013 0 00-8.521 2.064c-2.406-1.215-4.883-2.3-7.437-3.195-2.786-1.004-5.66-1.778-8.574-2.379a61.705 61.705 0 00-8.871-1.115c-2.986-.151-5.994-.092-8.982.253 2.992.151 5.953.394 8.875.804 2.921.412 5.806.954 8.635 1.664 2.837.691 5.611 1.563 8.337 2.548a86.128 86.128 0 015.254 2.154c-3.157.87-6.29 1.829-9.402 2.853a247.928 247.928 0 00-7.316 2.531z"/><path opacity=".4" d="M208.8 295.432a63.13 63.13 0 002.75.724c.922.222 1.85.426 2.808.556-.829-.504-1.698-.91-2.585-1.268s-1.79-.674-2.71-.935a27.353 27.353 0 00-2.798-.648c-.946-.165-1.902-.286-2.88-.299.889.402 1.792.722 2.695 1.025.904.301 1.81.583 2.72.845zm-.439.922c-.922-.153-1.855-.252-2.807-.238.874.376 1.755.675 2.635.966a86.464 86.464 0 005.309 1.542c.894.227 1.792.442 2.72.588-.794-.519-1.632-.933-2.493-1.298a23.513 23.513 0 00-5.364-1.56z"/></g><path fill="#C24A71" d="M648.139 230.291s-8.288 7.828-9.209 9.208c-.92 1.38-13.811 52.016-13.811 52.016l23.02 13.812v-75.036z"/><path fill="#5C3B66" d="M674.974 179.594c1.955-1.634 5.415-.755 6.354 1.614 2.134 2.326 3.7 5.104 5.25 7.856.931 1.651 1.889 3.418 1.791 5.311-.064 1.235-.579 2.395-1.083 3.523-.568 1.275-1.142 2.55-1.711 3.825-.839 1.883-1.923 3.979-3.918 4.501 1.298.159 1.729 2.025 1.012 3.118-.715 1.093-2.052 1.568-3.296 1.973-3.684 1.2-5.453 2.158-8.238 4.561-2.553 2.201-6.153 3.54-9.516 3.513-3.174-.025-6.109-1.343-8.423-3.489-2.803-2.601-2.396-6.356-2.351-9.978l.177-13.413c.023-1.741.064-3.584.701-5.04 1.105-2.522 3.468-2.84 5.497-2.897l20.185-.592"/><path fill="#DC9BA2" d="M668.535 210.59l7.493 15.337-3.432 2.745c-4.335 3.468-10.797 1.526-12.502-3.755l-4.354-13.487 12.795-.84z"/><path opacity=".32" fill="#DC9BA2" d="M660.522 224.41l-5.483-12.796 13.345-1.021 3.8 10.22c-3.572 2.425-7.542 3.375-11.662 3.597z"/><path fill="#DC9BA2" d="M646.968 207.871c.234 2.5 1.277 4.958 2.563 6.938 1.317 2.03 2.979 2.711 5.015 3.469 5.776 2.154 16.57 1.307 19.62-5.214.434-.923.601-1.943.766-2.948 1.281-7.824 3.109-16.78-4.485-21.862-2.123-1.419-4.454-2.284-6.771-3.112-3.958-1.416-9.849-3.2-13.028 1.292-1.844 2.605-1.323 7.801-2.083 11.011-.801 3.382-1.94 6.825-1.597 10.426z"/><path fill="#5C3B66" d="M669.211 199.207c.127-.037.069-.372-.292-.857-.354-.481-1.052-1.089-2.008-1.547-.957-.456-1.945-.654-2.631-.669-.691-.019-1.078.107-1.055.215.054.239 1.596.356 3.197 1.143 1.623.754 2.509 1.795 2.789 1.715zm-13.106-4.949c.021-.109-.262-.3-.771-.457a5.458 5.458 0 00-2.013-.202c-.765.068-1.379.277-1.748.54-.377.269-.412.562-.286.63.138.079.375-.016.762-.091.384-.078.961-.173 1.594-.229 1.268-.116 2.408.033 2.462-.191zm1.909 4.639a34.39 34.39 0 00-.833 2.372l-.754 2.363-.187.59-.092.29a.551.551 0 01-.37.359.785.785 0 01-.211.038.982.982 0 00-.469.129c-.28.173-.435.438-.492.698-.055.261-.035.517.043.752.173.458.494.764.821 1.033-.18-.386-.384-.764-.403-1.129-.037-.346.15-.694.345-.749a.295.295 0 01.137-.004c.129.011.272.004.408-.025.274-.055.55-.195.755-.426.104-.115.182-.251.234-.393l.11-.303.198-.6c.255-.806.446-1.631.581-2.464.139-.833.215-1.678.179-2.531zm-4.935 9.493l12.165 1.539s.267 4.938-4.744 5c-6.893.086-7.421-6.539-7.421-6.539z"/><path fill="#C24A71" d="M659.589 211.998c1.721-.489 3.483-.307 5.012.622.015.007.026.012.038.02-.602 1.161-1.789 2.261-4.139 2.29-1.604.021-2.858-.325-3.848-.864.781-.934 1.647-1.704 2.937-2.068z"/><path fill="#5C3B66" d="M661.604 201.949c.498-.396 1.014-.644 1.545-.721.529-.079 1.064-.01 1.582.14a5.573 5.573 0 011.483.696c.467.306.896.671 1.257 1.128l.047.061c.051.063.14.079.205.037.25-.152.144-.431-.146-.377l.255.098c-.197-.627-.598-1.187-1.095-1.623a4.26 4.26 0 00-1.764-.921c-.649-.162-1.374-.166-2.018.102-.642.256-1.145.782-1.351 1.38zm-6.361-.496c-.264-.578-.609-1.033-1.048-1.344-.437-.309-.943-.492-1.476-.594a5.535 5.535 0 00-1.638-.054c-.551.06-1.102.19-1.629.434l-.069.031a.153.153 0 01-.198-.06c-.155-.249.066-.448.3-.27l-.271-.029c.463-.469 1.073-.784 1.715-.946a4.268 4.268 0 011.985-.021c.654.15 1.304.477 1.753 1.007.454.522.665 1.221.576 1.846z"/><path fill="#DC9BA2" d="M679.504 197.249c1.062.462 1.549 1.704 1.664 2.855.344 3.4-1.912 6.888-5.151 7.972-.974.326-2.203.385-2.875-.393-.685-.793-.423-2.008-.056-2.989.713-1.897 3.531-8.702 6.418-7.445z"/><path fill="#5C3B66" d="M680.082 200.034c-.003-.035-.531.009-1.263.421-.73.399-1.604 1.216-2.203 2.343-.596 1.125-.843 2.253-.971 3.058-.121.809-.136 1.314-.094 1.321.053.007.152-.487.337-1.274.187-.783.467-1.869 1.035-2.942.567-1.071 1.361-1.865 2.024-2.299.663-.441 1.157-.572 1.135-.628z"/><path fill="#5C3B66" d="M676.649 206.569c.041.023.211-.177.446-.532.229-.357.53-.879.7-1.528.171-.653.118-1.29-.039-1.705-.152-.421-.362-.612-.396-.587-.045.029.079.259.159.653.081.392.09.956-.063 1.551-.154.598-.407 1.115-.579 1.496-.172.38-.271.627-.228.652zM681.394 182.666c.644 2.491-.019 5.002-.944 7.326-.69 1.734-1.249 4.253-2.158 5.832-3 5.208-7.896-2.605-7.521-2.825-3.022 1.767-5.525-.21-8.462-.867-2.527-.563-5.381-.292-7.932-.043-1.095.106-4.363 1.105-5.347.502-1.168-.717-.165-1.567 1.253-1.921-3.12.651-8.267-.631-7.708-4.812.235-1.781 2.235-3.231 3.905-2.571-1.635-1.043-2.528-3.133-2.152-5.037.377-1.903 1.999-3.496 3.908-3.838 2.858-.514 5.532 1.543 8.419 1.865 3.235.361 6.269-1.469 9.45-2.144 4.459-.944 9.273.713 12.466 3.905 1.536 1.531 2.423 3.066 2.823 4.628z"/><path fill="none" d="M657.803 178.045h.461"/><path fill="#5C3B66" d="M679.301 467.251c-4.635 4.134-16.23 7.86-18.676 2.52-.989-2.152.381-4.68 1.689-6.656 3.895-5.857 7.7-10.02 6.308-17.633l11.281 1.498c-.587-.081.232 6.314.383 7.018.822 3.778 2.434 7.258.695 11.148-.302.685-.891 1.401-1.68 2.105zM642.073 445.493c-5.135 1.146-6.855.866-12.096.083l-9.283 6.357s-10.629 6.807-9.843 9.654c.788 2.851 29.037-3.797 29.037-3.797s4.745-1.09 3.358-6.101c-.837-3.03-1.725-3.606-1.173-6.196z"/><path fill="#5983B8" d="M688.494 315.706s.607 21.069-.187 26.698c-1.823 12.934-7.483 110.809-7.183 109.672 0 0-7.852 2.036-12.656-1.017-4.806-3.046-10.175-102.208-10.175-102.208l-5.205-.515-10.203 38.031s3.058 60.115 1.095 60.412c-1.964.3-15.435 2.668-16.307-.696-.872-3.367-5.906-64.311-5.906-64.311l21.323-67.918 45.404 1.852z"/><path opacity=".32" fill="#DC9BA2" d="M636.5 334.854c4.318 8.25 16.59 13.483 16.59 13.483l-10.203 38.031s3.058 60.115 1.095 60.412c-1.964.3-15.435 2.668-16.307-.696-.872-3.367-5.906-64.311-5.906-64.311l14.731-46.919z"/><path fill="#C24A71" d="M701.205 233.59c-3.934 10.789-10.058 14.324-9.332 25.786.851 13.391-3.945 27.335-3.097 40.727.259 4.064 1.74 8.476 1.253 12.547-.551 4.589-6.714 4.957-10.662 5.885-12.393 2.913-25.664 2.109-37.571-2.422-1.018-.387.161-16.379.19-17.957.155-7.929.354-15.857.614-23.782.436-13.248-.047-28.227.938-37.105.736-6.656 8.837-11.599 10.014-11.892 6.396-1.596 11.081-3.154 17.672-3.528 15.949-.91 29.885 12.006 29.981 11.741z"/><path opacity=".32" fill="#DC9BA2" d="M658.636 223.032c-3.677.652-6.661 1.726-6.349 3.729.202 1.329 1.346 2.548 2.805 3.415 6.208 3.695 23.68.693 26.105-4.809 2.415-5.48-7.353-4.249-11.577-3.603-2.341.357-7.057.574-10.984 1.268zm22.059 31.038c-.87 4.493 2.354 29.918-1.037 31.641-10.655 5.418-19.817 12.609-22.298 15.049-2.378 2.336-.242 6.305 3.022 5.646 7.714-1.553 16.267-6.197 20.913-10.57 6.6-6.208 10.208-15.196 10.887-24.231.498-6.665-.233-14.241-2.676-20.514-3.057-7.859-7.566-3.449-8.811 2.979z"/><path fill="#C24A71" d="M657.937 221.951c-1.243.055-2.484.164-3.633.515-3.896 1.197-2.997 3.801-.025 5.569 4.556 2.71 12.017 1.752 16.865.531 3.795-.956 14.465-5.567 7.101-9.19-1.447-.715-3.301-.853-4.84-.362-1.578.504-2.753 1.584-4.299 2.136-1.313.468-2.8.522-4.25.57l-5.949.195c-.325.011-.646.02-.97.036z"/><path fill="#5983B8" d="M364.944 129.74c-8.418.063-15.192 6.525-15.132 14.428a13.52 13.52 0 001.491 6.07l-4.584 6.433 8.449-1.722c2.688 2.154 6.183 3.445 9.997 3.416 8.417-.065 15.193-6.525 15.133-14.43-.062-7.904-6.935-14.261-15.354-14.195z"/><path fill="#FFF" d="M372.862 142.677a4.288 4.288 0 00-4.593-3.963 4.277 4.277 0 00-3.295 1.971 4.281 4.281 0 00-3.549-1.467 4.29 4.29 0 00-3.964 4.593c.225 3.06 4.879 5.521 7.154 7.311a1.271 1.271 0 001.688-.104c2.183-2.199 6.822-4.797 6.559-8.341z"/><path fill="#5C3B66" d="M552.695 445.591c-5.026 1.573-6.767 1.438-12.059 1.093l-8.731 7.116s-10.039 7.676-9.015 10.448c1.021 2.779 28.647-6.202 28.647-6.202s4.644-1.484 2.848-6.367c-1.09-2.954-2.027-3.455-1.69-6.088zm23.637.776c5.149 1.104 6.869.81 12.11-.021l9.345 6.281s10.704 6.72 9.942 9.577c-.767 2.858-29.104-3.543-29.104-3.543s-4.759-1.052-3.416-6.079c.814-3.04 1.701-3.625 1.123-6.215z"/><path fill="#DC9BA2" d="M566.742 156.553c.335-.336.656-.683.958-1.051.479-.578 1.73-1.607 1.737-2.407 0-.064-.28-1.85-.654-1.413 2.54-2.989-2.158-2.882-3.88-2.471-3.744.896-9.05 3.541-11.882 6.256-2.441 2.338-7.15 7.222-3.818 10.654 4.491 4.628 13.063-1.168 17.284-3.487-1.374-1.557-3.168-1.15-4.94-1.403.918-1.209 4.129-3.602 5.195-4.678z"/><path fill="#5C3B66" d="M554.291 219.236l-19.48-16.635a2.254 2.254 0 01-.343-3.063l23.852-31.869s-7.76-10.102-10.114-8.017c-1.966 1.738-25.121 28.472-33.103 37.114.01.003.014.006.021.01h-.002c.208.73-.444 5.574-.929 8.869a6.24 6.24 0 001.764 5.326l33.83 33.868 18.476-22.79-13.972-2.813z"/><path opacity=".32" fill="#DC9BA2" d="M522.176 204.112l-.419-4.667 26.446-39.794-33.051 37.088c-.015.01-.036.016-.052.025l-1.033 8.967a6.242 6.242 0 001.792 5.139l33.083 33.121 4.502-24.756-27.569-10.276a5.724 5.724 0 01-3.699-4.847z"/><path fill="#67B087" d="M544.162 301.384l-6.471 145.729s16.316 2.533 18.005-1.969c1.688-4.501 14.066-136.443 14.066-136.443l-25.6-7.317z"/><path opacity=".32" fill="#DC9BA2" d="M544.443 305.604l-6.751 141.509s16.316 2.533 18.005-1.969c1.688-4.501 14.066-134.477 14.066-134.477l-25.32-5.063z"/><path fill="#67B087" d="M597.615 308.417l-3.658 139.258s-18.006 3.096-19.692 0c-1.688-3.094-6.188-115.347-6.188-115.347l-6.189-9.846-15.757-20.818 51.484 6.753z"/><linearGradient id="a" gradientUnits="userSpaceOnUse" x1="904.012" y1="331.852" x2="955.365" y2="331.852" gradientTransform="rotate(180 750.243 299.547)"><stop offset=".201" stop-color="#f9d184"/><stop offset=".917" stop-color="#f4cd72"/></linearGradient><path fill="url(#a)" d="M594.315 289.66c-.948 7.296-2.213 14.673-1.271 21.971-11.396 4.098-24.187 4.215-35.656.325-3.867-1.31-7.78-3.219-10.05-6.615-3.309-4.946-2.256-11.498-1.029-17.319a1087.926 1087.926 0 0112.017-50.92c.944-3.607 2.036-8.794 4.402-11.677 3.932-4.782 10.444-4.632 16.329-4.166 3.783.299 9.532-3.174 12.648-.617 4.098 3.36 3.984 15 4.276 19.683a259.84 259.84 0 01.396 23.151 258.922 258.922 0 01-2.062 26.184z"/><path fill="#5983B8" d="M611.963 233.021l13.224 50.078-25.603 22.505z"/><path fill="#5C3B66" d="M611.963 233.021l13.224 50.078-25.603 22.505z"/><path fill="#DC9BA2" d="M600.114 190.561c1.146.514 1.654 1.866 1.767 3.112.324 3.687-2.16 7.433-5.686 8.561-1.061.34-2.39.388-3.105-.462-.731-.868-.435-2.18-.021-3.236.798-2.046 3.937-9.375 7.045-7.975z"/><path fill="#5C3B66" d="M600.707 193.583c-.002-.04-.579.003-1.378.438-.796.422-1.753 1.296-2.415 2.508-.658 1.209-.938 2.429-1.09 3.297-.146.875-.165 1.422-.117 1.428.055.01.169-.524.379-1.373.212-.845.529-2.017 1.157-3.171.635-1.151 1.503-2.001 2.227-2.46.72-.471 1.253-.605 1.237-.667z"/><path fill="#5C3B66" d="M596.898 200.611c.044.027.23-.188.492-.571.252-.382.583-.943.779-1.645.19-.704.146-1.393-.02-1.846-.16-.457-.39-.667-.422-.641-.05.032.083.283.162.71.085.426.088 1.035-.089 1.679-.178.645-.455 1.202-.646 1.611-.193.411-.301.676-.256.703z"/><path fill="#DC9BA2" d="M561.858 190.561c-1.143.514-1.655 1.866-1.764 3.112-.328 3.687 2.161 7.433 5.684 8.561 1.06.34 2.391.388 3.107-.462.729-.868.433-2.18.021-3.236-.801-2.046-3.942-9.375-7.048-7.975z"/><path fill="#5C3B66" d="M561.266 193.583c.003-.04.577.003 1.375.438.796.422 1.755 1.296 2.416 2.508.662 1.209.941 2.429 1.092 3.297.146.875.165 1.422.117 1.428-.057.01-.171-.524-.378-1.373-.214-.845-.53-2.017-1.161-3.171-.631-1.151-1.502-2.001-2.223-2.46-.72-.471-1.257-.605-1.238-.667z"/><path fill="#5C3B66" d="M565.073 200.611c-.044.027-.229-.188-.488-.571-.253-.382-.584-.943-.779-1.645-.19-.704-.146-1.393.02-1.846.159-.457.387-.667.421-.641.048.032-.084.283-.163.71-.084.426-.087 1.035.089 1.679.179.645.456 1.202.646 1.611.19.411.298.676.254.703z"/><path fill="#DC9BA2" d="M574.075 209.122l-.646 10.121a4.901 4.901 0 004.895 5.216h2.388a4.907 4.907 0 004.87-4.318l1.802-14.979-13.309 3.96z"/><path opacity=".32" fill="#DC9BA2" d="M585.902 217.468l1.48-12.307-13.308 3.96-.613 9.619c4.207.68 8.36.026 12.441-1.272z"/><path fill="#DC9BA2" d="M566 201.283a15.02 15.02 0 004.451 9.277c4.664 4.517 10.354 4.682 16.092 2.269 4.769-2.006 7.069-4.511 7.747-9.646.702-5.33 2.187-10.614.193-15.793-1.083-2.896-3.044-5.124-5.22-6.69-2.175-1.565-4.574-2.531-6.959-3.459-4.07-1.585-10.134-3.598-13.482 1.224-3.858 5.561-3.344 16.166-2.844 22.578.006.078.013.159.022.24z"/><path fill="#C1827A" d="M589.498 200.698c2.06-1.245 1.739-6.935 3.526-7.679.579-.243 1.263.211 1.502.795.235.583.151 1.243.063 1.869-.522 3.677 1.63 7.909.634 11.526-1.086 3.96-6.938 7.18-10.516 8.295-4.588 1.431-9.718 1.061-14.055-1.016-1.939-.93-3.767-2.231-4.926-4.046-1.254-1.975-2.421-7.368.06-8.897-.801-1.75-.516-3.933.775-5.378-.872-1.549-.872-3.55-.006-5.102 1.67 2.081.978 5.903 2.351 8.101 1.726 2.763 7.203 3.239 10.11 3.21 2.851-.027 7.97-.168 10.482-1.678zm.156-11.125c.13-.063-.002-.409-.49-.847-.477-.436-1.343-.933-2.46-1.215-1.112-.281-2.203-.279-2.935-.15-.737.129-1.121.344-1.072.454.106.243 1.77.04 3.636.533 1.882.454 3.042 1.37 3.321 1.225zm-12.86-1.49c-.025-.117-.536-.2-1.364-.158a11.66 11.66 0 00-3.026.584c-1.069.369-1.847.82-2.245 1.231-.4.417-.297.729-.069.747.236.026.53-.162 1.049-.39a28.049 28.049 0 012.188-.854c1.78-.616 3.512-.913 3.467-1.16z"/><path fill="#5C3B66" d="M573.957 195.655c-.561 0-1.102-.743-1.021-1.659s.748-1.639 1.309-1.62c.567.018.816.758.744 1.654-.083.897-.461 1.625-1.032 1.625zm5.83-3.327c-.164.91-.267 1.806-.363 2.699l-.288 2.669-.066.666-.032.328a.603.603 0 01-.316.462.91.91 0 01-.219.086 1.095 1.095 0 00-.468.239 1.171 1.171 0 00-.366.847 1.51 1.51 0 00.21.789c.281.448.688.702 1.094.917-.274-.371-.574-.728-.673-1.109-.115-.359.007-.77.2-.871a.332.332 0 01.146-.032c.137-.017.29-.058.427-.116.28-.117.541-.328.708-.616a1.3 1.3 0 00.163-.468l.052-.345.077-.682c.098-.91.12-1.826.083-2.739-.04-.914-.145-1.827-.369-2.724z"/><path fill="#FFF" d="M576.765 206.132c.086-.043.321.156.757.393a5.06 5.06 0 001.925.587 6.41 6.41 0 002.166-.191c.558-.143.898-.285.955-.228.049.047-.217.298-.798.546-.577.248-1.5.463-2.479.369-.978-.095-1.717-.471-2.107-.811-.402-.344-.493-.63-.419-.665z"/><path fill="#5C3B66" d="M582.967 195.204c.434-.465.904-.79 1.418-.947.513-.158 1.05-.171 1.587-.102a5.55 5.55 0 011.569.462c.507.23.988.527 1.413.924l.057.053a.158.158 0 00.209.004c.222-.188.076-.447-.202-.349l.267.056c-.29-.589-.774-1.081-1.33-1.436a4.266 4.266 0 00-1.882-.644c-.665-.061-1.384.045-1.977.408-.596.353-1.018.949-1.129 1.571z"/><path fill="#C1827A" d="M589.955 183.932c-.135.02-.271.038-.409.055-9.093 1.09-17.359.812-24.808-5.387-1.277-1.065-2.527-2.378-2.742-4.028-.217-1.65 1.145-3.55 2.782-3.267-.704-1.47-.259-3.404 1.022-4.417l10.598-.185c-.586-2.12.796-4.582 2.908-5.186-.117 2.842 2.535 5.063 5.217 6.005 2.686.941 5.632 1.106 8.182 2.365 3.224 1.589 4.586 5.177 3.74 8.589-.924 3.739-3.144 4.984-6.49 5.456z"/><path fill="#C1827A" d="M592.747 173.239c2.712.358 4.647 2.881 5.578 5.457 1.419 3.928 1.167 8.428-.677 12.175-.402.817-.876 1.598-1.349 2.377-.836 1.382-2.583 5.503-4 2.736-.433-.844.189-3.414.177-4.425-.02-1.482-.12-2.961-.387-4.421-.661-3.666-2.438-7.284-5.525-9.373-2.751-1.862-6.387-2.31-9.541-1.265-3.155 1.045-5.777 3.536-7.08 6.596-2.102 4.947-.796 10.816-2.782 15.811.953-2.402-2.211-5.335-3.373-7.117-1.396-2.142-1.969-4.77-1.913-7.305.091-3.721 1.099-8.464 3.497-11.388 2.179-2.655 8.861-1.541 11.009.776"/><path fill="#5C3B66" d="M591.706 220.642l20.258 12.38-10.691 105.217s-12.097-4.503-13.222-8.44 3.655-109.157 3.655-109.157zm-23.445 1.406l-19.037 96.779s-3.096 9.003-9 9.846c-5.909.847 12.626-105.746 12.626-105.746l15.411-.879z"/><path opacity=".32" fill="#DC9BA2" d="M576.479 296.677c1.865.194 3.834.192 5.538.657 1.704.466 3.039 1.644 2.201 2.604-.805.925-2.975 1.085-4.791 1.092-2.041.003-4.087-.039-6.124-.125-4.82-.212-10.055-.82-13.104-2.946-1.909-1.331-2.677-3.163-2.026-4.838.396-1.014 1.692-2.81 3.651-3.158 2.799-.497 2.957.74 3.992 1.851 2.247 2.41 5.766 4.35 10.663 4.863z"/><g fill="none" stroke="#FFF" stroke-width=".741" stroke-miterlimit="10"><circle cx="572.636" cy="192.749" r="6.119"/><circle cx="587.793" cy="193.498" r="6.118"/><path d="M577.847 194.229c1.392-.921 3.25-1.09 4.784-.434"/></g><g><path fill="#5C3B66" d="M358.651 445.246c5.116 1.602 6.888 1.462 12.276 1.113l8.887 7.245s10.221 7.813 9.18 10.639c-1.042 2.824-29.168-6.316-29.168-6.316s-4.726-1.515-2.895-6.481c1.107-3.011 2.061-3.521 1.72-6.2zm-24.065.788c-5.243 1.123-6.995.827-12.328-.021l-9.516 6.396s-10.896 6.84-10.119 9.75c.776 2.909 29.625-3.606 29.625-3.606s4.845-1.07 3.479-6.188c-.826-3.099-1.73-3.695-1.141-6.331z"/><path fill="#DC9BA2" d="M405.226 136.603c.118-.469.248-.934.407-1.39.254-.719.49-2.353 1.182-2.78.059-.036 1.761-.731 1.576-.178 1.265-3.788 3.646.362 4.197 2.077 1.192 3.731 1.688 9.747.817 13.647-.748 3.358-2.521 10.033-7.265 8.942-6.399-1.473-5.87-11.993-6.076-16.89 2.081.375 2.671 2.15 3.827 3.561.568-1.436.961-5.493 1.335-6.989z"/><linearGradient id="b" gradientUnits="userSpaceOnUse" x1="342.823" y1="403.76" x2="412.34" y2="403.76" gradientTransform="matrix(1 0 0 -1 -.02 599.095)"><stop offset=".201" stop-color="#f9d184"/><stop offset=".917" stop-color="#f4cd72"/></linearGradient><path fill="url(#b)" d="M342.803 217.673l14.223-2.863 25.49-21.766 17.471-43.247s12.887 1.433 12.314 4.583c-.573 3.151-14.893 52.698-14.893 52.698l-35.8 33.795-18.805-23.2z"/><path opacity=".32" fill="#DC9BA2" d="M362.467 240.014l-2.723-16.09 29.645-20.857 22.912-48.688-14.893 52.699z"/><path fill="#DC9BA2" d="M255.929 136.603a15.927 15.927 0 00-.409-1.39c-.252-.719-.489-2.353-1.182-2.78-.058-.036-1.76-.731-1.576-.178-1.264-3.788-3.647.362-4.196 2.077-1.193 3.731-1.688 9.747-.817 13.647.749 3.358 2.521 10.033 7.266 8.942 6.399-1.473 5.869-11.993 6.075-16.89-2.081.375-2.671 2.15-3.827 3.561-.568-1.436-.96-5.493-1.334-6.989z"/><linearGradient id="c" gradientUnits="userSpaceOnUse" x1="248.853" y1="402.338" x2="318.371" y2="402.338" gradientTransform="matrix(1 0 0 -1 -.02 599.095)"><stop offset=".201" stop-color="#f9d184"/><stop offset=".917" stop-color="#f4cd72"/></linearGradient><path fill="url(#c)" d="M318.351 217.673l-14.222-2.863-25.491-21.766-17.47-43.247s-12.89 1.433-12.316 4.583c.574 3.151 14.894 52.698 14.894 52.698l40.759 36.64 13.846-26.045z"/><path opacity=".32" fill="#DC9BA2" d="M303.582 242.568l1.613-12.431-33.429-27.07-22.913-48.688 14.893 52.699z"/><path fill="#5983B8" d="M367.336 298.439l6.586 148.355s-16.611 2.578-18.33-2.003c-1.719-4.584-14.32-138.908-14.32-138.908l26.064-7.444z"/><path opacity=".32" fill="#DC9BA2" d="M367.336 298.439l6.586 148.355s-16.611 2.578-18.33-2.003c-1.719-4.584-14.32-138.908-14.32-138.908l26.064-7.444z"/><path fill="#5983B8" d="M312.92 305.6l3.724 141.768s18.329 3.149 20.047 0 6.301-117.422 6.301-117.422l6.302-10.024 16.037-21.194-52.411 6.872z"/><linearGradient id="d" gradientUnits="userSpaceOnUse" x1="304.525" y1="335.125" x2="370.151" y2="335.125" gradientTransform="matrix(1 0 0 -1 -.02 599.095)"><stop offset=".201" stop-color="#f9d184"/><stop offset=".917" stop-color="#f4cd72"/></linearGradient><path fill="url(#d)" d="M358.815 221.112c-2.827-.539-5.316-2.543-8.3-3.095-3.594-.665-7.291-.578-10.928-.47-6.768 0-13.306.084-20.141-.365-1.063-.069-2.147-.138-3.174.146-3.241.898-4.252 7.579-6.454 10.096-1.206 1.422-5.38 14.575-5.313 16.293.653 20.848-.684 42.164 2.437 62.758.149.987 6.208 2.512 7.156 2.776a40.004 40.004 0 008.068 1.397c5.086.358 10.395.058 15.5-.045 10.933-.224 22.059-1.356 32.464-4.885-.574-6.144-.265-12.576-.918-18.833-.479-4.583-1.01-9.172-1.666-13.733-2.299-15.978-5.033-31.891-7.94-47.766-.256-1.4-.567-2.9-.791-4.274z"/><path opacity=".32" fill="#DC9BA2" d="M330.723 277.558c-2.908.365-5.983.359-8.647 1.226-2.664.872-4.744 3.072-3.438 4.865 1.255 1.722 4.644 2.026 7.482 2.034 3.191.008 6.383-.07 9.563-.235 7.531-.388 15.703-1.528 20.463-5.495 2.981-2.484 4.18-5.904 3.166-9.029-.615-1.892-2.641-5.248-5.704-5.897-4.368-.927-4.618 1.382-6.234 3.454-3.507 4.501-9.002 8.123-16.651 9.077z"/><path fill="#DC9BA2" d="M310.687 184.682c-1.162.524-1.683 1.9-1.795 3.168-.332 3.752 2.202 7.566 5.789 8.716 1.078.345 2.431.393 3.161-.472.745-.884.44-2.218.021-3.295-.815-2.081-4.012-9.543-7.176-8.117z"/><path fill="#5C3B66" d="M310.085 187.757c.004-.038.588.004 1.399.446.811.431 1.786 1.32 2.459 2.554.673 1.232.959 2.472 1.11 3.357.146.891.169 1.447.121 1.455-.058.009-.175-.535-.388-1.399-.218-.86-.539-2.053-1.182-3.228-.642-1.172-1.527-2.038-2.262-2.504-.731-.48-1.275-.617-1.257-.681z"/><path fill="#5C3B66" d="M313.962 194.913c-.046.027-.237-.191-.5-.581-.258-.389-.597-.96-.792-1.675-.196-.717-.148-1.418.018-1.877.164-.467.392-.681.428-.653.051.031-.084.287-.166.723-.086.433-.088 1.054.09 1.708.181.656.466 1.223.659 1.641.2.417.31.687.263.714z"/><path fill="#DC9BA2" d="M349.635 184.682c1.162.524 1.683 1.9 1.795 3.168.331 3.752-2.201 7.566-5.789 8.716-1.077.345-2.431.393-3.161-.472-.744-.884-.44-2.218-.02-3.295.813-2.081 4.01-9.543 7.175-8.117z"/><path fill="#5C3B66" d="M350.236 187.757c-.003-.038-.588.004-1.399.446-.811.431-1.785 1.32-2.458 2.554-.674 1.232-.96 2.472-1.112 3.357-.147.891-.168 1.447-.121 1.455.056.009.174-.535.387-1.399.219-.86.54-2.053 1.183-3.228.642-1.172 1.527-2.038 2.263-2.504.731-.48 1.276-.617 1.257-.681z"/><path fill="#5C3B66" d="M346.36 194.913c.044.027.236-.191.499-.581.257-.389.597-.96.793-1.675.196-.717.148-1.418-.019-1.877-.163-.467-.393-.681-.429-.653-.051.031.084.287.167.723.085.433.086 1.054-.091 1.708-.18.656-.464 1.223-.66 1.641-.197.417-.308.687-.26.714z"/><path fill="#DC9BA2" d="M337.196 203.576l1.372 13.213c.186 2.877-2.871 6.215-5.753 6.215h-2.43c-2.527 0-5.324-3.707-5.625-6.215l-1.109-17.245 13.545 4.032z"/><path opacity=".32" fill="#DC9BA2" d="M325.156 212.072l-1.506-12.527 13.545 4.031.625 9.794c-4.283.692-8.51.025-12.664-1.298z"/><path fill="#DC9BA2" d="M345.416 195.597a15.284 15.284 0 01-4.533 9.444c-4.747 4.599-10.54 4.766-16.379 2.308-4.854-2.042-7.197-4.59-7.888-9.819-.716-5.425-2.226-10.806-.196-16.079 1.101-2.948 3.099-5.215 5.313-6.809 2.214-1.594 4.655-2.577 7.083-3.522 4.146-1.614 10.318-3.663 13.726 1.245 3.929 5.661 3.403 16.457 2.897 22.985l-.023.247z"/><path fill="#5C3B66" d="M321.335 183.677c-.129-.067.003-.418.499-.864.485-.444 1.37-.949 2.505-1.236 1.133-.287 2.245-.286 2.988-.153.752.13 1.142.35 1.092.46-.108.248-1.801.04-3.7.543-1.918.464-3.099 1.397-3.384 1.25zm13.091-1.518c.026-.12.549-.204 1.391-.161.835.04 1.987.223 3.078.595 1.094.376 1.883.835 2.288 1.254.407.425.301.741.072.761-.242.026-.542-.166-1.071-.397a26.717 26.717 0 00-2.228-.87c-1.809-.628-3.575-.931-3.53-1.182zm2.888 7.709c.573 0 1.123-.758 1.04-1.689-.079-.932-.76-1.668-1.33-1.649-.579.02-.833.771-.757 1.684.081.912.468 1.655 1.047 1.654zm-12.75.731c.563.102 1.24-.544 1.325-1.476.089-.931-.448-1.777-1.014-1.86-.572-.085-.959.609-1.046 1.521-.084.911.163 1.711.735 1.815zm6.816-4.119c.17.926.271 1.838.374 2.748l.291 2.716.067.679.033.334c.003.062.021.12.045.176.046.114.145.22.274.295a.855.855 0 00.222.085c.169.042.335.12.476.245.264.248.373.568.375.862.003.295-.075.566-.212.802-.288.456-.703.715-1.113.933.277-.377.583-.741.685-1.129.117-.366-.008-.784-.205-.886a.32.32 0 00-.148-.033 1.678 1.678 0 01-.435-.118 1.51 1.51 0 01-.721-.627 1.377 1.377 0 01-.166-.477l-.051-.351-.082-.693a19.24 19.24 0 01-.081-2.789c.038-.929.145-1.858.372-2.772zm3.079 14.054c-.088-.045-.328.157-.774.4a5.106 5.106 0 01-1.957.597c-.838.082-1.644-.048-2.205-.195-.568-.144-.916-.289-.971-.231-.05.048.217.303.812.557.583.252 1.524.471 2.521.375.999-.097 1.75-.479 2.146-.826.407-.35.503-.641.428-.677z"/><path fill="#5C3B66" d="M337.73 198.891l-11.158.469s-.62 4.46 3.925 4.899c6.249.604 7.233-5.368 7.233-5.368z"/><path fill="#C24A71" d="M331.547 201.668c-1.525-.574-3.141-.543-4.599.182a.368.368 0 01-.035.015c.457 1.1 1.452 2.189 3.583 2.395 1.454.14 2.618-.077 3.559-.49-.64-.907-1.366-1.672-2.508-2.102z"/><path fill="#5C3B66" d="M320.914 178.7c1.133.224 2.304.204 3.428-.116-.835-.894.23-2.658 1.411-2.333 2.452 2.888 6.63 4.183 10.285 3.189-.819-1.098.308-2.965 1.661-2.75l2.167 4.419c4.478-.378 8.307-4.54 8.312-9.032.011-10.969-15.496-10.742-22.978-9.946-5.316.564-11.934 3.28-10.987 9.875.479 3.356 3.422 6.047 6.701 6.694z"/><path fill="#5C3B66" d="M318.189 167.047c-2.763.366-4.733 2.934-5.68 5.556-1.443 3.999-1.188 8.58.688 12.394.41.833.892 1.627 1.372 2.422.854 1.407 2.63 5.602 4.072 2.785.439-.861-.194-3.475-.179-4.506.02-1.508.123-3.014.392-4.5.675-3.731 2.484-7.416 5.625-9.541 2.802-1.896 6.503-2.353 9.715-1.288s5.882 3.6 7.206 6.715c2.143 5.036.812 11.011 2.834 16.096-.973-2.445 2.249-5.431 3.434-7.246 1.422-2.181 2.006-4.856 1.943-7.437-.088-3.788-1.114-8.617-3.557-11.594-2.217-2.702-9.021-1.566-11.208.791"/></g><g><path fill="#5C3B66" d="M404.826 181.646c-8.746 5.114-13.539 16.191-11.282 26.068.68 2.982 1.92 6.158.722 8.971-1.005 2.361-3.48 3.746-5.917 4.55-2.438.806-5.034 1.229-7.265 2.497-2.229 1.271-4.071 3.736-3.581 6.255.629 3.231 4.679 5.063 4.994 8.342.206 2.131-1.28 4.037-2.851 5.493-1.57 1.452-3.381 2.804-4.188 4.787-.915 2.258-.285 4.92 1.087 6.934 1.372 2.016 3.394 3.489 5.444 4.803 17.21 11.027 39.78 13.199 58.778 5.658 4.894-1.943 9.616-4.533 13.332-8.264 3.715-3.73 6.365-8.701 6.593-13.962.225-5.228-2.546-12.308-8-14-2.837-.878-5.1-.781-7.568-2.923-1.933-1.676-3.375-3.944-3.919-6.455-.919-4.254.508-8.618.881-12.954.585-6.853-1.605-13.903-5.975-19.216-7.463-9.077-20.855-12.687-31.285-6.584z"/><path fill="#DC9BA2" d="M419.404 216.285c1.798 4.485 2.299 9.803 6.972 11.437 6.905 2.762 15.827 5.405 10.013 7.423-.709.247-3.048 6.673-3.683 6.271-.377-.237-18.782 13.171-18.987 12.774-.859-1.649-12.379-9.028-12.891-10.819-.342-1.202-6.351-6.141-6.1-7.362.346-1.681 16.594-7.631 16.776-8.991.181-1.354-1.517-3.151-2.063-4.317-.944-2.018-1.887-4.036-2.829-6.055l12.792-.361z"/><path opacity=".32" fill="#DC9BA2" d="M411.449 226.998l-4.836-10.352 12.791-.361 3.307 8.247c-3.491 1.806-7.315 2.429-11.262 2.466z"/><path fill="#DC9BA2" d="M398.645 213.01c.26 2.464 1.314 4.873 2.602 6.81 1.32 1.986 2.966 2.639 4.979 3.363 6.383 2.299 15.541 1.375 18.359-6.941 1.128.744 2.606-.282 3.096-1.686.455-1.313.142-2.504.167-3.849.021-1.103.174-2.156.141-3.281-.08-2.734-.289-5.553-1.334-8.048-1.093-2.611-3.01-4.594-5.116-5.97-2.104-1.375-4.409-2.199-6.699-2.99-3.912-1.351-9.731-3.043-12.813 1.421-1.787 2.588-1.214 7.705-1.926 10.876-.753 3.343-1.832 6.749-1.456 10.295z"/><path fill="#DC9BA2" d="M431.369 206.312c1.041.643 1.363 2.02 1.312 3.24-.156 3.613-3.046 6.924-6.605 7.567-1.069.193-2.364.069-2.95-.846-.597-.935-.141-2.167.396-3.139 1.034-1.879 5.015-8.578 7.847-6.822z"/><path fill="#5C3B66" d="M431.556 209.314c.002-.038-.561-.071-1.388.249-.826.308-1.865 1.031-2.662 2.121-.795 1.088-1.225 2.232-1.48 3.055-.251.829-.343 1.355-.297 1.37.052.015.232-.487.545-1.283.313-.792.771-1.887 1.53-2.924.758-1.034 1.709-1.747 2.467-2.1.759-.364 1.294-.425 1.285-.488z"/><path fill="#5C3B66" d="M426.966 215.636c.039.031.249-.153.547-.491.295-.336.688-.837.966-1.494.277-.658.32-1.331.22-1.789-.097-.465-.288-.697-.326-.675-.051.023.046.283.067.708.027.423-.05 1.016-.302 1.615-.253.603-.595 1.105-.833 1.479-.241.372-.38.616-.339.647zm-7.03-9.23c.125-.056.019-.399-.429-.856-.441-.455-1.26-.991-2.328-1.333-1.072-.34-2.136-.404-2.856-.322-.729.082-1.113.269-1.071.378.09.243 1.722.144 3.514.737 1.809.557 2.886 1.521 3.17 1.396zm-5.488 9.225c-.106-.043-.367.215-.863.542a6.02 6.02 0 01-2.227.888c-.97.176-1.922.105-2.593-.011-.676-.114-1.097-.249-1.155-.176-.054.062.283.333 1.002.571.706.236 1.824.399 2.979.191 1.152-.211 1.993-.729 2.423-1.174.442-.447.526-.796.434-.831zm-7.943-12.397c.015-.115-.295-.298-.849-.429a5.799 5.799 0 00-2.136-.075c-.804.124-1.436.388-1.811.691-.378.308-.396.621-.255.685.147.073.393-.042.793-.15a16.215 16.215 0 011.67-.349c1.333-.211 2.547-.133 2.588-.373zm2.05 1.69c.162.885.203 1.78.183 2.669a18.624 18.624 0 01-.252 2.659l-.122.657-.037.171a1.729 1.729 0 01-.262.6 1.57 1.57 0 01-.686.563 1.402 1.402 0 01-.438.104.312.312 0 00-.142.023c-.195.089-.337.479-.248.836.074.377.341.744.584 1.122-.38-.234-.76-.507-1.006-.959a1.497 1.497 0 01-.157-.779c.019-.28.143-.581.405-.802.14-.113.305-.181.468-.209a.642.642 0 00.196-.072.725.725 0 00.289-.301c.035-.065.067-.133.088-.203a.707.707 0 00.023-.107l.024-.152.108-.645.447-2.577c.158-.861.314-1.725.535-2.598zm6.067 5.68c.462.098 1.034-.414 1.128-1.177.098-.763-.32-1.472-.783-1.555-.469-.084-.804.474-.9 1.221-.091.747.089 1.409.555 1.511z"/><path fill="#5C3B66" d="M415.015 208.542a1.802 1.802 0 001.159-.826c.167.551-.233 1.203-.799 1.304a1.674 1.674 0 001.631-.191c-.458.606-1.35.837-2.043.53m-10.404.558c-.47.037-.969-.55-.958-1.319.007-.769.519-1.415.988-1.436.475-.02.731.581.726 1.333-.011.754-.281 1.386-.756 1.422z"/><path fill="#5C3B66" d="M404.449 207.821a1.805 1.805 0 01-1.037-.975c-.238.523.068 1.224.616 1.401a1.671 1.671 0 01-1.59-.411c.371.663 1.224 1.013 1.953.803"/><circle fill="none" stroke="#FFF" stroke-width=".741" stroke-miterlimit="10" cx="400.671" cy="207.724" r="6.12"/><circle fill="none" stroke="#FFF" stroke-width=".741" stroke-miterlimit="10" cx="415.741" cy="209.518" r="6.12"/><path fill="none" stroke="#FFF" stroke-width=".741" stroke-miterlimit="10" d="M405.77 209.562a5.144 5.144 0 014.8-.103m10.995-.362a33.19 33.19 0 018.809-3.145c.541-.111 1.3-.074 1.406.468"/><path fill="#5C3B66" d="M407.563 201.57c3.783-.253 7.386-1.835 10.87-3.391-1.035.462 7.403 8.232 8.704 8.634 4.424 1.363 5.191-4.663 5.031-7.949-.188-3.828-.775-7.496-3.996-9.746-3.646-2.549-8.129-3.982-12.572-4.073-4.427-.089-8.863 1.162-12.62 3.495-2.501 1.555-7.194 5.188-5.522 8.65 1.477 3.059 6.019 4.424 9.112 4.415.331-.001.662-.013.993-.035z"/><path fill="#67B087" d="M377.171 270.189c.753 1.882 2.217 3.473 4 4.429 2.097 1.128 4.738 2.358 7.154 1.789 2.429-.573 4.171-2.659 5.598-4.708a59.934 59.934 0 008.683-18.73c1.005-3.767 1.629-7.82.412-11.524-.923-2.82-4.202-6.608-7.437-6.545-1.938.037-3.233 1.608-3.046 3.381.259 2.441-.116 4.786-2.042 6.522-1.184 1.069-2.708 1.684-3.993 2.633-1.282.946-2.383 2.46-2.079 4.028.279 1.452 1.688 2.564 1.707 4.04.014 1.142-.839 2.131-1.813 2.725-.976.591-2.095.904-3.112 1.422-3.26 1.664-5.167 5.624-4.433 9.208.095.458.228.903.401 1.33z"/><path opacity=".32" fill="#DC9BA2" d="M377.171 270.189c.753 1.882 2.217 3.473 4 4.429 2.097 1.128 4.738 2.358 7.154 1.789 2.429-.573 4.171-2.659 5.598-4.708a59.934 59.934 0 008.683-18.73c1.005-3.767 1.629-7.82.412-11.524-.923-2.82-4.202-6.608-7.437-6.545-1.938.037-3.233 1.608-3.046 3.381.259 2.441-.116 4.786-2.042 6.522-1.184 1.069-2.708 1.684-3.993 2.633-1.282.946-2.383 2.46-2.079 4.028.279 1.452 1.688 2.564 1.707 4.04.014 1.142-.839 2.131-1.813 2.725-.976.591-2.095.904-3.112 1.422-3.26 1.664-5.167 5.624-4.433 9.208.095.458.228.903.401 1.33z"/><path fill="#C24A71" d="M418.212 461.895c1.009 2.735 2.114 4.851 3.109 5.687 1.75 1.467 4.402 1.989 6.372.838 1.834-1.071 2.709-3.331 2.701-5.454-.015-3.344-1.719-5.218-3.084-7.98-1.903-3.85-2.896-8.479-4.277-12.549-.546-1.612-1.253-3.4-2.824-4.06-7.847-3.283-5.525 13.936-1.997 23.518z"/><path opacity=".32" fill="#DC9BA2" d="M418.212 461.895c1.009 2.735 2.114 4.851 3.109 5.687 1.75 1.467 4.402 1.989 6.372.838 1.834-1.071 2.709-3.331 2.701-5.454-.015-3.344-1.719-5.218-3.084-7.98-1.903-3.85-2.896-8.479-4.277-12.549-.546-1.612-1.253-3.4-2.824-4.06-7.847-3.283-5.525 13.936-1.997 23.518z"/><path fill="#5C3B66" d="M434.021 298.551s9.216 13.049 7.091 63.184c-1.66 39.113-17.138 80.538-17.138 80.538s-10.385.667-12.631-2.617c-2.245-3.287 7.207-79.052 6.189-85.287-1.016-6.235-4.505-43.296-4.505-43.296l1.333-16.724 19.661 4.202z"/><path opacity=".32" fill="#DC9BA2" d="M434.021 298.551s9.216 13.049 7.091 63.184c-1.66 39.113-17.138 80.538-17.138 80.538s-10.385.667-12.631-2.617c-2.245-3.287 7.207-79.052 6.189-85.287-1.016-6.235-4.505-43.296-4.505-43.296l1.333-16.724 19.661 4.202z"/><path fill="#DC9BA2" d="M395.431 297.908c11.54 5.72 26.798 1.544 38.866.028-2.89.363-6.475-32.726-6.979-36.079-.159-1.057-24.902 2.514-27.857 2.903.529 6.599.292 12.925-.012 19.566-.071 1.543-1.883 14.639-4.018 13.582zM397.938 387.111s1.32 12.438 16.738 63.249c-.382 2.188-.637 5.78 1.054 7.684 1.691 1.902 12.672-5.784 9.7-9.128-9.366-10.54-6.025-42.057-7.492-53.627l-6.131-11.866-13.869 3.688z"/><path fill="#C24A71" d="M423.697 444.583c-3.531 2.838-4.969 3.275-9.315 4.659l-4.759 8.439s-5.632 9.301-3.941 11.201c1.689 1.903 21.001-13.963 21.001-13.963s3.253-2.646.28-5.992c-1.802-2.021-2.709-2.131-3.266-4.344z"/><path fill="#67B087" d="M434.852 242.13c.793 2.438 1.296 4.977 2.07 7.402.742 2.332 2.056 4.09.717 6.593-.736 1.376-2.098 2.563-2.055 4.124.06 2.179 2.788 3.401 3.273 5.525.594 2.613-2.451 5.079-1.751 7.664.491 1.816 2.568 2.651 4.411 3.032 2.538.526 5.187.692 7.714.12 2.528-.573 4.93-1.935 6.448-4.037 1.516-2.101 2.041-4.972 1.05-7.369-.685-1.655-2.043-3.064-2.249-4.844-.167-1.452.469-2.864.655-4.313.266-2.072-.41-4.18-1.483-5.972-1.387-2.312-3.955-3.962-4.479-6.684-.263-1.349-.257-2.752-.666-4.064-.521-1.661-2.379-4.526-3.833-5.487-1.455-.959-2.494-.033-4.226-.229"/><path fill="#5C3B66" d="M395.204 297.943c-6.805 18.178-8.391 36.124-5.132 55.26.363 2.134.804 6.146 1.214 8.221.507 2.561.74 5.199 1.155 7.776a373.326 373.326 0 002.833 15.401c1.935 9.455 4.183 18.844 6.657 28.166 2.536 9.555 6.133 22.296 9.28 31.667 0 0 9.516-.836 11.683-4.172 2.165-3.338-9.118-80.792-8.252-87.061 1.693-12.271 2.229-24.771 3.239-37.117 1.56-.438 20.384-5.716 20.379-5.731l-5.049-16.647a82.014 82.014 0 01-36.696.908 111.044 111.044 0 00-1.311 3.329z"/><path opacity=".32" fill="#DC9BA2" d="M424.718 282.671c1.601-.489 3.225-1.141 4.355-2.375 1.131-1.232 1.625-3.188.751-4.617.033.055-14.271 3.163-15.685 3.302-5.172.502-10.289-.207-15.393.001 1.614 2.868 7.404 3.982 10.396 4.532 5.162.95 10.554.691 15.576-.843z"/><path fill="#67B087" d="M444.215 233.919c-.546-.696-2.862-1.108-7.022-2.513l-23.592 18.641-16.688-15.881c-1.034.46-4.047 1.598-2.991 1.497 3.632 2.359 4.1 7.173 3.125 11.392-.976 4.218-2.876 8.396-2.315 12.689.42 3.213 2.185 6.084 3.053 9.205.771 2.768-2.043 7.345-1.407 8.966 1.05 2.673 8.947 2.858 11.549 3.065 5.49.436 24.524.525 27.163-5.88.919-2.229-1.467-6.419-1.449-8.908.031-5.275 2.012-11.198 3.689-16.142a82.038 82.038 0 015.71-12.957c.596-1.087 1.995-2.127 1.175-3.174z"/><path opacity=".32" fill="#DC9BA2" d="M408.91 270.121c-.729.213-1.621.652-1.546 1.406.067.677.867.983 1.536 1.105 6.495 1.208 13.751-1.096 18.178-6.041-3.505-2.991-14.201 2.37-18.168 3.53z"/></g><g><path fill="#C24A71" d="M497.132 142.777l19.734.19c2.376.023 4.303 1.654 4.282 3.623l-.138 14.454c-.021 1.969-1.977 3.561-4.353 3.538l-2.629-.024a7.629 7.629 0 001.741 4.192c-1.815-.29-3.672-.593-5.27-1.465-1.148-.63-2.138-1.626-2.593-2.788l-10.985-.105c-2.374-.023-4.303-1.654-4.283-3.623l.142-14.455c.02-1.966 1.979-3.56 4.352-3.537z"/><circle fill="#FFF" cx="514.321" cy="153.748" r="2.44"/><circle fill="#FFF" cx="506.827" cy="153.676" r="2.441"/><circle fill="#FFF" cx="499.332" cy="153.603" r="2.442"/></g><g><linearGradient id="e" gradientUnits="userSpaceOnUse" x1="1409.839" y1="440.938" x2="1419.292" y2="440.938" gradientTransform="rotate(180 860.486 299.547)"><stop offset=".201" stop-color="#f9d184"/><stop offset=".917" stop-color="#f4cd72"/></linearGradient><path fill="url(#e)" d="M306.405 162.884l1.671-3.056 3.056-1.67-3.056-1.671-1.671-3.056-1.67 3.056-3.056 1.671 3.056 1.67z"/><linearGradient id="f" gradientUnits="userSpaceOnUse" x1="1411.418" y1="461.779" x2="1417.817" y2="461.779" gradientTransform="rotate(180 860.486 299.547)"><stop offset=".201" stop-color="#f9d184"/><stop offset=".917" stop-color="#f4cd72"/></linearGradient><path fill="url(#f)" d="M306.354 140.515l1.131-2.068 2.068-1.131-2.068-1.131-1.131-2.068-1.131 2.068-2.068 1.131 2.068 1.131z"/><linearGradient id="g" gradientUnits="userSpaceOnUse" x1="1426.472" y1="453.96" x2="1440.376" y2="453.96" gradientTransform="rotate(180 860.486 299.547)"><stop offset=".201" stop-color="#f9d184"/><stop offset=".917" stop-color="#f4cd72"/></linearGradient><path fill="url(#g)" d="M287.546 152.087l2.458-4.495 4.495-2.458-4.495-2.457-2.458-4.495-2.457 4.495-4.494 2.457 4.494 2.458z"/></g><g><linearGradient id="h" gradientUnits="userSpaceOnUse" x1="609.227" y1="422.524" x2="618.678" y2="422.524" gradientTransform="matrix(1 0 0 -1 -.02 599.095)"><stop offset=".201" stop-color="#f9d184"/><stop offset=".917" stop-color="#f4cd72"/></linearGradient><path fill="url(#h)" d="M613.931 181.297l-1.672-3.056-3.053-1.671 3.053-1.67 1.672-3.056 1.672 3.056 3.055 1.67-3.055 1.671z"/><linearGradient id="i" gradientUnits="userSpaceOnUse" x1="610.803" y1="443.365" x2="617.199" y2="443.365" gradientTransform="matrix(1 0 0 -1 -.02 599.095)"><stop offset=".201" stop-color="#f9d184"/><stop offset=".917" stop-color="#f4cd72"/></linearGradient><path fill="url(#i)" d="M613.983 158.928l-1.132-2.069-2.068-1.13 2.068-1.131 1.132-2.068 1.132 2.068 2.064 1.131-2.064 1.13z"/><linearGradient id="j" gradientUnits="userSpaceOnUse" x1="625.86" y1="435.547" x2="639.764" y2="435.547" gradientTransform="matrix(1 0 0 -1 -.02 599.095)"><stop offset=".201" stop-color="#f9d184"/><stop offset=".917" stop-color="#f4cd72"/></linearGradient><path fill="url(#j)" d="M632.791 170.5l-2.461-4.495-4.491-2.457 4.491-2.458 2.461-4.495 2.457 4.495 4.495 2.458-4.495 2.457z"/></g><g><path fill="#C1827A" d="M271.445 248.55c-.523-3.484 1.896-6.882 3.213-10.269 2.174-5.584 1.131-12.235-2.44-17.012-.839-1.124-1.73-2.003-2.397-3.188-.679-1.206-1.233-2.247-2.212-3.267-2.02-2.11-4.602-3.699-6.203-6.195-2.63-4.097-2.391-10.284-3.33-14.958-.975-4.838-3.937-8.768-8.638-10.716-4.169-1.729-9.122-1.444-13.065.749l3.761 1.627c-2.071.126-4.144.39-6.197.659-4.29.561-9.586 1.512-12.399 5.189-.968 1.264-1.352 2.869-2.084 4.265-1.102 2.094-3.096 4.375-5.049 5.738-2.765 1.931-6.136 2.65-8.813 4.879-2.53 2.107-5.386 6.012-4.737 9.52.342 1.85 1.144 3.087.844 5.083-.283 1.893-1.158 3.729-2.397 5.179-2.579 3.015-6.276 4.8-9.444 7.189-3.169 2.39-6.024 5.949-5.607 9.894.703 6.633 9.93 10.044 10.16 16.709.106 3.079-1.823 5.824-2.624 8.797-1.519 5.642 1.288 11.793 5.733 15.581 4.445 3.791 10.249 5.586 15.991 6.653 17.342 3.228 35.735.516 51.406-7.582 4.922-2.544 9.73-5.75 12.65-10.457 2.92-4.71 3.512-11.211.175-15.635-1.987-2.637-5.23-4.477-6.126-7.654a5.705 5.705 0 01-.171-.778z"/><path opacity=".32" fill="#DC9BA2" d="M225.663 201.658c1.332 2.026.527 4.858-1.072 6.681-1.599 1.822-3.828 2.942-5.837 4.297-2.011 1.356-3.951 3.162-4.409 5.544-.667 3.464 1.99 6.734 2.139 10.259.226 5.295-4.952 9.04-7.354 13.764-2.717 5.342-1.635 12.124 1.857 16.994 3.492 4.87 9.063 7.962 14.875 9.421 5.813 1.46 11.895 1.424 17.874 1.024 6.927-.462 14.205-1.556 19.626-5.89 5.422-4.336 8.01-12.896 3.782-18.403-2.119-2.762-5.834-4.968-5.607-8.441.219-3.347 4.133-5.403 4.768-8.697.482-2.513-1.112-4.977-3.024-6.676-1.911-1.698-4.211-2.967-5.898-4.888-2.328-2.649-3.229-6.219-4.155-9.621-.926-3.403-2.058-6.957-4.672-9.323-2.614-2.367-7.178-2.934-9.483-.266"/><path fill="#DC9BA2" d="M224.572 305.177c6.093 4.644 10.562 5.777 15.982 5.517 6.792-.329 22.098.019 22.981-7.563-3.491-11.346-2.604-25.154-2.747-37.866-5.636 1.591-11.271 3.183-16.908 4.771-3.629 1.027-11.685 1.618-12.818 5.31-.638 2.079.114 5.456-.061 7.704a56.7 56.7 0 01-1.121 7.647c-.376 1.732-3.416 14.48-5.308 14.48z"/><path opacity=".32" fill="#DC9BA2" d="M247.399 283.041c3.033-.074 6.147-.432 8.827-1.858 2.677-1.428 4.852-4.113 4.939-7.148-9.12 1.312-18.241 2.62-27.362 3.932-5.994.858-1.757 3.137 1.636 3.978 3.847.952 8.01 1.188 11.96 1.096z"/><path fill="#DC9BA2" d="M256.304 389.744s4.209 12.387 11.886 67.387c1.325 1.911 3.145 5.207 2.374 7.757-.769 2.547-14.568.075-13.215-4.406 4.264-14.116-12.748-42.565-16.438-54.192l.609-13.956 14.784-2.59z"/><path fill="#5983B8" d="M257.09 455.61c4.599 1.141 6.155.927 10.89.331l8.224 5.922s9.43 6.354 8.66 8.9c-.771 2.547-26.065-4.034-26.065-4.034s-4.249-1.081-2.897-5.564c.819-2.709 1.632-3.213 1.188-5.555z"/><path fill="#DC9BA2" d="M256.481 386.182s-2.292 12.875-22.121 64.744c.236 2.317.239 6.081-1.666 7.943-1.903 1.86-12.793-6.969-9.445-10.238 10.549-10.305 9.385-43.432 11.768-55.396l7.27-11.926 14.194 4.873z"/><path fill="#5983B8" d="M225.374 444.241c3.476 3.221 4.942 3.781 9.376 5.549l4.342 9.152s5.191 10.116 3.287 11.978c-1.903 1.859-20.881-16.115-20.881-16.115s-3.199-2.999.148-6.27c2.029-1.98 2.984-2.025 3.728-4.294z"/><path fill="#5C3B66" d="M269.934 319.712s.318 2.948.292 9.89c-.042 11.143-3.221 24.543-4.655 29.381-2.325 7.855-24.435 77.963-24.435 77.963s-13.381-.292-14.254-6.11c-.872-5.816 18.91-104.433 18.91-104.433l24.142-6.691z"/><path opacity=".32" fill="#DC9BA2" d="M269.934 319.712s.318 2.948.292 9.89c-.042 11.143-3.221 24.543-4.655 29.381-2.325 7.855-24.435 77.963-24.435 77.963s-13.381-.292-14.254-6.11c-.872-5.816 18.91-104.433 18.91-104.433l24.142-6.691z"/><path fill="#DC9BA2" d="M237.267 235.437c13.784-3.035 26.335-10.769 35.132-21.444 8.416-10.211 12.587-22.162 14.681-34.94.216-1.313.413-2.66.138-3.968-.126-.604-2.674-9.646.731-5.616.513.61.803 1.397 1.426 1.901-.784-.633.016-7.955.103-9.176.033-.48.081-.981.361-1.375.28-.391.873-.614 1.287-.347.208.135.33.361.44.577.566 1.078 1.131 2.158 1.696 3.238.945-.373 2.079-.014 2.832.668.754.681 1.188 1.627 1.5 2.576 2.606 7.902-3.148 12.217-5.001 19.401-.75 2.909-2.169 5.499-2.575 8.476-3.823 28.093-24.173 46.938-50.868 56.689-.74.271-.795 2.091-.484 1.386"/><path fill="#C24A71" d="M250.042 228.892c7.013-1.227 13.067-5.611 17.53-10.964 4.464-5.354 7.526-11.661 10.479-17.93 3.309-7.025 6.553-14.139 8.384-21.668l7.516 3.221a111.505 111.505 0 01-5.593 25.885c-2.156 6.26-4.896 12.374-8.762 17.789-5.016 7.025-11.768 12.672-18.445 18.24-5.411 4.513-10.908 9.079-17.373 12.035"/><path fill="#C24A71" d="M232.972 280.359c11.738-1.622 23.479-3.241 35.218-4.865.038 0-.224-13.215-.202-14.157.085-3.641.526-6.394 1.292-9.818.575-2.561-.449-5.244-1.961-7.391-1.9-2.697-4.486-4.826-6.429-7.496-1.39-1.914-3.531-5.999-5.21-7.682-2.214-2.22-8.706 1.822-11.714.567.49-.673.979-2.064-.212-1.44-3.458 1.813-.82 1.707-4.146-.342-1.13-.696-2.297.462-4.901 1.074-2.934.69-13.564 2.92-15.016 5.362-3.486 5.869.768 12.813 1.387 19.261.809 8.432 2.081 19.735 2.89 28.17l9.004-1.243z"/><path fill="#DC9BA2" d="M234.546 216.398c.197 4.809-1.667 10.057 1.271 14.224 2.472 3.501 6.057 6.148 9.678 8.36.843.515 3.985 2.943 5.013 2.183 1.391-1.031-1.484-6.335-2.088-7.75-1.721-4.035-2.074-7.098-2.01-11.51.052-3.5.104-7.004.154-10.507l-12.018 5z"/><path opacity=".32" fill="#DC9BA2" d="M246.393 223.019l.171-11.621-12.018 5 .371 9.032c3.991.218 7.8-.801 11.476-2.411z"/><path fill="#DC9BA2" d="M256.437 212.577c-.518 2.466-1.831 4.795-3.334 6.623-1.54 1.874-3.271 2.365-5.383 2.893-6.696 1.669-15.869-.208-17.864-8.912-1.219.636-2.609-.554-2.96-2.025-.326-1.374.114-2.551.227-3.911.092-1.119.046-2.2.194-3.336.361-2.759.864-5.589 2.179-8.008 1.375-2.53 3.519-4.34 5.791-5.514 2.272-1.176 4.689-1.772 7.089-2.338 4.097-.964 10.159-2.08 12.817 2.756 1.542 2.802.438 7.921.831 11.205.415 3.457 1.159 7.016.413 10.567z"/><path fill="#DC9BA2" d="M224.006 202.432c-1.118.543-1.586 1.903-1.658 3.145-.214 3.672 2.371 7.32 5.906 8.336 1.063.306 2.387.314 3.072-.552.699-.885.365-2.179-.076-3.217-.857-2.009-4.197-9.198-7.244-7.712z"/><path fill="#5C3B66" d="M223.51 205.452c.002-.039.574-.016 1.38.393.803.396 1.781 1.236 2.477 2.419.691 1.183 1.009 2.386 1.183 3.245.17.865.208 1.408.16 1.416-.055.011-.186-.516-.418-1.354-.238-.833-.587-1.987-1.249-3.115-.662-1.126-1.551-1.943-2.282-2.379-.731-.447-1.267-.563-1.251-.625z"/><path fill="#5C3B66" d="M227.507 212.322c-.044.027-.237-.181-.505-.553-.264-.373-.611-.919-.823-1.612-.213-.693-.187-1.379-.039-1.834.146-.459.363-.674.399-.649.05.029-.074.283-.141.71-.07.425-.054 1.032.14 1.665.193.636.489 1.18.69 1.582.206.402.322.662.279.691z"/><path fill="#C1827A" d="M234.089 201.75c-.122-.07.02-.408.52-.822.493-.414 1.377-.873 2.494-1.109 1.118-.234 2.203-.189 2.924-.031.73.156 1.099.387 1.047.493-.117.236-1.759-.033-3.632.383-1.892.377-3.081 1.24-3.353 1.086z"/><path fill="#5C3B66" d="M240.174 213.603c.112-.033.348.256.818.638a6.101 6.101 0 002.161 1.128c.965.277 1.936.301 2.626.253.694-.045 1.136-.139 1.187-.059.048.066-.32.308-1.073.475-.739.167-1.887.217-3.035-.113-1.146-.332-1.942-.944-2.332-1.438-.401-.498-.449-.859-.352-.884zm9.112-13.373c-.004-.118.33-.27.9-.346a5.933 5.933 0 012.17.144c.801.208 1.414.54 1.763.885.351.351.338.669.188.72-.157.058-.393-.083-.788-.232a15.448 15.448 0 00-1.65-.526c-1.329-.351-2.567-.396-2.583-.645zm-2.047 3.143c-.253.88-.388 1.781-.459 2.684a19.264 19.264 0 00-.019 2.718l.056.677.02.177c.009.074.022.147.041.22.037.144.088.284.163.414.145.26.358.492.637.64.133.073.298.128.431.15a.334.334 0 01.143.039c.188.11.292.52.165.872-.112.375-.421.718-.706 1.074.409-.197.82-.435 1.118-.867.141-.225.228-.487.237-.772a1.176 1.176 0 00-.328-.854 1.062 1.062 0 00-.451-.259.66.66 0 01-.192-.091.776.776 0 01-.262-.336 1.182 1.182 0 01-.068-.214c-.005-.038-.01-.075-.013-.112l-.009-.157-.045-.662-.187-2.655c-.069-.888-.138-1.779-.272-2.686z"/><g fill="#5C3B66"><path d="M242.606 207.818c-.446-.517-.94-.883-1.487-1.072-.544-.188-1.124-.223-1.702-.168a6.06 6.06 0 00-1.71.439c-.552.229-1.08.53-1.553.94l-.063.054a.168.168 0 01-.224-.002 8.78 8.78 0 01-.678-.673c.313.084.611.189.905.303l-.287.052c.334-.624.872-1.134 1.485-1.495a4.577 4.577 0 012.045-.622c.721-.042 1.49.1 2.114.512.631.402 1.061 1.059 1.155 1.732z"/><path d="M236.227 207.478l-.38-.562.664.139a.274.274 0 01-.113.536.272.272 0 01-.171-.113z"/></g><g fill="#5C3B66"><path d="M249.289 207.896c.287-.565.646-.99 1.088-1.248.438-.258.939-.372 1.458-.397a5.037 5.037 0 011.584.195c.53.148 1.054.37 1.551.706l.065.045c.067.047.151.03.195-.033.161-.238.318-.485.458-.75a6.705 6.705 0 00-.731.42l.261.012a4.002 4.002 0 00-1.601-1.256 3.942 3.942 0 00-1.917-.327c-.642.058-1.285.3-1.75.787a2.41 2.41 0 00-.661 1.846z"/><path d="M254.81 206.693l.221-.6-.554.227c-.123.05-.178.205-.121.345.058.141.203.212.327.163a.234.234 0 00.127-.135z"/></g><path fill="#C1827A" d="M246.81 181.041c2.298 1.009 4.376 2.439 6.04 4.295 2.267 2.533 3.189 5.84 3.805 9.105.31 1.632.526 3.279.822 4.915.236 1.309 1.174 3.357.635 4.608-.312.724-1.021 1.353-1.87 1.372 1.129-1.033.483-3.154-1.072-3.521-1.839-.433-3.259-.508-5.178-.523-5.341-.043-10.616-2.658-13.631-6.758-.542 2.665-2.211 5.106-4.577 6.698-.565.38-1.201.748-1.476 1.343-.358.781.019 1.672.32 2.482 1.676 4.497.865 9.69-2.109 13.518 1.03-3.874.577-8.084-1.261-11.728-.516-1.021-1.237-2.079-2.397-2.434-1.158-.355-2.708.493-2.452 1.591-1.77-4.721-3.081-9.777-2.077-14.655 2.286-11.109 16.47-14.699 26.478-10.308z"/><path fill="#5C3B66" d="M226.009 301.676s-7.563 7.854-8.437 24.436c-1.088 20.658 34.326 111.707 34.326 111.707s11.928 2.036 13.963-1.454c2.036-3.492-16.873-107.636-16.873-107.636l20.945-8.438s-.873-11.343-6.398-17.16c-3.792 5.839-37.526-1.455-37.526-1.455z"/><path opacity=".32" fill="#DC9BA2" d="M255.028 267.996a57.76 57.76 0 0010.591-3.778c-.329 2.015-1.702 3.62-3.267 4.517-1.563.898-3.336 1.112-5.041 1.494-19.542 4.394-28.582 6.232-26.436-20.122.354-4.351 7.689 18.649 9.651 19.305 4.409 1.474 10.027-.301 14.502-1.416z"/><path fill="#5C3B66" d="M226.009 301.676l1.649-5.605s25.127 4.29 36.006 1.686c1.225-1.379-.129 5.375-.129 5.375s1.048 3.207-13.508 2.287c-14.555-.919-24.018-3.743-24.018-3.743z"/><path fill="#5C3B66" d="M235.472 299.288c4.137-7.353-.919-49.028-.919-49.028l29.471-4.911a2.883 2.883 0 013.349 3.059l-3.707 49.349-6.742 3.065c-.002-.001-17.909 2.51-21.452-1.534z"/><path fill="#5C3B66" d="M239.762 256.39c-1.073-7.202-16.24-24.823-16.24-24.823l4.291-1.224s16.854 16.394 17.465 26.966c.106 1.841-5.244.903-5.516-.919zm22.523-5.67c-1.686-10.111-14.862-22.369-14.862-22.369l3.83-.152s15.169 13.789 15.781 24.36c.107 1.84-4.446-.019-4.749-1.839z"/><path fill="#FFF" d="M243.745 258.074s-.918 9.04 1.992 10.264c2.91 1.226 9.5 2.299 9.5 2.299l5.056-3.217.153-11.951-16.701 2.605z"/><circle fill="#FFF" cx="240.911" cy="252.174" r="1.455"/><circle fill="#FFF" cx="263.05" cy="248.42" r="1.455"/></g><g><linearGradient id="k" gradientUnits="userSpaceOnUse" x1="464.466" y1="365.178" x2="493.519" y2="365.178" gradientTransform="matrix(1 0 0 -1 -.02 599.095)"><stop offset=".201" stop-color="#f9d184"/><stop offset=".917" stop-color="#f4cd72"/></linearGradient><path fill="url(#k)" d="M470.26 228.85c-2.259 3.48-4.489 7.091-5.405 11.138-1.991 8.821 3.489 18.698 12.026 21.679-2.561-2.881-3.008-7.185-2.015-10.907.994-3.725 3.23-6.982 5.577-10.038 2.343-3.056 10.87-5.512 12.563-8.975 2.112-4.318-3.226-9.824-3.989-14.563-.527-3.273-2.528-11.033-6.888-11.018-4.65.017-4.899 6.448-5.462 9.553-.884 4.872-3.754 9.059-6.407 13.131z"/><path opacity=".32" fill="#DC9BA2" d="M478.241 226.701c-2.266 3.479-4.491 7.09-5.407 11.14-1.989 8.817 3.488 18.697 12.025 21.676-2.557-2.88-3.007-7.185-2.014-10.906.994-3.725 3.229-6.98 5.575-10.036 2.345-3.058 10.872-5.514 12.563-8.974 2.112-4.32-3.226-9.826-3.988-14.564-.528-3.274-2.527-11.033-6.891-11.019-4.648.017-4.895 6.448-5.459 9.554-.881 4.871-3.755 9.059-6.404 13.129z"/><path fill="#DC9BA2" d="M489.325 240.266c-12.266-6.192-20.65-18.5-26.368-30.69-5.469-11.66-6.514-23.937-5.401-36.492.112-1.291.251-2.608.826-3.774.269-.539 4.852-8.45.666-5.473-.63.451-1.093 1.125-1.805 1.449.896-.408 1.907-7.504 2.121-8.678.085-.458.163-.945-.01-1.382-.169-.438-.673-.792-1.127-.639-.229.077-.397.259-.56.437-.791.881-1.586 1.763-2.38 2.644-.8-.578-1.956-.515-2.829-.054-.876.459-1.513 1.248-2.037 2.068-4.366 6.821.019 12.279.03 19.501.004 2.926-.635 5.809-.973 8.715-3.18 27.412 11.147 51.638 33.962 67.281.632.436 1.909.522 1.787-.216m-23.59 76.005s15.435 60.667 34.733 111.158c-.229 2.253-.229 5.919 1.622 7.727 1.854 1.812 12.454-6.779 9.195-9.966-10.267-10.028-9.821-50.979-12.141-62.625l-7.93-56.914-25.479 10.62z"/><path opacity=".32" fill="#DC9BA2" d="M463.334 337.762s13.736 53.873 33.036 104.364c-.229 2.253-.229 5.919 1.622 7.727 1.854 1.812 12.454-6.779 9.195-9.966-10.267-10.028-9.821-50.979-12.141-62.625l-4.955-39.924-26.757.424z"/><path fill="#5C3B66" d="M505.12 435.612c-3.386 3.136-4.813 3.683-9.128 5.402l-4.226 8.911s-5.053 9.846-3.2 11.658c1.854 1.81 20.325-15.685 20.325-15.685s3.114-2.923-.146-6.107c-1.97-1.923-2.903-1.968-3.625-4.179z"/><path fill="#DC9BA2" d="M474.447 384.553s-4.099 12.055-11.568 65.587c-1.29 1.862-3.061 5.073-2.313 7.554.749 2.479 12.923.266 12.863-4.29-.187-14.13 13.212-46.134 16.806-57.453l-1.398-8.88-14.39-2.518z"/><path fill="#5C3B66" d="M473.682 448.663c-4.478 1.113-5.992.903-10.604.324l-8.002 5.763s-9.178 6.183-8.429 8.664c.749 2.479 25.371-3.925 25.371-3.925s4.136-1.056 2.817-5.416c-.794-2.641-1.585-3.127-1.153-5.41z"/><path fill="#DC9BA2" d="M503.936 298.828s7.361 7.646 8.21 23.788c1.059 20.104-36.353 110.146-36.353 110.146s-9.911 19.538-11.896 16.142c-1.979-3.399 17.667-123.742 17.667-123.742l-20.388-8.209s.851-11.044 6.23-16.705c3.693 5.68 36.53-1.42 36.53-1.42z"/><path fill="#5983B8" d="M507.043 293.834c-1.263-2.505-2.336-5.07-2.758-7.857-.613-4.055.447-8.223 2.262-11.902 2.18-4.422 5.466-7.941 7.058-12.651 2.175-6.443 3.675-9.495 3.106-16.094-.256-3.019-3.056-5.195-5.751-7.365-4.753-3.82-9.966-.545-15.423-2.991-4.302 1.358-10.815-2.072-14.039 0-.688 6.213-5.167 9.455-6.913 13.184-.63 1.34-1.857 3.073-2.524 4.309-1.476 2.75-2.389 5.173-2.657 8.286-.377 4.324 1.938 8.763 5.685 10.949.403 6.301-1.238 12.729-4.678 18.03 0 0-8.937 12.219-8.937 31.093s.691 99.2.691 99.2 31.071 8.055 42.12-3.452c1.813-4.843 1.676-11.183 2.274-16.255 2.341-19.772 4.374-39.592 6.19-59.418.679-7.409 1.398-14.83 1.777-22.262.233-4.563-.749-8.412-1.904-12.787-1.122-4.273-3.587-8.069-5.579-12.017z"/><path opacity=".32" fill="#DC9BA2" d="M504.108 348.38c3.432-2.274 3.885-4.224 3.51-8.323-2.157 2.063-5.257 2.733-8.186 3.319-4.412.884-8.837 1.71-13.24 2.649-2.969.627-10.615-.24-8.416 2.779 3.884 5.335 21.714 2.564 26.332-.424z"/><path fill="#DC9BA2" d="M509.306 261.292c1.888 1.818 9.556 12.421 11.321 15.569 0 0 10.563-5.095 9.436-6.904-2.372-3.816-4.244-7.614-6.213-12.659-1.26-3.227-8.905-20.068-13.096-17.989-1.031.511-1.785 1.445-2.413 2.406a18.74 18.74 0 00-2.23 4.758c-.988 3.206-1.434 5.021-.673 8.293.612 2.642 2.149 4.876 3.868 6.526z"/><linearGradient id="l" gradientUnits="userSpaceOnUse" x1="479.019" y1="388.756" x2="511.727" y2="388.756" gradientTransform="matrix(1 0 0 -1 -.02 599.095)"><stop offset=".201" stop-color="#f9d184"/><stop offset=".917" stop-color="#f4cd72"/></linearGradient><path fill="url(#l)" d="M511.156 215.338c1.812-7.299-.953-15.531-6.799-20.261s-14.475-5.714-21.232-2.421c-2.549 1.241-5.101 4.092-3.754 6.583 1.031 1.911 3.604 2.146 5.642 2.901 3.935 1.46 6.358 5.329 8.49 8.944 1.524 2.587 3.081 5.261 3.507 8.233.518 3.618-.833 6.933-3.064 9.696 6.801 4.493 15.871-8.274 17.21-13.675z"/><path fill="#DC9BA2" d="M494.363 222.828l2.576 5.288c.066.134 2.509 4.199 2.917 3.433a47.313 47.313 0 01-6.873 9.726c-.611.667-1.269 1.335-2.102 1.689s-1.896.322-2.547-.308c-.787-.761-.703-2.023-.565-3.109.257-2.002.845-3.973.158-5.852-.462-1.262-1.181-2.495-1.771-3.703-.514-1.052-2.395-6.074-3.973-5.941l12.18-1.223z"/><path opacity=".32" fill="#DC9BA2" d="M488.074 233.568l-5.066-9.557 11.531-1.193 3.547 7.651c-3.033 1.957-6.446 2.802-10.012 3.099z"/><path fill="#DC9BA2" d="M474.331 221.129c.417 2.333 1.587 4.56 2.949 6.321 1.398 1.802 3.013 2.313 4.981 2.866 6.249 1.754 14.922.244 17.04-7.885 1.128.632 2.47-.449 2.839-1.822.345-1.283-.037-2.4-.105-3.685-.054-1.054.018-2.067-.089-3.139-.267-2.604-.657-5.278-1.827-7.588-1.223-2.417-3.188-4.177-5.292-5.345-2.104-1.167-4.357-1.796-6.599-2.394-3.826-1.02-9.495-2.233-12.13 2.237-1.525 2.592-.627 7.435-1.09 10.51-.484 3.243-1.279 6.567-.677 9.924z"/><path fill="#DC9BA2" d="M505.097 212.488c1.037.543 1.439 1.834 1.474 3.004.1 3.458-2.433 6.815-5.782 7.674-1.008.258-2.253.229-2.875-.605-.631-.851-.278-2.058.162-3.021.86-1.866 4.198-8.531 7.021-7.052z"/><path fill="#5C3B66" d="M505.481 215.341c0-.037-.54-.029-1.308.333-.769.351-1.709 1.112-2.395 2.206-.686 1.093-1.015 2.215-1.203 3.017-.184.81-.232 1.318-.188 1.327.05.012.187-.48.428-1.26.247-.778.607-1.852 1.26-2.896.655-1.041 1.513-1.785 2.211-2.173.7-.398 1.208-.494 1.195-.554z"/><path fill="#5C3B66" d="M501.534 221.69c.04.026.229-.164.489-.506.257-.342.602-.847.819-1.492.219-.646.215-1.292.088-1.723-.125-.437-.323-.645-.358-.622-.05.026.062.267.111.671.057.4.023.971-.175 1.562-.202.592-.492 1.095-.694 1.468-.204.372-.32.615-.28.642zm-5.897-10.121c.117-.062-.008-.383-.467-.788-.451-.402-1.27-.858-2.313-1.112-1.045-.25-2.063-.238-2.747-.109-.689.127-1.043.333-.998.435.103.226 1.652.02 3.404.461 1.766.406 2.862 1.251 3.121 1.113zm-14.243-1.848c.008-.11-.304-.263-.839-.351a5.566 5.566 0 00-2.043.075c-.758.174-1.345.469-1.683.784-.338.321-.336.619-.193.671.146.059.372-.067.749-.197.374-.131.938-.307 1.563-.448 1.259-.292 2.424-.3 2.446-.534zm1.837 3.011c.216.835.317 1.686.356 2.536.043.851.026 1.706-.057 2.554l-.071.636-.022.166c-.009.069-.028.138-.042.206a1.772 1.772 0 01-.167.384 1.518 1.518 0 01-.617.584 1.347 1.347 0 01-.409.129.295.295 0 00-.132.032c-.182.099-.29.481-.18.815.095.355.375.688.631 1.031-.378-.198-.76-.432-1.023-.847a1.462 1.462 0 01-.204-.733c0-.269.1-.563.332-.793a.987.987 0 01.434-.231.607.607 0 00.183-.082.723.723 0 00.255-.308.941.941 0 00.07-.199c.008-.034.012-.07.016-.103l.015-.149.059-.622.249-2.49c.083-.832.174-1.667.324-2.516z"/><g fill="#5C3B66"><path d="M487.463 217.039c.435-.473.908-.804 1.429-.966.516-.162 1.063-.179 1.604-.111a5.75 5.75 0 011.595.459c.511.23 1.001.529 1.435.927l.057.053a.16.16 0 00.213.004c.224-.192.443-.394.65-.615a8.494 8.494 0 00-.856.261l.267.056c-.294-.595-.786-1.09-1.351-1.446a4.35 4.35 0 00-1.909-.641c-.674-.06-1.401.052-1.999.422-.606.362-1.027.967-1.135 1.597z"/><path d="M493.471 216.895l.374-.518-.631.114a.254.254 0 00-.206.299c.022.14.156.233.298.208a.261.261 0 00.165-.103z"/></g><g fill="#5C3B66"><path d="M481.18 216.928c-.257-.541-.582-.949-.989-1.205-.408-.254-.873-.375-1.36-.414a4.8 4.8 0 00-1.492.14 4.973 4.973 0 00-1.479.622l-.063.04a.133.133 0 01-.185-.036 7.22 7.22 0 01-.407-.718c.238.125.459.267.677.415l-.247.004c.406-.518.958-.9 1.54-1.136a3.692 3.692 0 011.812-.255c.603.072 1.201.318 1.623.789.425.462.635 1.126.57 1.754z"/><path d="M476.023 215.644l-.19-.569.513.228c.117.051.165.198.104.328-.059.131-.196.195-.313.145a.216.216 0 01-.114-.132z"/></g><path fill="#5C3B66" d="M480.158 223.681l9.004-1.367s1.191 3.473-2.378 4.535c-4.906 1.459-6.626-3.168-6.626-3.168z"/><path fill="#C24A71" d="M485.539 224.937c1.131-.696 2.429-.924 3.709-.57.013.002.021.003.029.007-.195.95-.818 1.979-2.493 2.475-1.142.339-2.106.347-2.921.163.368-.824.832-1.551 1.676-2.075z"/><linearGradient id="m" gradientUnits="userSpaceOnUse" x1="450.658" y1="456.664" x2="483.741" y2="456.664" gradientTransform="scale(1 -1) rotate(11.232 3834.751 238.257)"><stop offset=".201" stop-color="#f9d184"/><stop offset=".917" stop-color="#f4cd72"/></linearGradient><path fill="url(#m)" d="M487.183 206.424c-7.543 1.74-17.185 2.273-14.276-5.712 3.524-9.671 14.413-14.118 23.256-8.742 3.616 2.198 5.891 5.245 7.595 9.042 1.3 2.888 3.903 5.008 2.744 8.221-.28.773-5.649 7.381-6.235 6.222-1.911-3.78-3.825-7.559-5.734-11.338-1.333.613-4.151 1.57-7.35 2.307z"/><linearGradient id="n" gradientUnits="userSpaceOnUse" x1="481.447" y1="373.016" x2="514.887" y2="373.016" gradientTransform="matrix(1 0 0 -1 -.02 599.095)"><stop offset=".201" stop-color="#f9d184"/><stop offset=".917" stop-color="#f4cd72"/></linearGradient><path fill="url(#n)" d="M494.688 203.77c2.748 5.066 2.339 11.198.568 16.638-1.773 5.441-4.792 10.431-7.205 15.646-2.417 5.217-4.258 10.901-3.465 16.542.791 5.642 4.793 11.186 10.659 12.529-.288-.586-.569-1.174-.854-1.759 1.506.321 3.011.646 4.517.968-.179-7.95 3.328-15.529 7.033-22.672 6.114-11.789 10.865-23.053 8.137-36.439-.999-4.899-3.254-9.668-7.026-13.163-3.777-3.496-9.181-5.578-14.421-4.9-5.242.678-10.08 4.393-11.203 9.268"/><linearGradient id="o" gradientUnits="userSpaceOnUse" x1="484.329" y1="411.063" x2="508.458" y2="411.063" gradientTransform="matrix(1 0 0 -1 -.02 599.095)"><stop offset=".201" stop-color="#f9d184"/><stop offset=".917" stop-color="#f4cd72"/></linearGradient><path fill="url(#o)" d="M487.868 190.536c-2.615-.319-4.12-3.543-3.363-6.066.755-2.522 3.104-4.271 5.563-5.214a15.832 15.832 0 015.939-1.045c3.227.058 6.477 1.163 8.867 3.33s3.832 5.43 3.522 8.641-2.489 6.243-5.54 7.294c-3.052 1.05-6.8-.127-8.478-2.882"/></g><path fill="#FFF" d="M266.247 315.773c-5.711 34.649-2.059 70.904 10.436 103.588 76.485-1.685 152.971-3.362 229.457-5.043 32.889-.723 65.776-1.443 98.666-2.168 16.442-.36 32.894-.623 49.333-1.084 8.666-.241 7.865-3.158 4.456-10.172-3.396-6.982-6.661-14.016-8.804-21.502-2.898-10.113-3.741-21.084-.505-31.093 2.478-7.653 7.196-14.388 10.13-21.878 4.282-10.924 4.554-23.365.755-34.468-2.329-6.811-6.184-13.087-11.142-18.304-6.555-6.899-10.175-7.85-19.348-7.656-19.171.406-38.338.813-57.511 1.222-38.343.813-76.682 1.625-115.022 2.44-19.553.416-39.105.832-58.661 1.246-29.724.632-59.621 1.25-89.177-2.721-7.399-.992-14.766-2.268-22.058-3.909-8.526-1.919-12.391-5.828-13.286 4.276-1.422 16.031-5.11 31.391-7.719 47.226z"/><g><path fill="#DC9BA2" d="M268.52 289.195c-1.492 1.732-2.213 3.817-.42 5.604 1.73 1.726 5.593.501 7.526-.079 2.545-.762 5.089-1.526 7.634-2.292 1.634-.488 3.618-1.446 3.515-3.148-.063-1.036-.933-1.828-1.803-2.394-3.446-2.233-7.979-2.523-11.781-1.061-1.32.509-3.313 1.795-4.671 3.37z"/><path fill="#C24A71" d="M224.178 233.819l14.958 46.16 31.024 6.996s-.3 8.616-2.548 9.476c-2.249.86-41.486-4.931-42.975-7.241-1.091-1.692-7.002-24.684-10.089-36.873-1.169-4.613 1.592-12.917 5.024-16.212l4.606-2.306z"/></g><g fill="#DC9BA2"><path d="M381.207 267.311c-1.725.063-3.38.503-4.549 1.907-1.931 2.318-.057 5.641 1.467 7.25 1.036 1.096 2.276 2.543 3.595 3.305 1.646.951 3.736 1.521 5.505 2.294 1.009.395 1.944-1.628 2.037-2.314.148-1.125-.165-2.359-.514-3.419-.604-1.84-1.763-4.359-3.613-5.264.325-.096 4.214-.029 4.497-.184 0 0-2.576-2.129-3.278-2.462-1.739-.822-3.238-1.18-5.147-1.113zm69.482-1.504c1.726-.014 3.398.358 4.627 1.707 2.028 2.234.3 5.635-1.149 7.308-.988 1.14-2.166 2.64-3.448 3.458-1.605 1.02-3.669 1.683-5.403 2.531-.99.437-2.013-1.542-2.134-2.225-.198-1.117.063-2.363.364-3.437.522-1.865 1.572-4.433 3.383-5.416-.329-.082-4.211.154-4.5.008 0 0 2.48-2.235 3.169-2.599 1.7-.898 3.182-1.319 5.091-1.335z"/></g><path fill="#DC9BA2" d="M537.742 263.899c1.729-.037 3.401.307 4.652 1.643 2.06 2.202.384 5.628-1.043 7.32-.971 1.154-2.126 2.672-3.397 3.508-1.59 1.045-3.642 1.736-5.362 2.609-.983.454-2.036-1.511-2.168-2.192-.215-1.114.028-2.364.313-3.441.496-1.873 1.506-4.457 3.303-5.465-.328-.078-4.21.215-4.499.075 0 0 2.449-2.274 3.132-2.648 1.685-.922 3.159-1.364 5.069-1.409zm83.837-3.002c2.399-.033 4.724.466 6.441 2.333 2.839 3.081.467 7.817-1.532 10.151-1.362 1.591-2.982 3.685-4.756 4.831-2.221 1.434-5.077 2.367-7.479 3.563-1.368.618-2.808-2.125-2.983-3.071-.284-1.55.065-3.282.479-4.773.705-2.596 2.141-6.167 4.644-7.55-.456-.11-5.845.251-6.245.053 0 0 3.425-3.13 4.374-3.64 2.353-1.259 4.409-1.858 7.057-1.897z"/><g><path fill="#DC9BA2" d="M638.766 319.752v-.089c.021-6.606 6.827-14.81 13.843-11.904 1.895.782 3.442 1.915 4.502 3.688 1.572 2.619.601 3.228-1.637 5.085-3.517 2.917-16.618 14.488-16.708 3.22z"/><path fill="#C24A71" d="M684.933 246.598l1.365 37.94-35.832 22.312s4.239 7.737 7.464 7.707c3.223-.029 47.756-19.009 48.479-22.619.729-3.609-5.205-58.348-5.205-58.348l-16.271 13.008z"/></g><path opacity=".49" fill="#E6E6E5" d="M295.946 393.934c.253 2.594 3.389 3.969 6.021 4.545 17.243 3.778 36.416 3.179 54.015 2.937 57.327-.787 114.651-1.575 171.979-2.366 26.964-.369 54.079-2.619 81.147-4.621 8.139-.603 17.805-2.216 21.153-9.66-9.183-7.303-13.357-20.336-10.133-31.617 1.345-4.701 3.468-10.707-.392-13.711-3.242-2.528-8.409-.051-9.963 3.758-1.553 3.808-.535 8.144.798 12.035 1.335 3.89 2.989 7.848 2.657 11.944-.527 6.521-6.146 11.729-12.343 13.827-6.198 2.098-12.929 1.719-19.458 1.316-42.531-2.627-85.085-2.461-127.706-2.881-7.073-.067-14.772.719-21.773-.272-6.357-.901-11.947-2.585-18.523-2.308-13.543.567-26.57 5.058-39.564 8.5-12.781 3.385-26.159 5.765-39.416 4.475-12.699-1.232-22.727-4.963-35.452-.092-1.636.624-3.071 2.119-3.063 3.867 0 .111.005.217.016.324z"/><g><text transform="translate(290.274 320.778)"><tspan x="0" y="0" fill="#5C3B66" font-size="26.37">   </tspan> <tspan x="0" y="50" fill="#5C3B66" font-size="24"> </tspan></text></g></svg>