<svg xmlns="http://www.w3.org/2000/svg" width="141.732" height="141.732" viewBox="226.774 350.079 141.732 141.732"><path fill="#7D7D7D" stroke="#FFF" stroke-miterlimit="10" d="M316.598 459.479h-75.753a1.088 1.088 0 01-1.089-1.09v-45.601c0-.603.487-1.089 1.089-1.089h75.753c.603 0 1.09.487 1.09 1.089v45.601a1.09 1.09 0 01-1.09 1.09zm-74.663-2.185h73.568v-43.416h-73.568v43.416z"/><path fill="#7D7D7D" stroke="#FFF" stroke-miterlimit="10" d="M278.719 440.265a4.666 4.666 0 01-2.725-.881l-35.789-25.715a1.094 1.094 0 01-.251-1.524 1.094 1.094 0 011.524-.251l35.79 25.716a2.479 2.479 0 002.897 0l35.789-25.716a1.09 1.09 0 011.523.251 1.09 1.09 0 01-.251 1.524l-35.789 25.715a4.584 4.584 0 01-2.718.881z"/><path fill="#7D7D7D" stroke="#FFF" stroke-miterlimit="10" d="M261.689 442.474a1.091 1.091 0 01-.545-2.037l10.398-6.034a1.09 1.09 0 011.493.398 1.089 1.089 0 01-.398 1.492l-10.398 6.035a1.12 1.12 0 01-.55.146zM294.01 442.474c-.21 0-.419-.057-.603-.183l-8.931-5.95a1.091 1.091 0 111.21-1.818l8.932 5.95a1.091 1.091 0 01-.608 2.001z"/><path fill="#FFF" d="M354.425 459.479h-51.661c-.603 0-1.09-.487-1.09-1.09V383.5c0-.602.487-1.089 1.09-1.089h51.661c.603 0 1.09.487 1.09 1.089v74.884a1.087 1.087 0 01-1.09 1.095z"/><g fill="#7D7D7D" stroke="#FFF" stroke-miterlimit="10"><path d="M354.425 459.479h-51.661c-.603 0-1.09-.487-1.09-1.09V383.5c0-.602.487-1.089 1.09-1.089h51.661c.603 0 1.09.487 1.09 1.089v74.884a1.087 1.087 0 01-1.09 1.095zm-50.566-2.185h49.477v-72.699h-49.477v72.699z"/><path d="M336.63 400.678c-.341 0-.671-.157-.886-.451a1.096 1.096 0 01.246-1.524l14.438-10.43 3.06-5.312a1.095 1.095 0 011.493-.403c.523.299.701.969.403 1.493l-3.175 5.516a1.075 1.075 0 01-.31.34l-14.625 10.566a1.145 1.145 0 01-.644.205zM325.441 404.02c-.215 0-.435-.063-.629-.199l-19.785-13.908c-.142-.1-.257-.23-.341-.388l-2.892-5.516a1.092 1.092 0 011.934-1.011l2.771 5.285 19.571 13.756c.492.346.613 1.027.267 1.519a1.103 1.103 0 01-.896.462zM306.467 455.556a1.07 1.07 0 01-.649-.215 1.096 1.096 0 01-.226-1.53l1.965-2.646c.204-.277.529-.44.875-.44h39.969c.283 0 .556.11.76.31l2.734 2.646a1.092 1.092 0 11-1.519 1.571l-2.415-2.336h-38.979l-1.64 2.205c-.215.282-.54.435-.875.435z"/><path d="M328.594 405.271a4.7 4.7 0 01-4.693-4.693 4.7 4.7 0 014.693-4.694 4.699 4.699 0 014.693 4.694 4.698 4.698 0 01-4.693 4.693zm0-7.208c-1.383 0-2.509 1.126-2.509 2.509s1.126 2.509 2.509 2.509a2.51 2.51 0 100-5.018zM328.594 428.321a4.7 4.7 0 01-4.693-4.693 4.7 4.7 0 014.693-4.694 4.699 4.699 0 014.693 4.694c.006 2.586-2.105 4.693-4.693 4.693zm0-7.208a2.512 2.512 0 000 5.024 2.514 2.514 0 002.51-2.515 2.51 2.51 0 00-2.51-2.509z"/><path d="M331.879 423.239c-.461 0-.891-.292-1.037-.754l-6.438-19.827a1.094 1.094 0 012.079-.676l6.438 19.828a1.094 1.094 0 01-.702 1.378 1.34 1.34 0 01-.34.051z"/><path d="M325.283 423.239a.968.968 0 01-.34-.057 1.094 1.094 0 01-.697-1.378l6.758-20.472a1.094 1.094 0 011.377-.697c.571.188.886.807.697 1.377l-6.758 20.472c-.152.463-.58.755-1.037.755z"/></g></svg>