<?xml version="1.0" encoding="utf-8"?>
<!-- Generator: Adobe Illustrator 16.0.0, SVG Export Plug-In . SVG Version: 6.00 Build 0)  -->
<!DOCTYPE svg PUBLIC "-//W3C//DTD SVG 1.1//EN" "http://www.w3.org/Graphics/SVG/1.1/DTD/svg11.dtd">
<svg version="1.1" id="레이어_1" xmlns="http://www.w3.org/2000/svg" xmlns:xlink="http://www.w3.org/1999/xlink" x="0px"
	 y="0px" width="141.732px" height="141.732px" viewBox="223.774 355.579 141.732 141.732"
	 enable-background="new 223.774 355.579 141.732 141.732" xml:space="preserve">
<path fill="none" d="M207.115,311.417h176.021v220.027H207.115V311.417z"/>
<path fill="#7D7D7D" d="M311.927,397.261v34.245h-32.406v34.153h-32.38V471h32.38v0.079h5.339v-34.232h32.091l0.296-0.012
	l0.02-34.233h32.387v-5.34H311.927z"/>
<path fill="#7D7D7D" d="M290.109,421.077l5.537-23.625l-23.041-1.261l4.23,5.589l0.078,0.105l7.311,0.643l-27.868,21.208
	l-0.23,0.178l3.409,4.532l28.079-21.373l-1.8,8.309L290.109,421.077z M259.403,398.496l-0.079-0.112l-7.311-0.611l27.809-21.293
	l0.23-0.177l-3.429-4.519l-28.012,21.451l1.747-8.184l0.026-0.132l-4.315-5.688l-5.471,23.645l23.047,1.203L259.403,398.496z"/>
</svg>
