<svg xmlns="http://www.w3.org/2000/svg" width="141.732" height="141.732" viewBox="226.774 350.079 141.732 141.732"><path fill="#7D7D7D" d="M267.19 438.67h46.688v1.281H267.19zM267.19 442.612h46.688v1.285H267.19zM267.19 446.552h46.688v1.28H267.19zM267.19 450.493h46.688v1.281H267.19zM324.732 439.045l1.119-.586.873.918 1.248-.191.523 1.151 1.246.228.12 1.261 1.103.616-.291 1.229.842.939-.676 1.073.494 1.161-.99.794.088 1.261-1.193.425-.327 1.223-1.265.016-.705 1.053-1.203-.395-1.006.762-1.012-.762-1.197.395-.711-1.053-1.266-.016-.326-1.223-1.188-.425.088-1.261-.99-.794.494-1.161-.679-1.073.845-.939-.297-1.229 1.106-.616.123-1.261 1.246-.228.523-1.151 1.249.191.873-.918z"/><path fill="#FFF" d="M321.279 443.319c0-.229.041-.436.119-.617.083-.182.191-.337.332-.461.14-.125.306-.224.497-.291a1.85 1.85 0 01.617-.104c.224 0 .431.036.623.104.191.067.357.166.503.291.14.124.254.279.331.461.084.182.119.389.119.617 0 .233-.041.441-.119.622a1.355 1.355 0 01-.331.462 1.432 1.432 0 01-.503.285 1.901 1.901 0 01-.623.098c-.218 0-.425-.031-.617-.098a1.493 1.493 0 01-.497-.285 1.357 1.357 0 01-.332-.462 1.479 1.479 0 01-.119-.622zm5.247-1.375h.763l-4.434 6.586h-.768l4.439-6.586zm-4.403 1.375c0 .124.016.238.053.337a.668.668 0 00.378.415.769.769 0 00.29.057c.219 0 .395-.072.529-.218s.202-.343.202-.597-.067-.451-.202-.591-.311-.212-.529-.212a.769.769 0 00-.29.057.65.65 0 00-.378.409 1.02 1.02 0 00-.053.343zm2.925 3.806c0-.228.041-.435.119-.617.083-.181.192-.337.327-.462.14-.124.301-.223.492-.289a1.79 1.79 0 01.612-.104c.228 0 .435.036.627.104.191.066.357.165.503.289.141.125.254.281.332.462.083.183.119.39.119.617 0 .233-.041.44-.119.622a1.348 1.348 0 01-.332.462c-.14.124-.312.224-.503.29a1.857 1.857 0 01-.627.099c-.219 0-.426-.03-.612-.099a1.382 1.382 0 01-.492-.29c-.141-.124-.249-.28-.327-.462s-.119-.389-.119-.622zm.835 0c0 .124.016.239.052.337a.813.813 0 00.146.26c.062.072.14.125.223.16a.733.733 0 00.291.057.69.69 0 00.533-.217c.13-.146.197-.342.197-.597 0-.254-.067-.45-.197-.591a.703.703 0 00-.533-.213.751.751 0 00-.291.057.639.639 0 00-.369.41 1.12 1.12 0 00-.052.337z"/><g fill="#7D7D7D"><path d="M274.492 469.895c0 .456-.088.827-.264 1.116s-.405.517-.689.68a2.939 2.939 0 01-.935.341c-.34.063-.67.094-.988.094-.317 0-.646-.031-.986-.094a2.935 2.935 0 01-.937-.341 2 2 0 01-.698-.68c-.181-.289-.271-.66-.271-1.116v-9.51c0-.442.094-.809.281-1.098.187-.289.419-.517.698-.68.277-.164.587-.277.927-.341.34-.063.663-.094.97-.094.306 0 .63.031.97.094.34.062.653.177.936.341.283.163.52.388.706.671.187.284.282.653.282 1.106l-.002 9.511zm-1.275-9.595c0-.306-.051-.554-.153-.74a1.196 1.196 0 00-.384-.435 1.335 1.335 0 00-.527-.204 3.092 3.092 0 00-1.106 0c-.188.035-.358.103-.511.204s-.281.247-.382.435c-.102.187-.154.433-.154.74v9.698c0 .306.052.55.154.732a1.22 1.22 0 00.901.628c.193.035.375.052.544.052.181 0 .369-.017.562-.052.193-.033.368-.103.527-.204s.287-.244.383-.424c.097-.183.146-.427.146-.732V460.3zM281.809 469.895c0 .456-.089.827-.264 1.116s-.406.517-.688.68a2.933 2.933 0 01-.937.341c-.34.063-.669.094-.986.094s-.646-.031-.987-.094a2.912 2.912 0 01-.936-.341 1.988 1.988 0 01-.697-.68c-.182-.289-.271-.66-.271-1.116v-9.51c0-.442.093-.809.28-1.098.188-.289.419-.517.698-.68.277-.164.586-.277.926-.341.341-.063.665-.094.971-.094s.629.031.97.094c.34.063.651.177.935.341.284.163.52.388.706.671.187.284.281.653.281 1.106v9.511h-.001zm-1.277-9.595c0-.306-.051-.554-.153-.74a1.184 1.184 0 00-.383-.435 1.335 1.335 0 00-.527-.204 3.099 3.099 0 00-1.106 0c-.187.035-.358.103-.511.204s-.281.247-.382.435c-.102.187-.153.433-.153.74v9.698c0 .306.051.55.153.732.102.18.23.322.382.424.153.102.326.171.52.204.192.035.374.052.544.052.181 0 .369-.017.562-.052.192-.033.368-.103.527-.204s.287-.244.384-.424c.096-.183.145-.427.145-.732V460.3h-.002zM289.124 469.895c0 .456-.088.827-.263 1.116a1.926 1.926 0 01-.689.68 2.942 2.942 0 01-.937.341c-.339.063-.669.094-.986.094s-.646-.031-.987-.094a2.93 2.93 0 01-.936-.341 1.972 1.972 0 01-.697-.68c-.182-.289-.272-.66-.272-1.116v-9.51c0-.442.094-.809.281-1.098s.419-.517.697-.68c.278-.164.587-.277.927-.341.34-.063.664-.094.97-.094.306 0 .629.031.969.094.341.063.652.177.936.341.284.163.519.388.707.671.187.284.281.653.281 1.106v9.511h-.001zm-1.276-9.595c0-.306-.051-.554-.153-.74a1.202 1.202 0 00-.383-.435 1.34 1.34 0 00-.528-.204 3.092 3.092 0 00-1.106 0c-.187.035-.356.103-.51.204s-.281.247-.383.435c-.102.187-.153.433-.153.74v9.698c0 .306.051.55.153.732a1.223 1.223 0 00.902.628c.192.035.374.052.544.052.181 0 .368-.017.561-.052.192-.033.369-.103.527-.204s.286-.244.382-.424c.096-.183.145-.427.145-.732l.002-9.698zM291.115 464.623h5.733v.715h-5.733v-.715zM304.607 469.895c0 .456-.088.827-.263 1.116a1.942 1.942 0 01-.689.68 2.942 2.942 0 01-.937.341c-.34.063-.669.094-.985.094-.318 0-.647-.031-.987-.094a2.91 2.91 0 01-.937-.341 1.996 1.996 0 01-.697-.68c-.181-.289-.273-.66-.273-1.116v-9.51c0-.442.095-.809.282-1.098a2.09 2.09 0 01.696-.68 2.84 2.84 0 01.928-.341c.34-.063.664-.094.97-.094.307 0 .631.031.97.094.341.063.652.177.936.341.283.163.52.388.706.671.188.284.28.653.28 1.106v9.511zm-1.276-9.595c0-.306-.051-.554-.154-.74a1.191 1.191 0 00-.382-.435 1.334 1.334 0 00-.528-.204 3.074 3.074 0 00-1.105 0 1.348 1.348 0 00-.51.204 1.175 1.175 0 00-.383.435c-.102.187-.153.433-.153.74v9.698c0 .306.052.55.153.732.101.18.229.322.383.424.152.102.324.171.519.204.193.035.374.052.544.052.181 0 .368-.017.562-.052a1.42 1.42 0 00.527-.204c.159-.102.287-.244.383-.424.097-.183.145-.427.145-.732l-.001-9.698zM311.923 469.895c0 .456-.089.827-.264 1.116a1.923 1.923 0 01-.688.68 2.95 2.95 0 01-.937.341c-.34.063-.669.094-.986.094-.318 0-.646-.031-.987-.094a2.935 2.935 0 01-.937-.341c-.283-.163-.516-.391-.697-.68s-.271-.66-.271-1.116v-9.51c0-.442.093-.809.28-1.098.187-.289.42-.517.698-.68a2.82 2.82 0 01.926-.341c.341-.063.664-.094.97-.094.308 0 .631.031.971.094.34.063.651.177.936.341.283.163.519.388.706.671.187.284.28.653.28 1.106v9.511zm-1.276-9.595c0-.306-.051-.554-.154-.74-.101-.188-.229-.333-.382-.435s-.329-.171-.527-.204-.389-.05-.57-.05c-.17 0-.349.017-.535.05-.188.033-.357.103-.511.204s-.28.247-.383.435c-.103.187-.153.433-.153.74v9.698c0 .306.051.55.153.732.102.18.229.322.383.424s.325.171.52.204c.192.035.374.052.544.052.181 0 .369-.017.562-.052.192-.033.368-.103.526-.204a1.12 1.12 0 00.384-.424c.096-.183.145-.427.145-.732V460.3h-.002zM319.239 469.895c0 .456-.089.827-.264 1.116a1.923 1.923 0 01-.688.68 2.936 2.936 0 01-.936.341c-.341.063-.67.094-.987.094s-.646-.031-.987-.094a2.92 2.92 0 01-.936-.341c-.283-.163-.516-.391-.697-.68s-.272-.66-.272-1.116v-9.51c0-.442.094-.809.28-1.098a2.09 2.09 0 01.699-.68c.277-.164.586-.277.926-.341.341-.063.664-.094.97-.094.307 0 .63.031.971.094.34.063.652.177.936.341.283.163.519.388.705.671.188.284.281.653.281 1.106v9.511zm-1.276-9.595c0-.306-.052-.554-.153-.74a1.196 1.196 0 00-.384-.435 1.33 1.33 0 00-.526-.204 3.09 3.09 0 00-1.106 0c-.187.035-.357.103-.511.204s-.28.247-.383.435c-.102.187-.153.433-.153.74v9.698c0 .306.052.55.153.732.102.18.229.322.383.424s.326.171.52.204c.192.035.374.052.544.052.182 0 .369-.017.562-.052.193-.033.369-.103.527-.204.159-.102.286-.244.384-.424.096-.183.145-.427.145-.732V460.3zM326.555 469.895c0 .456-.088.827-.265 1.116a1.923 1.923 0 01-.688.68 2.927 2.927 0 01-.936.341c-.341.063-.67.094-.987.094s-.646-.031-.987-.094a2.93 2.93 0 01-.936-.341c-.283-.163-.516-.391-.697-.68s-.271-.66-.271-1.116v-9.51c0-.442.094-.809.28-1.098.188-.289.42-.517.697-.68.277-.164.587-.277.927-.341.341-.063.664-.094.971-.094.306 0 .629.031.969.094.341.063.653.177.937.341.283.163.519.388.706.671.188.284.28.653.28 1.106v9.511zm-1.276-9.595c0-.306-.052-.554-.152-.74a1.196 1.196 0 00-.384-.435c-.152-.102-.329-.171-.527-.204s-.388-.05-.569-.05c-.17 0-.35.017-.536.05-.188.033-.357.103-.511.204s-.28.247-.383.435c-.103.187-.153.433-.153.74v9.698c0 .306.051.55.153.732a1.223 1.223 0 00.902.628c.193.035.375.052.544.052.182 0 .369-.017.562-.052.193-.033.368-.103.528-.204.158-.102.285-.244.383-.424.096-.183.145-.427.145-.732V460.3h-.002z"/></g><g fill="none" stroke="#7D7D7D" stroke-miterlimit="10"><path d="M333.376 429.668a3.761 3.761 0 01-3.762 3.761h-63.949a3.761 3.761 0 01-3.762-3.761v-53.166a3.76 3.76 0 013.762-3.761h63.949a3.761 3.761 0 013.762 3.761v53.166z"/><path stroke-linecap="round" stroke-linejoin="round" d="M261.904 412.919l11.084-12.538 17.077 15.924M283.951 410.603l9.206-8.413 33.806 31.241"/><circle stroke-linecap="round" stroke-linejoin="round" cx="314.855" cy="387.767" r="9.875"/></g><path fill="none" stroke="#7D7D7D" stroke-miterlimit="10" d="M340.807 478.194a1.3 1.3 0 01-1.301 1.3h-83.732a1.301 1.301 0 01-1.302-1.3V366.028c0-.718.583-1.301 1.302-1.301h83.732c.719 0 1.301.583 1.301 1.301v112.166h0z"/></svg>