<?xml version="1.0" encoding="utf-8"?>
<!-- Generator: Adobe Illustrator 16.0.0, SVG Export Plug-In . SVG Version: 6.00 Build 0)  -->
<!DOCTYPE svg PUBLIC "-//W3C//DTD SVG 1.1//EN" "http://www.w3.org/Graphics/SVG/1.1/DTD/svg11.dtd">
<svg version="1.1" id="레이어_1" xmlns="http://www.w3.org/2000/svg" xmlns:xlink="http://www.w3.org/1999/xlink" x="0px"
	 y="0px" width="268.412px" height="334.754px" viewBox="0 0 268.412 334.754" enable-background="new 0 0 268.412 334.754"
	 xml:space="preserve">
<g>
	<path fill="#323232" d="M-495.176,268.11c0,1.048-0.203,1.904-0.608,2.571c-0.406,0.667-0.935,1.19-1.59,1.569
		c-0.653,0.379-1.373,0.641-2.157,0.785c-0.784,0.144-1.544,0.215-2.276,0.215c-0.732,0-1.491-0.071-2.276-0.215
		c-0.784-0.144-1.504-0.406-2.158-0.785c-0.654-0.379-1.19-0.903-1.609-1.569c-0.418-0.667-0.627-1.523-0.627-2.571v-21.934
		c0-1.02,0.216-1.863,0.647-2.531c0.431-0.667,0.967-1.19,1.609-1.569c0.64-0.379,1.354-0.64,2.138-0.784
		c0.785-0.144,1.531-0.216,2.237-0.216s1.453,0.073,2.237,0.216s1.504,0.405,2.158,0.784c0.653,0.379,1.197,0.896,1.628,1.55
		c0.432,0.654,0.648,1.505,0.648,2.55V268.11z M-498.118,245.981c0-0.707-0.118-1.276-0.353-1.708c-0.236-0.431-0.53-0.765-0.884-1
		c-0.353-0.236-0.759-0.393-1.216-0.471c-0.458-0.079-0.896-0.117-1.314-0.117c-0.392,0-0.804,0.039-1.236,0.117
		c-0.432,0.079-0.824,0.235-1.177,0.471c-0.353,0.235-0.647,0.569-0.883,1c-0.235,0.431-0.353,1-0.353,1.708v22.365
		c0,0.707,0.118,1.27,0.353,1.688c0.236,0.418,0.53,0.745,0.883,0.98c0.353,0.236,0.752,0.393,1.197,0.471
		c0.444,0.079,0.863,0.117,1.255,0.117c0.418,0,0.85-0.038,1.295-0.117c0.444-0.079,0.85-0.235,1.216-0.471
		c0.366-0.236,0.66-0.563,0.883-0.98c0.222-0.418,0.334-0.981,0.334-1.688V245.981z"/>
	<path fill="#323232" d="M-478.304,268.11c0,1.048-0.203,1.904-0.608,2.571c-0.406,0.667-0.936,1.19-1.588,1.569
		c-0.655,0.379-1.374,0.641-2.159,0.785c-0.785,0.144-1.544,0.215-2.275,0.215c-0.733,0-1.491-0.071-2.276-0.215
		c-0.785-0.144-1.504-0.406-2.158-0.785c-0.653-0.379-1.19-0.903-1.608-1.569c-0.419-0.667-0.627-1.523-0.627-2.571v-21.934
		c0-1.02,0.215-1.863,0.647-2.531c0.432-0.667,0.967-1.19,1.609-1.569c0.641-0.379,1.354-0.64,2.138-0.784
		c0.785-0.144,1.53-0.216,2.237-0.216c0.706,0,1.452,0.073,2.236,0.216c0.785,0.144,1.503,0.405,2.158,0.784
		c0.654,0.379,1.197,0.896,1.628,1.55c0.432,0.654,0.647,1.505,0.647,2.55V268.11z M-481.247,245.981
		c0-0.707-0.118-1.276-0.353-1.708s-0.53-0.765-0.883-1c-0.353-0.236-0.759-0.393-1.216-0.471c-0.458-0.079-0.897-0.117-1.315-0.117
		c-0.392,0-0.804,0.039-1.235,0.117c-0.432,0.079-0.825,0.235-1.178,0.471c-0.353,0.235-0.647,0.569-0.882,1
		c-0.236,0.431-0.354,1-0.354,1.708v22.365c0,0.707,0.118,1.27,0.354,1.688c0.235,0.418,0.53,0.745,0.882,0.98
		s0.751,0.393,1.197,0.471c0.444,0.079,0.863,0.117,1.255,0.117c0.418,0,0.849-0.038,1.295-0.117
		c0.443-0.079,0.849-0.235,1.216-0.471c0.366-0.236,0.66-0.563,0.883-0.98c0.222-0.418,0.333-0.981,0.333-1.688V245.981z"/>
	<path fill="#323232" d="M-461.432,268.11c0,1.048-0.204,1.904-0.608,2.571c-0.407,0.667-0.936,1.19-1.589,1.569
		c-0.654,0.379-1.373,0.641-2.159,0.785c-0.784,0.144-1.543,0.215-2.275,0.215c-0.733,0-1.492-0.071-2.276-0.215
		c-0.785-0.144-1.503-0.406-2.158-0.785c-0.654-0.379-1.191-0.903-1.609-1.569c-0.418-0.667-0.628-1.523-0.628-2.571v-21.934
		c0-1.02,0.216-1.863,0.648-2.531c0.431-0.667,0.967-1.19,1.608-1.569c0.641-0.379,1.354-0.64,2.138-0.784s1.531-0.216,2.237-0.216
		s1.452,0.073,2.236,0.216c0.785,0.144,1.504,0.405,2.158,0.784c0.654,0.379,1.197,0.896,1.628,1.55
		c0.432,0.654,0.648,1.505,0.648,2.55V268.11z M-464.375,245.981c0-0.707-0.117-1.276-0.353-1.708c-0.236-0.431-0.531-0.765-0.883-1
		c-0.353-0.236-0.759-0.393-1.216-0.471c-0.458-0.079-0.897-0.117-1.314-0.117c-0.392,0-0.805,0.039-1.236,0.117
		c-0.431,0.079-0.824,0.235-1.177,0.471c-0.354,0.235-0.648,0.569-0.883,1s-0.353,1-0.353,1.708v22.365
		c0,0.707,0.118,1.27,0.353,1.688c0.235,0.418,0.53,0.745,0.883,0.98c0.353,0.236,0.751,0.393,1.197,0.471
		c0.444,0.079,0.863,0.117,1.255,0.117c0.417,0,0.85-0.038,1.294-0.117c0.444-0.079,0.85-0.235,1.216-0.471
		c0.367-0.236,0.66-0.563,0.883-0.98c0.222-0.418,0.333-0.981,0.333-1.688V245.981z"/>
	<path fill="#323232" d="M-456.841,255.947h13.223v1.649h-13.223V255.947z"/>
	<path fill="#323232" d="M-425.726,268.11c0,1.048-0.203,1.904-0.608,2.571c-0.406,0.667-0.936,1.19-1.589,1.569
		c-0.654,0.379-1.373,0.641-2.159,0.785c-0.785,0.144-1.543,0.215-2.275,0.215c-0.733,0-1.492-0.071-2.276-0.215
		c-0.785-0.144-1.504-0.406-2.158-0.785c-0.654-0.379-1.19-0.903-1.609-1.569c-0.418-0.667-0.628-1.523-0.628-2.571v-21.934
		c0-1.02,0.216-1.863,0.648-2.531c0.431-0.667,0.967-1.19,1.608-1.569c0.641-0.379,1.353-0.64,2.138-0.784
		c0.784-0.144,1.531-0.216,2.237-0.216c0.706,0,1.452,0.073,2.236,0.216c0.785,0.144,1.504,0.405,2.158,0.784
		c0.653,0.379,1.197,0.896,1.628,1.55c0.431,0.654,0.647,1.505,0.647,2.55V268.11z M-428.669,245.981
		c0-0.707-0.117-1.276-0.353-1.708c-0.235-0.431-0.53-0.765-0.883-1c-0.353-0.236-0.759-0.393-1.217-0.471
		c-0.458-0.079-0.896-0.117-1.314-0.117c-0.393,0-0.805,0.039-1.236,0.117s-0.824,0.235-1.177,0.471
		c-0.353,0.235-0.648,0.569-0.883,1s-0.353,1-0.353,1.708v22.365c0,0.707,0.118,1.27,0.353,1.688c0.235,0.418,0.53,0.745,0.883,0.98
		s0.751,0.393,1.197,0.471c0.444,0.079,0.863,0.117,1.255,0.117c0.418,0,0.849-0.038,1.295-0.117
		c0.444-0.079,0.85-0.235,1.216-0.471c0.366-0.236,0.66-0.563,0.883-0.98c0.222-0.418,0.333-0.981,0.333-1.688V245.981z"/>
	<path fill="#323232" d="M-408.854,268.11c0,1.048-0.203,1.904-0.608,2.571c-0.406,0.667-0.935,1.19-1.589,1.569
		c-0.654,0.379-1.374,0.641-2.158,0.785c-0.785,0.144-1.544,0.215-2.276,0.215c-0.733,0-1.491-0.071-2.276-0.215
		c-0.784-0.144-1.504-0.406-2.158-0.785c-0.654-0.379-1.191-0.903-1.609-1.569c-0.419-0.667-0.628-1.523-0.628-2.571v-21.934
		c0-1.02,0.216-1.863,0.647-2.531c0.432-0.667,0.968-1.19,1.609-1.569c0.64-0.379,1.354-0.64,2.138-0.784
		c0.785-0.144,1.531-0.216,2.236-0.216c0.707,0,1.453,0.073,2.237,0.216c0.784,0.144,1.503,0.405,2.158,0.784
		c0.653,0.379,1.197,0.896,1.628,1.55c0.431,0.654,0.647,1.505,0.647,2.55V268.11z M-411.798,245.981
		c0-0.707-0.117-1.276-0.353-1.708c-0.235-0.431-0.53-0.765-0.883-1c-0.353-0.236-0.759-0.393-1.216-0.471s-0.896-0.117-1.314-0.117
		c-0.392,0-0.805,0.039-1.236,0.117s-0.824,0.235-1.177,0.471c-0.353,0.235-0.647,0.569-0.883,1s-0.353,1-0.353,1.708v22.365
		c0,0.707,0.118,1.27,0.353,1.688c0.235,0.418,0.53,0.745,0.883,0.98c0.353,0.236,0.751,0.393,1.197,0.471
		c0.444,0.079,0.863,0.117,1.255,0.117c0.418,0,0.85-0.038,1.295-0.117c0.444-0.079,0.849-0.235,1.216-0.471
		c0.366-0.236,0.66-0.563,0.883-0.98c0.222-0.418,0.333-0.981,0.333-1.688V245.981z"/>
	<path fill="#323232" d="M-391.983,268.11c0,1.048-0.203,1.904-0.607,2.571c-0.406,0.667-0.936,1.19-1.589,1.569
		c-0.654,0.379-1.374,0.641-2.158,0.785c-0.785,0.144-1.544,0.215-2.276,0.215c-0.732,0-1.491-0.071-2.276-0.215
		c-0.785-0.144-1.504-0.406-2.158-0.785c-0.654-0.379-1.19-0.903-1.608-1.569c-0.419-0.667-0.628-1.523-0.628-2.571v-21.934
		c0-1.02,0.215-1.863,0.647-2.531c0.431-0.667,0.967-1.19,1.609-1.569c0.641-0.379,1.354-0.64,2.138-0.784s1.53-0.216,2.236-0.216
		c0.707,0,1.452,0.073,2.237,0.216c0.784,0.144,1.504,0.405,2.158,0.784c0.654,0.379,1.197,0.896,1.628,1.55
		c0.432,0.654,0.647,1.505,0.647,2.55V268.11z M-394.926,245.981c0-0.707-0.117-1.276-0.353-1.708c-0.235-0.431-0.53-0.765-0.882-1
		c-0.353-0.236-0.759-0.393-1.217-0.471c-0.457-0.079-0.896-0.117-1.314-0.117c-0.393,0-0.805,0.039-1.236,0.117
		c-0.432,0.079-0.825,0.235-1.178,0.471c-0.353,0.235-0.647,0.569-0.883,1c-0.234,0.431-0.353,1-0.353,1.708v22.365
		c0,0.707,0.119,1.27,0.353,1.688c0.235,0.418,0.53,0.745,0.883,0.98s0.751,0.393,1.197,0.471c0.444,0.079,0.863,0.117,1.255,0.117
		c0.418,0,0.85-0.038,1.295-0.117c0.445-0.079,0.85-0.235,1.217-0.471c0.365-0.236,0.66-0.563,0.883-0.98
		c0.222-0.418,0.333-0.981,0.333-1.688V245.981z"/>
	<path fill="#323232" d="M-375.111,268.11c0,1.048-0.203,1.904-0.608,2.571c-0.406,0.667-0.936,1.19-1.589,1.569
		c-0.654,0.379-1.373,0.641-2.159,0.785c-0.784,0.144-1.543,0.215-2.275,0.215c-0.732,0-1.491-0.071-2.276-0.215
		c-0.785-0.144-1.504-0.406-2.158-0.785c-0.654-0.379-1.19-0.903-1.609-1.569c-0.418-0.667-0.627-1.523-0.627-2.571v-21.934
		c0-1.02,0.216-1.863,0.647-2.531c0.432-0.667,0.968-1.19,1.609-1.569c0.64-0.379,1.353-0.64,2.138-0.784
		c0.785-0.144,1.531-0.216,2.237-0.216s1.452,0.073,2.236,0.216c0.785,0.144,1.505,0.405,2.158,0.784
		c0.654,0.379,1.197,0.896,1.628,1.55c0.432,0.654,0.647,1.505,0.647,2.55V268.11z M-378.053,245.981
		c0-0.707-0.118-1.276-0.353-1.708c-0.236-0.431-0.53-0.765-0.883-1c-0.353-0.236-0.759-0.393-1.216-0.471
		c-0.458-0.079-0.897-0.117-1.315-0.117c-0.392,0-0.804,0.039-1.236,0.117s-0.824,0.235-1.177,0.471
		c-0.354,0.235-0.648,0.569-0.884,1c-0.235,0.431-0.353,1-0.353,1.708v22.365c0,0.707,0.118,1.27,0.353,1.688
		c0.236,0.418,0.53,0.745,0.884,0.98c0.353,0.236,0.751,0.393,1.196,0.471c0.445,0.079,0.864,0.117,1.256,0.117
		c0.417,0,0.85-0.038,1.294-0.117c0.444-0.079,0.85-0.235,1.216-0.471c0.367-0.236,0.661-0.563,0.883-0.98
		c0.222-0.418,0.334-0.981,0.334-1.688V245.981z"/>
</g>
<g>
	<g>
		<g>
			<path fill="#323232" d="M649.942,354.846c-4.352,0-7.881-3.53-7.881-7.88V69.352c0-4.35,3.529-7.88,7.881-7.88
				c4.35,0,7.879,3.53,7.879,7.88v277.614C657.821,351.316,654.292,354.846,649.942,354.846z"/>
		</g>
		<g>
			<path fill="#323232" d="M846.058,354.846c-4.35,0-7.879-3.53-7.879-7.88V69.352c0-4.35,3.529-7.88,7.879-7.88
				c4.351,0,7.881,3.53,7.881,7.88v277.614C853.938,351.316,850.408,354.846,846.058,354.846z"/>
		</g>
		<g>
			<path fill="#323232" d="M846.058,198.704H652.691c-4.351,0-7.88-3.529-7.88-7.88c0-4.35,3.529-7.88,7.88-7.88h193.366
				c4.351,0,7.881,3.53,7.881,7.88C853.938,195.174,850.408,198.704,846.058,198.704z"/>
		</g>
		<g>
			<path fill="#323232" d="M846.058,110.639H652.691c-4.351,0-7.88-3.529-7.88-7.88s3.529-7.88,7.88-7.88h193.366
				c4.351,0,7.881,3.529,7.881,7.88S850.408,110.639,846.058,110.639z"/>
		</g>
	</g>
</g>
<g>
	<path fill="#38B26E" d="M816.282,130.777h11.142v-5.459h6.462v5.459h11.141v5.682h-28.744V130.777z M827.813,156.513
		c-1.448,0-2.841-0.083-4.178-0.25s-2.517-0.547-3.537-1.142c-1.022-0.593-1.839-1.476-2.451-2.646
		c-0.612-1.169-0.919-2.738-0.919-4.707c0-1.894,0.297-3.435,0.891-4.624c0.594-1.188,1.401-2.117,2.424-2.785
		c1.021-0.668,2.2-1.114,3.537-1.337c1.337-0.223,2.748-0.334,4.233-0.334h5.57c1.485,0,2.896,0.111,4.233,0.334
		c1.337,0.223,2.516,0.668,3.537,1.337s1.829,1.597,2.424,2.785c0.594,1.189,0.891,2.73,0.891,4.624
		c0,1.969-0.306,3.538-0.919,4.707c-0.612,1.17-1.43,2.053-2.451,2.646c-1.021,0.595-2.2,0.975-3.537,1.142s-2.729,0.25-4.178,0.25
		H827.813z M860.066,179.296h-43.06v-19.441h6.462v13.759h36.598V179.296z M834.387,150.942c1.411,0,2.423-0.25,3.036-0.752
		c0.612-0.501,0.919-1.327,0.919-2.479c0-1.299-0.334-2.19-1.003-2.674c-0.668-0.482-1.652-0.724-2.952-0.724h-7.354
		c-1.3,0-2.312,0.242-3.035,0.724c-0.725,0.483-1.087,1.375-1.087,2.674c0,1.152,0.335,1.978,1.003,2.479
		c0.669,0.501,1.708,0.752,3.119,0.752H834.387z M847.031,135.847h6.573v-8.3h6.462v37.322h-6.462v-12.756h-6.573v-5.682h6.573
		v-4.902h-6.573V135.847z"/>
	<path fill="#38B26E" d="M866.974,160.245h45.12v5.682h-19.329v12.311h-6.462v-12.311h-19.329V160.245z M885.523,127.546h7.854
		l17.436,28.187h-7.408l-13.981-22.895l-14.038,22.895h-7.297L885.523,127.546z"/>
	<path fill="#38B26E" d="M917.274,127.546h27.184v28.966h-27.184V127.546z M917.274,159.855h39.718v19.441h-6.462v-13.759h-33.256
		V159.855z M923.736,150.831h14.26v-17.603h-14.26V150.831z M950.53,127.546h6.462v11.643h6.35v5.682h-6.35v11.642h-6.462V127.546z"
		/>
</g>
<g>
	<g>
		<path fill="#323232" d="M1049.48,542.206H810.406c-9.662,0-17.521-7.859-17.521-17.51v-153.74c0-9.66,7.858-17.511,17.521-17.511
			h239.074c9.661,0,17.521,7.851,17.521,17.511v153.74C1067.001,534.346,1059.142,542.206,1049.48,542.206z M810.406,364.708
			c-3.451,0-6.258,2.807-6.258,6.248v153.74c0,3.45,2.807,6.256,6.258,6.256h239.074c3.451,0,6.276-2.806,6.276-6.256v-153.74
			c0-3.441-2.825-6.248-6.276-6.248H810.406z"/>
	</g>
	<path fill="#38B26E" d="M881.255,427.366H828.59c-3.109,0-5.641-2.522-5.641-5.623v-31.456c0-3.11,2.531-5.623,5.641-5.623h52.665
		c3.109,0,5.622,2.512,5.622,5.623v31.456C886.877,424.844,884.364,427.366,881.255,427.366z M834.212,416.112h41.421v-20.203
		h-41.421V416.112z"/>
	<path fill="#323232" d="M1021.807,453.741h-48.428c-4.352,0-7.869-3.508-7.869-7.859c0-4.342,3.518-7.86,7.869-7.86h48.428
		c4.343,0,7.859,3.518,7.859,7.86C1029.666,450.233,1026.149,453.741,1021.807,453.741z"/>
	<path fill="#323232" d="M1024.727,484.222H919.975c-4.333,0-7.859-3.527-7.859-7.86c0-4.352,3.526-7.878,7.859-7.878h104.752
		c4.343,0,7.859,3.526,7.859,7.878C1032.586,480.695,1029.069,484.222,1024.727,484.222z"/>
	<path fill="#323232" d="M1024.727,506.549H919.975c-4.333,0-7.859-3.527-7.859-7.859c0-4.342,3.526-7.869,7.859-7.869h104.752
		c4.343,0,7.859,3.527,7.859,7.869C1032.586,503.021,1029.069,506.549,1024.727,506.549z"/>
</g>
<g>
	<path fill="#323232" d="M-76.026,979.34h-118.077c-4.941,0-8.966-4.021-8.966-8.966v-58.679c0-4.945,4.025-8.965,8.966-8.965
		h118.077c4.94,0,8.966,4.02,8.966,8.965v58.679C-67.06,975.319-71.085,979.34-76.026,979.34z M-194.103,908.491
		c-1.765,0-3.205,1.436-3.205,3.204v58.679c0,1.77,1.44,3.205,3.205,3.205h118.077c1.764,0,3.205-1.436,3.205-3.205v-58.679
		c0-1.769-1.44-3.204-3.205-3.204H-194.103z"/>
	<g>
		<g>
			<path fill="#323232" d="M-186.563,948.942c-1.254,0-2.409-0.306-3.434-0.916c-1.021-0.61-1.836-1.454-2.417-2.519
				c-0.582-1.059-0.873-2.241-0.873-3.533c0-1.273,0.305-2.447,0.896-3.486c0.596-1.035,1.421-1.865,2.456-2.466
				c1.813-1.054,4.135-1.245,6.267-0.286c0.901,0.405,1.688,0.964,2.332,1.66c0.234,0.252,0.248,0.639,0.034,0.91l-1.684,2.123
				c-0.138,0.166-0.339,0.271-0.553,0.271h-0.005c-0.214-0.005-0.419-0.105-0.548-0.281c-0.319-0.41-0.682-0.729-1.121-0.969
				c-0.887-0.496-1.779-0.424-2.461,0.015c-0.381,0.243-0.672,0.563-0.892,0.997c-0.224,0.434-0.344,0.935-0.344,1.479
				c0,0.563,0.115,1.059,0.344,1.512c0.219,0.429,0.515,0.763,0.906,1.016c0.668,0.434,1.483,0.51,2.428,0.048
				c0.438-0.215,0.834-0.516,1.173-0.888c0.134-0.147,0.324-0.229,0.52-0.229h0.005c0.2,0,0.386,0.086,0.52,0.233l1.703,1.913
				c0.238,0.271,0.234,0.677-0.009,0.939c-0.677,0.738-1.493,1.335-2.409,1.778C-184.67,948.713-185.619,948.942-186.563,948.942z"
				/>
		</g>
	</g>
	<g>
		<g>
			<path fill="#323232" d="M-174.44,948.942c-1.273,0-2.446-0.306-3.496-0.906c-1.054-0.61-1.888-1.455-2.484-2.514
				c-0.601-1.054-0.901-2.241-0.901-3.529c0-1.287,0.3-2.47,0.901-3.51c0.601-1.044,1.435-1.874,2.475-2.476
				c2.084-1.188,4.921-1.188,7.02,0.015c1.054,0.601,1.884,1.431,2.48,2.476c0.601,1.035,0.901,2.217,0.901,3.495
				c0,1.293-0.301,2.485-0.897,3.529c-0.596,1.059-1.431,1.903-2.48,2.514C-171.975,948.637-173.162,948.942-174.44,948.942z
				 M-174.407,939.108c-0.448,0-0.849,0.119-1.235,0.362c-0.396,0.253-0.706,0.587-0.944,1.035
				c-0.238,0.453-0.357,0.944-0.357,1.507c0,0.558,0.119,1.059,0.362,1.521c0.234,0.453,0.543,0.792,0.944,1.044
				c0.768,0.491,1.698,0.491,2.442,0.005c0.386-0.253,0.682-0.591,0.916-1.04c0.234-0.462,0.348-0.963,0.348-1.53
				s-0.114-1.063-0.348-1.517c-0.229-0.438-0.529-0.777-0.911-1.03C-173.563,939.228-173.963,939.108-174.407,939.108z"/>
		</g>
	</g>
	<g>
		<g>
			<path fill="#323232" d="M-160.806,948.942c-1.192,0-2.241-0.248-3.128-0.729c-0.916-0.487-1.626-1.197-2.127-2.104
				c-0.481-0.896-0.729-1.946-0.729-3.119v-7.072c0-0.387,0.314-0.701,0.701-0.701h2.909c0.387,0,0.701,0.314,0.701,0.701v7.072
				c0,0.635,0.153,1.111,0.477,1.459c0.61,0.668,1.779,0.678,2.361,0.02c0.305-0.348,0.458-0.83,0.458-1.479v-7.072
				c0-0.387,0.315-0.701,0.701-0.701h2.899c0.386,0,0.696,0.314,0.696,0.701v7.072c0,1.173-0.243,2.223-0.725,3.114
				c-0.482,0.901-1.188,1.612-2.094,2.108C-158.588,948.694-159.632,948.942-160.806,948.942z"/>
		</g>
	</g>
	<g>
		<g>
			<path fill="#323232" d="M-149.951,948.804h-2.914c-0.386,0-0.701-0.314-0.701-0.701v-12.185c0-0.387,0.314-0.701,0.701-0.701
				h4.993c1.631,0,2.933,0.434,3.873,1.292c0.954,0.868,1.445,2.104,1.445,3.658c0,1.616-0.482,2.904-1.431,3.825
				c-0.939,0.925-2.247,1.388-3.887,1.388h-1.378v2.723C-149.25,948.489-149.565,948.804-149.951,948.804z M-149.25,941.541h1.23
				c0.462,0,0.787-0.105,1.001-0.311c0.2-0.195,0.3-0.516,0.3-0.963c0-0.43-0.09-0.726-0.295-0.911
				c-0.215-0.196-0.553-0.296-1.006-0.296h-1.23V941.541z"/>
		</g>
	</g>
	<g>
		<g>
			<path fill="#323232" d="M-135.291,948.942c-1.273,0-2.446-0.306-3.496-0.906c-1.049-0.61-1.889-1.455-2.485-2.514
				c-0.601-1.054-0.901-2.241-0.901-3.529c0-1.287,0.301-2.47,0.906-3.51c0.596-1.044,1.431-1.874,2.475-2.476
				c2.084-1.188,4.917-1.188,7.015,0.015c1.054,0.601,1.889,1.431,2.485,2.476c0.596,1.035,0.901,2.217,0.901,3.495
				c0,1.293-0.305,2.485-0.901,3.529c-0.596,1.059-1.431,1.903-2.48,2.514C-132.825,948.637-134.008,948.942-135.291,948.942z
				 M-135.258,939.108c-0.448,0-0.849,0.119-1.235,0.362c-0.396,0.253-0.701,0.587-0.944,1.035
				c-0.239,0.453-0.358,0.944-0.358,1.507c0,0.558,0.119,1.059,0.362,1.521c0.239,0.453,0.549,0.792,0.944,1.044
				c0.768,0.491,1.698,0.491,2.442,0.005c0.386-0.253,0.687-0.591,0.916-1.04c0.234-0.462,0.348-0.963,0.348-1.53
				s-0.114-1.063-0.348-1.517c-0.229-0.438-0.529-0.777-0.911-1.03C-134.414,939.228-134.81,939.108-135.258,939.108z"/>
		</g>
	</g>
	<g>
		<g>
			<path fill="#323232" d="M-116.172,948.804h-2.566c-0.224,0-0.443-0.114-0.572-0.296l-3.997-5.694v5.289
				c0,0.387-0.314,0.701-0.701,0.701h-2.733c-0.386,0-0.696-0.314-0.696-0.701v-12.185c0-0.387,0.31-0.701,0.696-0.701h2.575
				c0.229,0,0.444,0.109,0.572,0.301l4.006,5.703v-5.303c0-0.387,0.314-0.701,0.701-0.701h2.714c0.386,0,0.701,0.314,0.701,0.701
				v12.185C-115.471,948.489-115.786,948.804-116.172,948.804z"/>
		</g>
	</g>
	<g>
		<path fill="#323232" d="M-171.502,920.938c-6.09,0-11.041-4.078-11.041-9.09c0-5.018,4.95-9.1,11.041-9.1l2.79-0.024
			c2.255,0,8.25,0,8.25,5.861C-160.462,913.446-165.203,920.938-171.502,920.938z M-168.712,908.486l-2.79,0.023
			c-3.114,0-5.279,1.76-5.279,3.339c0,1.573,2.165,3.329,5.279,3.329c2.456,0,5.222-4.212,5.279-6.52
			C-166.566,908.572-167.277,908.486-168.712,908.486z"/>
	</g>
	<g>
		<path fill="#323232" d="M-145.416,917.748c-18.537,0-20.683-11.17-20.764-11.646c-0.186-1.078,0.253-2.17,1.135-2.813
			c0.882-0.653,2.046-0.744,3.023-0.233l17.922,9.256c1.183,0.605,1.793,1.946,1.479,3.234
			C-142.931,916.842-144.09,917.748-145.416,917.748z"/>
	</g>
	<g>
		<path fill="#323232" d="M-168.712,908.491L-168.712,908.491l-2.79-0.024c-6.09,0-11.041-4.077-11.041-9.1
			c0-5.012,4.95-9.09,11.041-9.09c6.3,0,11.041,7.492,11.041,12.357c0,2.413-1.154,4.239-3.253,5.141
			C-165.098,908.371-166.714,908.491-168.712,908.491z M-171.502,896.039c-3.114,0-5.279,1.755-5.279,3.328
			c0,1.579,2.165,3.339,5.279,3.339l2.79,0.024l0,0c1.412,0,2.117-0.082,2.465-0.168
			C-166.409,900.055-169.104,896.039-171.502,896.039z"/>
	</g>
	<g>
		<path fill="#323232" d="M-163.343,908.491c-0.601,0-1.202-0.187-1.702-0.559c-0.882-0.644-1.321-1.735-1.135-2.813
			c0.081-0.477,2.227-11.65,20.764-11.65c1.326,0,2.485,0.91,2.795,2.203c0.315,1.287-0.296,2.628-1.474,3.238l-17.922,9.257
			C-162.437,908.386-162.89,908.491-163.343,908.491z"/>
	</g>
	<g>
		<g>
			<rect x="-104.521" y="909.292" fill="#323232" width="7.325" height="16.582"/>
		</g>
	</g>
	<g>
		<g>
			<rect x="-104.521" y="933.738" fill="#323232" width="7.325" height="16.582"/>
		</g>
	</g>
	<g>
		<g>
			<rect x="-104.521" y="958.18" fill="#323232" width="7.325" height="16.587"/>
		</g>
	</g>
</g>
<g>
	<g>
		<polygon fill="#D1EAF7" points="-816.378,896.059 -728.294,894.713 -728.294,1003.209 -783.772,1001.702 -815.539,972.754 		"/>
		<path fill="#323232" d="M-815.959,976.736c-1.851,0-3.357-1.502-3.357-3.357v-78.856c0-1.851,1.507-3.353,3.357-3.353h87.245
			c1.855,0,3.357,1.502,3.357,3.353v54.438c0,1.851-1.502,3.353-3.357,3.353c-1.851,0-3.353-1.502-3.353-3.353V897.88h-80.535
			v75.499C-812.602,975.234-814.104,976.736-815.959,976.736z"/>
		<path fill="#323232" d="M-728.714,1005.77h-58.211c-1.851,0-3.357-1.502-3.357-3.357c0-1.85,1.507-3.352,3.357-3.352h54.858
			v-65.67c0-1.851,1.502-3.354,3.353-3.354c1.855,0,3.357,1.503,3.357,3.354v69.021
			C-725.356,1004.268-726.858,1005.77-728.714,1005.77z"/>
		<path fill="#323232" d="M-786.925,1005.77c-0.868,0-1.731-0.343-2.37-0.982l-29.034-29.033c-0.958-0.964-1.25-2.404-0.729-3.658
			c0.52-1.254,1.745-2.069,3.1-2.069h29.034c1.851,0,3.357,1.502,3.357,3.353v29.033c0,1.359-0.82,2.586-2.075,3.105
			C-786.057,1005.685-786.491,1005.77-786.925,1005.77z M-807.856,976.736l17.574,17.578v-17.578H-807.856z"/>
		<path fill="#323232" d="M-741.6,915.683h-61.473c-1.855,0-3.357-1.502-3.357-3.353c0-1.855,1.502-3.357,3.357-3.357h61.473
			c1.855,0,3.357,1.502,3.357,3.357C-738.242,914.181-739.745,915.683-741.6,915.683z"/>
		<path fill="#323232" d="M-741.6,927.896h-23.078c-1.85,0-3.357-1.502-3.357-3.357c0-1.851,1.507-3.354,3.357-3.354h23.078
			c1.855,0,3.357,1.503,3.357,3.354C-738.242,926.395-739.745,927.896-741.6,927.896z"/>
		<g>
			<path fill="#323232" d="M-779.996,927.896h-23.077c-1.855,0-3.357-1.502-3.357-3.357c0-1.851,1.502-3.354,3.357-3.354h23.077
				c1.851,0,3.357,1.503,3.357,3.354C-776.638,926.395-778.145,927.896-779.996,927.896z"/>
		</g>
		<path fill="#323232" d="M-741.6,940.105h-23.078c-1.85,0-3.357-1.508-3.357-3.357c0-1.851,1.507-3.357,3.357-3.357h23.078
			c1.855,0,3.357,1.507,3.357,3.357C-738.242,938.598-739.745,940.105-741.6,940.105z"/>
		<g>
			<path fill="#323232" d="M-779.996,940.105h-23.077c-1.855,0-3.357-1.508-3.357-3.357c0-1.851,1.502-3.357,3.357-3.357h23.077
				c1.851,0,3.357,1.507,3.357,3.357C-776.638,938.598-778.145,940.105-779.996,940.105z"/>
		</g>
		<g>
			<path fill="#323232" d="M-741.6,952.313h-23.078c-1.85,0-3.357-1.502-3.357-3.353c0-1.855,1.507-3.357,3.357-3.357h23.078
				c1.855,0,3.357,1.502,3.357,3.357C-738.242,950.812-739.745,952.313-741.6,952.313z"/>
		</g>
		<g>
			<path fill="#323232" d="M-779.996,952.313h-23.077c-1.855,0-3.357-1.502-3.357-3.353c0-1.855,1.502-3.357,3.357-3.357h23.077
				c1.851,0,3.357,1.502,3.357,3.357C-776.638,950.812-778.145,952.313-779.996,952.313z"/>
		</g>
		<g>
			<path fill="#323232" d="M-749.192,964.527h-15.485c-1.85,0-3.357-1.502-3.357-3.357c0-1.851,1.507-3.353,3.357-3.353h15.485
				c1.855,0,3.357,1.502,3.357,3.353C-745.835,963.025-747.337,964.527-749.192,964.527z"/>
		</g>
		<g>
			<path fill="#323232" d="M-779.996,964.527h-23.077c-1.855,0-3.357-1.502-3.357-3.357c0-1.851,1.502-3.353,3.357-3.353h23.077
				c1.851,0,3.357,1.502,3.357,3.353C-776.638,963.025-778.145,964.527-779.996,964.527z"/>
		</g>
		<g>
			<path fill="#323232" d="M-749.192,976.736h-15.485c-1.85,0-3.357-1.502-3.357-3.357c0-1.851,1.507-3.353,3.357-3.353h15.485
				c1.855,0,3.357,1.502,3.357,3.353C-745.835,975.234-747.337,976.736-749.192,976.736z"/>
		</g>
		<g>
			<path fill="#323232" d="M-741.6,988.949h-23.078c-1.85,0-3.357-1.507-3.357-3.357c0-1.854,1.507-3.357,3.357-3.357h23.078
				c1.855,0,3.357,1.503,3.357,3.357C-738.242,987.442-739.745,988.949-741.6,988.949z"/>
		</g>
	</g>
	<g>
		<polygon fill="#FDFBDF" points="-835.956,899.878 -748.286,891.266 -739.33,999.394 -794.746,1002.47 -828.792,976.24 		"/>
		<path fill="#323232" d="M-828.883,980.246c-1.841,0.152-3.467-1.221-3.62-3.071l-6.51-78.589
			c-0.152-1.842,1.226-3.463,3.071-3.615l86.945-7.201c1.85-0.152,3.472,1.221,3.625,3.066l4.492,54.253
			c0.153,1.841-1.221,3.462-3.071,3.614c-1.841,0.158-3.462-1.216-3.615-3.062l-4.216-50.909l-80.263,6.648l6.233,75.24
			C-825.659,978.472-827.033,980.089-828.883,980.246z"/>
		<path fill="#323232" d="M-739.54,1001.979l-58.011,4.803c-1.846,0.157-3.472-1.217-3.625-3.066
			c-0.152-1.846,1.226-3.467,3.071-3.62l54.672-4.525l-5.422-65.446c-0.152-1.846,1.221-3.467,3.066-3.619
			c1.851-0.152,3.467,1.221,3.625,3.066l5.694,68.789C-736.315,1000.205-737.689,1001.826-739.54,1001.979z"/>
		<path fill="#323232" d="M-797.55,1006.781c-0.863,0.071-1.755-0.195-2.442-0.782l-31.333-26.54
			c-1.035-0.877-1.445-2.289-1.03-3.581c0.415-1.298,1.569-2.208,2.918-2.323l28.934-2.394c1.846-0.152,3.472,1.221,3.625,3.066
			l2.394,28.934c0.115,1.354-0.601,2.643-1.807,3.263C-796.692,1006.624-797.116,1006.748-797.55,1006.781z M-820.809,979.574
			l18.966,16.071l-1.449-17.521L-820.809,979.574z"/>
		<path fill="#323232" d="M-759.813,913.265l-61.263,5.069c-1.851,0.152-3.472-1.221-3.625-3.062
			c-0.152-1.851,1.221-3.472,3.071-3.624l61.263-5.074c1.846-0.153,3.467,1.221,3.62,3.07
			C-756.594,911.49-757.967,913.112-759.813,913.265z"/>
		<path fill="#323232" d="M-758.807,925.436l-22.996,1.902c-1.846,0.152-3.472-1.221-3.625-3.066
			c-0.153-1.846,1.226-3.467,3.066-3.619l23.001-1.903c1.851-0.152,3.472,1.221,3.625,3.062
			C-755.583,923.661-756.956,925.283-758.807,925.436z"/>
		<g>
			<path fill="#323232" d="M-797.068,928.602l-23.001,1.908c-1.85,0.152-3.472-1.221-3.625-3.071
				c-0.152-1.846,1.221-3.468,3.071-3.62l22.997-1.902c1.845-0.152,3.472,1.221,3.625,3.066
				C-793.85,926.828-795.228,928.449-797.068,928.602z"/>
		</g>
		<path fill="#323232" d="M-757.8,937.602l-22.997,1.902c-1.846,0.152-3.472-1.221-3.624-3.066
			c-0.153-1.846,1.226-3.472,3.071-3.625l22.996-1.902c1.851-0.152,3.472,1.226,3.625,3.066
			C-754.576,935.822-755.95,937.449-757.8,937.602z"/>
		<g>
			<path fill="#323232" d="M-796.063,940.772l-23.001,1.903c-1.846,0.152-3.467-1.226-3.62-3.071
				c-0.153-1.841,1.216-3.468,3.066-3.62l23.001-1.907c1.841-0.153,3.467,1.226,3.62,3.071
				C-792.843,938.989-794.217,940.62-796.063,940.772z"/>
		</g>
		<g>
			<path fill="#323232" d="M-756.789,949.768l-23.001,1.907c-1.845,0.152-3.467-1.221-3.625-3.066
				c-0.152-1.846,1.226-3.468,3.071-3.62l22.997-1.907c1.85-0.153,3.472,1.221,3.625,3.071
				C-753.57,947.993-754.943,949.614-756.789,949.768z"/>
		</g>
		<g>
			<path fill="#323232" d="M-795.056,952.938l-22.997,1.903c-1.85,0.152-3.472-1.222-3.624-3.063
				c-0.153-1.85,1.221-3.472,3.066-3.624l23.001-1.903c1.846-0.152,3.472,1.217,3.625,3.066
				C-791.832,951.164-793.21,952.786-795.056,952.938z"/>
		</g>
		<g>
			<path fill="#323232" d="M-763.352,962.567l-15.433,1.278c-1.841,0.152-3.467-1.221-3.62-3.071
				c-0.153-1.841,1.226-3.463,3.066-3.615l15.433-1.278c1.851-0.152,3.472,1.221,3.625,3.062
				C-760.127,960.793-761.501,962.414-763.352,962.567z"/>
		</g>
		<g>
			<path fill="#323232" d="M-794.05,965.109l-22.997,1.902c-1.85,0.152-3.472-1.216-3.625-3.066
				c-0.152-1.846,1.221-3.467,3.071-3.619l22.997-1.903c1.846-0.152,3.472,1.221,3.625,3.062
				C-790.826,963.335-792.204,964.957-794.05,965.109z"/>
		</g>
		<g>
			<path fill="#323232" d="M-762.34,974.733l-15.433,1.278c-1.846,0.152-3.472-1.222-3.625-3.067
				c-0.153-1.845,1.226-3.467,3.071-3.619l15.428-1.278c1.851-0.152,3.472,1.221,3.625,3.066S-760.495,974.58-762.34,974.733z"/>
		</g>
		<g>
			<path fill="#323232" d="M-753.771,986.279l-22.996,1.907c-1.846,0.152-3.472-1.226-3.625-3.071
				c-0.153-1.851,1.226-3.472,3.071-3.625l22.997-1.902c1.851-0.152,3.472,1.221,3.625,3.071
				C-750.546,984.5-751.92,986.126-753.771,986.279z"/>
		</g>
	</g>
	<g>
		<polygon fill="#FFFFFF" points="-850.854,898.891 -763.099,891.184 -755.254,999.394 -810.699,1001.902 -844.473,975.329 		"/>
		<path fill="#323232" d="M-844.606,979.33c-1.846,0.134-3.453-1.254-3.591-3.104l-5.699-78.651
			c-0.134-1.846,1.259-3.452,3.104-3.586l87.016-6.31c1.85-0.134,3.458,1.255,3.591,3.1l3.939,54.296
			c0.133,1.846-1.259,3.453-3.109,3.592c-1.846,0.133-3.453-1.26-3.586-3.105l-3.691-50.947l-80.325,5.822l5.461,75.304
			C-841.364,977.59-842.756,979.197-844.606,979.33z"/>
		<path fill="#323232" d="M-755.487,1001.979l-58.059,4.211c-1.846,0.134-3.458-1.259-3.591-3.104
			c-0.134-1.851,1.259-3.452,3.104-3.591l54.715-3.963l-4.75-65.498c-0.133-1.846,1.259-3.453,3.105-3.587
			c1.845-0.134,3.457,1.255,3.591,3.101l4.988,68.841C-752.249,1000.238-753.637,1001.846-755.487,1001.979z"/>
		<path fill="#323232" d="M-813.546,1006.189c-0.868,0.063-1.755-0.219-2.437-0.811l-31.057-26.859
			c-1.025-0.892-1.421-2.303-0.992-3.596c0.424-1.287,1.588-2.189,2.942-2.284l28.958-2.104c1.846-0.134,3.458,1.259,3.591,3.104
			l2.099,28.958c0.095,1.354-0.629,2.638-1.846,3.243C-812.688,1006.042-813.117,1006.156-813.546,1006.189z M-836.523,978.744
			l18.799,16.262l-1.273-17.53L-836.523,978.744z"/>
		<path fill="#323232" d="M-774.854,913.06l-61.311,4.444c-1.85,0.134-3.458-1.254-3.591-3.1c-0.134-1.85,1.254-3.457,3.104-3.591
			l61.311-4.444c1.851-0.134,3.458,1.254,3.591,3.104C-771.616,911.319-773.004,912.926-774.854,913.06z"/>
		<path fill="#323232" d="M-773.972,925.24l-23.015,1.669c-1.846,0.134-3.458-1.255-3.591-3.104
			c-0.133-1.846,1.259-3.453,3.104-3.587l23.016-1.669c1.85-0.134,3.458,1.254,3.591,3.1
			C-770.729,923.499-772.122,925.106-773.972,925.24z"/>
		<g>
			<path fill="#323232" d="M-812.268,928.016l-23.016,1.669c-1.85,0.134-3.458-1.254-3.591-3.104
				c-0.134-1.846,1.254-3.453,3.104-3.586l23.021-1.67c1.841-0.133,3.453,1.254,3.586,3.1
				C-809.024,926.274-810.422,927.882-812.268,928.016z"/>
		</g>
		<path fill="#323232" d="M-773.09,937.42l-23.016,1.664c-1.846,0.139-3.458-1.259-3.591-3.104
			c-0.134-1.846,1.259-3.457,3.104-3.591l23.016-1.669c1.85-0.134,3.458,1.264,3.596,3.109
			C-769.847,935.675-771.239,937.281-773.09,937.42z"/>
		<g>
			<path fill="#323232" d="M-811.385,940.195l-23.016,1.67c-1.85,0.133-3.458-1.264-3.591-3.109
				c-0.133-1.846,1.254-3.458,3.105-3.592l23.02-1.669c1.846-0.134,3.458,1.264,3.591,3.109S-809.54,940.063-811.385,940.195z"/>
		</g>
		<g>
			<path fill="#323232" d="M-772.208,949.596l-23.016,1.669c-1.845,0.134-3.458-1.259-3.591-3.1
				c-0.134-1.851,1.259-3.463,3.104-3.597l23.02-1.664c1.851-0.139,3.458,1.254,3.591,3.104
				C-768.965,947.854-770.357,949.462-772.208,949.596z"/>
		</g>
		<g>
			<path fill="#323232" d="M-810.503,952.371l-23.016,1.669c-1.851,0.134-3.458-1.254-3.591-3.1
				c-0.134-1.851,1.254-3.458,3.104-3.591l23.02-1.67c1.846-0.133,3.458,1.255,3.591,3.105
				C-807.26,950.631-808.657,952.237-810.503,952.371z"/>
		</g>
		<g>
			<path fill="#323232" d="M-778.894,962.324l-15.447,1.121c-1.846,0.133-3.458-1.255-3.591-3.105
				c-0.134-1.846,1.264-3.453,3.104-3.586l15.447-1.121c1.851-0.133,3.458,1.254,3.591,3.1
				C-775.656,960.583-777.043,962.19-778.894,962.324z"/>
		</g>
		<g>
			<path fill="#323232" d="M-809.616,964.551l-23.02,1.67c-1.851,0.133-3.458-1.255-3.591-3.105
				c-0.133-1.846,1.259-3.452,3.105-3.586l23.02-1.669c1.846-0.134,3.458,1.254,3.591,3.1
				C-806.378,962.811-807.771,964.418-809.616,964.551z"/>
		</g>
		<g>
			<path fill="#323232" d="M-778.012,974.504l-15.447,1.116c-1.846,0.134-3.458-1.254-3.591-3.104
				c-0.133-1.846,1.264-3.453,3.109-3.586l15.442-1.121c1.851-0.134,3.458,1.259,3.591,3.104
				C-774.773,972.764-776.161,974.366-778.012,974.504z"/>
		</g>
		<g>
			<path fill="#323232" d="M-769.556,986.136l-23.02,1.669c-1.841,0.134-3.458-1.264-3.591-3.109
				c-0.133-1.85,1.264-3.457,3.11-3.591l23.015-1.664c1.851-0.139,3.458,1.254,3.591,3.104
				C-766.318,984.391-767.706,986.002-769.556,986.136z"/>
		</g>
	</g>
</g>
<g>
	<g>
		<path fill="#323232" d="M-431.406,1004.082h-88.638c-2.022,0-3.663-1.641-3.663-3.663V886.663c0-2.022,1.641-3.663,3.663-3.663
			h25.286c2.022,0,3.663,1.641,3.663,3.663s-1.641,3.663-3.663,3.663h-21.623v106.431h81.313v-43.833
			c0-2.021,1.641-3.662,3.663-3.662s3.663,1.641,3.663,3.662v47.495C-427.744,1002.441-429.384,1004.082-431.406,1004.082z"/>
	</g>
	<g>
		<path fill="#323232" d="M-431.406,924.772c-2.022,0-3.663-1.641-3.663-3.663v-30.783h-21.623c-2.022,0-3.663-1.641-3.663-3.663
			s1.641-3.663,3.663-3.663h25.286c2.022,0,3.663,1.641,3.663,3.663v34.446C-427.744,923.132-429.384,924.772-431.406,924.772z"/>
	</g>
	<g>
		<g>
			<path fill="#323232" d="M-447.864,968.1c-1.083,0-2.151-0.473-2.871-1.383l-14.121-17.784c-0.601-0.763-0.877-1.731-0.768-2.699
				c0.109-0.964,0.601-1.846,1.359-2.451l50.523-40.099c1.579-1.254,3.892-0.996,5.141,0.592l14.126,17.783
				c0.601,0.764,0.877,1.731,0.772,2.699c-0.114,0.964-0.601,1.846-1.364,2.451l-50.523,40.099
				C-446.267,967.842-447.068,968.1-447.864,968.1z M-456.84,947.244l9.562,12.047l44.791-35.544l-9.571-12.047L-456.84,947.244z"/>
		</g>
		<g>
			<path fill="#323232" d="M-473.903,974.275c-1.102,0-2.165-0.501-2.866-1.383c-0.887-1.116-1.049-2.638-0.41-3.911l11.913-23.96
				c0.901-1.812,3.1-2.537,4.912-1.649c1.813,0.901,2.547,3.1,1.65,4.912l-8.441,16.963l18.432-4.368
				c1.975-0.467,3.939,0.754,4.412,2.719c0.462,1.969-0.753,3.939-2.723,4.406l-26.034,6.171
				C-473.336,974.242-473.622,974.275-473.903,974.275z"/>
		</g>
	</g>
</g>
<g>
	<path fill="#323232" d="M-898.487,986.527h-120.261c-4.86,0-8.813-3.954-8.813-8.809v-77.335c0-4.86,3.953-8.809,8.813-8.809
		h120.261c4.859,0,8.813,3.948,8.813,8.809v77.335C-889.674,982.573-893.628,986.527-898.487,986.527z M-1018.749,897.24
		c-1.736,0-3.147,1.412-3.147,3.144v77.335c0,1.735,1.412,3.147,3.147,3.147h120.261c1.736,0,3.157-1.412,3.157-3.147v-77.335
		c0-1.731-1.421-3.144-3.157-3.144H-1018.749z"/>
</g>
<path fill="#323232" d="M-983.109,928.76h-26.492c-1.564,0-2.837-1.27-2.837-2.828v-15.824c0-1.564,1.273-2.828,2.837-2.828h26.492
	c1.564,0,2.828,1.264,2.828,2.828v15.824C-980.281,927.49-981.545,928.76-983.109,928.76z M-1006.773,923.099h20.836v-10.163
	h-20.836V923.099z"/>
<path fill="#323232" d="M-912.408,942.027h-24.36c-2.189,0-3.958-1.765-3.958-3.954c0-2.185,1.769-3.953,3.958-3.953h24.36
	c2.184,0,3.954,1.769,3.954,3.953C-908.455,940.263-910.224,942.027-912.408,942.027z"/>
<path fill="#323232" d="M-910.939,957.359h-52.693c-2.179,0-3.953-1.774-3.953-3.953c0-2.189,1.774-3.963,3.953-3.963h52.693
	c2.185,0,3.954,1.773,3.954,3.963C-906.986,955.585-908.755,957.359-910.939,957.359z"/>
<path fill="#323232" d="M-910.939,968.591h-52.693c-2.179,0-3.953-1.774-3.953-3.954c0-2.184,1.774-3.958,3.953-3.958h52.693
	c2.185,0,3.954,1.774,3.954,3.958C-906.986,966.816-908.755,968.591-910.939,968.591z"/>
<g>
	<g>
		<path fill="#323232" d="M239.967,1009.49l-86.692-83.354c-3.505-3.367-3.614-8.957-0.248-12.457l34.467-35.844
			c3.366-3.506,8.951-3.61,12.456-0.244l86.692,83.354c3.505,3.367,3.614,8.952,0.248,12.457l-34.466,35.845
			C249.062,1012.747,243.467,1012.857,239.967,1009.49z M196.024,881.68c-1.254-1.207-3.247-1.169-4.449,0.081l-34.466,35.849
			c-1.202,1.25-1.164,3.243,0.091,4.449l86.691,83.35c1.249,1.201,3.253,1.173,4.454-0.082l34.466-35.844
			c1.202-1.25,1.154-3.253-0.095-4.454L196.024,881.68z"/>
	</g>
</g>
<g>
	<g>
		<path fill="#323232" d="M-346.465,1005.68c-0.601-0.648-0.968-1.517-0.968-2.476l0.014-41.753
			c-0.005-2.027,1.636-3.667,3.667-3.667c2.017,0,3.658,1.636,3.658,3.662l-0.009,38.096l53.79,0.019l0.023-104.638l-53.79-0.019
			l0.005,72.537c0,2.021-1.646,3.658-3.667,3.662c-2.017-0.01-3.658-1.65-3.663-3.662l0.005-76.195c0-0.973,0.386-1.908,1.073-2.595
			c0.687-0.682,1.621-1.073,2.589-1.073l61.115,0.02c2.022,0.005,3.658,1.65,3.658,3.662l-0.029,111.964
			c0.005,0.968-0.386,1.902-1.073,2.589c-0.687,0.688-1.621,1.073-2.589,1.073l-61.115-0.014
			C-344.833,1006.862-345.797,1006.409-346.465,1005.68z"/>
	</g>
	<g>
		<path fill="#323232" d="M-338.224,904.313c-0.072-0.077-0.134-0.153-0.196-0.233l-8.212-10.598
			c-1.24-1.593-0.954-3.896,0.649-5.136c1.602-1.24,3.901-0.935,5.136,0.653l7.115,9.171l41.09,0.009l7.125-9.166
			c1.24-1.598,3.539-1.883,5.136-0.644c1.622,1.192,1.889,3.534,0.644,5.137l-8.217,10.592c-0.691,0.892-1.765,1.407-2.895,1.411
			l-44.681-0.009C-336.56,905.501-337.532,905.063-338.224,904.313z"/>
	</g>
	<g>
		<path fill="#323232" d="M-346.465,1005.68c-1.192-1.297-1.307-3.296-0.195-4.727l8.222-10.582
			c0.691-0.893,1.765-1.412,2.895-1.417l44.681,0.01c1.135,0.005,2.208,0.52,2.89,1.421l8.212,10.598
			c1.24,1.592,0.954,3.896-0.649,5.136c-1.602,1.24-3.93,0.982-5.136-0.653l-7.11-9.171l-41.095-0.005l-7.125,9.161
			c-1.24,1.598-3.543,1.884-5.136,0.649C-346.184,1005.966-346.331,1005.832-346.465,1005.68z"/>
	</g>
	<g>
		<path fill="#323232" d="M-315.909,995.097c-0.601-0.648-0.963-1.521-0.963-2.47l0.024-88.219c0-2.021,1.64-3.662,3.667-3.662
			c2.018,0.005,3.653,1.641,3.658,3.662l-0.024,88.219c0,2.021-1.641,3.657-3.667,3.662
			C-314.278,996.284-315.237,995.831-315.909,995.097z"/>
	</g>
</g>
<g>
	<g>
		<g>
			<g>
				<path fill="#323232" d="M-578.198,990.504h-113.236c-2.022,0-3.663-1.641-3.663-3.662v-86.606c0-2.021,1.641-3.662,3.663-3.662
					h131.53c2.022,0,3.663,1.641,3.663,3.662v82.166c0,2.022-1.641,3.663-3.663,3.663s-3.663-1.641-3.663-3.663v-78.503h-124.205
					v79.28h109.574c2.022,0,3.663,1.641,3.663,3.663C-574.535,988.863-576.176,990.504-578.198,990.504z"/>
			</g>
		</g>
		<g>
			<g>
				<path fill="#323232" d="M-607.06,972.367c-0.582,0-1.164-0.138-1.703-0.419l-17.011-8.942l-17.006,8.942
					c-1.235,0.644-2.728,0.544-3.858-0.282c-1.13-0.82-1.693-2.207-1.454-3.581l3.252-18.938l-13.764-13.416
					c-0.997-0.973-1.354-2.427-0.925-3.753s1.579-2.294,2.957-2.494l19.009-2.762l8.508-17.23c1.23-2.499,5.336-2.499,6.567,0
					l8.503,17.23l19.019,2.762c1.378,0.2,2.528,1.168,2.957,2.494s0.071,2.78-0.925,3.753l-13.764,13.416l3.252,18.938
					c0.234,1.374-0.333,2.767-1.459,3.581C-605.543,972.134-606.297,972.367-607.06,972.367z M-625.774,955.204
					c0.591,0,1.173,0.138,1.708,0.419l12.142,6.387l-2.318-13.521c-0.2-1.188,0.19-2.399,1.059-3.243l9.824-9.581l-13.582-1.97
					c-1.192-0.172-2.223-0.92-2.757-2.003l-6.076-12.304l-6.071,12.304c-0.529,1.083-1.564,1.831-2.757,2.003l-13.577,1.97
					l9.824,9.581c0.868,0.844,1.259,2.056,1.059,3.243l-2.322,13.521l12.142-6.387
					C-626.942,955.342-626.355,955.204-625.774,955.204z"/>
			</g>
		</g>
		<g>
			<g>
				<path fill="#323232" d="M-661.923,918.982h-15.843c-2.022,0-3.663-1.641-3.663-3.662c0-2.022,1.641-3.663,3.663-3.663h15.843
					c2.022,0,3.663,1.641,3.663,3.663C-658.261,917.342-659.901,918.982-661.923,918.982z"/>
			</g>
		</g>
	</g>
</g>
<g>
	<polygon fill="#FFFFFF" points="-279.755,949.066 -319.443,971.948 -322.405,1016.371 -239.719,1015.795 -240.935,971.924 	"/>
	<g>
		<path fill="#323232" d="M-238.841,1020.535h-84.441c-1.641,0-2.966-1.326-2.966-2.967v-46.012c0-1.14,0.658-2.184,1.688-2.676
			l41.376-23.678c1.488-0.715,3.248-0.076,3.954,1.397c0.706,1.479,0.076,3.253-1.397,3.953l-39.683,22.882v41.162h78.499v-41.186
			l-39.727-22.867c-1.474-0.726-2.079-2.5-1.359-3.973c0.72-1.469,2.489-2.08,3.968-1.359l41.396,23.683
			c1.016,0.496,1.66,1.531,1.66,2.661v46.012C-235.875,1019.209-237.201,1020.535-238.841,1020.535z"/>
	</g>
	<g>
		<path fill="#323232" d="M-281.062,998.707c-0.515,0-1.021-0.129-1.474-0.396l-42.22-24.18c-1.426-0.811-1.913-2.628-1.102-4.044
			c0.815-1.421,2.613-1.917,4.054-1.102l40.742,23.335l40.742-23.335c1.44-0.815,3.243-0.319,4.054,1.102
			c0.811,1.416,0.324,3.233-1.102,4.044l-42.221,24.18C-280.046,998.578-280.552,998.707-281.062,998.707z"/>
	</g>
	<g>
		<path fill="#323232" d="M-323.277,1017.854c-0.921,0-1.827-0.424-2.404-1.216c-0.963-1.326-0.672-3.181,0.653-4.148l33.321-24.246
			c1.34-0.959,3.186-0.663,4.145,0.658c0.963,1.32,0.672,3.176-0.653,4.139l-33.322,24.251
			C-322.066,1017.674-322.677,1017.854-323.277,1017.854z"/>
	</g>
	<g>
		<path fill="#323232" d="M-238.846,1017.854c-0.606,0-1.221-0.181-1.75-0.572l-32.158-23.583c-1.326-0.968-1.612-2.823-0.639-4.145
			c0.963-1.32,2.809-1.621,4.144-0.639l32.158,23.583c1.326,0.964,1.607,2.828,0.639,4.145
			C-237.029,1017.436-237.931,1017.854-238.846,1017.854z"/>
	</g>
</g>
<path fill="#323232" d="M92.937,1013.644c-0.033,0-0.062,0-0.1,0H4.123c-1.135,0-2.198-0.52-2.89-1.411
	c-0.696-0.893-0.939-2.056-0.663-3.152c6.319-24.957,8.961-53.781,2.551-58.359c-1.354,0.797-4.831,4.449-7.458,8.094
	c-0.663,0.915-1.708,1.479-2.843,1.516c-1.092,0.129-2.212-0.438-2.938-1.302l-19.219-22.892c-0.639-0.768-0.944-1.76-0.834-2.751
	c0.109-0.992,0.615-1.898,1.407-2.509c0.253-0.191,25.057-19.276,31.905-26.74l1.159-1.292c3.419-3.839,7.268-8.16,17.011-10.525
	l4.139-9.314c0.582-1.325,1.898-2.179,3.348-2.179h39.373c1.445,0,2.757,0.854,3.348,2.179l4.13,9.314
	c9.743,2.365,13.591,6.687,17.011,10.525l1.159,1.292c6.848,7.469,31.652,26.549,31.904,26.74c0.792,0.61,1.298,1.517,1.407,2.509
	c0.109,0.991-0.195,1.983-0.835,2.751l-19.219,22.892c-0.725,0.863-1.793,1.431-2.938,1.302c-1.136-0.037-2.18-0.601-2.843-1.516
	c-2.557-3.539-5.909-7.092-7.535-8.041c-6.247,4.692-3.72,32.85,2.433,57.533c0.257,0.501,0.405,1.068,0.405,1.675
	C96.6,1012.003,94.959,1013.644,92.937,1013.644z M8.772,1006.318h79.414c-3.62-15.686-11.307-55.846,3.104-62.561
	c0.706-0.329,1.47-0.496,2.271-0.496c3.577,0,7.692,3.868,10.816,7.583l13.858-16.501c-6.986-5.446-23.969-18.885-29.815-25.257
	l-1.23-1.368c-3.42-3.84-6.119-6.873-14.861-8.633c-1.164-0.233-2.146-1.021-2.623-2.107l-3.92-8.828H31.178l-3.916,8.828
	c-0.486,1.087-1.459,1.874-2.628,2.107c-8.747,1.76-11.446,4.793-14.865,8.633l-1.23,1.368c-5.847,6.372-22.83,19.811-29.816,25.257
	l13.859,16.501c3.124-3.715,7.239-7.583,10.816-7.583c0.801,0,1.564,0.167,2.27,0.496C20.08,950.473,12.392,990.633,8.772,1006.318z
	"/>
<g>
	<path fill="#323232" d="M48.637,909.312c-1.025,0-2.309-0.43-3-1.179l-19.534-21.16c-1.369-1.487-1.278-3.806,0.205-5.174
		c1.488-1.379,3.806-1.288,5.179,0.205l16.997,18.408l16.992-18.408c1.378-1.493,3.696-1.584,5.174-0.205
		c1.488,1.368,1.583,3.687,0.21,5.174l-19.534,21.16C50.63,908.882,49.658,909.312,48.637,909.312z"/>
</g>
<g>
	<path fill="none" stroke="#323333" stroke-width="3" stroke-miterlimit="10" d="M-359.378,184.773c0,4.791-3.884,8.675-8.675,8.675
		h-147.479c-4.792,0-8.676-3.884-8.676-8.675v-50.316V62.162c0-4.791,3.884-8.675,8.676-8.675h147.479
		c4.792,0,8.675,3.885,8.675,8.675V184.773z"/>
	
		<polyline fill="none" stroke="#323333" stroke-width="3" stroke-linecap="round" stroke-linejoin="round" stroke-miterlimit="10" points="
		-524.209,146.149 -498.646,117.231 -459.262,153.953 	"/>
	
		<polyline fill="none" stroke="#323333" stroke-width="3" stroke-linecap="round" stroke-linejoin="round" stroke-miterlimit="10" points="
		-473.362,140.806 -452.132,121.404 -374.168,193.449 	"/>
	
		<circle fill="none" stroke="#323333" stroke-width="3" stroke-linecap="round" stroke-linejoin="round" stroke-miterlimit="10" cx="-402.093" cy="88.141" r="22.773"/>
</g>
<line fill="none" stroke="#323232" stroke-width="3" stroke-linecap="round" stroke-miterlimit="10" x1="-125.088" y1="241.077" x2="-38.178" y2="241.076"/>
<line fill="none" stroke="#323232" stroke-width="3" stroke-linecap="round" stroke-miterlimit="10" x1="-170.864" y1="256.771" x2="-38.178" y2="256.771"/>
<line fill="none" stroke="#323232" stroke-width="3" stroke-linecap="round" stroke-miterlimit="10" x1="-226.088" y1="273.25" x2="-38.178" y2="273.25"/>
<line fill="none" stroke="#323232" stroke-width="6" stroke-linecap="round" stroke-miterlimit="10" x1="34.653" y1="66.029" x2="34.653" y2="302.008"/>
<line fill="none" stroke="#323232" stroke-width="6" stroke-linecap="round" stroke-miterlimit="10" x1="233.76" y1="76.529" x2="34.653" y2="76.529"/>
<line fill="none" stroke="#323232" stroke-width="6" stroke-linecap="round" stroke-miterlimit="10" x1="233.76" y1="157.426" x2="34.653" y2="157.426"/>
<line fill="none" stroke="#323232" stroke-width="6" stroke-linecap="round" stroke-miterlimit="10" x1="233.76" y1="66.029" x2="233.76" y2="302.008"/>
<rect x="-541.347" y="35.007" fill="none" stroke="#323232" stroke-width="6" stroke-miterlimit="10" width="199.106" height="264.675"/>
<g>
	<path fill="none" stroke="#323333" stroke-width="6" stroke-miterlimit="10" d="M-21.588,287.206c0,6.759-5.479,12.24-12.241,12.24
		h-228.069c-6.76,0-12.241-5.48-12.241-12.24v-70.987v-67.793c0-6.759,5.48-12.24,12.241-12.24h228.069
		c6.761,0,12.241,5.48,12.241,12.24V287.206z"/>
</g>
<g>
	<path fill="none" stroke="#323333" stroke-width="3" stroke-miterlimit="10" d="M-186.474,212.708
		c0,6.759-5.479,12.24-12.241,12.24h-43.968c-6.76,0-12.241-5.48-12.241-12.24v-24.372v-21.71c0-6.759,5.48-12.24,12.241-12.24
		h43.968c6.761,0,12.241,5.48,12.241,12.24V212.708z"/>
</g>
<g>
	<g>
		<path fill="#323232" d="M704.781,138.543H465.707c-9.662,0-17.521-7.859-17.521-17.51v-153.74c0-9.66,7.858-17.511,17.521-17.511
			h239.074c9.661,0,17.521,7.851,17.521,17.511v153.74C722.302,130.684,714.442,138.543,704.781,138.543z M465.707-38.955
			c-3.451,0-6.258,2.807-6.258,6.248v153.74c0,3.45,2.807,6.256,6.258,6.256h239.074c3.451,0,6.276-2.806,6.276-6.256v-153.74
			c0-3.441-2.825-6.248-6.276-6.248H465.707z"/>
	</g>
	<path fill="#38B26E" d="M536.556,23.704h-52.665c-3.109,0-5.641-2.522-5.641-5.623v-31.456c0-3.11,2.531-5.623,5.641-5.623h52.665
		c3.109,0,5.622,2.512,5.622,5.623v31.456C542.178,21.182,539.665,23.704,536.556,23.704z M489.513,12.45h41.421V-7.753h-41.421
		V12.45z"/>
	<path fill="#323232" d="M677.107,50.079H628.68c-4.352,0-7.869-3.508-7.869-7.859c0-4.342,3.518-7.86,7.869-7.86h48.428
		c4.343,0,7.859,3.518,7.859,7.86C684.967,46.571,681.45,50.079,677.107,50.079z"/>
	<path fill="#323232" d="M680.027,80.559H575.275c-4.333,0-7.859-3.527-7.859-7.86c0-4.352,3.526-7.878,7.859-7.878h104.752
		c4.343,0,7.859,3.526,7.859,7.878C687.887,77.032,684.37,80.559,680.027,80.559z"/>
	<path fill="#323232" d="M680.027,102.886H575.275c-4.333,0-7.859-3.527-7.859-7.859c0-4.342,3.526-7.869,7.859-7.869h104.752
		c4.343,0,7.859,3.527,7.859,7.869C687.887,99.359,684.37,102.886,680.027,102.886z"/>
</g>
<g>
	<path fill="#38B26E" d="M765.45,356.801c-1.916,0-3.758-0.147-5.525-0.442s-3.328-0.925-4.678-1.891
		c-1.352-0.965-2.432-2.36-3.242-4.183c-0.811-1.823-1.215-4.264-1.215-7.32c0-2.948,0.393-5.362,1.179-7.24
		c0.784-1.876,1.853-3.339,3.204-4.384c1.351-1.046,2.91-1.756,4.678-2.132c1.769-0.374,3.635-0.563,5.6-0.563h28.362
		c1.964,0,3.831,0.189,5.599,0.563c1.768,0.376,3.326,1.086,4.678,2.132c1.351,1.045,2.419,2.508,3.205,4.384
		c0.785,1.878,1.179,4.292,1.179,7.24c0,3.057-0.405,5.497-1.216,7.32c-0.811,1.822-1.891,3.218-3.241,4.183
		c-1.352,0.966-2.91,1.596-4.679,1.891c-1.768,0.295-3.609,0.442-5.524,0.442H765.45z M799.559,315.856h-12.45v7.964h-35.95v-41.83
		h35.95v7.963h12.45v-7.963h8.546v41.83h-8.546V315.856z M795.433,348.596c1.816,0,3.032-0.55,3.646-1.649s0.922-2.453,0.922-4.063
		c0-1.77-0.332-3.217-0.995-4.344c-0.663-1.126-1.854-1.689-3.573-1.689h-31.678c-1.719,0-2.898,0.563-3.535,1.689
		c-0.639,1.127-0.958,2.574-0.958,4.344c0,1.609,0.295,2.963,0.884,4.063c0.59,1.1,1.793,1.649,3.609,1.649H795.433z
		 M759.704,315.615h18.859v-25.42h-18.859V315.615z M787.108,307.65h12.45v-9.492h-12.45V307.65z"/>
	<path fill="#38B26E" d="M816.503,286.655h14.732v-7.884h8.547v7.884h14.732v8.206h-38.012V286.655z M831.751,323.82
		c-1.914,0-3.756-0.121-5.524-0.362s-3.327-0.79-4.679-1.649c-1.351-0.857-2.43-2.131-3.24-3.82s-1.216-3.955-1.216-6.798
		c0-2.735,0.392-4.96,1.179-6.677c0.785-1.715,1.854-3.057,3.205-4.021c1.35-0.966,2.909-1.609,4.678-1.932
		c1.768-0.321,3.633-0.482,5.598-0.482h7.367c1.965,0,3.831,0.161,5.6,0.482c1.768,0.322,3.326,0.966,4.678,1.932
		c1.35,0.965,2.418,2.307,3.205,4.021c0.784,1.717,1.178,3.941,1.178,6.677c0,2.843-0.404,5.108-1.215,6.798
		s-1.892,2.963-3.242,3.82c-1.352,0.859-2.91,1.408-4.678,1.649s-3.609,0.362-5.525,0.362H831.751z M869.986,356.721H817.46v-28.075
		h52.526V356.721z M840.444,315.775c1.866,0,3.205-0.361,4.016-1.086c0.811-0.724,1.215-1.916,1.215-3.579
		c0-1.877-0.441-3.164-1.326-3.861c-0.884-0.696-2.186-1.046-3.904-1.046h-9.725c-1.719,0-3.057,0.35-4.014,1.046
		c-0.959,0.697-1.438,1.984-1.438,3.861c0,1.663,0.442,2.855,1.326,3.579c0.885,0.725,2.259,1.086,4.125,1.086H840.444z
		 M826.005,336.851v11.664h35.436v-11.664H826.005z M861.44,281.99h8.546v16.813h8.398v8.205h-8.398v16.813h-8.546V281.99z"/>
</g>
<g>
	<path fill="#323232" d="M696.648,311.385c0,1.266-0.244,2.3-0.734,3.105s-1.13,1.438-1.92,1.896
		c-0.789,0.458-1.658,0.775-2.606,0.948c-0.947,0.174-1.864,0.26-2.749,0.26s-1.801-0.086-2.749-0.26
		c-0.948-0.173-1.817-0.49-2.606-0.948c-0.791-0.458-1.438-1.09-1.943-1.896s-0.758-1.84-0.758-3.105V284.89
		c0-1.231,0.26-2.25,0.781-3.057c0.521-0.806,1.169-1.438,1.943-1.896c0.773-0.457,1.635-0.772,2.583-0.946
		c0.948-0.173,1.849-0.261,2.702-0.261c0.853,0,1.754,0.088,2.701,0.261c0.947,0.174,1.817,0.489,2.606,0.946
		c0.79,0.459,1.446,1.083,1.967,1.873c0.522,0.791,0.782,1.818,0.782,3.08V311.385z M693.094,284.654
		c0-0.854-0.142-1.541-0.426-2.063c-0.285-0.52-0.641-0.923-1.067-1.207c-0.426-0.285-0.917-0.475-1.469-0.57
		c-0.554-0.094-1.083-0.141-1.588-0.141c-0.474,0-0.972,0.047-1.493,0.141c-0.521,0.096-0.996,0.285-1.422,0.57
		c-0.426,0.284-0.781,0.688-1.066,1.207c-0.285,0.521-0.427,1.209-0.427,2.063v27.016c0,0.854,0.142,1.533,0.427,2.039
		c0.285,0.505,0.641,0.9,1.066,1.185s0.908,0.474,1.445,0.569s1.043,0.142,1.518,0.142c0.504,0,1.025-0.046,1.564-0.142
		c0.536-0.096,1.025-0.285,1.469-0.569c0.441-0.284,0.797-0.68,1.066-1.185c0.268-0.506,0.402-1.186,0.402-2.039V284.654z"/>
	<path fill="#323232" d="M717.029,311.385c0,1.266-0.245,2.3-0.735,3.105s-1.129,1.438-1.918,1.896
		c-0.791,0.458-1.66,0.775-2.607,0.948c-0.949,0.174-1.865,0.26-2.749,0.26c-0.886,0-1.802-0.086-2.75-0.26
		c-0.947-0.173-1.816-0.49-2.607-0.948c-0.788-0.458-1.437-1.09-1.942-1.896s-0.758-1.84-0.758-3.105V284.89
		c0-1.231,0.261-2.25,0.782-3.057c0.521-0.806,1.168-1.438,1.943-1.896c0.773-0.457,1.635-0.772,2.582-0.946
		c0.948-0.173,1.849-0.261,2.702-0.261s1.754,0.088,2.701,0.261c0.949,0.174,1.816,0.489,2.607,0.946
		c0.789,0.459,1.445,1.083,1.967,1.873c0.521,0.791,0.782,1.818,0.782,3.08V311.385z M713.475,284.654
		c0-0.854-0.143-1.541-0.427-2.063c-0.284-0.52-0.64-0.923-1.066-1.207c-0.426-0.285-0.917-0.475-1.469-0.57
		c-0.553-0.094-1.084-0.141-1.589-0.141c-0.474,0-0.972,0.047-1.492,0.141c-0.521,0.096-0.997,0.285-1.423,0.57
		c-0.426,0.284-0.782,0.688-1.065,1.207c-0.285,0.521-0.428,1.209-0.428,2.063v27.016c0,0.854,0.143,1.533,0.428,2.039
		c0.283,0.505,0.64,0.9,1.065,1.185s0.908,0.474,1.447,0.569c0.536,0.096,1.042,0.142,1.516,0.142c0.506,0,1.025-0.046,1.564-0.142
		c0.536-0.096,1.026-0.285,1.469-0.569s0.797-0.68,1.066-1.185c0.269-0.506,0.403-1.186,0.403-2.039V284.654z"/>
	<path fill="#323232" d="M737.409,311.385c0,1.266-0.246,2.3-0.734,3.105c-0.491,0.806-1.131,1.438-1.92,1.896
		c-0.79,0.458-1.658,0.775-2.607,0.948c-0.947,0.174-1.864,0.26-2.748,0.26c-0.885,0-1.802-0.086-2.75-0.26
		c-0.947-0.173-1.816-0.49-2.605-0.948c-0.791-0.458-1.439-1.09-1.944-1.896s-0.759-1.84-0.759-3.105V284.89
		c0-1.231,0.262-2.25,0.783-3.057c0.521-0.806,1.168-1.438,1.943-1.896c0.773-0.457,1.635-0.772,2.582-0.946
		c0.948-0.173,1.85-0.261,2.702-0.261s1.754,0.088,2.702,0.261c0.947,0.174,1.816,0.489,2.606,0.946
		c0.79,0.459,1.446,1.083,1.967,1.873c0.521,0.791,0.782,1.818,0.782,3.08V311.385z M733.854,284.654
		c0-0.854-0.142-1.541-0.426-2.063c-0.285-0.52-0.641-0.923-1.067-1.207c-0.427-0.285-0.917-0.475-1.47-0.57
		c-0.553-0.094-1.083-0.141-1.588-0.141c-0.473,0-0.971,0.047-1.492,0.141c-0.521,0.096-0.996,0.285-1.422,0.57
		c-0.428,0.284-0.783,0.688-1.066,1.207c-0.285,0.521-0.427,1.209-0.427,2.063v27.016c0,0.854,0.142,1.533,0.427,2.039
		c0.283,0.505,0.639,0.9,1.066,1.185c0.426,0.284,0.907,0.474,1.445,0.569c0.537,0.096,1.043,0.142,1.517,0.142
		c0.505,0,1.026-0.046,1.563-0.142s1.027-0.285,1.47-0.569s0.798-0.68,1.067-1.185c0.268-0.506,0.402-1.186,0.402-2.039V284.654z"/>
	<path fill="#323232" d="M742.954,296.693h15.973v1.992h-15.973V296.693z"/>
	<path fill="#323232" d="M780.54,311.385c0,1.266-0.246,2.3-0.734,3.105c-0.491,0.806-1.131,1.438-1.92,1.896
		c-0.791,0.458-1.658,0.775-2.607,0.948c-0.947,0.174-1.864,0.26-2.748,0.26c-0.885,0-1.803-0.086-2.75-0.26
		c-0.948-0.173-1.816-0.49-2.606-0.948s-1.438-1.09-1.943-1.896s-0.759-1.84-0.759-3.105V284.89c0-1.231,0.262-2.25,0.783-3.057
		c0.521-0.806,1.168-1.438,1.943-1.896c0.773-0.457,1.634-0.772,2.582-0.946c0.947-0.173,1.85-0.261,2.702-0.261
		s1.753,0.088,2.701,0.261c0.948,0.174,1.817,0.489,2.606,0.946c0.789,0.459,1.446,1.083,1.968,1.873
		c0.521,0.791,0.782,1.818,0.782,3.08V311.385z M776.985,284.654c0-0.854-0.143-1.541-0.427-2.063
		c-0.284-0.52-0.64-0.923-1.066-1.207c-0.427-0.285-0.917-0.475-1.47-0.57c-0.553-0.094-1.082-0.141-1.588-0.141
		c-0.474,0-0.972,0.047-1.492,0.141c-0.521,0.096-0.996,0.285-1.422,0.57c-0.428,0.284-0.783,0.688-1.066,1.207
		c-0.285,0.521-0.427,1.209-0.427,2.063v27.016c0,0.854,0.142,1.533,0.427,2.039c0.283,0.505,0.639,0.9,1.066,1.185
		c0.426,0.284,0.907,0.474,1.445,0.569c0.536,0.096,1.043,0.142,1.517,0.142c0.505,0,1.026-0.046,1.563-0.142
		s1.027-0.285,1.471-0.569c0.441-0.284,0.796-0.68,1.065-1.185c0.269-0.506,0.403-1.186,0.403-2.039V284.654z"/>
	<path fill="#323232" d="M800.92,311.385c0,1.266-0.245,2.3-0.735,3.105s-1.129,1.438-1.919,1.896s-1.659,0.775-2.606,0.948
		c-0.949,0.174-1.865,0.26-2.75,0.26s-1.801-0.086-2.748-0.26c-0.948-0.173-1.818-0.49-2.607-0.948
		c-0.79-0.458-1.438-1.09-1.943-1.896s-0.758-1.84-0.758-3.105V284.89c0-1.231,0.261-2.25,0.781-3.057
		c0.521-0.806,1.17-1.438,1.943-1.896c0.773-0.457,1.636-0.772,2.584-0.946c0.947-0.173,1.848-0.261,2.701-0.261
		s1.754,0.088,2.701,0.261c0.948,0.174,1.816,0.489,2.607,0.946c0.789,0.459,1.445,1.083,1.967,1.873
		c0.521,0.791,0.782,1.818,0.782,3.08V311.385z M797.364,284.654c0-0.854-0.141-1.541-0.426-2.063
		c-0.284-0.52-0.64-0.923-1.066-1.207c-0.426-0.285-0.917-0.475-1.47-0.57c-0.553-0.094-1.083-0.141-1.587-0.141
		c-0.475,0-0.973,0.047-1.494,0.141c-0.521,0.096-0.995,0.285-1.422,0.57c-0.426,0.284-0.781,0.688-1.066,1.207
		c-0.284,0.521-0.426,1.209-0.426,2.063v27.016c0,0.854,0.142,1.533,0.426,2.039c0.285,0.505,0.641,0.9,1.066,1.185
		c0.427,0.284,0.908,0.474,1.446,0.569c0.536,0.096,1.042,0.142,1.517,0.142c0.505,0,1.026-0.046,1.564-0.142
		c0.537-0.096,1.025-0.285,1.469-0.569c0.442-0.284,0.798-0.68,1.066-1.185c0.269-0.506,0.402-1.186,0.402-2.039V284.654z"/>
	<path fill="#323232" d="M821.3,311.385c0,1.266-0.244,2.3-0.734,3.105s-1.131,1.438-1.92,1.896s-1.658,0.775-2.606,0.948
		c-0.948,0.174-1.864,0.26-2.749,0.26s-1.801-0.086-2.749-0.26c-0.948-0.173-1.817-0.49-2.606-0.948
		c-0.791-0.458-1.438-1.09-1.943-1.896s-0.759-1.84-0.759-3.105V284.89c0-1.231,0.261-2.25,0.782-3.057
		c0.521-0.806,1.168-1.438,1.943-1.896c0.774-0.457,1.635-0.772,2.583-0.946c0.948-0.173,1.849-0.261,2.701-0.261
		c0.854,0,1.754,0.088,2.702,0.261c0.947,0.174,1.816,0.489,2.606,0.946c0.79,0.459,1.446,1.083,1.967,1.873
		c0.522,0.791,0.782,1.818,0.782,3.08V311.385z M817.745,284.654c0-0.854-0.143-1.541-0.427-2.063
		c-0.284-0.52-0.64-0.923-1.065-1.207c-0.427-0.285-0.918-0.475-1.471-0.57c-0.552-0.094-1.082-0.141-1.587-0.141
		c-0.475,0-0.972,0.047-1.493,0.141c-0.521,0.096-0.996,0.285-1.422,0.57c-0.427,0.284-0.782,0.688-1.066,1.207
		c-0.283,0.521-0.427,1.209-0.427,2.063v27.016c0,0.854,0.144,1.533,0.427,2.039c0.284,0.505,0.64,0.9,1.066,1.185
		c0.426,0.284,0.908,0.474,1.445,0.569s1.043,0.142,1.517,0.142c0.505,0,1.026-0.046,1.564-0.142
		c0.537-0.096,1.026-0.285,1.47-0.569c0.441-0.284,0.797-0.68,1.066-1.185c0.268-0.506,0.402-1.186,0.402-2.039V284.654z"/>
	<path fill="#323232" d="M841.681,311.385c0,1.266-0.246,2.3-0.734,3.105c-0.49,0.806-1.131,1.438-1.92,1.896
		c-0.79,0.458-1.658,0.775-2.607,0.948c-0.947,0.174-1.864,0.26-2.748,0.26c-0.885,0-1.802-0.086-2.75-0.26
		c-0.947-0.173-1.816-0.49-2.606-0.948s-1.438-1.09-1.943-1.896c-0.506-0.806-0.759-1.84-0.759-3.105V284.89
		c0-1.231,0.262-2.25,0.783-3.057c0.521-0.806,1.168-1.438,1.943-1.896c0.773-0.457,1.635-0.772,2.582-0.946
		c0.948-0.173,1.85-0.261,2.702-0.261c0.854,0,1.755,0.088,2.701,0.261c0.948,0.174,1.817,0.489,2.606,0.946
		c0.791,0.459,1.446,1.083,1.967,1.873c0.521,0.791,0.783,1.818,0.783,3.08V311.385z M838.126,284.654
		c0-0.854-0.143-1.541-0.426-2.063c-0.285-0.52-0.641-0.923-1.068-1.207c-0.426-0.285-0.916-0.475-1.469-0.57
		c-0.553-0.094-1.083-0.141-1.588-0.141c-0.473,0-0.971,0.047-1.492,0.141c-0.521,0.096-0.996,0.285-1.422,0.57
		c-0.428,0.284-0.783,0.688-1.067,1.207c-0.284,0.521-0.427,1.209-0.427,2.063v27.016c0,0.854,0.143,1.533,0.427,2.039
		c0.284,0.505,0.64,0.9,1.067,1.185c0.426,0.284,0.908,0.474,1.445,0.569s1.043,0.142,1.517,0.142c0.505,0,1.026-0.046,1.563-0.142
		s1.027-0.285,1.469-0.569c0.443-0.284,0.799-0.68,1.067-1.185c0.269-0.506,0.403-1.186,0.403-2.039V284.654z"/>
</g>
<path fill="none" stroke="#323333" stroke-width="3" stroke-miterlimit="10" d="M860.685,210.719c0,5.787-4.691,10.479-10.48,10.479
	H672.059c-5.789,0-10.48-4.692-10.48-10.479v-60.778V62.612c0-5.787,4.691-10.479,10.48-10.479h178.146
	c5.789,0,10.48,4.692,10.48,10.479V210.719z"/>
<polyline fill="none" stroke="#323333" stroke-width="3" stroke-linecap="round" stroke-linejoin="round" stroke-miterlimit="10" points="
	661.578,164.064 692.456,129.133 740.03,173.49 "/>
<polyline fill="none" stroke="#323333" stroke-width="3" stroke-linecap="round" stroke-linejoin="round" stroke-miterlimit="10" points="
	722.998,157.609 748.644,134.173 842.819,221.199 "/>
<circle fill="none" stroke="#323333" stroke-miterlimit="10" cx="-96.65" cy="208.629" r="9.217"/>
<circle fill="none" stroke="#323333" stroke-miterlimit="10" cx="-74.7" cy="208.629" r="9.217"/>
<circle fill="none" stroke="#323333" stroke-miterlimit="10" cx="-53.726" cy="208.629" r="9.217"/>
<rect x="640.877" y="29.811" fill="none" stroke="#323232" stroke-width="6" stroke-miterlimit="10" width="240.508" height="319.711"/>
</svg>
