<?xml version="1.0" encoding="utf-8"?>
<!-- Generator: Adobe Illustrator 16.0.0, SVG Export Plug-In . SVG Version: 6.00 Build 0)  -->
<!DOCTYPE svg PUBLIC "-//W3C//DTD SVG 1.1//EN" "http://www.w3.org/Graphics/SVG/1.1/DTD/svg11.dtd">
<svg version="1.1" id="레이어_1" xmlns="http://www.w3.org/2000/svg" xmlns:xlink="http://www.w3.org/1999/xlink" x="0px"
	 y="0px" width="268.412px" height="334.754px" viewBox="0 0 268.412 334.754" enable-background="new 0 0 268.412 334.754"
	 xml:space="preserve">
<g>
	<path fill="#323232" d="M-495.176-462.871c0,1.048-0.203,1.904-0.608,2.571c-0.406,0.667-0.935,1.19-1.59,1.569
		c-0.653,0.379-1.373,0.641-2.157,0.785c-0.784,0.144-1.544,0.215-2.276,0.215c-0.732,0-1.491-0.071-2.276-0.215
		c-0.784-0.144-1.504-0.406-2.158-0.785c-0.654-0.379-1.19-0.903-1.609-1.569c-0.418-0.667-0.627-1.523-0.627-2.571v-21.934
		c0-1.02,0.216-1.863,0.647-2.531c0.431-0.667,0.967-1.19,1.609-1.569c0.64-0.379,1.354-0.64,2.138-0.784
		c0.785-0.144,1.531-0.216,2.237-0.216s1.453,0.073,2.237,0.216s1.504,0.405,2.158,0.784c0.653,0.379,1.197,0.896,1.628,1.55
		c0.432,0.654,0.648,1.505,0.648,2.55V-462.871z M-498.118-485c0-0.707-0.118-1.276-0.353-1.708c-0.236-0.431-0.53-0.765-0.884-1
		c-0.353-0.236-0.759-0.393-1.216-0.471c-0.458-0.079-0.896-0.117-1.314-0.117c-0.392,0-0.804,0.039-1.236,0.117
		c-0.432,0.079-0.824,0.235-1.177,0.471c-0.353,0.235-0.647,0.569-0.883,1c-0.235,0.431-0.353,1-0.353,1.708v22.365
		c0,0.707,0.118,1.27,0.353,1.688c0.236,0.418,0.53,0.745,0.883,0.98c0.353,0.236,0.752,0.393,1.197,0.471
		c0.444,0.079,0.863,0.117,1.255,0.117c0.418,0,0.85-0.038,1.295-0.117c0.444-0.079,0.85-0.235,1.216-0.471
		c0.366-0.236,0.66-0.563,0.883-0.98c0.222-0.418,0.334-0.981,0.334-1.688V-485z"/>
	<path fill="#323232" d="M-478.304-462.871c0,1.048-0.203,1.904-0.608,2.571c-0.406,0.667-0.936,1.19-1.588,1.569
		c-0.655,0.379-1.374,0.641-2.159,0.785c-0.785,0.144-1.544,0.215-2.275,0.215c-0.733,0-1.491-0.071-2.276-0.215
		c-0.785-0.144-1.504-0.406-2.158-0.785c-0.653-0.379-1.19-0.903-1.608-1.569c-0.419-0.667-0.627-1.523-0.627-2.571v-21.934
		c0-1.02,0.215-1.863,0.647-2.531c0.432-0.667,0.967-1.19,1.609-1.569c0.641-0.379,1.354-0.64,2.138-0.784
		c0.785-0.144,1.53-0.216,2.237-0.216c0.706,0,1.452,0.073,2.236,0.216c0.785,0.144,1.503,0.405,2.158,0.784
		c0.654,0.379,1.197,0.896,1.628,1.55c0.432,0.654,0.647,1.505,0.647,2.55V-462.871z M-481.247-485c0-0.707-0.118-1.276-0.353-1.708
		s-0.53-0.765-0.883-1c-0.353-0.236-0.759-0.393-1.216-0.471c-0.458-0.079-0.897-0.117-1.315-0.117
		c-0.392,0-0.804,0.039-1.235,0.117c-0.432,0.079-0.825,0.235-1.178,0.471c-0.353,0.235-0.647,0.569-0.882,1
		c-0.236,0.431-0.354,1-0.354,1.708v22.365c0,0.707,0.118,1.27,0.354,1.688c0.235,0.418,0.53,0.745,0.882,0.98
		s0.751,0.393,1.197,0.471c0.444,0.079,0.863,0.117,1.255,0.117c0.418,0,0.849-0.038,1.295-0.117
		c0.443-0.079,0.849-0.235,1.216-0.471c0.366-0.236,0.66-0.563,0.883-0.98c0.222-0.418,0.333-0.981,0.333-1.688V-485z"/>
	<path fill="#323232" d="M-461.432-462.871c0,1.048-0.204,1.904-0.608,2.571c-0.407,0.667-0.936,1.19-1.589,1.569
		c-0.654,0.379-1.373,0.641-2.159,0.785c-0.784,0.144-1.543,0.215-2.275,0.215c-0.733,0-1.492-0.071-2.276-0.215
		c-0.785-0.144-1.503-0.406-2.158-0.785c-0.654-0.379-1.191-0.903-1.609-1.569c-0.418-0.667-0.628-1.523-0.628-2.571v-21.934
		c0-1.02,0.216-1.863,0.648-2.531c0.431-0.667,0.967-1.19,1.608-1.569c0.641-0.379,1.354-0.64,2.138-0.784s1.531-0.216,2.237-0.216
		s1.452,0.073,2.236,0.216c0.785,0.144,1.504,0.405,2.158,0.784c0.654,0.379,1.197,0.896,1.628,1.55
		c0.432,0.654,0.648,1.505,0.648,2.55V-462.871z M-464.375-485c0-0.707-0.117-1.276-0.353-1.708c-0.236-0.431-0.531-0.765-0.883-1
		c-0.353-0.236-0.759-0.393-1.216-0.471c-0.458-0.079-0.897-0.117-1.314-0.117c-0.392,0-0.805,0.039-1.236,0.117
		c-0.431,0.079-0.824,0.235-1.177,0.471c-0.354,0.235-0.648,0.569-0.883,1s-0.353,1-0.353,1.708v22.365
		c0,0.707,0.118,1.27,0.353,1.688c0.235,0.418,0.53,0.745,0.883,0.98c0.353,0.236,0.751,0.393,1.197,0.471
		c0.444,0.079,0.863,0.117,1.255,0.117c0.417,0,0.85-0.038,1.294-0.117c0.444-0.079,0.85-0.235,1.216-0.471
		c0.367-0.236,0.66-0.563,0.883-0.98c0.222-0.418,0.333-0.981,0.333-1.688V-485z"/>
	<path fill="#323232" d="M-456.841-475.035h13.223v1.649h-13.223V-475.035z"/>
	<path fill="#323232" d="M-425.726-462.871c0,1.048-0.203,1.904-0.608,2.571c-0.406,0.667-0.936,1.19-1.589,1.569
		c-0.654,0.379-1.373,0.641-2.159,0.785c-0.785,0.144-1.543,0.215-2.275,0.215c-0.733,0-1.492-0.071-2.276-0.215
		c-0.785-0.144-1.504-0.406-2.158-0.785c-0.654-0.379-1.19-0.903-1.609-1.569c-0.418-0.667-0.628-1.523-0.628-2.571v-21.934
		c0-1.02,0.216-1.863,0.648-2.531c0.431-0.667,0.967-1.19,1.608-1.569c0.641-0.379,1.353-0.64,2.138-0.784
		c0.784-0.144,1.531-0.216,2.237-0.216c0.706,0,1.452,0.073,2.236,0.216c0.785,0.144,1.504,0.405,2.158,0.784
		c0.653,0.379,1.197,0.896,1.628,1.55c0.431,0.654,0.647,1.505,0.647,2.55V-462.871z M-428.669-485c0-0.707-0.117-1.276-0.353-1.708
		c-0.235-0.431-0.53-0.765-0.883-1c-0.353-0.236-0.759-0.393-1.217-0.471c-0.458-0.079-0.896-0.117-1.314-0.117
		c-0.393,0-0.805,0.039-1.236,0.117s-0.824,0.235-1.177,0.471c-0.353,0.235-0.648,0.569-0.883,1s-0.353,1-0.353,1.708v22.365
		c0,0.707,0.118,1.27,0.353,1.688c0.235,0.418,0.53,0.745,0.883,0.98s0.751,0.393,1.197,0.471c0.444,0.079,0.863,0.117,1.255,0.117
		c0.418,0,0.849-0.038,1.295-0.117c0.444-0.079,0.85-0.235,1.216-0.471c0.366-0.236,0.66-0.563,0.883-0.98
		c0.222-0.418,0.333-0.981,0.333-1.688V-485z"/>
	<path fill="#323232" d="M-408.854-462.871c0,1.048-0.203,1.904-0.608,2.571c-0.406,0.667-0.935,1.19-1.589,1.569
		c-0.654,0.379-1.374,0.641-2.158,0.785c-0.785,0.144-1.544,0.215-2.276,0.215c-0.733,0-1.491-0.071-2.276-0.215
		c-0.784-0.144-1.504-0.406-2.158-0.785c-0.654-0.379-1.191-0.903-1.609-1.569c-0.419-0.667-0.628-1.523-0.628-2.571v-21.934
		c0-1.02,0.216-1.863,0.647-2.531c0.432-0.667,0.968-1.19,1.609-1.569c0.64-0.379,1.354-0.64,2.138-0.784
		c0.785-0.144,1.531-0.216,2.236-0.216c0.707,0,1.453,0.073,2.237,0.216c0.784,0.144,1.503,0.405,2.158,0.784
		c0.653,0.379,1.197,0.896,1.628,1.55c0.431,0.654,0.647,1.505,0.647,2.55V-462.871z M-411.798-485c0-0.707-0.117-1.276-0.353-1.708
		c-0.235-0.431-0.53-0.765-0.883-1c-0.353-0.236-0.759-0.393-1.216-0.471s-0.896-0.117-1.314-0.117
		c-0.392,0-0.805,0.039-1.236,0.117s-0.824,0.235-1.177,0.471c-0.353,0.235-0.647,0.569-0.883,1s-0.353,1-0.353,1.708v22.365
		c0,0.707,0.118,1.27,0.353,1.688c0.235,0.418,0.53,0.745,0.883,0.98c0.353,0.236,0.751,0.393,1.197,0.471
		c0.444,0.079,0.863,0.117,1.255,0.117c0.418,0,0.85-0.038,1.295-0.117c0.444-0.079,0.849-0.235,1.216-0.471
		c0.366-0.236,0.66-0.563,0.883-0.98c0.222-0.418,0.333-0.981,0.333-1.688V-485z"/>
	<path fill="#323232" d="M-391.983-462.871c0,1.048-0.203,1.904-0.607,2.571c-0.406,0.667-0.936,1.19-1.589,1.569
		c-0.654,0.379-1.374,0.641-2.158,0.785c-0.785,0.144-1.544,0.215-2.276,0.215c-0.732,0-1.491-0.071-2.276-0.215
		c-0.785-0.144-1.504-0.406-2.158-0.785c-0.654-0.379-1.19-0.903-1.608-1.569c-0.419-0.667-0.628-1.523-0.628-2.571v-21.934
		c0-1.02,0.215-1.863,0.647-2.531c0.431-0.667,0.967-1.19,1.609-1.569c0.641-0.379,1.354-0.64,2.138-0.784s1.53-0.216,2.236-0.216
		c0.707,0,1.452,0.073,2.237,0.216c0.784,0.144,1.504,0.405,2.158,0.784c0.654,0.379,1.197,0.896,1.628,1.55
		c0.432,0.654,0.647,1.505,0.647,2.55V-462.871z M-394.926-485c0-0.707-0.117-1.276-0.353-1.708c-0.235-0.431-0.53-0.765-0.882-1
		c-0.353-0.236-0.759-0.393-1.217-0.471c-0.457-0.079-0.896-0.117-1.314-0.117c-0.393,0-0.805,0.039-1.236,0.117
		c-0.432,0.079-0.825,0.235-1.178,0.471c-0.353,0.235-0.647,0.569-0.883,1c-0.234,0.431-0.353,1-0.353,1.708v22.365
		c0,0.707,0.119,1.27,0.353,1.688c0.235,0.418,0.53,0.745,0.883,0.98s0.751,0.393,1.197,0.471c0.444,0.079,0.863,0.117,1.255,0.117
		c0.418,0,0.85-0.038,1.295-0.117c0.445-0.079,0.85-0.235,1.217-0.471c0.365-0.236,0.66-0.563,0.883-0.98
		c0.222-0.418,0.333-0.981,0.333-1.688V-485z"/>
	<path fill="#323232" d="M-375.111-462.871c0,1.048-0.203,1.904-0.608,2.571c-0.406,0.667-0.936,1.19-1.589,1.569
		c-0.654,0.379-1.373,0.641-2.159,0.785c-0.784,0.144-1.543,0.215-2.275,0.215c-0.732,0-1.491-0.071-2.276-0.215
		c-0.785-0.144-1.504-0.406-2.158-0.785c-0.654-0.379-1.19-0.903-1.609-1.569c-0.418-0.667-0.627-1.523-0.627-2.571v-21.934
		c0-1.02,0.216-1.863,0.647-2.531c0.432-0.667,0.968-1.19,1.609-1.569c0.64-0.379,1.353-0.64,2.138-0.784
		c0.785-0.144,1.531-0.216,2.237-0.216s1.452,0.073,2.236,0.216c0.785,0.144,1.505,0.405,2.158,0.784
		c0.654,0.379,1.197,0.896,1.628,1.55c0.432,0.654,0.647,1.505,0.647,2.55V-462.871z M-378.053-485c0-0.707-0.118-1.276-0.353-1.708
		c-0.236-0.431-0.53-0.765-0.883-1c-0.353-0.236-0.759-0.393-1.216-0.471c-0.458-0.079-0.897-0.117-1.315-0.117
		c-0.392,0-0.804,0.039-1.236,0.117s-0.824,0.235-1.177,0.471c-0.354,0.235-0.648,0.569-0.884,1c-0.235,0.431-0.353,1-0.353,1.708
		v22.365c0,0.707,0.118,1.27,0.353,1.688c0.236,0.418,0.53,0.745,0.884,0.98c0.353,0.236,0.751,0.393,1.196,0.471
		c0.445,0.079,0.864,0.117,1.256,0.117c0.417,0,0.85-0.038,1.294-0.117c0.444-0.079,0.85-0.235,1.216-0.471
		c0.367-0.236,0.661-0.563,0.883-0.98c0.222-0.418,0.334-0.981,0.334-1.688V-485z"/>
</g>
<g>
	<path fill="#323232" d="M-36.71,743.613h-118.077c-4.941,0-8.966-4.021-8.966-8.966v-58.679c0-4.945,4.025-8.965,8.966-8.965
		H-36.71c4.94,0,8.966,4.02,8.966,8.965v58.679C-27.744,739.593-31.77,743.613-36.71,743.613z M-154.787,672.765
		c-1.765,0-3.205,1.436-3.205,3.204v58.679c0,1.77,1.44,3.205,3.205,3.205H-36.71c1.764,0,3.205-1.436,3.205-3.205v-58.679
		c0-1.769-1.44-3.204-3.205-3.204H-154.787z"/>
	<g>
		<g>
			<path fill="#323232" d="M-147.247,713.216c-1.254,0-2.409-0.306-3.434-0.916c-1.021-0.61-1.836-1.454-2.417-2.519
				c-0.582-1.059-0.873-2.241-0.873-3.533c0-1.273,0.305-2.447,0.896-3.486c0.596-1.035,1.421-1.865,2.456-2.466
				c1.813-1.054,4.135-1.245,6.267-0.286c0.901,0.405,1.688,0.964,2.332,1.66c0.234,0.252,0.248,0.639,0.034,0.91l-1.684,2.123
				c-0.138,0.166-0.339,0.271-0.553,0.271h-0.005c-0.214-0.005-0.419-0.105-0.548-0.281c-0.319-0.41-0.682-0.729-1.121-0.969
				c-0.887-0.496-1.779-0.424-2.461,0.015c-0.381,0.243-0.672,0.563-0.892,0.997c-0.224,0.434-0.344,0.935-0.344,1.479
				c0,0.563,0.115,1.059,0.344,1.512c0.219,0.429,0.515,0.763,0.906,1.016c0.668,0.434,1.483,0.51,2.428,0.048
				c0.438-0.215,0.834-0.516,1.173-0.888c0.134-0.147,0.324-0.229,0.52-0.229h0.005c0.2,0,0.386,0.086,0.52,0.233l1.703,1.913
				c0.238,0.271,0.234,0.677-0.009,0.939c-0.677,0.738-1.493,1.335-2.409,1.778C-145.354,712.986-146.303,713.216-147.247,713.216z"
				/>
		</g>
	</g>
	<g>
		<g>
			<path fill="#323232" d="M-135.125,713.216c-1.273,0-2.446-0.306-3.496-0.906c-1.054-0.61-1.888-1.455-2.484-2.514
				c-0.601-1.054-0.901-2.241-0.901-3.529c0-1.287,0.3-2.47,0.901-3.51c0.601-1.044,1.435-1.874,2.475-2.476
				c2.084-1.188,4.921-1.188,7.02,0.015c1.054,0.601,1.884,1.431,2.48,2.476c0.601,1.035,0.901,2.217,0.901,3.495
				c0,1.293-0.301,2.485-0.897,3.529c-0.596,1.059-1.431,1.903-2.48,2.514C-132.659,712.91-133.846,713.216-135.125,713.216z
				 M-135.091,703.382c-0.448,0-0.849,0.119-1.235,0.362c-0.396,0.253-0.706,0.587-0.944,1.035
				c-0.238,0.453-0.357,0.944-0.357,1.507c0,0.558,0.119,1.059,0.362,1.521c0.234,0.453,0.543,0.792,0.944,1.044
				c0.768,0.491,1.698,0.491,2.442,0.005c0.386-0.253,0.682-0.591,0.916-1.04c0.234-0.462,0.348-0.963,0.348-1.53
				s-0.114-1.063-0.348-1.517c-0.229-0.438-0.529-0.777-0.911-1.03C-134.247,703.501-134.647,703.382-135.091,703.382z"/>
		</g>
	</g>
	<g>
		<g>
			<path fill="#323232" d="M-121.49,713.216c-1.192,0-2.241-0.248-3.128-0.729c-0.916-0.487-1.626-1.197-2.127-2.104
				c-0.481-0.896-0.729-1.946-0.729-3.119v-7.072c0-0.387,0.314-0.701,0.701-0.701h2.909c0.387,0,0.701,0.314,0.701,0.701v7.072
				c0,0.635,0.153,1.111,0.477,1.459c0.61,0.668,1.779,0.678,2.361,0.02c0.305-0.348,0.458-0.83,0.458-1.479v-7.072
				c0-0.387,0.315-0.701,0.701-0.701h2.899c0.386,0,0.696,0.314,0.696,0.701v7.072c0,1.173-0.243,2.223-0.725,3.114
				c-0.482,0.901-1.188,1.612-2.094,2.108C-119.272,712.968-120.316,713.216-121.49,713.216z"/>
		</g>
	</g>
	<g>
		<g>
			<path fill="#323232" d="M-110.635,713.077h-2.914c-0.386,0-0.701-0.314-0.701-0.701v-12.185c0-0.387,0.314-0.701,0.701-0.701
				h4.993c1.631,0,2.933,0.434,3.873,1.292c0.954,0.868,1.445,2.104,1.445,3.658c0,1.616-0.482,2.904-1.431,3.825
				c-0.939,0.925-2.247,1.388-3.887,1.388h-1.378v2.723C-109.934,712.763-110.249,713.077-110.635,713.077z M-109.934,705.814h1.23
				c0.462,0,0.787-0.105,1.001-0.311c0.2-0.195,0.3-0.516,0.3-0.963c0-0.43-0.09-0.726-0.295-0.911
				c-0.215-0.196-0.553-0.296-1.006-0.296h-1.23V705.814z"/>
		</g>
	</g>
	<g>
		<g>
			<path fill="#323232" d="M-95.975,713.216c-1.273,0-2.446-0.306-3.496-0.906c-1.049-0.61-1.889-1.455-2.485-2.514
				c-0.601-1.054-0.901-2.241-0.901-3.529c0-1.287,0.301-2.47,0.906-3.51c0.596-1.044,1.431-1.874,2.475-2.476
				c2.084-1.188,4.917-1.188,7.015,0.015c1.054,0.601,1.889,1.431,2.485,2.476c0.596,1.035,0.901,2.217,0.901,3.495
				c0,1.293-0.305,2.485-0.901,3.529c-0.596,1.059-1.431,1.903-2.48,2.514C-93.509,712.91-94.692,713.216-95.975,713.216z
				 M-95.942,703.382c-0.448,0-0.849,0.119-1.235,0.362c-0.396,0.253-0.701,0.587-0.944,1.035c-0.239,0.453-0.358,0.944-0.358,1.507
				c0,0.558,0.119,1.059,0.362,1.521c0.239,0.453,0.549,0.792,0.944,1.044c0.768,0.491,1.698,0.491,2.442,0.005
				c0.386-0.253,0.687-0.591,0.916-1.04c0.234-0.462,0.348-0.963,0.348-1.53s-0.114-1.063-0.348-1.517
				c-0.229-0.438-0.529-0.777-0.911-1.03C-95.098,703.501-95.494,703.382-95.942,703.382z"/>
		</g>
	</g>
	<g>
		<g>
			<path fill="#323232" d="M-76.856,713.077h-2.566c-0.224,0-0.443-0.114-0.572-0.296l-3.997-5.694v5.289
				c0,0.387-0.314,0.701-0.701,0.701h-2.733c-0.386,0-0.696-0.314-0.696-0.701v-12.185c0-0.387,0.31-0.701,0.696-0.701h2.575
				c0.229,0,0.444,0.109,0.572,0.301l4.006,5.703v-5.303c0-0.387,0.314-0.701,0.701-0.701h2.714c0.386,0,0.701,0.314,0.701,0.701
				v12.185C-76.155,712.763-76.47,713.077-76.856,713.077z"/>
		</g>
	</g>
	<g>
		<path fill="#323232" d="M-132.187,685.212c-6.09,0-11.041-4.078-11.041-9.09c0-5.018,4.95-9.1,11.041-9.1l2.79-0.024
			c2.255,0,8.25,0,8.25,5.861C-121.146,677.72-125.887,685.212-132.187,685.212z M-129.396,672.76l-2.79,0.023
			c-3.114,0-5.279,1.76-5.279,3.339c0,1.573,2.165,3.329,5.279,3.329c2.456,0,5.222-4.212,5.279-6.52
			C-127.25,672.846-127.961,672.76-129.396,672.76z"/>
	</g>
	<g>
		<path fill="#323232" d="M-106.1,682.021c-18.537,0-20.683-11.17-20.764-11.646c-0.186-1.078,0.253-2.17,1.135-2.813
			c0.882-0.653,2.046-0.744,3.023-0.233l17.922,9.256c1.183,0.605,1.793,1.946,1.479,3.234
			C-103.615,681.115-104.774,682.021-106.1,682.021z"/>
	</g>
	<g>
		<path fill="#323232" d="M-129.396,672.765L-129.396,672.765l-2.79-0.024c-6.09,0-11.041-4.077-11.041-9.1
			c0-5.012,4.95-9.09,11.041-9.09c6.3,0,11.041,7.492,11.041,12.357c0,2.413-1.154,4.239-3.253,5.141
			C-125.782,672.645-127.398,672.765-129.396,672.765z M-132.187,660.313c-3.114,0-5.279,1.755-5.279,3.328
			c0,1.579,2.165,3.339,5.279,3.339l2.79,0.024l0,0c1.412,0,2.117-0.082,2.465-0.168
			C-127.093,664.328-129.788,660.313-132.187,660.313z"/>
	</g>
	<g>
		<path fill="#323232" d="M-124.027,672.765c-0.601,0-1.202-0.187-1.702-0.559c-0.882-0.644-1.321-1.735-1.135-2.813
			c0.081-0.477,2.227-11.65,20.764-11.65c1.326,0,2.485,0.91,2.795,2.203c0.315,1.287-0.296,2.628-1.474,3.238l-17.922,9.257
			C-123.121,672.659-123.574,672.765-124.027,672.765z"/>
	</g>
	<g>
		<g>
			<rect x="-65.205" y="673.565" fill="#323232" width="7.325" height="16.582"/>
		</g>
	</g>
	<g>
		<g>
			<rect x="-65.205" y="698.012" fill="#323232" width="7.325" height="16.582"/>
		</g>
	</g>
	<g>
		<g>
			<rect x="-65.205" y="722.453" fill="#323232" width="7.325" height="16.587"/>
		</g>
	</g>
</g>
<g>
	<path fill="#323232" d="M-859.171,750.801h-120.261c-4.86,0-8.813-3.954-8.813-8.809v-77.335c0-4.86,3.953-8.809,8.813-8.809
		h120.261c4.859,0,8.813,3.948,8.813,8.809v77.335C-850.358,746.847-854.312,750.801-859.171,750.801z M-979.433,661.514
		c-1.736,0-3.147,1.412-3.147,3.144v77.335c0,1.735,1.412,3.147,3.147,3.147h120.261c1.736,0,3.157-1.412,3.157-3.147v-77.335
		c0-1.731-1.421-3.144-3.157-3.144H-979.433z"/>
</g>
<path fill="#323232" d="M-943.793,693.033h-26.492c-1.564,0-2.837-1.27-2.837-2.828v-15.824c0-1.564,1.273-2.828,2.837-2.828h26.492
	c1.564,0,2.828,1.264,2.828,2.828v15.824C-940.965,691.764-942.229,693.033-943.793,693.033z M-967.458,687.372h20.836v-10.163
	h-20.836V687.372z"/>
<path fill="#323232" d="M-873.092,706.301h-24.36c-2.189,0-3.958-1.765-3.958-3.954c0-2.185,1.769-3.953,3.958-3.953h24.36
	c2.184,0,3.954,1.769,3.954,3.953C-869.139,704.536-870.908,706.301-873.092,706.301z"/>
<path fill="#323232" d="M-871.624,721.633h-52.693c-2.179,0-3.953-1.774-3.953-3.953c0-2.189,1.774-3.963,3.953-3.963h52.693
	c2.185,0,3.954,1.773,3.954,3.963C-867.67,719.858-869.439,721.633-871.624,721.633z"/>
<path fill="#323232" d="M-871.624,732.864h-52.693c-2.179,0-3.953-1.774-3.953-3.954c0-2.184,1.774-3.958,3.953-3.958h52.693
	c2.185,0,3.954,1.774,3.954,3.958C-867.67,731.09-869.439,732.864-871.624,732.864z"/>
<g>
	<g>
		<path fill="#323232" d="M701.129,766.318l-86.693-83.354c-3.504-3.367-3.613-8.957-0.248-12.457l34.467-35.844
			c3.367-3.506,8.951-3.61,12.457-0.244l86.691,83.354c3.506,3.367,3.615,8.952,0.248,12.457l-34.465,35.845
			C710.223,769.575,704.629,769.686,701.129,766.318z M657.186,638.508c-1.254-1.207-3.246-1.169-4.449,0.081l-34.465,35.849
			c-1.203,1.25-1.164,3.243,0.09,4.449l86.691,83.35c1.25,1.201,3.254,1.173,4.455-0.082l34.465-35.844
			c1.203-1.25,1.154-3.253-0.094-4.454L657.186,638.508z"/>
	</g>
</g>
<g>
	<g>
		<path fill="#323232" d="M990.787,681.868H798.18c-3.439,0-6.23-2.79-6.23-6.229V528.327c0-3.438,2.791-6.229,6.23-6.229h223.725
			c3.439,0,6.23,2.791,6.23,6.229v139.759c0,3.44-2.791,6.231-6.23,6.231s-6.229-2.791-6.229-6.231V534.558H804.409v134.851h186.378
			c3.439,0,6.23,2.791,6.23,6.231C997.018,679.078,994.227,681.868,990.787,681.868z"/>
	</g>
</g>
<g>
	<g>
		<path fill="#323232" d="M-122.07-149.903c-0.802,0-1.604-0.188-2.347-0.577l-23.453-12.328l-23.446,12.328
			c-1.703,0.888-3.761,0.75-5.319-0.389c-1.558-1.132-2.334-3.043-2.005-4.938l4.484-26.108l-18.975-18.497
			c-1.375-1.341-1.867-3.345-1.276-5.173c0.592-1.829,2.177-3.163,4.078-3.438l26.207-3.808l11.731-23.755
			c1.695-3.445,7.356-3.445,9.053,0l11.723,23.755l26.221,3.808c1.901,0.275,3.486,1.61,4.077,3.438
			c0.591,1.828,0.098,3.832-1.275,5.173l-18.976,18.497l4.484,26.108c0.322,1.895-0.46,3.814-2.011,4.938
			C-119.979-150.225-121.018-149.903-122.07-149.903z M-147.87-173.564c0.815,0,1.618,0.189,2.354,0.577l16.74,8.805l-3.195-18.64
			c-0.276-1.637,0.263-3.309,1.459-4.472l13.544-13.209l-18.725-2.716c-1.644-0.236-3.064-1.268-3.801-2.761l-8.376-16.962
			l-8.37,16.962c-0.729,1.493-2.156,2.524-3.801,2.761l-18.718,2.716l13.545,13.209c1.197,1.163,1.735,2.835,1.459,4.472
			l-3.202,18.64l16.738-8.805C-149.481-173.375-148.672-173.564-147.87-173.564z"/>
	</g>
</g>
<g>
	<g>
		<path fill="#323232" d="M737.545,534.559h-26.947c-3.439,0-6.229-2.791-6.229-6.229c0-3.44,2.789-6.231,6.229-6.231h26.947
			c3.439,0,6.23,2.791,6.23,6.231C743.775,531.768,740.984,534.559,737.545,534.559z"/>
	</g>
</g>
<g>
	<g>
		<path fill="#323232" d="M-222.404-246.592h-26.947c-3.439,0-6.229-2.791-6.229-6.229c0-3.44,2.79-6.231,6.229-6.231h26.947
			c3.439,0,6.23,2.791,6.23,6.231C-216.173-249.383-218.964-246.592-222.404-246.592z"/>
	</g>
</g>
<g>
	<path fill="none" stroke="#323333" stroke-width="3" stroke-miterlimit="10" d="M-359.378-546.208c0,4.791-3.884,8.675-8.675,8.675
		h-147.479c-4.792,0-8.676-3.884-8.676-8.675v-50.316v-72.295c0-4.791,3.884-8.675,8.676-8.675h147.479
		c4.792,0,8.675,3.885,8.675,8.675V-546.208z"/>
	
		<polyline fill="none" stroke="#323333" stroke-width="3" stroke-linecap="round" stroke-linejoin="round" stroke-miterlimit="10" points="
		-524.209,-584.832 -498.646,-613.75 -459.262,-577.029 	"/>
	
		<polyline fill="none" stroke="#323333" stroke-width="3" stroke-linecap="round" stroke-linejoin="round" stroke-miterlimit="10" points="
		-473.362,-590.175 -452.132,-609.578 -374.168,-537.533 	"/>
	
		<circle fill="none" stroke="#323333" stroke-width="3" stroke-linecap="round" stroke-linejoin="round" stroke-miterlimit="10" cx="-402.093" cy="-642.84" r="22.773"/>
</g>
<line fill="none" stroke="#323232" stroke-width="3" stroke-linecap="round" stroke-miterlimit="10" x1="-125.088" y1="-514.905" x2="-38.178" y2="-514.905"/>
<line fill="none" stroke="#323232" stroke-width="3" stroke-linecap="round" stroke-miterlimit="10" x1="-170.864" y1="-499.21" x2="-38.178" y2="-499.21"/>
<line fill="none" stroke="#323232" stroke-width="3" stroke-linecap="round" stroke-miterlimit="10" x1="-226.088" y1="-482.731" x2="-38.178" y2="-482.731"/>
<line fill="none" stroke="#323232" stroke-width="6" stroke-linecap="round" stroke-miterlimit="10" x1="34.653" y1="-664.952" x2="34.653" y2="-428.974"/>
<line fill="none" stroke="#323232" stroke-width="6" stroke-linecap="round" stroke-miterlimit="10" x1="233.76" y1="-654.452" x2="34.653" y2="-654.452"/>
<line fill="none" stroke="#323232" stroke-width="6" stroke-linecap="round" stroke-miterlimit="10" x1="233.76" y1="-573.555" x2="34.653" y2="-573.555"/>
<line fill="none" stroke="#323232" stroke-width="6" stroke-linecap="round" stroke-miterlimit="10" x1="233.76" y1="-664.952" x2="233.76" y2="-428.974"/>
<g>
	<path fill="none" stroke="#323333" stroke-width="6" stroke-miterlimit="10" d="M-21.588-468.776c0,6.759-5.479,12.24-12.241,12.24
		h-228.069c-6.76,0-12.241-5.48-12.241-12.24v-70.987v-67.793c0-6.759,5.48-12.24,12.241-12.24h228.069
		c6.761,0,12.241,5.48,12.241,12.24V-468.776z"/>
</g>
<g>
	<path fill="none" stroke="#323333" stroke-width="6" stroke-miterlimit="10" d="M-21.588-125.146
		c0,6.759-5.479,12.239-12.241,12.239h-228.069c-6.76,0-12.241-5.48-12.241-12.239v-70.987v-67.793c0-6.759,5.48-12.24,12.241-12.24
		h228.069c6.761,0,12.241,5.48,12.241,12.24V-125.146z"/>
</g>
<g>
	<path fill="none" stroke="#323333" stroke-width="3" stroke-miterlimit="10" d="M-186.474-543.274
		c0,6.759-5.479,12.24-12.241,12.24h-43.968c-6.76,0-12.241-5.48-12.241-12.24v-24.372v-21.71c0-6.759,5.48-12.24,12.241-12.24
		h43.968c6.761,0,12.241,5.48,12.241,12.24V-543.274z"/>
</g>
<circle fill="none" stroke="#323333" stroke-miterlimit="10" cx="-96.65" cy="-547.352" r="9.217"/>
<circle fill="none" stroke="#323333" stroke-miterlimit="10" cx="-74.7" cy="-547.352" r="9.217"/>
<circle fill="none" stroke="#323333" stroke-miterlimit="10" cx="-53.726" cy="-547.352" r="9.217"/>
<path fill="none" stroke="#323232" stroke-width="6" stroke-miterlimit="10" d="M-342.241-434.299c0,1.657-1.343,3-3,3h-193.106
	c-1.657,0-3-1.343-3-3v-258.675c0-1.657,1.343-3,3-3h193.106c1.657,0,3,1.343,3,3V-434.299z"/>
<path fill="#BAE3F9" stroke="#323232" stroke-width="6" stroke-miterlimit="10" d="M-348.004-108.762
	c-0.117,1.385-1.334,2.414-2.72,2.297l-161.488-13.588c-1.386-0.117-2.415-1.334-2.298-2.719l18.202-216.323
	c0.117-1.386,1.334-2.414,2.72-2.298l161.489,13.589c1.386,0.116,2.415,1.334,2.298,2.72L-348.004-108.762z"/>
<path fill="#FFFCD3" stroke="#323232" stroke-width="6" stroke-miterlimit="10" d="M-350.694-120.394
	c0.1,1.387-0.944,2.592-2.331,2.691l-161.644,11.596c-1.387,0.1-2.592-0.943-2.691-2.33l-15.534-216.53
	c-0.1-1.387,0.944-2.592,2.331-2.691l161.644-11.597c1.387-0.099,2.592,0.944,2.691,2.331L-350.694-120.394z"/>
<path fill="#FFFFFF" stroke="#323232" stroke-width="6" stroke-miterlimit="10" d="M-364.102-102c0.128,1.384-0.89,2.61-2.275,2.738
	l-161.368,14.955c-1.385,0.128-2.611-0.89-2.739-2.274l-20.032-216.16c-0.128-1.385,0.89-2.611,2.274-2.739l161.368-14.955
	c1.385-0.128,2.611,0.89,2.739,2.275L-364.102-102z"/>
<line fill="none" stroke="#323232" stroke-width="3" stroke-linecap="round" stroke-miterlimit="10" x1="-535.874" y1="-280.19" x2="-403.734" y2="-292.212"/>
<line fill="none" stroke="#323232" stroke-width="3" stroke-linecap="round" stroke-miterlimit="10" x1="-532.9" y1="-252.69" x2="-400.761" y2="-264.712"/>
<line fill="none" stroke="#323232" stroke-width="3" stroke-linecap="round" stroke-miterlimit="10" x1="-529.76" y1="-228.691" x2="-397.621" y2="-240.713"/>
<line fill="none" stroke="#323232" stroke-width="3" stroke-linecap="round" stroke-miterlimit="10" x1="-527.039" y1="-207.604" x2="-394.899" y2="-219.626"/>
<line fill="none" stroke="#323232" stroke-width="3" stroke-linecap="round" stroke-miterlimit="10" x1="-523.898" y1="-183.987" x2="-391.759" y2="-196.009"/>
<line fill="none" stroke="#323232" stroke-width="3" stroke-linecap="round" stroke-miterlimit="10" x1="-523.379" y1="-159.692" x2="-391.239" y2="-171.714"/>
<line fill="none" stroke="#323232" stroke-width="3" stroke-linecap="round" stroke-miterlimit="10" x1="-440.032" y1="-125.145" x2="-391.239" y2="-129.584"/>
<polygon fill="none" stroke="#323232" stroke-width="0.5" stroke-miterlimit="10" points="-149.921,-250.681 -169.254,-220.452 
	-198.921,-213.452 -200.921,-199.119 -183.921,-176.119 -186.588,-142.452 -176.921,-134.456 -148.794,-151.452 -127.588,-137.119 
	-107.254,-146.452 -112.921,-178.452 -97.921,-194.536 -94.588,-209.786 -127.254,-220.452 -140.254,-250.681 "/>
<polygon fill="none" stroke="#323232" stroke-width="6" stroke-linecap="round" stroke-linejoin="round" stroke-miterlimit="10" points="
	1086.263,226.252 1036.763,226.252 1036.763,437.252 1200.263,437.252 1200.263,226.252 "/>
<polygon fill="#FFFFFF" stroke="#323232" stroke-width="6" stroke-linecap="round" stroke-linejoin="round" stroke-miterlimit="10" points="
	129.371,-93.125 163.592,-90.871 180.014,-340.393 66.975,-347.831 50.551,-98.313 "/>
<g>
	
		<polygon fill="#FFFFFF" stroke="#323232" stroke-width="6" stroke-linecap="round" stroke-linejoin="round" stroke-miterlimit="10" points="
		472.911,338.76 451.031,381.427 497.031,372.876 590.531,300.755 565.031,268.376 	"/>
	
		<line fill="#FFFFFF" stroke="#323232" stroke-width="6" stroke-linecap="round" stroke-linejoin="round" stroke-miterlimit="10" x1="472.911" y1="338.76" x2="497.031" y2="372.876"/>
</g>
<g>
	<g>
		<path fill="#323232" d="M1176.801,435.957c-9.175-2.82-19.308-0.23-24.713,8.023c-5.396,8.239-0.188,17.323,8.094,20.711
			c12.006,4.91,30.784,2.613,36.845-10.381c1.994-4.276,2.131-9.553-0.716-13.469c-3.43-4.715-9.646-4.767-14.84-3.885
			c-3.174,0.539-1.823,5.357,1.33,4.822c3.994-0.679,8.935-0.602,10.438,3.921c1.13,3.398-0.76,7.329-2.87,9.9
			c-6.621,8.063-21.699,8.042-30.148,3.586c-5.66-2.985-6.842-9.105-2.863-14.013c4.389-5.414,11.801-6.336,18.114-4.395
			C1178.562,441.729,1179.873,436.902,1176.801,435.957L1176.801,435.957z"/>
	</g>
</g>
<g>
	<g>
		<path fill="#323232" d="M555.247,154.829c-9.982,11.35-19.835,25.502-15.611,41.344c1.271,4.768,4.301,10.354,9.138,12.258
			c6.045,2.382,11.237-1.635,15.009-6.066c2.076-2.439-1.443-5.994-3.535-3.535c-3.414,4.01-7.697,7.58-12.195,3.008
			c-2.986-3.036-4.19-8.031-4.508-12.125c-0.926-11.949,7.854-22.95,15.238-31.348C560.901,155.954,557.38,152.403,555.247,154.829
			L555.247,154.829z"/>
	</g>
</g>
<g>
	<g>
		<path fill="#323232" d="M660.879,309.459c6.268,8.207,33.417,56.014,12.158,58.238c-3.173,0.332-3.206,5.336,0,5
			c29.263-3.062,0.991-54.198-7.842-65.762C663.267,304.409,658.921,306.896,660.879,309.459L660.879,309.459z"/>
	</g>
</g>
<g>
	<g>
		<path fill="#323232" d="M657.195,352.459c10.64-18.926,27.652-31.25,47.104-40.103c2.932-1.334,0.388-5.643-2.523-4.318
			c-20.203,9.195-37.863,22.271-48.896,41.897C651.297,352.75,655.616,355.27,657.195,352.459L657.195,352.459z"/>
	</g>
</g>
<g>
	<g>
		<path fill="#323232" d="M677.167,291.061c13.02-0.042,25.892-0.606,38.335,3.911c3.038,1.103,4.336-3.73,1.33-4.822
			c-12.851-4.665-26.21-4.133-39.665-4.089C673.943,286.071,673.942,291.071,677.167,291.061L677.167,291.061z"/>
	</g>
</g>
<g>
	<g>
		<path fill="#323232" d="M1133.294,564.63c5.867-8.446,14.26-14.138,23.104-19.104c-1.225-0.498-2.448-0.995-3.672-1.493
			c2.32,6.436,0.164,12.756,0.91,19.335c0.225,1.982,1.926,2.982,3.762,2.158c13.638-6.117,23.984-18.283,38.403-22.747
			c-1.025-0.582-2.051-1.164-3.076-1.746c2.223,6.308,7.033,8.652,13.502,7.879c5.441-0.65,13.724-4.702,14.409,3.456
			c0.134,1.595,1.497,2.874,3.165,2.411c11.078-3.076,21.921-6.925,33-10c3.103-0.861,1.783-5.686-1.33-4.822
			c-11.078,3.076-21.921,6.925-33,10c1.056,0.804,2.11,1.607,3.165,2.411c-0.55-6.543-3.934-10.544-10.755-9.962
			c-5.767,0.493-14.662,4.884-17.334-2.703c-0.441-1.251-1.706-2.17-3.076-1.746c-14.914,4.619-25.526,16.94-39.597,23.253
			c1.254,0.719,2.508,1.438,3.762,2.158c-0.801-7.057,1.403-13.751-1.09-20.665c-0.549-1.521-2.182-2.33-3.672-1.493
			c-9.642,5.413-18.52,11.713-24.896,20.896C1127.133,564.762,1131.47,567.258,1133.294,564.63L1133.294,564.63z"/>
	</g>
</g>
<path fill="#FFFFFF" stroke="#323232" stroke-width="6" stroke-linecap="round" stroke-linejoin="round" stroke-miterlimit="10" d="
	M173.656-236.916c-0.084,2.785,29.016,128.314,29.016,128.314"/>
<circle fill="none" stroke="#323333" stroke-miterlimit="10" cx="167.567" cy="-327.874" r="6.089"/>
<circle fill="none" stroke="#323333" stroke-miterlimit="10" cx="149.411" cy="-106.1" r="6.089"/>
<circle fill="none" stroke="#323333" stroke-miterlimit="10" cx="63.079" cy="-112.906" r="6.089"/>
<circle fill="none" stroke="#323333" stroke-miterlimit="10" cx="78.104" cy="-333.963" r="6.089"/>
<g>
	<g>
		<path fill="#323333" d="M79.823-333.783c-1.375-3.992-3.209-7.829-4-12c-0.601-3.165-5.419-1.821-4.821,1.329
			c0.791,4.171,2.625,8.008,4,12C76.044-329.425,80.875-330.726,79.823-333.783L79.823-333.783z"/>
	</g>
</g>
<g>
	<g>
		<path fill="#323333" d="M169.912-328.452c0.133-5.219,1.848-10.193,2.578-15.336c0.445-3.152-4.371-4.51-4.822-1.328
			c-0.793,5.59-2.609,10.984-2.756,16.664C164.828-325.226,169.828-325.233,169.912-328.452L169.912-328.452z"/>
	</g>
</g>
<g>
	<g>
		<path fill="#323333" d="M60.817-113.944c-4.13,2.856-7.025,6.849-10.506,10.392c-2.261,2.301,1.273,5.838,3.535,3.535
			c3.146-3.201,5.767-7.031,9.494-9.608C65.973-111.447,63.477-115.783,60.817-113.944L60.817-113.944z"/>
	</g>
</g>
<g>
	<g>
		<path fill="#323333" d="M147.578-104.452c0.164,5.693,2.504,10.995,2.668,16.667c0.092,3.217,5.092,3.227,5,0
			c-0.164-5.693-2.504-10.995-2.668-16.667C152.486-107.669,147.486-107.679,147.578-104.452L147.578-104.452z"/>
	</g>
</g>
<g>
	
		<polygon fill="none" stroke="#323232" stroke-width="6" stroke-linecap="round" stroke-linejoin="round" stroke-miterlimit="10" points="
		-525.726,84.69 -382.688,87.19 -388.892,280.136 -531.93,277.636 	"/>
	
		<polyline fill="none" stroke="#323232" stroke-width="6" stroke-linecap="round" stroke-linejoin="round" stroke-miterlimit="10" points="
		-525.726,84.69 -506.347,101.484 -399.917,103.345 -382.688,87.19 	"/>
	
		<polyline fill="none" stroke="#323232" stroke-width="6" stroke-linecap="round" stroke-linejoin="round" stroke-miterlimit="10" points="
		-388.86,279.156 -408.239,262.361 -514.669,260.501 -531.898,276.655 	"/>
	
		<line fill="none" stroke="#323232" stroke-width="6" stroke-linecap="round" stroke-linejoin="round" stroke-miterlimit="10" x1="-454.736" y1="102.387" x2="-459.85" y2="261.46"/>
</g>
<g>
	
		<polygon fill="#FFFFFF" stroke="#323232" stroke-width="6" stroke-linecap="round" stroke-linejoin="round" stroke-miterlimit="10" points="
		-416.387,170.14 -487.58,210.575 -487.58,288.075 -343.692,289.537 -343.692,211.075 	"/>
	
		<polyline fill="#FFFFFF" stroke="#323232" stroke-width="6" stroke-linecap="round" stroke-linejoin="round" stroke-miterlimit="10" points="
		-487.58,210.575 -415.636,252.231 -343.692,211.075 	"/>
	
		<line fill="#FFFFFF" stroke="#323232" stroke-width="6" stroke-linecap="round" stroke-linejoin="round" stroke-miterlimit="10" x1="-486.828" y1="282.898" x2="-430.92" y2="243.382"/>
	
		<line fill="#FFFFFF" stroke="#323232" stroke-width="6" stroke-linecap="round" stroke-linejoin="round" stroke-miterlimit="10" x1="-343.692" y1="287.782" x2="-400.167" y2="243.382"/>
</g>
<path fill="none" stroke="#323232" stroke-width="6" stroke-linecap="round" stroke-linejoin="round" stroke-miterlimit="10" d="
	M-178.588,106.049l4.619,5.01l13.005,14.104l27.875-1.115l20.806-18.363l78.361,60.196l-28.333,34.334l-31.452-19.168
	c0,0-0.031-5.508-0.007-3.332c0.138,12.259-1.716,54.236,16.887,107.173l-140.095-1.666c0,0,30.417-98.158,10.75-102.007
	s-0.75,0.584-0.75,0.584l-28.333,17.423l-27.667-31.845L-178.588,106.049z"/>
<g>
	<g>
		<path fill="#323232" d="M-124.739,159.257c0.077,14.664,2.574,31.252-7.268,43.566c1.393,0.367,2.786,0.735,4.178,1.103
			c-2.161-10.215,1.845-31.685,14.923-32.835c-0.804-0.612-1.607-1.224-2.411-1.835c3.027,7.964,2.616,16.299,2.577,24.668
			c-0.013,2.786,4.284,3.455,4.911,0.665c2.068-9.214,5.266-18.12,7.333-27.333c0.705-3.141-4.115-4.476-4.821-1.33
			c-2.068,9.214-5.266,18.119-7.333,27.333c1.637,0.222,3.274,0.443,4.911,0.665c0.041-8.799,0.424-17.632-2.756-25.998
			c-0.373-0.98-1.241-1.938-2.411-1.835c-16.829,1.48-22.656,25.4-19.744,39.165c0.365,1.726,3.016,2.557,4.178,1.103
			c10.913-13.654,8.818-30.734,8.732-47.102C-119.756,156.033-124.756,156.031-124.739,159.257L-124.739,159.257z"/>
	</g>
</g>
<g>
	<g>
		<g>
			<path fill="#323232" d="M411.268,631.036H326.88c-3.481,0-6.398-2.633-6.752-6.098l-19.394-190.718
				c-0.194-1.909,0.429-3.817,1.715-5.24c1.29-1.423,3.119-2.236,5.037-2.236h123.175c1.917,0,3.747,0.813,5.037,2.236
				c1.286,1.423,1.908,3.331,1.714,5.24l-19.394,190.718C417.665,628.403,414.749,631.036,411.268,631.036z M333.013,617.463h72.122
				l18.015-177.145H314.998L333.013,617.463z"/>
		</g>
		<g>
			<path fill="#323232" d="M408.501,677.3h-78.855c-3.747,0-6.787-3.04-6.787-6.787v-43.859c0-3.747,3.04-6.787,6.787-6.787
				s6.787,3.04,6.787,6.787v37.072h65.281v-37.072c0-3.747,3.04-6.787,6.787-6.787s6.787,3.04,6.787,6.787v43.859
				C415.288,674.26,412.248,677.3,408.501,677.3z"/>
		</g>
		<g>
			<path fill="#323232" d="M369.073,550.785c-19.835,0-35.371-10.198-35.371-23.225c0-13.035,15.536-23.242,35.371-23.242
				s35.372,10.207,35.372,23.242C404.445,540.587,388.908,550.785,369.073,550.785z M369.073,517.893
				c-13.105,0-21.797,5.814-21.797,9.668c0,3.844,8.691,9.65,21.797,9.65c13.106,0,21.798-5.807,21.798-9.65
				C390.871,523.707,382.18,517.893,369.073,517.893z"/>
		</g>
		<g>
			<path fill="#323232" d="M427.7,459.717h-98.055c-3.747,0-6.787-3.04-6.787-6.787s3.04-6.787,6.787-6.787H427.7
				c3.747,0,6.787,3.04,6.787,6.787S431.447,459.717,427.7,459.717z"/>
		</g>
	</g>
	<g>
		<g>
			<g>
				<path fill="#323232" d="M571.938,658.396H449.1c-3.747,0-6.787-3.04-6.787-6.786v-77.777c0-3.747,3.04-6.787,6.787-6.787
					h122.839c3.747,0,6.787,3.04,6.787,6.787v77.777C578.726,655.356,575.686,658.396,571.938,658.396z M455.887,644.823h109.265
					V580.62H455.887V644.823z"/>
			</g>
			<g>
				<path fill="#323232" d="M535.582,633.113h-50.121c-9.854,0-17.869-8.016-17.869-17.869v-5.072c0-9.845,8.016-17.86,17.869-17.86
					h50.121c9.854,0,17.869,8.016,17.869,17.86v5.072C553.451,625.098,545.436,633.113,535.582,633.113z M485.461,605.886
					c-2.368,0-4.295,1.927-4.295,4.286v5.072c0,2.368,1.927,4.295,4.295,4.295h50.121c2.368,0,4.295-1.927,4.295-4.295v-5.072
					c0-2.359-1.927-4.286-4.295-4.286H485.461z"/>
			</g>
			<g>
				<path fill="#323232" d="M563.861,677.3H457.186c-3.746,0-6.787-3.04-6.787-6.787v-14.581c0-3.747,3.041-6.787,6.787-6.787
					c3.747,0,6.787,3.04,6.787,6.787v7.794h93.102v-7.794c0-3.747,3.04-6.787,6.787-6.787s6.787,3.04,6.787,6.787v14.581
					C570.648,674.26,567.608,677.3,563.861,677.3z"/>
			</g>
		</g>
		<g>
			<path fill="#323232" d="M558.471,578.958c-3.747,0-6.787-3.04-6.787-6.787c0-10.428-6.301-19.681-16.053-23.551
				c-1.617-0.646-2.93-1.883-3.659-3.465c-3.637-7.883-9.54-14.369-16.751-18.699c0.998,4.957,0.433,10.313-4.264,15.227
				c-2.607,2.739-7.865,4.445-15.62,5.063c-14.56,0.018-25.969,11.418-25.969,25.425c0,3.747-3.04,6.787-6.787,6.787
				s-6.787-3.04-6.787-6.787c0-21.492,17.498-38.981,39.004-38.981c2.43-0.221,6.04-0.919,7.03-1.44
				c0.896-1.096,0.455-3.208-2.938-10.163c-0.707-1.449-1.405-2.881-2.002-4.276c-0.99-2.315-0.618-4.976,0.959-6.938
				c1.582-1.953,4.113-2.854,6.579-2.396c16.583,3.234,30.873,14.043,38.707,29.119c13.526,6.469,22.125,19.955,22.125,35.075
				C565.258,575.918,562.218,578.958,558.471,578.958z"/>
		</g>
	</g>
</g>
<g>
	<g>
		<g>
			<g>
				<path fill="#323232" d="M248.108,252.953l-52.652-2.967c-1.792-0.102-3.472-0.867-4.725-2.15l-14.938-15.284
					c-1.355-1.391-2.068-3.36-1.952-5.41c0.114-2.052,1.045-3.93,2.548-5.16l16.563-13.511c1.393-1.136,3.146-1.706,4.935-1.604
					l52.652,2.967c3.946,0.222,6.978,3.614,6.756,7.563l-1.623,28.8C255.447,250.145,252.055,253.175,248.108,252.953z
					 M197.688,210.385c-0.909-0.052-1.802,0.238-2.511,0.817l-16.562,13.512c-0.737,0.603-1.198,1.56-1.256,2.625
					c-0.063,1.064,0.288,2.066,0.953,2.75l14.939,15.282c0.64,0.657,1.491,1.045,2.403,1.097l52.651,2.966
					c2.006,0.113,3.731-1.43,3.845-3.437l1.623-28.8c0.113-2.008-1.428-3.733-3.435-3.846L197.688,210.385z"/>
			</g>
		</g>
		<g>
			<path fill="#323232" d="M191.646,234.41l-0.496-0.026c-3.31-0.188-5.851-3.033-5.664-6.342l0.028-0.493
				c0.186-3.309,3.03-5.851,6.34-5.664l0.495,0.027c3.309,0.187,5.85,3.032,5.663,6.341l-0.027,0.494
				C197.799,232.055,194.953,234.598,191.646,234.41z M191.657,225.403c-1.37-0.077-2.547,0.973-2.624,2.344l-0.028,0.494
				c-0.077,1.369,0.975,2.546,2.345,2.623l0.495,0.027c1.366,0.078,2.546-0.973,2.623-2.344l0.027-0.493
				c0.078-1.37-0.976-2.547-2.344-2.624L191.657,225.403z"/>
		</g>
		<g>
			<path fill="#323232" d="M193.225,233.711c-0.729-0.041-1.385-0.537-1.596-1.28c-1.077-3.819-3.573-9.097-6.849-14.475
				c-5.546-9.112-10.298-13.703-12.102-14.571c-0.057,2,1.838,8.327,7.387,17.441c0.505,0.831,0.242,1.915-0.591,2.422
				c-0.831,0.503-1.913,0.244-2.422-0.589c-1.954-3.217-11.467-19.426-6.36-22.534c5.112-3.114,15.138,12.779,17.099,15.996
				c3.432,5.643,6.067,11.237,7.229,15.353c0.265,0.936-0.277,1.91-1.217,2.174C193.611,233.704,193.417,233.722,193.225,233.711z"
				/>
		</g>
	</g>
	<g>
		<g>
			<path fill="#323232" d="M210.06,222.48c0.839,0.31,1.569,0.706,2.188,1.192l-1.327,2.524c-0.624-0.438-1.297-0.802-2.016-1.096
				c-0.719-0.295-1.331-0.456-1.834-0.485c-0.411-0.022-0.742,0.039-1,0.188c-0.255,0.147-0.391,0.373-0.407,0.686
				c-0.024,0.412,0.148,0.739,0.516,0.98c0.368,0.241,0.953,0.509,1.757,0.802c0.843,0.309,1.528,0.61,2.063,0.902
				c0.532,0.292,0.985,0.712,1.357,1.258c0.371,0.545,0.53,1.252,0.481,2.122c-0.048,0.844-0.307,1.557-0.775,2.137
				c-0.467,0.579-1.081,1.003-1.841,1.265c-0.76,0.261-1.602,0.365-2.526,0.313c-1.017-0.057-2.013-0.301-2.989-0.729
				c-0.972-0.431-1.807-0.989-2.506-1.674l1.348-2.494c0.593,0.606,1.298,1.117,2.121,1.533c0.823,0.414,1.559,0.64,2.21,0.676
				c0.504,0.029,0.902-0.045,1.195-0.221c0.293-0.173,0.45-0.452,0.472-0.829c0.023-0.424-0.155-0.759-0.536-1.003
				s-0.98-0.508-1.793-0.793c-0.83-0.294-1.508-0.583-2.039-0.864c-0.531-0.277-0.978-0.684-1.34-1.218
				c-0.363-0.532-0.522-1.216-0.476-2.048c0.045-0.795,0.286-1.478,0.723-2.044c0.436-0.568,1.034-0.992,1.796-1.275
				c0.76-0.283,1.626-0.397,2.598-0.343C208.36,221.991,209.219,222.171,210.06,222.48z"/>
		</g>
		<g>
			<path fill="#323232" d="M216.186,233.28l-1.026,2.354l-3.214-0.181l6.033-12.772l3.214,0.181l4.44,13.362l-3.335-0.188
				l-0.739-2.453L216.186,233.28z M219.301,226.073l-2.063,4.732l3.546,0.199L219.301,226.073z"/>
		</g>
		<g>
			<path fill="#323232" d="M235.259,233.978l-0.158,2.78l-8.338-0.471l0.737-13.07l3.126,0.177l-0.579,10.29L235.259,233.978z"/>
		</g>
		<g>
			<path fill="#323232" d="M240.301,226.563l-0.146,2.599l5.86,0.33l-0.147,2.615l-5.86-0.329l-0.147,2.625l6.684,0.377
				l-0.148,2.615l-9.811-0.554l0.735-13.071l9.624,0.543l-0.147,2.616L240.301,226.563z"/>
		</g>
	</g>
</g>
<g>
	<g>
		<g>
			<path fill="#323232" d="M748.327,668.604h-59.692c-2.463,0-4.526-1.862-4.776-4.313l-13.721-134.908
				c-0.139-1.35,0.306-2.7,1.212-3.707c0.913-1.006,2.213-1.581,3.563-1.581h87.13c1.362,0,2.65,0.575,3.563,1.581
				c0.912,1.007,1.35,2.357,1.212,3.707l-13.715,134.908C752.854,666.742,750.79,668.604,748.327,668.604z M692.973,659.002h51.017
				l12.74-125.305h-76.503L692.973,659.002z"/>
		</g>
		<g>
			<path fill="#323232" d="M746.371,701.33h-55.78c-2.65,0-4.801-2.15-4.801-4.801v-31.025c0-2.65,2.15-4.801,4.801-4.801
				c2.651,0,4.802,2.15,4.802,4.801v26.224h46.178v-26.224c0-2.65,2.15-4.801,4.801-4.801s4.801,2.15,4.801,4.801v31.025
				C751.172,699.18,749.021,701.33,746.371,701.33z"/>
		</g>
		<g>
			<path fill="#323232" d="M718.484,611.837c-14.034,0-25.023-7.214-25.023-16.429c0-9.221,10.989-16.44,25.023-16.44
				c14.027,0,25.018,7.22,25.018,16.44C743.502,604.623,732.512,611.837,718.484,611.837z M718.484,588.57
				c-9.277,0-15.422,4.113-15.422,6.838c0,2.72,6.145,6.826,15.422,6.826c9.264,0,15.415-4.106,15.415-6.826
				C733.899,592.684,727.748,588.57,718.484,588.57z"/>
		</g>
		<g>
			<path fill="#323232" d="M759.955,547.418h-69.364c-2.65,0-4.801-2.15-4.801-4.801s2.15-4.801,4.801-4.801h69.364
				c2.65,0,4.801,2.15,4.801,4.801S762.605,547.418,759.955,547.418z"/>
		</g>
	</g>
	<g>
		<g>
			<g>
				<path fill="#323232" d="M861.981,687.959h-86.893c-2.65,0-4.801-2.151-4.801-4.802v-55.017c0-2.65,2.15-4.801,4.801-4.801
					h86.893c2.65,0,4.801,2.15,4.801,4.801v55.017C866.782,685.808,864.632,687.959,861.981,687.959z M779.89,678.356h77.291
					v-45.415H779.89V678.356z"/>
			</g>
			<g>
				<path fill="#323232" d="M836.264,670.074h-35.45c-6.977,0-12.641-5.67-12.641-12.641v-3.588c0-6.965,5.664-12.635,12.641-12.635
					h35.45c6.97,0,12.64,5.67,12.64,12.635v3.588C848.903,664.404,843.233,670.074,836.264,670.074z M800.813,650.813
					c-1.676,0-3.039,1.362-3.039,3.032v3.588c0,1.676,1.363,3.038,3.039,3.038h35.45c1.675,0,3.038-1.362,3.038-3.038v-3.588
					c0-1.67-1.363-3.032-3.038-3.032H800.813z"/>
			</g>
			<g>
				<path fill="#323232" d="M856.268,701.33h-75.459c-2.65,0-4.801-2.15-4.801-4.801v-10.314c0-2.651,2.15-4.802,4.801-4.802
					c2.651,0,4.802,2.15,4.802,4.802v5.513h65.856v-5.513c0-2.651,2.15-4.802,4.801-4.802s4.801,2.15,4.801,4.802v10.314
					C861.068,699.18,858.918,701.33,856.268,701.33z"/>
			</g>
		</g>
		<g>
			<path fill="#323232" d="M852.454,631.766c-2.65,0-4.801-2.15-4.801-4.801c0-7.377-4.457-13.922-11.358-16.659
				c-1.138-0.456-2.069-1.331-2.588-2.45c-2.569-5.576-6.745-10.165-11.847-13.229c0.707,3.508,0.307,7.295-3.019,10.771
				c-1.838,1.938-5.563,3.145-11.046,3.582c-10.296,0.012-18.373,8.076-18.373,17.984c0,2.65-2.15,4.801-4.801,4.801
				s-4.801-2.15-4.801-4.801c0-15.203,12.377-27.574,27.593-27.574c1.72-0.156,4.276-0.65,4.976-1.02
				c0.632-0.774,0.319-2.269-2.081-7.188c-0.5-1.025-0.994-2.039-1.419-3.026c-0.7-1.638-0.438-3.52,0.682-4.907
				c1.119-1.381,2.906-2.02,4.656-1.693c11.728,2.287,21.836,9.933,27.381,20.598c9.564,4.575,15.646,14.115,15.646,24.811
				C857.255,629.615,855.104,631.766,852.454,631.766z"/>
		</g>
	</g>
</g>
<g>
	<g>
		<g>
			<g>
				<path fill="#323232" d="M199.625,146.178h-13.33c-1.627,0-2.947-1.321-2.947-2.948c0-1.626,1.32-2.947,2.947-2.947h10.382
					v-16.441h-5.254c-1.627,0-2.947-1.322-2.947-2.948c0-1.628,1.32-2.948,2.947-2.948h8.202c1.627,0,2.947,1.32,2.947,2.948v22.337
					C202.572,144.856,201.252,146.178,199.625,146.178z"/>
			</g>
			<g>
				<path fill="#323232" d="M159.598,146.178H121.15c-1.628,0-2.948-1.321-2.948-2.948c0-1.626,1.32-2.947,2.948-2.947h38.447
					c1.627,0,2.947,1.321,2.947,2.947C162.545,144.856,161.225,146.178,159.598,146.178z"/>
			</g>
			<g>
				<path fill="#323232" d="M97.405,146.178H81.864c-1.628,0-2.948-1.321-2.948-2.948v-23.922c0-0.483,0.119-0.961,0.341-1.383
					l21.582-40.715c0.514-0.962,1.518-1.564,2.605-1.564h16.455c1.627,0,2.947,1.318,2.947,2.947c0,1.627-1.32,2.947-2.947,2.947
					h-14.682l-20.407,38.495v20.247h12.594c1.627,0,2.947,1.321,2.947,2.947C100.353,144.856,99.032,146.178,97.405,146.178z"/>
			</g>
			<g>
				<path fill="#323232" d="M191.423,123.841h-66.196c-4.563,0-8.274-3.713-8.274-8.276V74.601c0-4.564,3.712-8.274,8.274-8.274
					h66.196c4.559,0,8.271,3.71,8.271,8.274v40.964C199.694,120.128,195.981,123.841,191.423,123.841z M125.227,72.221
					c-1.313,0-2.38,1.067-2.38,2.38v40.964c0,1.313,1.067,2.38,2.38,2.38h66.196c1.309,0,2.375-1.066,2.375-2.38V74.601
					c0-1.313-1.066-2.38-2.375-2.38H125.227z"/>
			</g>
			<g>
				<g>
					<path fill="#323232" d="M109.275,158.057c-8.172,0-14.819-6.651-14.819-14.822c0-8.176,6.647-14.823,14.819-14.823
						c8.176,0,14.822,6.647,14.822,14.823C124.098,151.405,117.451,158.057,109.275,158.057z M109.275,134.306
						c-4.921,0-8.923,4.004-8.923,8.929c0,4.92,4.002,8.928,8.923,8.928c4.925,0,8.927-4.008,8.927-8.928
						C118.202,138.31,114.2,134.306,109.275,134.306z"/>
				</g>
				<g>
					<path fill="#323232" d="M109.275,148.389c-2.844,0-5.155-2.313-5.155-5.154c0-2.85,2.312-5.159,5.155-5.159
						s5.159,2.31,5.159,5.159C114.435,146.075,112.119,148.389,109.275,148.389z M109.275,142.492c-0.406,0-0.737,0.335-0.737,0.742
						c0,0.813,1.479,0.813,1.479,0C110.017,142.827,109.682,142.492,109.275,142.492z"/>
				</g>
			</g>
			<g>
				<g>
					<path fill="#323232" d="M173.077,158.057c-8.176,0-14.823-6.651-14.823-14.822c0-8.176,6.647-14.823,14.823-14.823
						c8.174,0,14.822,6.647,14.822,14.823C187.899,151.405,181.251,158.057,173.077,158.057z M173.077,134.306
						c-4.925,0-8.929,4.004-8.929,8.929c0,4.92,4.004,8.928,8.929,8.928c4.924,0,8.927-4.008,8.927-8.928
						C182.004,138.31,178.001,134.306,173.077,134.306z"/>
				</g>
				<g>
					<path fill="#323232" d="M173.077,148.389c-2.846,0-5.155-2.313-5.155-5.154c0-2.85,2.31-5.159,5.155-5.159
						c2.843,0,5.153,2.31,5.153,5.159C178.23,146.075,175.92,148.389,173.077,148.389z M173.077,142.492
						c-0.408,0-0.741,0.335-0.741,0.742c0,0.813,1.48,0.813,1.48,0C173.816,142.827,173.483,142.492,173.077,142.492z"/>
				</g>
			</g>
		</g>
		<g>
			<path fill="#323232" d="M196.746,90.194h-76.847c-1.628,0-2.947-1.319-2.947-2.947s1.319-2.948,2.947-2.948h76.847
				c1.628,0,2.948,1.32,2.948,2.948S198.374,90.194,196.746,90.194z"/>
		</g>
		<g>
			<path fill="#323232" d="M196.746,105.865h-76.847c-1.628,0-2.947-1.319-2.947-2.947c0-1.627,1.319-2.948,2.947-2.948h76.847
				c1.628,0,2.948,1.321,2.948,2.948C199.694,104.546,198.374,105.865,196.746,105.865z"/>
		</g>
	</g>
	<g>
		<path fill="#323232" d="M103.751,117.496H86.737c-1.627,0-2.947-1.32-2.947-2.949c0-1.627,1.32-2.947,2.947-2.947h14.066V80.772
			c0-1.628,1.32-2.948,2.947-2.948c1.628,0,2.949,1.32,2.949,2.948v33.774C106.7,116.176,105.379,117.496,103.751,117.496z"/>
	</g>
</g>
<g>
	<g>
		<path fill="#323232" d="M603.626,500.281h-19.605c-0.414,0-0.75-0.336-0.75-0.75v-18.927c0-0.414,0.336-0.75,0.75-0.75h19.605
			c0.414,0,0.75,0.336,0.75,0.75v18.927C604.376,499.945,604.04,500.281,603.626,500.281z M584.771,498.781h18.105v-17.427h-18.105
			V498.781z"/>
	</g>
	<g>
		<path fill="#323232" d="M599.22,485.055c-0.414,0-0.75-0.336-0.75-0.75v-8.244c0-1.551-1.262-2.813-2.812-2.813h-3.669
			c-1.55,0-2.812,1.262-2.812,2.813v8.244c0,0.414-0.336,0.75-0.75,0.75s-0.75-0.336-0.75-0.75v-8.244
			c0-2.378,1.935-4.313,4.312-4.313h3.669c2.377,0,4.312,1.935,4.312,4.313v8.244C599.97,484.719,599.634,485.055,599.22,485.055z"
			/>
	</g>
	<g>
		<path fill="#323232" d="M588.428,486.031c-0.952,0-1.727-0.774-1.727-1.727s0.774-1.727,1.727-1.727s1.727,0.774,1.727,1.727
			S589.38,486.031,588.428,486.031z M588.428,484.078c-0.125,0-0.227,0.102-0.227,0.227c0,0.25,0.453,0.25,0.453,0
			C588.654,484.18,588.553,484.078,588.428,484.078z"/>
	</g>
	<g>
		<path fill="#323232" d="M599.22,486.031c-0.952,0-1.727-0.774-1.727-1.727s0.774-1.727,1.727-1.727s1.727,0.774,1.727,1.727
			S600.172,486.031,599.22,486.031z M599.22,484.078c-0.125,0-0.227,0.102-0.227,0.227c0,0.25,0.453,0.25,0.453,0
			C599.446,484.18,599.345,484.078,599.22,484.078z"/>
	</g>
</g>
<g>
	
		<rect x="29.519" y="224.244" fill="none" stroke="#323232" stroke-width="6" stroke-linecap="round" stroke-linejoin="round" stroke-miterlimit="10" width="92.106" height="46.086"/>
	
		<polyline fill="none" stroke="#323232" stroke-width="6" stroke-linecap="round" stroke-linejoin="round" stroke-miterlimit="10" points="
		29.519,224.244 86.12,187.465 167.834,187.465 121.625,224.244 121.625,270.33 169.008,228.897 167.834,187.465 	"/>
</g>
<line fill="none" stroke="#323232" stroke-width="6" stroke-miterlimit="10" x1="75.572" y1="224.244" x2="122.847" y2="187.465"/>
</svg>
