<svg xmlns="http://www.w3.org/2000/svg" width="566.9" height="215.4">
  <path fill="#5BB042" d="M185.5 70.6s-13-7.3-10.5-13.8c3.3-8.8 11.4-2 11.4-2s6.8-6.4 11.5-.8c4.7 5.5-5.5 15.5-9.6 16.8L187 59.1l-1.4 11.5z"/>
  <path fill="#124626" d="M186.7 74.4s-.4 14.2-7.7 15.4c-9.8 1.6-7.5-8.4-7.5-8.4s-9.1-2.5-6.3-9 17.2-3.1 20.4-.4l-10.3 7 11.4-4.6z"/>
  <path fill="#B9C43A" d="M189.4 71.5s13.4-6.6 18-1.2c6.3 7.2-4 10.2-4 10.2s2.1 8.7-5.4 9.6c-7.4 1-11.2-12.5-10.3-16.5l11.5 5-9.8-7.1z"/>
  <path fill="#124626" d="M179.6 92.4h14.8v61.4h-14.8zm73.3 60a113.5 113.5 0 01-7.4 2.5 32 32 0 01-30-8.5 30.8 30.8 0 01-9.6-22.7 30 30 0 019.5-22.5 35.3 35.3 0 0137.5-6v15.6a44 44 0 00-8.4-3.9c-2-.5-3.8-.8-5.6-.8-5.2 0-9.6 1.7-13.3 5.2a16.6 16.6 0 00-5.5 12.6c0 5 1.9 9.2 5.5 12.8a18.3 18.3 0 0019 4.3c2-.6 4.8-1.7 8.3-3.2v14.5zM265.5 60h15v93.7h-15zm84.6 39.5c6.2 6.3 9.3 13.8 9.3 22.7s-3 16.3-9.3 22.6-13.8 9.4-22.7 9.4c-8.8 0-16.3-3.2-22.6-9.4-6.2-6.3-9.4-13.8-9.4-22.6s3.2-16.4 9.4-22.7a30.8 30.8 0 0122.6-9.3c8.9 0 16.4 3.1 22.7 9.3m-9.9 36c3.7-3.7 5.5-8 5.5-13.2 0-5-1.8-9.4-5.5-13-3.7-3.7-8-5.5-13-5.5-5.1 0-9.5 1.8-13.2 5.4s-5.5 8-5.5 13.1 1.9 9.5 5.5 13.1c3.7 3.7 8 5.5 13.1 5.5 5 0 9.4-1.8 13.1-5.5M431.7 93c-3.6 4.1-7.1 9-10.7 14.9l-25.4 46.7-25-47A73 73 0 00360.3 93h17.9l17.6 33.3 18-33.3h17.9zm12.3 35.3a17 17 0 005.8 10.2c3.2 2.9 6.9 4.3 11 4.3 3.1 0 5.8-.8 8.1-2.5a38 38 0 007-6.9l13 5.8a48 48 0 01-12.6 12.3 27.7 27.7 0 01-15.2 4.2 30 30 0 01-22.8-9.3c-6-6.3-8.9-13.8-8.9-22.7 0-9 3-16.5 8.9-22.6 6-6.1 13.5-9.2 22.8-9a31 31 0 0130.9 24.4l.4 3.7c.2 2.3.3 5 .2 8H444zm33-12.2a15 15 0 00-6.4-8.3 19.3 19.3 0 00-19.5 0 12.8 12.8 0 00-6.2 8.3h32zM540 106a60.3 60.3 0 01-4.7-1.2 15 15 0 00-8 .3c-3.6.9-5.4 3-5.4 6.3v42.2h-14.7v-42.2-6.7c-.1-4.2-.4-8-1-11.5H522v2.7c2.5-2 4.8-3.3 7-3.7a25.8 25.8 0 0110.2-.1c1.4.2 3.2.6 5.4 1.4l-4.5 12.5z"/>
  <path fill="#5BB042" d="M70 72.2a88.7 88.7 0 01-21.7 26.5c17.3 4 38 13.9 44.8 38.5 5.6-3.7 11.1-8 16.3-13.2.2-28.8-25.5-45.1-39.3-51.8"/>
  <path fill="#B9C43A" d="M130.1 90.5L78.5 53S76 61.6 70 72.2c13.8 6.7 39.5 23 39.3 51.8A83.4 83.4 0 00130 90.5"/>
  <path fill="#124626" d="M48.3 98.7a59.7 59.7 0 01-29 12.7l31.6 44S72 151.3 93 137.3c-6.8-24.6-27.5-34.5-44.8-38.5"/>
  <path fill="#FFF" d="M73.7 105.1S54.4 90.5 62 80.1c10-13.8 21.1-1 21.1-1s15-9 20.5 1.1c5.6 10-17.3 24.6-25 25.9l3.2-19.7-8.1 18.7zm.3 6.6s-7.7 23.4-21 23.8c-18 .6-9.1-15.4-9.1-15.4s-14.8-6-6.7-16.2c8.2-10.3 31.6-1.6 36 3.6l-21.4 9.3 22.2-5zm6.1-4.3s26.7-8.1 32.2 1.8c7.4 13.2-12.2 16-12.2 16s-.5 14.9-14 14.8c-13.5 0-13.6-23-10-29.4l17.6 10.6L80 107.4z"/>
  <path fill="#DEDFDF" d="M51 155.5s40.4 3 61.1-6.9c0 0-7.4-1.7-16.9-3-9.5-1.1-44.2 9.9-44.2 9.9"/>
  <g fill="#124626">
    <path d="M312 73v7.5c0 .7-.2 1.3-.6 1.8-.5.5-1.1.7-1.8.7h-5.2V70.5h5.2c.7 0 1.3.2 1.8.7.4.5.7 1.1.7 1.8zm-1.6 7.3v-7c0-.5 0-.8-.3-1-.3-.3-.6-.4-1-.4h-3v9.7h3c.4 0 .7-.1 1-.4.2-.2.3-.5.3-1zm10.5-.8h-5.7v.8c0 .4.2.7.4 1 .2.2.5.3 1 .3h1.4c.4 0 .7-.1 1-.3.2-.2.3-.5.3-1h1.6v.2c0 .7-.2 1.3-.7 1.8-.4.5-1 .7-1.8.7h-2.3c-.7 0-1.3-.2-1.8-.7-.5-.5-.7-1.1-.7-1.8v-3.7c0-.7.2-1.3.7-1.8.5-.5 1-.7 1.8-.7h2.3c.8 0 1.4.2 1.8.7.5.5.7 1.1.7 1.8v2.7zm-5.7-2.4v1h4.1v-1c0-.4-.1-.8-.3-1-.3-.3-.6-.4-1-.4h-1.5c-.4 0-.7.1-1 .4-.2.2-.3.6-.3 1zm11.7 2.2h-2c-.7 0-1.3-.2-1.8-.6a2 2 0 01-.7-1.5v-.8c0-.7.3-1.2.7-1.5.5-.4 1.1-.6 1.8-.6h2.4c.7 0 1.3.2 1.8.7.5.4.7 1 .7 1.6v.5h-1.6v-.2c0-.4-.1-.7-.4-.9-.2-.2-.5-.3-1-.3h-1.4a2 2 0 00-1 .2c-.2.1-.3.4-.3.7v.3c0 .4.1.6.3.8l1 .2h2c.7 0 1.2.2 1.7.6.5.4.7 1 .7 1.6v.6c0 .6-.2 1.2-.7 1.6-.5.5-1 .7-1.8.7H325c-.7 0-1.3-.2-1.7-.7a2.2 2.2 0 01-.8-1.6v-.4h1.7c0 .9.5 1.3 1.3 1.3h1.4c.5 0 .8 0 1-.2.3-.2.4-.5.4-.8v-.2c0-.7-.4-1-1.3-1zm6.4-6.9h-1.6v-2h1.6v2zM331.7 83V74h1.6V83h-1.6zm10.8-8.7v7c0 .6-.2 1.2-.7 1.7-.5.5-1 .8-1.8.8h-2.4c-.7 0-1.2-.3-1.7-.7s-.7-1-.7-1.7v-.3h1.7c0 .4 0 .7.3 1l1 .2h1.3c.5 0 .8 0 1-.3.2-.3.4-.6.4-1v-.5h-3.3c-.7 0-1.3-.2-1.7-.7a2.2 2.2 0 01-.8-1.7v-1.5c0-.6.3-1.2.8-1.6s1-.7 1.7-.7h5zm-4.4 4.8h2.8v-3.4H338c-.4 0-.7.1-1 .3-.2.2-.3.5-.3 1v.9c0 .8.5 1.2 1.3 1.2zm13.3 4h-1.6v-6c0-.4-.2-.8-.4-1-.2-.3-.6-.4-1-.4H347c-.4 0-.7.1-1 .4-.2.2-.3.6-.3 1v6H344v-6.3c0-.7.3-1.3.7-1.8.5-.5 1.1-.7 1.8-.7h2.4c.7 0 1.3.2 1.8.7.5.5.7 1.1.7 1.8V83zm15.3-.4H365l-1-1.4c-1.1 1-2.2 1.5-3.3 1.5-1 0-1.8-.2-2.5-.8a3 3 0 01-1-2.3c0-1.2 1-2.3 2.8-3.6-.8-.9-1.2-1.8-1.4-2.6a2 2 0 01.7-2 3 3 0 012.2-.9 2.8 2.8 0 012.9 3c-.2 1-.9 2-2.1 3l1.7 2.3.6-1 .3-1h1.5a5 5 0 01-.4 1.7 8.7 8.7 0 01-1 1.6l1.8 2.5zm-3.8-2.6l-2.1-2.8c-1.3 1-2 1.7-2 2.4 0 .5.2 1 .5 1.2.4.3.9.4 1.4.4.8 0 1.5-.4 2.2-1.2zm-1.5-8c-.4 0-.7 0-1 .3s-.3.6-.3 1c0 .3.1.6.3.8l.9 1.2c1-.8 1.4-1.4 1.5-1.8 0-.5-.1-1-.4-1.2a1.5 1.5 0 00-1-.4zm18.7.9v7.5c0 .7-.2 1.3-.7 1.8-.5.5-1 .7-1.8.7h-5.1V70.5h5.1c.8 0 1.3.2 1.8.7.5.5.7 1.1.7 1.8zm-1.6 7.3v-7c0-.5-.1-.8-.4-1-.2-.3-.5-.4-1-.4h-3v9.7h3c.5 0 .8-.1 1-.4.3-.2.4-.5.4-1zm5.1-7.9H382v-2h1.6v2zM382 83V74h1.6V83H382zm8-3.7h-2c-.8 0-1.4-.2-1.8-.6a2 2 0 01-.7-1.5v-.8c0-.7.2-1.2.7-1.5.4-.4 1-.6 1.8-.6h2.3c.8 0 1.4.2 1.8.7.5.4.7 1 .7 1.6v.5h-1.6v-.2c0-.4-.1-.7-.3-.9-.3-.2-.6-.3-1-.3h-1.5a2 2 0 00-1 .2c-.2.1-.3.4-.3.7v.3c0 .4.1.6.3.8l1 .2h2c.7 0 1.3.2 1.7.6.5.4.7 1 .7 1.6v.6c0 .6-.2 1.2-.7 1.6-.4.5-1 .7-1.8.7H388c-.8 0-1.4-.2-1.8-.7a2.2 2.2 0 01-.7-1.6v-.4h1.6c0 .9.5 1.3 1.3 1.3h1.5c.4 0 .7 0 1-.2.2-.2.3-.5.3-.8v-.2c0-.7-.4-1-1.3-1zm4-3.6v-1.4h2v-3.8h1.6v3.8h2.9v1.4h-2.9v4.6c0 .4.2.7.4 1 .2.2.6.3 1 .3h1.3V83h-1.8c-.7 0-1.3-.2-1.8-.7-.5-.5-.7-1.1-.7-1.8v-4.8h-2zm13.1-1.4v1.4h-2.5c-.5 0-.8.1-1 .4-.2.2-.4.6-.4 1v6h-1.6v-6.3c0-.7.2-1.3.7-1.8.5-.5 1-.7 1.8-.7h3zm3.2-1.9h-1.6v-2h1.6v2zM408.7 83V74h1.6V83h-1.6zm3.5 0V70.5h1.6v3.8h3.2c.7 0 1.3.2 1.8.7.5.5.7 1.1.7 1.8v3.7c0 .7-.2 1.3-.7 1.8-.5.5-1 .7-1.8.7h-4.8zm5.7-2.7V77c0-.4-.1-.8-.4-1-.2-.3-.5-.4-1-.4h-2.7v5.9h2.8c.4 0 .7-.1 1-.4.2-.2.3-.5.3-1zm8.9-6h1.6v6.2c0 .7-.2 1.3-.7 1.8-.5.5-1 .7-1.8.7h-2.4c-.7 0-1.3-.2-1.7-.7-.5-.5-.8-1.1-.8-1.8v-6.2h1.7v6c0 .4.1.7.3 1 .3.2.6.3 1 .3h1.4c.5 0 .8-.1 1-.4.2-.2.4-.5.4-1v-6zm2.7 1.4v-1.4h2v-3.8h1.7v3.8h2.8v1.4h-2.8v4.6c0 .4.2.7.4 1 .2.2.5.3 1 .3h1.3V83h-1.8c-.7 0-1.3-.2-1.8-.7-.5-.5-.7-1.1-.7-1.8v-4.8h-2zm9.6-3.3h-1.6v-2h1.6v2zM437.5 83V74h1.6V83h-1.6zm10.8-6.4v4c0 .9-.3 1.5-1.1 2s-1.6.8-2.5.8a4.7 4.7 0 01-1.7-.3 3.5 3.5 0 01-1.5-1c-.3-.4-.5-.9-.5-1.4v-4c0-.6.2-1.1.5-1.5a3.5 3.5 0 011.5-1 4.7 4.7 0 011.7-.3c.9 0 1.7.2 2.5.7.8.5 1.1 1.2 1.1 2zm-1.6 3.8v-3.5c0-.5-.2-1-.6-1.2a2.5 2.5 0 00-1.4-.4c-.6 0-1 0-1.5.4-.4.2-.6.7-.6 1.2v3.5c0 .5.2 1 .6 1.2.5.3 1 .4 1.5.4s1-.1 1.4-.4c.4-.3.6-.7.6-1.2zm10.5 2.6h-1.6v-6c0-.3-.2-.7-.4-1-.2-.2-.5-.3-1-.3h-1.4c-.4 0-.7.1-1 .4-.2.2-.3.6-.3 1v6h-1.7v-6.3c0-.7.3-1.3.8-1.8.4-.5 1-.7 1.7-.7h2.4c.7 0 1.3.2 1.8.7.5.5.7 1.1.7 1.8V83zm15.4-.3h-1.9l-1-1.4c-1 1-2.2 1.5-3.3 1.5-1 0-1.8-.2-2.4-.8a3 3 0 01-1-2.3c0-1.2.9-2.3 2.7-3.6-.7-.9-1.2-1.8-1.4-2.6a2 2 0 01.7-2 3 3 0 012.2-.9 2.8 2.8 0 012.9 3c-.2 1-.9 2-2 3l1.7 2.3.5-1 .3-1h1.6a5 5 0 01-.5 1.7 8.7 8.7 0 01-1 1.6l1.9 2.5zm-3.9-2.6l-2-2.8c-1.4 1-2 1.7-2 2.4 0 .5 0 1 .5 1.2.3.3.8.4 1.3.4.8 0 1.5-.4 2.2-1.2zm-1.5-8c-.4 0-.7 0-1 .3s-.3.6-.3 1c0 .3.2.6.3.8l.9 1.2c1-.8 1.5-1.4 1.5-1.8 0-.5-.1-1-.4-1.2a1.5 1.5 0 00-1-.4zm10.6 11v-1.5h1.3v-9.7h-1.3v-1.4h4.1v1.4h-1.2v9.7h1.2V83h-4zm12.5 0h-1.6v-6c0-.4-.1-.8-.4-1-.2-.3-.5-.4-1-.4H486c-.4 0-.7.1-1 .4-.2.2-.3.6-.3 1v6H483v-6.3c0-.7.2-1.3.7-1.8.5-.5 1-.7 1.8-.7h2.3c.7 0 1.3.2 1.8.7.5.5.7 1.1.7 1.8V83zm9-6.5v4c0 .9-.5 1.5-1.2 2s-1.6.8-2.6.8a4.7 4.7 0 01-1.7-.3 3.5 3.5 0 01-1.4-1c-.4-.4-.6-.9-.6-1.4v-4c0-.6.2-1.1.6-1.5a3.5 3.5 0 011.4-1 4.7 4.7 0 011.7-.3c1 0 1.8.2 2.6.7.7.5 1.1 1.2 1.1 2zm-1.7 3.8v-3.5c0-.5-.2-1-.7-1.2a2.5 2.5 0 00-1.4-.4c-.5 0-1 0-1.4.4-.4.2-.6.7-.6 1.2v3.5c0 .5.2 1 .6 1.2.4.3.9.4 1.4.4.5 0 1-.1 1.4-.4.5-.3.7-.7.7-1.2zm9-6.1h1.8L505 83h-1.3l-3.5-8.7h1.8l2.3 6.4 2.4-6.4zm8 8.7H512c-.7 0-1.3-.2-1.7-.6s-.8-.9-.8-1.5v-1.3c0-.6.2-1 .6-1.4.4-.4 1-.6 1.7-.6h3.5V77c0-.8-.5-1.2-1.4-1.2h-1.4c-.8 0-1.3.4-1.3 1.2v.2h-1.7v-.5c0-.6.3-1.2.8-1.6s1-.7 1.7-.7h2.4c.7 0 1.3.2 1.8.7.5.4.7 1 .7 1.6V81a2 2 0 01-.5 1.6c-.4.3-1 .5-1.7.5zm-2.2-1.4h2c.3 0 .6 0 .7-.2v-2.3h-2.8a2 2 0 00-1 .1c-.1.1-.2.3-.2.7v.8c0 .3 0 .5.3.7l1 .2zm5.5-5.9v-1.4h2v-3.8h1.7v3.8h2.8v1.4h-2.8v4.6c0 .4.2.7.4 1 .2.2.5.3 1 .3h1.3V83h-1.8c-.7 0-1.3-.2-1.8-.7-.5-.5-.7-1.1-.7-1.8v-4.8h-2zm9.6-3.3H526v-2h1.6v2zM526 83V74h1.6V83H526zm10.9-6.4v4c0 .9-.4 1.5-1.2 2s-1.6.8-2.5.8a4.7 4.7 0 01-1.7-.3 3.5 3.5 0 01-1.4-1c-.4-.4-.6-.9-.6-1.4v-4c0-.6.2-1.1.6-1.5a3.5 3.5 0 011.4-1 4.7 4.7 0 011.7-.3c1 0 1.8.2 2.5.7.8.5 1.2 1.2 1.2 2zm-1.7 3.8v-3.5c0-.5-.2-1-.6-1.2a2.5 2.5 0 00-1.4-.4c-.6 0-1 0-1.4.4-.5.2-.7.7-.7 1.2v3.5c0 .5.2 1 .7 1.2.4.3.9.4 1.4.4.5 0 1-.1 1.4-.4.4-.3.6-.7.6-1.2zm10.5 2.6H544v-6c0-.3-.1-.7-.4-1-.2-.2-.5-.3-1-.3h-1.4c-.4 0-.7.1-1 .4-.2.2-.3.6-.3 1v6h-1.6v-6.3c0-.7.2-1.3.7-1.8.5-.5 1-.7 1.8-.7h2.3c.7 0 1.3.2 1.8.7.5.5.7 1.1.7 1.8V83z"/>
  </g>
</svg>
