<svg xmlns="http://www.w3.org/2000/svg" width="141.732" height="141.732" viewBox="226.774 350.079 141.732 141.732"><path fill="none" stroke="#7D7D7D" stroke-width="2" stroke-miterlimit="10" d="M246.055 402.392h104.326v38.483H246.055z"/><path fill="#9FA0A0" d="M247.515 403.295a.283.283 0 00-.089-.215l-13.992-14.271a.306.306 0 00-.431-.005.306.306 0 00-.005.431l13.992 14.271c.115.121.31.121.431.005a.288.288 0 00.094-.216zM350.475 402.307c.12.115.314.115.43-.005l13.992-14.271a.308.308 0 00-.005-.431.308.308 0 00-.431.005l-13.992 14.271a.285.285 0 00-.089.215c0 .079.03.158.095.216zM349.65 439.827c0 .08.027.158.09.216l13.992 14.271a.305.305 0 00.43.006.308.308 0 00.006-.432l-13.992-14.27a.305.305 0 00-.43-.006.285.285 0 00-.096.215zM246.691 440.816a.306.306 0 00-.43.005l-13.992 14.271a.305.305 0 00.006.43.306.306 0 00.43-.005l13.992-14.271a.287.287 0 00.09-.215.294.294 0 00-.096-.215z"/></svg>