<svg xmlns="http://www.w3.org/2000/svg" width="141.732" height="141.732" viewBox="226.774 350.079 141.732 141.732"><g fill="#9FA0A0" stroke="#FFF" stroke-width="2" stroke-miterlimit="10"><path d="M297.64 362.895c-32.057 0-58.05 25.992-58.05 58.049 0 32.058 25.993 58.052 58.05 58.052 32.058 0 58.05-25.994 58.05-58.052 0-32.057-25.992-58.049-58.05-58.049zm0 112.37c-30 0-54.321-24.32-54.321-54.321 0-29.999 24.321-54.32 54.321-54.32s54.321 24.321 54.321 54.32c0 30.001-24.321 54.321-54.321 54.321z"/><path d="M297.64 371.531c-27.292 0-49.414 22.121-49.414 49.413 0 27.294 22.122 49.415 49.414 49.415 27.293 0 49.414-22.121 49.414-49.415 0-27.292-22.121-49.413-49.414-49.413zm0 95.648c-25.536 0-46.235-20.699-46.235-46.235 0-25.535 20.699-46.235 46.235-46.235 25.536 0 46.235 20.7 46.235 46.235 0 25.536-20.699 46.235-46.235 46.235z"/></g><path fill="#7D7D7D" d="M311.376 444.715c-.428 0-.854-.1-1.251-.309l-12.489-6.565-12.486 6.565a2.689 2.689 0 01-3.9-2.836l2.388-13.903-10.105-9.852a2.691 2.691 0 011.492-4.586l13.957-2.028 6.248-12.651c.902-1.834 3.918-1.834 4.821 0l6.243 12.651 13.965 2.028a2.688 2.688 0 011.491 4.586l-10.105 9.852 2.388 13.903a2.695 2.695 0 01-2.657 3.145zm-13.74-12.601c.433 0 .861.101 1.253.308l8.915 4.689-1.702-9.927a2.697 2.697 0 01.777-2.381l7.214-7.036-9.973-1.447a2.681 2.681 0 01-2.024-1.471l-4.46-9.033-4.458 9.033a2.677 2.677 0 01-2.024 1.471l-9.968 1.447 7.214 7.036c.637.618.923 1.509.776 2.381l-1.705 9.927 8.914-4.689a2.67 2.67 0 011.251-.308z"/><g fill="none" stroke="#9FA0A0" stroke-width=".5" stroke-miterlimit="10"><path d="M296.683 389.089h-2.5l-1.184 2.203"/><path stroke-dasharray="4.4409,4.4409" d="M290.897 395.203l-3.154 5.868"/><path d="M286.692 403.026l-1.183 2.203-2.434.574"/><path stroke-dasharray="4.062,4.062" d="M279.122 406.735l-5.93 1.4"/><path d="M271.215 408.601l-2.433.574-.679 2.407M266.822 416.122l-.679 2.406 1.721 1.813"/><path stroke-dasharray="3.7074,3.7074" d="M270.415 423.031l3.827 4.035"/><path d="M275.518 428.411l1.721 1.813-.439 2.461"/><path stroke-dasharray="4.1906,4.1906" d="M276.064 436.811L274.961 443"/><path d="M274.593 445.062l-.439 2.461 2.058 1.419M278.897 450.792l2.058 1.419 2.234-1.122"/><path stroke-dasharray="4.3345,4.3345" d="M287.063 449.145l5.81-2.918"/><path d="M294.81 445.255l2.234-1.122 2.261 1.067"/><path stroke-dasharray="5.0389,5.0389" d="M303.863 447.35l6.835 3.226"/><path d="M312.977 451.651l2.261 1.066 2.052-1.426M318.681 450.324l2.053-1.427-.21-2.491"/><path stroke-dasharray="5.002,5.002" d="M320.105 441.421l-.629-7.476"/><path d="M319.267 431.453l-.21-2.492 1.744-1.791"/><path stroke-dasharray="3.2302,3.2302" d="M323.054 424.855l3.38-3.472"/><path d="M327.56 420.226l1.744-1.791-.39-2.47M328.296 412.054l-.39-2.47-2.434-.566"/><path stroke-dasharray="4.7393,4.7393" d="M320.856 407.944l-6.924-1.611"/><path d="M311.623 405.795l-2.434-.566-1.133-2.229"/><path stroke-dasharray="4.3684,4.3684" d="M306.076 399.106l-2.969-5.841"/><path d="M302.116 391.318l-1.132-2.229h-2.5"/></g></svg>