<svg xmlns="http://www.w3.org/2000/svg" width="141.732" height="141.732" viewBox="226.774 350.079 141.732 141.732"><path fill="#7D7D7D" stroke="#FFF" stroke-width="4" stroke-miterlimit="10" d="M356.557 454.143h-116.86a2.838 2.838 0 01-2.838-2.837v-59.749a2.84 2.84 0 012.838-2.838h116.86a2.839 2.839 0 012.837 2.838v19.394a2.838 2.838 0 01-2.837 2.837c-4.215 0-7.643 3.428-7.643 7.642s3.428 7.649 7.643 7.649a2.839 2.839 0 012.837 2.837v19.394a2.838 2.838 0 01-2.837 2.833zm-114.023-5.676h111.185v-14.019c-5.984-1.305-10.48-6.646-10.48-13.024 0-6.371 4.496-11.712 10.48-13.017v-14.019H242.534v54.079z"/><path fill="#7D7D7D" stroke="#FFF" stroke-width="4" stroke-miterlimit="10" d="M317.054 407.222a2.84 2.84 0 01-2.838-2.838v-5.676a2.839 2.839 0 015.677 0v5.676a2.844 2.844 0 01-2.839 2.838zM317.054 420.376a2.84 2.84 0 01-2.838-2.837v-5.676a2.84 2.84 0 015.677 0v5.676a2.844 2.844 0 01-2.839 2.837zM317.054 433.53a2.84 2.84 0 01-2.838-2.838v-5.676a2.839 2.839 0 015.677 0v5.676a2.844 2.844 0 01-2.839 2.838zM317.054 446.685a2.84 2.84 0 01-2.838-2.839v-5.676a2.84 2.84 0 015.677 0v5.676a2.845 2.845 0 01-2.839 2.839z"/><g><path fill="#7D7D7D" stroke="#FFF" stroke-width="2" stroke-miterlimit="10" d="M269.929 400.71c-3.945 0-7.153-2.643-7.153-5.889 0-3.252 3.207-5.896 7.153-5.896l1.808-.016c1.461 0 5.345 0 5.345 3.797-.001 3.149-3.072 8.004-7.153 8.004zm1.808-8.066l-1.808.014c-2.018 0-3.42 1.14-3.42 2.164 0 1.018 1.402 2.155 3.42 2.155 1.591 0 3.383-2.728 3.42-4.224-.222-.055-.683-.109-1.612-.109z"/><path fill="#7D7D7D" stroke="#FFF" stroke-width="2" stroke-miterlimit="10" d="M286.829 398.644c-12.01 0-13.399-7.236-13.453-7.545a1.864 1.864 0 01.736-1.822 1.841 1.841 0 011.958-.152l11.61 5.996a1.86 1.86 0 01.959 2.096 1.86 1.86 0 01-1.81 1.427z"/><path fill="#7D7D7D" stroke="#FFF" stroke-width="2" stroke-miterlimit="10" d="M271.737 392.646h0l-1.808-.016c-3.945 0-7.153-2.642-7.153-5.895 0-3.248 3.207-5.89 7.153-5.89 4.081 0 7.153 4.853 7.153 8.005 0 1.564-.748 2.747-2.107 3.332-.898.386-1.944.464-3.238.464zm-1.808-8.067c-2.018 0-3.42 1.137-3.42 2.156 0 1.021 1.402 2.162 3.42 2.162l1.808.016h0c.915 0 1.372-.053 1.597-.109-.105-1.623-1.851-4.225-3.405-4.225z"/><path fill="#7D7D7D" stroke="#FFF" stroke-width="2" stroke-miterlimit="10" d="M275.215 392.646a1.867 1.867 0 01-1.839-2.183c.054-.311 1.443-7.549 13.453-7.549.858 0 1.609.59 1.811 1.428a1.866 1.866 0 01-.955 2.098l-11.61 5.997c-.273.14-.566.209-.86.209z"/></g></svg>