<?xml version="1.0" encoding="utf-8"?>
<!-- Generator: Adobe Illustrator 16.0.0, SVG Export Plug-In . SVG Version: 6.00 Build 0)  -->
<!DOCTYPE svg PUBLIC "-//W3C//DTD SVG 1.1//EN" "http://www.w3.org/Graphics/SVG/1.1/DTD/svg11.dtd">
<svg version="1.1" id="Elements" xmlns="http://www.w3.org/2000/svg" xmlns:xlink="http://www.w3.org/1999/xlink" x="0px" y="0px"
	 width="379px" height="41.334px" viewBox="0 0 379 41.334" enable-background="new 0 0 379 41.334" xml:space="preserve">
<radialGradient id="SVGID_1_" cx="152.1641" cy="27.6953" r="109.4275" gradientTransform="matrix(1 0 0 0.7449 0 -0.1274)" gradientUnits="userSpaceOnUse">
	<stop  offset="0" style="stop-color:#4D4D4D"/>
	<stop  offset="0.1899" style="stop-color:#474747"/>
	<stop  offset="1" style="stop-color:#333333"/>
</radialGradient>
<path fill="url(#SVGID_1_)" d="M276.707,25.91l-0.379-1.955l1.375,1.018L276.707,25.91z M261.393,17.923l-0.775-0.039l0.514,0.435
	L261.393,17.923z M282.057,28.04l-0.324,1.184l1.139-0.582L282.057,28.04z M267.6,18.567l0.451,1.286l1.307-1.055l-0.91-0.673
	L267.6,18.567z M300.055,41.506L300.055,41.506L0,41.245V0.29h244.334l1.68,1.242l0.287,0.546l0.068-0.283l1.549,1.145l-0.039,0.113
	L248,3.001l4.93,3.646l-0.141,0.025l0.082,4.436l1.598-3.323l1.77,1.31l-0.004,2.106l1.457-1.03l3.451,2.551
	c-0.232,0.157-0.27,0.421-0.074,0.608c0.205,0.199,0.59,0.236,0.859,0.084c0.027-0.016,0.053-0.034,0.078-0.054l2.477,1.832
	l-1.68,0.896l1.129,0.424l0.689-1.216l0.195,0.145l-2.021,2.501l3.631-1.312l0.055,0.041l-1.551,1.503l-0.113-0.183l-1.248,1.568
	l1.414-0.247l2.066,1.325l-5.221,1.566l1.441,0.479l-0.826,0.071l0.709,1.6l-1.607-0.551l0.313,1.314l2.822-0.24l-0.951-0.326
	l1.309-1.281l1.172,0.391l0.582-1.911l2.74,0.834l0.68-3.155l2.309,1.708l-0.254,1.312l0.916-0.82l1.316,0.973l-3.512,0.114
	l1.963,2.194l1.545-0.945l1.752,2.381l-0.555,0.521l0.705,0.171l-0.51,0.627l1.051-0.377l0.035-0.013l0.166-0.06l1.16,0.279
	l0.08-0.725l1.18-0.425l0.471,0.348l-0.119,0.362l-0.936,0.196l0.525,1.071l-0.07,0.216l0.141-0.072l0.434,0.885l-2.713,1.389
	l3.369-0.054l0.092,0.189l-0.76,0.572l2.027,0.464l0.391-1.254l2.049-0.034l0.957,2.972l0.428-2.602l2.404,1.777l-2.197,1.051
	l3.887,1.652l0.639-0.98l4.352,3.219l-1.719,0.516l4.381,1.456l0.002-0.001L300.055,41.506z M245.811,4.681l-0.598-2.647
	l-0.951,0.647L245.811,4.681z M259.898,17.847l0.42,0.021l-0.535,1.401l0.725,0.292l-0.164,0.501l2.035,0.251l2.105,0.846
	l-3.262-2.763l0.678,0.246l0.387-0.587l-0.381-0.139l1.367-3.382L259.898,17.847z M260.523,21.604
	c-0.27-0.105-0.604-0.029-0.748,0.17c-0.143,0.2-0.039,0.447,0.23,0.553s0.604,0.029,0.746-0.17
	C260.896,21.956,260.793,21.709,260.523,21.604z M258.244,14.77l1.49,1.425l0.994-2.329L258.244,14.77z M255.541,12.171l0.137,0.977
	l2.229-0.292L255.541,12.171z M256.373,14.279c-0.242-0.026-0.469,0.098-0.504,0.276c-0.035,0.18,0.133,0.346,0.375,0.373
	c0.242,0.025,0.467-0.098,0.502-0.277C256.783,14.473,256.615,14.306,256.373,14.279z M255.234,16.711l0.105,4.357l4.129-4.606
	L255.234,16.711z M253.828,24.037l5.707,0.381l-1.002-0.929l1.887-0.059l-1.09-1.063l-1.309,0.648l-1.482-1.376L253.828,24.037z
	 M248.861,4.166l-1.896,0.432l1.227,2.333L248.861,4.166z M251.822,14.544l1.242,3.851l0.75-4.573L251.822,14.544z M254.885,29.527
	l-0.742-0.76l-1.654,1.026L254.885,29.527z M256.35,26.18l-2.002-0.367l-0.076,1.341L256.35,26.18z M257.793,28.087l-0.525-0.525
	l-0.709,0.39l0.525,0.525L257.793,28.087z M258.078,30.324l3.918,1.211l2.604-3.909L258.078,30.324z M265.25,32.926l-0.402-1.785
	l0.121-0.366l-0.164,0.179l-0.152-0.674l-0.953,0.646l0.518,0.668l-2.746,2.991l2.221,0.032l0.861-2.591L265.25,32.926z
	 M266.223,28.334l-1.297,0.44l0.814,1.549L266.223,28.334z M268.301,32.411l-1.896,0.432l1.227,2.333L268.301,32.411z
	 M268.361,30.857l-0.697-0.588l-0.346,1.027L268.361,30.857z M268.477,24.03l-5.824,2.846l2.283,0.733L268.477,24.03z
	 M269.201,25.539l1.271-0.663l-1.803-0.043L269.201,25.539z M269.381,27.671l1.854,0.563l0.537-2.495L269.381,27.671z
	 M270.328,31.613l-0.508-0.064l-0.086,0.375l0.508,0.064L270.328,31.613z M270.902,30.552l0.141-0.925l-0.867,0.825L270.902,30.552z
	 M273.793,32.865l-0.16-1.815l-2.611,1.536L273.793,32.865z M273.965,27.49l-0.418-1.136l-0.707,1.628L273.965,27.49z
	 M274.18,30.276l3.555-0.193l-2.219-1.48L274.18,30.276z M276.744,32.343l-0.559-0.41l-0.875,0.753L276.744,32.343z M278.676,32.794
	l0.137,0.828l1.143-0.753L278.676,32.794z M277.555,31.251l0.396,0.282l0.381-0.293l-0.395-0.282L277.555,31.251z M280.83,34.126
	l-3.418-0.493l2.008,1.654l-0.906,0.685l1.5,0.188l0.098-0.305L280.83,34.126z M283.104,32.353l-1.623,2.602l1.365-0.147
	L283.104,32.353z M263.25,11.778l-0.654-1.122l-2.498,0.964L263.25,11.778z M258.588,8.841l0.746-0.904l-2.852-0.762l0.324,0.904
	L258.588,8.841z M260.566,9.166c0.047,0.223,0.33,0.375,0.631,0.339c0.303-0.035,0.506-0.246,0.459-0.469
	c-0.049-0.222-0.332-0.373-0.633-0.338C260.723,8.734,260.518,8.943,260.566,9.166z M254.896,7.416l1.248-1.352l-2.344-0.038
	L254.896,7.416z M291.363,12.157l4.402-0.136l-1.391-1.356L291.363,12.157z M302.34,6.64l-0.971-1.553l-1.588,2L302.34,6.64z
	 M303.146,12.315l1.182-3.887l-6.768,2.03L303.146,12.315z M301.309,1.324l-2.508,1.336l1.441,0.542L301.309,1.324z M287.344-0.231
	l-2.541,0.923l1.584,4.907L287.344-0.231z M298.148,5.168l-1.012-0.367l-0.496,0.749l1.01,0.367L298.148,5.168z M294.553,3.136
	l-5.396,0.317l0.133,5.555L294.553,3.136z M269.357,18.799l0.854,0.631l0.344-1.599L269.357,18.799z M297.959,32.794l-1.324,1.668
	l2.133-0.373L297.959,32.794z M301.484,39.475l-0.141-3.321l-3.311,1.816L301.484,39.475z M295.816,30.77l1.201,0.451l0.889-1.566
	L295.816,30.77z M276.135,22.963l0.715-0.438l-2.352,0.076l1.83,1.354L276.135,22.963z M294.857,33.485l0.414-0.624l-0.844-0.306
	l-0.414,0.624L294.857,33.485z M293.627,28.064l-4.367,3.398l2.99,1.351L293.627,28.064z M297.953,13.34l-2.318,3.208l5.154-2.242
	L297.953,13.34z M295.697,19.877l2.477,0.653l0.326-1.693L295.697,19.877z M295.625,27.854l3.213-2.324l-5.984-0.851L295.625,27.854
	z M295.818,23.175l1.785-0.899l-2.42,0.089L295.818,23.175z M291.373,14.9l-2.281,4.755l5.092-4.507L291.373,14.9z M293.307,23.809
	l-0.455-0.561l-0.758,0.336l0.455,0.56L293.307,23.809z M286.754,21.4l-2.74,3.792l5.621-2.445L286.754,21.4z M271.934,14.424
	l0.744,1.734l0.99-1.339L271.934,14.424z M280.486,15.914l-3.119-3.247l-1.813,3.712l-1.43-1.661l-2.539,0.901l3.887,0.926
	l-0.586,1.202L280.486,15.914z M268.82,14.219l0.033,0.927l3.439-2.567l-3.596-1.74l0.096,2.606l-0.119,0.816L268.82,14.219z
	 M269.818,16.708l0.82-0.244l-0.33-0.606l-0.818,0.244L269.818,16.708z M278.045,19.457l1.678,3.419l0.602-2.195l2.838,2.337
	l0.918-2.206l-3.646-0.526l0.479-1.743L278.045,19.457z M281.277,22.87l-0.65,1.755l1.813-0.726L281.277,22.87z M289.697,24.625
	l-4.854,2.725l1.811,0.214l-1.914-0.021l4.217,1.971l-0.102-1.689l1.031,0.122L289.697,24.625z M285.607,25.896l0.168-0.642
	l-0.867-0.125l-0.168,0.642L285.607,25.896z M246.645,1.079l0.969-1.578l-1.404,0.19l0.178,1.068L246.645,1.079z M248.922,2.611
	l-0.695-0.587l-0.309,0.916L248,3.001L248.922,2.611z M254.354,4.621l-0.16-1.815l-2.611,1.536L254.354,4.621z M251.604,1.382
	l-0.865,0.825l0.725,0.1L251.604,1.382z M250.889,3.368l-0.508-0.064l-0.086,0.375l0.508,0.064L250.889,3.368z M265.377,13.343
	l0.541-2.672l-1.809,0.453L265.377,13.343z M266.84,8.061c-0.193,0.108-0.23,0.313-0.082,0.455c0.146,0.143,0.424,0.17,0.615,0.061
	c0.193-0.109,0.23-0.313,0.082-0.455S267.031,7.95,266.84,8.061z M262.451,12.336l0.16,0.895c0.287-0.037,0.506-0.222,0.506-0.445
	c0-0.25-0.273-0.453-0.611-0.453C262.486,12.332,262.469,12.334,262.451,12.336z M283.715,10.442l-3.596-0.747l-2.342,2.88
	L283.715,10.442z M287.584,12.393l-8.016,4.103l10.098-0.164L287.584,12.393z M260.357,3.671l-1.715,1.758l2.236,2.051
	L260.357,3.671z M270.781,6.27l-1.803,2.205l3.75-1.109L270.781,6.27z M267.826,2.017l-4.484,0.073l1.924,5.474L267.826,2.017z
	 M288.701,9.919l-1.018-2.759l-1.721,3.955L288.701,9.919z M281.502,5l-1.154,2.65l1.834-0.802L281.502,5z M275.438,6.996
	l-2.305-0.055l0.68,0.902L275.438,6.996z M277.734,8.062l0.875-4.063l-3.891,3.144L277.734,8.062z"/>
<radialGradient id="SVGID_2_" cx="152.1641" cy="27.6953" r="109.4275" gradientTransform="matrix(1 0 0 0.7449 0 -0.1274)" gradientUnits="userSpaceOnUse">
	<stop  offset="0" style="stop-color:#4D4D4D"/>
	<stop  offset="0.1899" style="stop-color:#474747"/>
	<stop  offset="1" style="stop-color:#333333"/>
</radialGradient>
<path fill="url(#SVGID_2_)" d="M276.707,25.91l-0.379-1.955l1.375,1.018L276.707,25.91z M261.393,17.923l-0.775-0.039l0.514,0.435
	L261.393,17.923z M282.057,28.04l-0.324,1.184l1.139-0.582L282.057,28.04z M267.6,18.567l0.451,1.286l1.307-1.055l-0.91-0.673
	L267.6,18.567z M300.055,41.506L300.055,41.506L0,41.245V0.29h244.334l1.68,1.242l0.287,0.546l0.068-0.283l1.549,1.145l-0.039,0.113
	L248,3.001l4.93,3.646l-0.141,0.025l0.082,4.436l1.598-3.323l1.77,1.31l-0.004,2.106l1.457-1.03l3.451,2.551
	c-0.232,0.157-0.27,0.421-0.074,0.608c0.205,0.199,0.59,0.236,0.859,0.084c0.027-0.016,0.053-0.034,0.078-0.054l2.477,1.832
	l-1.68,0.896l1.129,0.424l0.689-1.216l0.195,0.145l-2.021,2.501l3.631-1.312l0.055,0.041l-1.551,1.503l-0.113-0.183l-1.248,1.568
	l1.414-0.247l2.066,1.325l-5.221,1.566l1.441,0.479l-0.826,0.071l0.709,1.6l-1.607-0.551l0.313,1.314l2.822-0.24l-0.951-0.326
	l1.309-1.281l1.172,0.391l0.582-1.911l2.74,0.834l0.68-3.155l2.309,1.708l-0.254,1.312l0.916-0.82l1.316,0.973l-3.512,0.114
	l1.963,2.194l1.545-0.945l1.752,2.381l-0.555,0.521l0.705,0.171l-0.51,0.627l1.051-0.377l0.035-0.013l0.166-0.06l1.16,0.279
	l0.08-0.725l1.18-0.425l0.471,0.348l-0.119,0.362l-0.936,0.196l0.525,1.071l-0.07,0.216l0.141-0.072l0.434,0.885l-2.713,1.389
	l3.369-0.054l0.092,0.189l-0.76,0.572l2.027,0.464l0.391-1.254l2.049-0.034l0.957,2.972l0.428-2.602l2.404,1.777l-2.197,1.051
	l3.887,1.652l0.639-0.98l4.352,3.219l-1.719,0.516l4.381,1.456l0.002-0.001L300.055,41.506z M245.811,4.681l-0.598-2.647
	l-0.951,0.647L245.811,4.681z M259.898,17.847l0.42,0.021l-0.535,1.401l0.725,0.292l-0.164,0.501l2.035,0.251l2.105,0.846
	l-3.262-2.763l0.678,0.246l0.387-0.587l-0.381-0.139l1.367-3.382L259.898,17.847z M260.523,21.604
	c-0.27-0.105-0.604-0.029-0.748,0.17c-0.143,0.2-0.039,0.447,0.23,0.553s0.604,0.029,0.746-0.17
	C260.896,21.956,260.793,21.709,260.523,21.604z M258.244,14.77l1.49,1.425l0.994-2.329L258.244,14.77z M255.541,12.171l0.137,0.977
	l2.229-0.292L255.541,12.171z M256.373,14.279c-0.242-0.026-0.469,0.098-0.504,0.276c-0.035,0.18,0.133,0.346,0.375,0.373
	c0.242,0.025,0.467-0.098,0.502-0.277C256.783,14.473,256.615,14.306,256.373,14.279z M255.234,16.711l0.105,4.357l4.129-4.606
	L255.234,16.711z M253.828,24.037l5.707,0.381l-1.002-0.929l1.887-0.059l-1.09-1.063l-1.309,0.648l-1.482-1.376L253.828,24.037z
	 M248.861,4.166l-1.896,0.432l1.227,2.333L248.861,4.166z M251.822,14.544l1.242,3.851l0.75-4.573L251.822,14.544z M254.885,29.527
	l-0.742-0.76l-1.654,1.026L254.885,29.527z M256.35,26.18l-2.002-0.367l-0.076,1.341L256.35,26.18z M257.793,28.087l-0.525-0.525
	l-0.709,0.39l0.525,0.525L257.793,28.087z M258.078,30.324l3.918,1.211l2.604-3.909L258.078,30.324z M265.25,32.926l-0.402-1.785
	l0.121-0.366l-0.164,0.179l-0.152-0.674l-0.953,0.646l0.518,0.668l-2.746,2.991l2.221,0.032l0.861-2.591L265.25,32.926z
	 M266.223,28.334l-1.297,0.44l0.814,1.549L266.223,28.334z M268.301,32.411l-1.896,0.432l1.227,2.333L268.301,32.411z
	 M268.361,30.857l-0.697-0.588l-0.346,1.027L268.361,30.857z M268.477,24.03l-5.824,2.846l2.283,0.733L268.477,24.03z
	 M269.201,25.539l1.271-0.663l-1.803-0.043L269.201,25.539z M269.381,27.671l1.854,0.563l0.537-2.495L269.381,27.671z
	 M270.328,31.613l-0.508-0.064l-0.086,0.375l0.508,0.064L270.328,31.613z M270.902,30.552l0.141-0.925l-0.867,0.825L270.902,30.552z
	 M273.793,32.865l-0.16-1.815l-2.611,1.536L273.793,32.865z M273.965,27.49l-0.418-1.136l-0.707,1.628L273.965,27.49z
	 M274.18,30.276l3.555-0.193l-2.219-1.48L274.18,30.276z M276.744,32.343l-0.559-0.41l-0.875,0.753L276.744,32.343z M278.676,32.794
	l0.137,0.828l1.143-0.753L278.676,32.794z M277.555,31.251l0.396,0.282l0.381-0.293l-0.395-0.282L277.555,31.251z M280.83,34.126
	l-3.418-0.493l2.008,1.654l-0.906,0.685l1.5,0.188l0.098-0.305L280.83,34.126z M283.104,32.353l-1.623,2.602l1.365-0.147
	L283.104,32.353z M263.25,11.778l-0.654-1.122l-2.498,0.964L263.25,11.778z M258.588,8.841l0.746-0.904l-2.852-0.762l0.324,0.904
	L258.588,8.841z M260.566,9.166c0.047,0.223,0.33,0.375,0.631,0.339c0.303-0.035,0.506-0.246,0.459-0.469
	c-0.049-0.222-0.332-0.373-0.633-0.338C260.723,8.734,260.518,8.943,260.566,9.166z M254.896,7.416l1.248-1.352l-2.344-0.038
	L254.896,7.416z M291.363,12.157l4.402-0.136l-1.391-1.356L291.363,12.157z M302.34,6.64l-0.971-1.553l-1.588,2L302.34,6.64z
	 M303.146,12.315l1.182-3.887l-6.768,2.03L303.146,12.315z M301.309,1.324l-2.508,1.336l1.441,0.542L301.309,1.324z M287.344-0.231
	l-2.541,0.923l1.584,4.907L287.344-0.231z M298.148,5.168l-1.012-0.367l-0.496,0.749l1.01,0.367L298.148,5.168z M294.553,3.136
	l-5.396,0.317l0.133,5.555L294.553,3.136z M269.357,18.799l0.854,0.631l0.344-1.599L269.357,18.799z M297.959,32.794l-1.324,1.668
	l2.133-0.373L297.959,32.794z M301.484,39.475l-0.141-3.321l-3.311,1.816L301.484,39.475z M295.816,30.77l1.201,0.451l0.889-1.566
	L295.816,30.77z M276.135,22.963l0.715-0.438l-2.352,0.076l1.83,1.354L276.135,22.963z M294.857,33.485l0.414-0.624l-0.844-0.306
	l-0.414,0.624L294.857,33.485z M293.627,28.064l-4.367,3.398l2.99,1.351L293.627,28.064z M297.953,13.34l-2.318,3.208l5.154-2.242
	L297.953,13.34z M295.697,19.877l2.477,0.653l0.326-1.693L295.697,19.877z M295.625,27.854l3.213-2.324l-5.984-0.851L295.625,27.854
	z M295.818,23.175l1.785-0.899l-2.42,0.089L295.818,23.175z M291.373,14.9l-2.281,4.755l5.092-4.507L291.373,14.9z M293.307,23.809
	l-0.455-0.561l-0.758,0.336l0.455,0.56L293.307,23.809z M286.754,21.4l-2.74,3.792l5.621-2.445L286.754,21.4z M271.934,14.424
	l0.744,1.734l0.99-1.339L271.934,14.424z M280.486,15.914l-3.119-3.247l-1.813,3.712l-1.43-1.661l-2.539,0.901l3.887,0.926
	l-0.586,1.202L280.486,15.914z M268.82,14.219l0.033,0.927l3.439-2.567l-3.596-1.74l0.096,2.606l-0.119,0.816L268.82,14.219z
	 M269.818,16.708l0.82-0.244l-0.33-0.606l-0.818,0.244L269.818,16.708z M278.045,19.457l1.678,3.419l0.602-2.195l2.838,2.337
	l0.918-2.206l-3.646-0.526l0.479-1.743L278.045,19.457z M281.277,22.87l-0.65,1.755l1.813-0.726L281.277,22.87z M289.697,24.625
	l-4.854,2.725l1.811,0.214l-1.914-0.021l4.217,1.971l-0.102-1.689l1.031,0.122L289.697,24.625z M285.607,25.896l0.168-0.642
	l-0.867-0.125l-0.168,0.642L285.607,25.896z M246.645,1.079l0.969-1.578l-1.404,0.19l0.178,1.068L246.645,1.079z M248.922,2.611
	l-0.695-0.587l-0.309,0.916L248,3.001L248.922,2.611z M254.354,4.621l-0.16-1.815l-2.611,1.536L254.354,4.621z M251.604,1.382
	l-0.865,0.825l0.725,0.1L251.604,1.382z M250.889,3.368l-0.508-0.064l-0.086,0.375l0.508,0.064L250.889,3.368z M265.377,13.343
	l0.541-2.672l-1.809,0.453L265.377,13.343z M266.84,8.061c-0.193,0.108-0.23,0.313-0.082,0.455c0.146,0.143,0.424,0.17,0.615,0.061
	c0.193-0.109,0.23-0.313,0.082-0.455S267.031,7.95,266.84,8.061z M262.451,12.336l0.16,0.895c0.287-0.037,0.506-0.222,0.506-0.445
	c0-0.25-0.273-0.453-0.611-0.453C262.486,12.332,262.469,12.334,262.451,12.336z M283.715,10.442l-3.596-0.747l-2.342,2.88
	L283.715,10.442z M287.584,12.393l-8.016,4.103l10.098-0.164L287.584,12.393z M260.357,3.671l-1.715,1.758l2.236,2.051
	L260.357,3.671z M270.781,6.27l-1.803,2.205l3.75-1.109L270.781,6.27z M267.826,2.017l-4.484,0.073l1.924,5.474L267.826,2.017z
	 M288.701,9.919l-1.018-2.759l-1.721,3.955L288.701,9.919z M281.502,5l-1.154,2.65l1.834-0.802L281.502,5z M275.438,6.996
	l-2.305-0.055l0.68,0.902L275.438,6.996z M277.734,8.062l0.875-4.063l-3.891,3.144L277.734,8.062z"/>
<text transform="matrix(1 0 0 1 20.7544 31.2529)" fill="#FFFFFF" id="title_item" font-size="28.5646"></text>
</svg>
