<svg xmlns="http://www.w3.org/2000/svg" width="141.732" height="141.732" viewBox="226.774 350.079 141.732 141.732"><g fill="#7D7D7D" stroke="#FFF" stroke-miterlimit="10"><path d="M259.032 389.476c-.166 0-.333-.027-.499-.087a1.456 1.456 0 01-.864-1.862c2.235-6.104 4.875-8.152 9.583-10.2a.608.608 0 01.126-.047l12.103-3.983a1.454 1.454 0 011.835.925 1.457 1.457 0 01-.925 1.835l-12.042 3.964c-3.909 1.701-5.978 3.118-7.953 8.511a1.458 1.458 0 01-1.364.944zM300.665 469.279h-26.113c-5.652 0-10.246-4.854-10.246-10.819v-58.903c0-.805.651-1.449 1.449-1.449.805 0 1.45.651 1.45 1.449v58.903c0 4.361 3.292 7.913 7.348 7.913h26.113c.805 0 1.45.65 1.45 1.449s-.653 1.457-1.451 1.457z"/><path d="M250.361 419.825c-.133 0-.266-.021-.399-.054a1.454 1.454 0 01-.998-1.795l8.671-30.35a1.452 1.452 0 012.794.798l-8.671 30.35a1.458 1.458 0 01-1.397 1.051z"/><path d="M265.203 423.528a1.68 1.68 0 01-.346-.038l-14.476-3.513a1.455 1.455 0 01-1.071-1.755 1.455 1.455 0 011.756-1.071l14.476 3.512a1.454 1.454 0 011.07 1.756 1.446 1.446 0 01-1.409 1.109zM336.247 389.476a1.455 1.455 0 01-1.376-.991c-1.582-4.762-3.724-7.049-7.88-8.452l-12.068-3.983a1.454 1.454 0 01-.925-1.835 1.46 1.46 0 011.835-.925l12.076 3.983c5.033 1.695 7.847 4.675 9.722 10.287a1.454 1.454 0 01-.918 1.836c-.159.06-.312.08-.466.08zM320.728 469.279h-21.711a1.448 1.448 0 110-2.899h21.711c4.05 0 7.348-3.552 7.348-7.913v-58.903c0-.805.651-1.449 1.449-1.449.805 0 1.45.651 1.45 1.449v58.903c0 5.957-4.595 10.812-10.247 10.812z"/><path d="M344.919 419.825c-.632 0-1.21-.412-1.396-1.051l-8.671-30.35a1.452 1.452 0 112.793-.798l8.671 30.35a1.453 1.453 0 01-.997 1.795 1.667 1.667 0 01-.4.054z"/><path d="M330.076 423.528a1.453 1.453 0 01-.338-2.865l14.476-3.512a1.462 1.462 0 011.756 1.071 1.455 1.455 0 01-1.071 1.755l-14.476 3.513a1.675 1.675 0 01-.347.038zM298.172 382.912c-6.397 0-13.006-2.407-18.319-7.234a1.45 1.45 0 011.947-2.149c9.502 8.632 23.607 8.651 31.44.034a1.45 1.45 0 112.148 1.948c-4.476 4.934-10.739 7.401-17.216 7.401z"/><path d="M297.401 392.308c-10.061 0-18.247-8.186-18.247-18.247 0-.805.652-1.449 1.45-1.449.804 0 1.449.651 1.449 1.449 0 8.465 6.883 15.348 15.348 15.348 8.464 0 15.347-6.883 15.347-15.348 0-.805.651-1.449 1.45-1.449.804 0 1.448.651 1.448 1.449.001 10.055-8.185 18.247-18.245 18.247z"/></g></svg>